<?xml version="1.0" encoding="utf-8" standalone="no"?>
<!DOCTYPE svg PUBLIC "-//W3C//DTD SVG 1.1//EN"
  "http://www.w3.org/Graphics/SVG/1.1/DTD/svg11.dtd">
<svg xmlns:xlink="http://www.w3.org/1999/xlink" width="720pt" height="432pt" viewBox="0 0 720 432" xmlns="http://www.w3.org/2000/svg" version="1.1">
 <metadata>
  <rdf:RDF xmlns:dc="http://purl.org/dc/elements/1.1/" xmlns:cc="http://creativecommons.org/ns#" xmlns:rdf="http://www.w3.org/1999/02/22-rdf-syntax-ns#">
   <cc:Work>
    <dc:type rdf:resource="http://purl.org/dc/dcmitype/StillImage"/>
    <dc:date>2024-06-15T11:20:22.802187</dc:date>
    <dc:format>image/svg+xml</dc:format>
    <dc:creator>
     <cc:Agent>
      <dc:title>Matplotlib v3.5.3, https://matplotlib.org/</dc:title>
     </cc:Agent>
    </dc:creator>
   </cc:Work>
  </rdf:RDF>
 </metadata>
 <defs>
  <style type="text/css">*{stroke-linejoin: round; stroke-linecap: butt}</style>
 </defs>
 <g id="figure_1">
  <g id="patch_1">
   <path d="M 0 432 
L 720 432 
L 720 0 
L 0 0 
L 0 432 
z
" style="fill: none"/>
  </g>
  <g id="axes_1">
   <g id="patch_2">
    <path d="M 10.8 210.6 
L 709.2 210.6 
L 709.2 10.8 
L 10.8 10.8 
L 10.8 210.6 
z
" style="fill: none"/>
   </g>
   <g id="matplotlib.axis_1"/>
   <g id="matplotlib.axis_2"/>
   <g id="EventCollection_1">
    <path d="M 50.229843 65.290909 
L 50.229843 156.109091 
" clip-path="url(#p35b138a445)" style="fill: none; stroke: #ff0000; stroke-width: 1.5"/>
    <path d="M 65.910462 65.290909 
L 65.910462 156.109091 
" clip-path="url(#p35b138a445)" style="fill: none; stroke: #ff0000; stroke-width: 1.5"/>
    <path d="M 78.09618 65.290909 
L 78.09618 156.109091 
" clip-path="url(#p35b138a445)" style="fill: none; stroke: #ff0000; stroke-width: 1.5"/>
    <path d="M 80.999518 65.290909 
L 80.999518 156.109091 
" clip-path="url(#p35b138a445)" style="fill: none; stroke: #ff0000; stroke-width: 1.5"/>
    <path d="M 97.723425 65.290909 
L 97.723425 156.109091 
" clip-path="url(#p35b138a445)" style="fill: none; stroke: #ff0000; stroke-width: 1.5"/>
    <path d="M 117.009463 65.290909 
L 117.009463 156.109091 
" clip-path="url(#p35b138a445)" style="fill: none; stroke: #ff0000; stroke-width: 1.5"/>
    <path d="M 133.811631 65.290909 
L 133.811631 156.109091 
" clip-path="url(#p35b138a445)" style="fill: none; stroke: #ff0000; stroke-width: 1.5"/>
    <path d="M 135.518697 65.290909 
L 135.518697 156.109091 
" clip-path="url(#p35b138a445)" style="fill: none; stroke: #ff0000; stroke-width: 1.5"/>
    <path d="M 137.046407 65.290909 
L 137.046407 156.109091 
" clip-path="url(#p35b138a445)" style="fill: none; stroke: #ff0000; stroke-width: 1.5"/>
    <path d="M 139.52988 65.290909 
L 139.52988 156.109091 
" clip-path="url(#p35b138a445)" style="fill: none; stroke: #ff0000; stroke-width: 1.5"/>
    <path d="M 142.349693 65.290909 
L 142.349693 156.109091 
" clip-path="url(#p35b138a445)" style="fill: none; stroke: #ff0000; stroke-width: 1.5"/>
    <path d="M 142.590271 65.290909 
L 142.590271 156.109091 
" clip-path="url(#p35b138a445)" style="fill: none; stroke: #ff0000; stroke-width: 1.5"/>
    <path d="M 151.476585 65.290909 
L 151.476585 156.109091 
" clip-path="url(#p35b138a445)" style="fill: none; stroke: #ff0000; stroke-width: 1.5"/>
    <path d="M 152.558357 65.290909 
L 152.558357 156.109091 
" clip-path="url(#p35b138a445)" style="fill: none; stroke: #ff0000; stroke-width: 1.5"/>
    <path d="M 161.795256 65.290909 
L 161.795256 156.109091 
" clip-path="url(#p35b138a445)" style="fill: none; stroke: #ff0000; stroke-width: 1.5"/>
    <path d="M 163.559722 65.290909 
L 163.559722 156.109091 
" clip-path="url(#p35b138a445)" style="fill: none; stroke: #ff0000; stroke-width: 1.5"/>
    <path d="M 165.194218 65.290909 
L 165.194218 156.109091 
" clip-path="url(#p35b138a445)" style="fill: none; stroke: #ff0000; stroke-width: 1.5"/>
    <path d="M 181.447744 65.290909 
L 181.447744 156.109091 
" clip-path="url(#p35b138a445)" style="fill: none; stroke: #ff0000; stroke-width: 1.5"/>
    <path d="M 189.447126 65.290909 
L 189.447126 156.109091 
" clip-path="url(#p35b138a445)" style="fill: none; stroke: #ff0000; stroke-width: 1.5"/>
    <path d="M 201.637037 65.290909 
L 201.637037 156.109091 
" clip-path="url(#p35b138a445)" style="fill: none; stroke: #ff0000; stroke-width: 1.5"/>
    <path d="M 205.437527 65.290909 
L 205.437527 156.109091 
" clip-path="url(#p35b138a445)" style="fill: none; stroke: #ff0000; stroke-width: 1.5"/>
    <path d="M 205.637803 65.290909 
L 205.637803 156.109091 
" clip-path="url(#p35b138a445)" style="fill: none; stroke: #ff0000; stroke-width: 1.5"/>
    <path d="M 210.242287 65.290909 
L 210.242287 156.109091 
" clip-path="url(#p35b138a445)" style="fill: none; stroke: #ff0000; stroke-width: 1.5"/>
    <path d="M 223.655499 65.290909 
L 223.655499 156.109091 
" clip-path="url(#p35b138a445)" style="fill: none; stroke: #ff0000; stroke-width: 1.5"/>
    <path d="M 229.325678 65.290909 
L 229.325678 156.109091 
" clip-path="url(#p35b138a445)" style="fill: none; stroke: #ff0000; stroke-width: 1.5"/>
    <path d="M 232.617043 65.290909 
L 232.617043 156.109091 
" clip-path="url(#p35b138a445)" style="fill: none; stroke: #ff0000; stroke-width: 1.5"/>
    <path d="M 245.412362 65.290909 
L 245.412362 156.109091 
" clip-path="url(#p35b138a445)" style="fill: none; stroke: #ff0000; stroke-width: 1.5"/>
    <path d="M 254.381325 65.290909 
L 254.381325 156.109091 
" clip-path="url(#p35b138a445)" style="fill: none; stroke: #ff0000; stroke-width: 1.5"/>
    <path d="M 263.406441 65.290909 
L 263.406441 156.109091 
" clip-path="url(#p35b138a445)" style="fill: none; stroke: #ff0000; stroke-width: 1.5"/>
    <path d="M 266.738503 65.290909 
L 266.738503 156.109091 
" clip-path="url(#p35b138a445)" style="fill: none; stroke: #ff0000; stroke-width: 1.5"/>
    <path d="M 270.461101 65.290909 
L 270.461101 156.109091 
" clip-path="url(#p35b138a445)" style="fill: none; stroke: #ff0000; stroke-width: 1.5"/>
    <path d="M 282.850722 65.290909 
L 282.850722 156.109091 
" clip-path="url(#p35b138a445)" style="fill: none; stroke: #ff0000; stroke-width: 1.5"/>
    <path d="M 297.978966 65.290909 
L 297.978966 156.109091 
" clip-path="url(#p35b138a445)" style="fill: none; stroke: #ff0000; stroke-width: 1.5"/>
    <path d="M 300.289816 65.290909 
L 300.289816 156.109091 
" clip-path="url(#p35b138a445)" style="fill: none; stroke: #ff0000; stroke-width: 1.5"/>
    <path d="M 405.451464 65.290909 
L 405.451464 156.109091 
" clip-path="url(#p35b138a445)" style="fill: none; stroke: #ff0000; stroke-width: 1.5"/>
    <path d="M 409.512292 65.290909 
L 409.512292 156.109091 
" clip-path="url(#p35b138a445)" style="fill: none; stroke: #ff0000; stroke-width: 1.5"/>
    <path d="M 424.450291 65.290909 
L 424.450291 156.109091 
" clip-path="url(#p35b138a445)" style="fill: none; stroke: #ff0000; stroke-width: 1.5"/>
    <path d="M 430.664352 65.290909 
L 430.664352 156.109091 
" clip-path="url(#p35b138a445)" style="fill: none; stroke: #ff0000; stroke-width: 1.5"/>
    <path d="M 441.013479 65.290909 
L 441.013479 156.109091 
" clip-path="url(#p35b138a445)" style="fill: none; stroke: #ff0000; stroke-width: 1.5"/>
    <path d="M 445.736436 65.290909 
L 445.736436 156.109091 
" clip-path="url(#p35b138a445)" style="fill: none; stroke: #ff0000; stroke-width: 1.5"/>
    <path d="M 452.566806 65.290909 
L 452.566806 156.109091 
" clip-path="url(#p35b138a445)" style="fill: none; stroke: #ff0000; stroke-width: 1.5"/>
    <path d="M 454.250951 65.290909 
L 454.250951 156.109091 
" clip-path="url(#p35b138a445)" style="fill: none; stroke: #ff0000; stroke-width: 1.5"/>
    <path d="M 459.064534 65.290909 
L 459.064534 156.109091 
" clip-path="url(#p35b138a445)" style="fill: none; stroke: #ff0000; stroke-width: 1.5"/>
    <path d="M 461.776185 65.290909 
L 461.776185 156.109091 
" clip-path="url(#p35b138a445)" style="fill: none; stroke: #ff0000; stroke-width: 1.5"/>
    <path d="M 462.317403 65.290909 
L 462.317403 156.109091 
" clip-path="url(#p35b138a445)" style="fill: none; stroke: #ff0000; stroke-width: 1.5"/>
    <path d="M 465.903129 65.290909 
L 465.903129 156.109091 
" clip-path="url(#p35b138a445)" style="fill: none; stroke: #ff0000; stroke-width: 1.5"/>
    <path d="M 472.062522 65.290909 
L 472.062522 156.109091 
" clip-path="url(#p35b138a445)" style="fill: none; stroke: #ff0000; stroke-width: 1.5"/>
    <path d="M 477.535763 65.290909 
L 477.535763 156.109091 
" clip-path="url(#p35b138a445)" style="fill: none; stroke: #ff0000; stroke-width: 1.5"/>
    <path d="M 478.716424 65.290909 
L 478.716424 156.109091 
" clip-path="url(#p35b138a445)" style="fill: none; stroke: #ff0000; stroke-width: 1.5"/>
    <path d="M 480.418675 65.290909 
L 480.418675 156.109091 
" clip-path="url(#p35b138a445)" style="fill: none; stroke: #ff0000; stroke-width: 1.5"/>
    <path d="M 482.766051 65.290909 
L 482.766051 156.109091 
" clip-path="url(#p35b138a445)" style="fill: none; stroke: #ff0000; stroke-width: 1.5"/>
    <path d="M 483.090718 65.290909 
L 483.090718 156.109091 
" clip-path="url(#p35b138a445)" style="fill: none; stroke: #ff0000; stroke-width: 1.5"/>
    <path d="M 489.816818 65.290909 
L 489.816818 156.109091 
" clip-path="url(#p35b138a445)" style="fill: none; stroke: #ff0000; stroke-width: 1.5"/>
    <path d="M 495.790597 65.290909 
L 495.790597 156.109091 
" clip-path="url(#p35b138a445)" style="fill: none; stroke: #ff0000; stroke-width: 1.5"/>
    <path d="M 501.33219 65.290909 
L 501.33219 156.109091 
" clip-path="url(#p35b138a445)" style="fill: none; stroke: #ff0000; stroke-width: 1.5"/>
    <path d="M 510.00712 65.290909 
L 510.00712 156.109091 
" clip-path="url(#p35b138a445)" style="fill: none; stroke: #ff0000; stroke-width: 1.5"/>
    <path d="M 510.778861 65.290909 
L 510.778861 156.109091 
" clip-path="url(#p35b138a445)" style="fill: none; stroke: #ff0000; stroke-width: 1.5"/>
    <path d="M 515.45814 65.290909 
L 515.45814 156.109091 
" clip-path="url(#p35b138a445)" style="fill: none; stroke: #ff0000; stroke-width: 1.5"/>
    <path d="M 519.327751 65.290909 
L 519.327751 156.109091 
" clip-path="url(#p35b138a445)" style="fill: none; stroke: #ff0000; stroke-width: 1.5"/>
    <path d="M 522.181829 65.290909 
L 522.181829 156.109091 
" clip-path="url(#p35b138a445)" style="fill: none; stroke: #ff0000; stroke-width: 1.5"/>
    <path d="M 524.489299 65.290909 
L 524.489299 156.109091 
" clip-path="url(#p35b138a445)" style="fill: none; stroke: #ff0000; stroke-width: 1.5"/>
    <path d="M 527.665016 65.290909 
L 527.665016 156.109091 
" clip-path="url(#p35b138a445)" style="fill: none; stroke: #ff0000; stroke-width: 1.5"/>
    <path d="M 527.828706 65.290909 
L 527.828706 156.109091 
" clip-path="url(#p35b138a445)" style="fill: none; stroke: #ff0000; stroke-width: 1.5"/>
    <path d="M 528.404308 65.290909 
L 528.404308 156.109091 
" clip-path="url(#p35b138a445)" style="fill: none; stroke: #ff0000; stroke-width: 1.5"/>
    <path d="M 539.080099 65.290909 
L 539.080099 156.109091 
" clip-path="url(#p35b138a445)" style="fill: none; stroke: #ff0000; stroke-width: 1.5"/>
    <path d="M 542.503674 65.290909 
L 542.503674 156.109091 
" clip-path="url(#p35b138a445)" style="fill: none; stroke: #ff0000; stroke-width: 1.5"/>
    <path d="M 543.359755 65.290909 
L 543.359755 156.109091 
" clip-path="url(#p35b138a445)" style="fill: none; stroke: #ff0000; stroke-width: 1.5"/>
    <path d="M 557.076603 65.290909 
L 557.076603 156.109091 
" clip-path="url(#p35b138a445)" style="fill: none; stroke: #ff0000; stroke-width: 1.5"/>
    <path d="M 563.230718 65.290909 
L 563.230718 156.109091 
" clip-path="url(#p35b138a445)" style="fill: none; stroke: #ff0000; stroke-width: 1.5"/>
    <path d="M 575.1669 65.290909 
L 575.1669 156.109091 
" clip-path="url(#p35b138a445)" style="fill: none; stroke: #ff0000; stroke-width: 1.5"/>
    <path d="M 700.180406 65.290909 
L 700.180406 156.109091 
" clip-path="url(#p35b138a445)" style="fill: none; stroke: #ff0000; stroke-width: 1.5"/>
   </g>
  </g>
  <g id="axes_2">
   <g id="patch_3">
    <path d="M 10.8 421.2 
L 709.2 421.2 
L 709.2 221.4 
L 10.8 221.4 
L 10.8 421.2 
z
" style="fill: none"/>
   </g>
   <g id="matplotlib.axis_3"/>
   <g id="matplotlib.axis_4"/>
   <g id="line2d_1">
    <path d="M 10.8 412.118182 
L 11.498435 353.575745 
L 12.19687 310.837999 
L 12.895305 280.269709 
L 13.59374 259.046546 
L 14.292175 244.975379 
L 14.99061 236.354341 
L 15.689044 231.863861 
L 16.387479 230.481818 
L 17.085914 231.417471 
L 17.784349 234.060021 
L 18.482784 237.938564 
L 19.879654 248.039321 
L 22.673394 271.846541 
L 25.467133 295.090026 
L 27.562438 310.699238 
L 29.657743 324.499268 
L 31.753048 336.549505 
L 33.848352 347.002696 
L 35.943657 356.038317 
L 38.038962 363.833523 
L 40.134267 370.551505 
L 42.229571 376.337781 
L 44.324876 381.31999 
L 46.420181 385.609123 
L 48.515486 389.301241 
L 50.610791 392.479278 
L 52.706095 395.214735 
L 54.8014 397.56921 
L 56.896705 399.595747 
L 58.99201 401.340013 
L 61.087314 402.841322 
L 63.881054 404.522929 
L 66.674794 405.899714 
L 69.468533 407.02693 
L 72.960708 408.153111 
L 76.452883 409.030182 
L 80.643492 409.830535 
L 85.532537 410.506104 
L 91.120016 411.037574 
L 98.104365 411.46276 
L 107.184019 411.776022 
L 120.454283 411.985854 
L 143.502635 412.092768 
L 220.330477 412.118078 
L 709.234922 412.118182 
L 709.234922 412.118182 
" clip-path="url(#p9af82f81a8)" style="fill: none; stroke: #ff0000; stroke-width: 5; stroke-linecap: square"/>
   </g>
  </g>
 </g>
 <defs>
  <clipPath id="p35b138a445">
   <rect x="10.8" y="10.8" width="698.4" height="199.8"/>
  </clipPath>
  <clipPath id="p9af82f81a8">
   <rect x="10.8" y="221.4" width="698.4" height="199.8"/>
  </clipPath>
 </defs>
</svg>
