<?xml version="1.0" encoding="utf-8" standalone="no"?>
<!DOCTYPE svg PUBLIC "-//W3C//DTD SVG 1.1//EN"
  "http://www.w3.org/Graphics/SVG/1.1/DTD/svg11.dtd">
<svg xmlns:xlink="http://www.w3.org/1999/xlink" width="576pt" height="1080pt" viewBox="0 0 576 1080" xmlns="http://www.w3.org/2000/svg" version="1.1">
 <metadata>
  <rdf:RDF xmlns:dc="http://purl.org/dc/elements/1.1/" xmlns:cc="http://creativecommons.org/ns#" xmlns:rdf="http://www.w3.org/1999/02/22-rdf-syntax-ns#">
   <cc:Work>
    <dc:type rdf:resource="http://purl.org/dc/dcmitype/StillImage"/>
    <dc:date>2024-11-01T11:55:34.071127</dc:date>
    <dc:format>image/svg+xml</dc:format>
    <dc:creator>
     <cc:Agent>
      <dc:title>Matplotlib v3.5.3, https://matplotlib.org/</dc:title>
     </cc:Agent>
    </dc:creator>
   </cc:Work>
  </rdf:RDF>
 </metadata>
 <defs>
  <style type="text/css">*{stroke-linejoin: round; stroke-linecap: butt}</style>
 </defs>
 <g id="figure_1">
  <g id="patch_1">
   <path d="M 0 1080 
L 576 1080 
L 576 0 
L 0 0 
z
" style="fill: #ffffff"/>
  </g>
  <g id="axes_1">
   <g id="patch_2">
    <path d="M 122.216483 312.44 
L 543.6 312.44 
L 543.6 43.704 
L 122.216483 43.704 
z
" style="fill: #ffffff"/>
   </g>
   <g id="patch_3">
    <path d="M -183005.998858 312.44 
L -183005.998858 43.704 
L 254.400373 43.704 
L 254.400373 312.44 
z
" clip-path="url(#pc58d4b754c)" style="fill: #add8e6; opacity: 0.3; stroke: #add8e6; stroke-linejoin: miter"/>
   </g>
   <g id="patch_4">
    <path d="M 254.400373 312.44 
L 254.400373 43.704 
L 616.474044 43.704 
L 616.474044 312.44 
z
" clip-path="url(#pc58d4b754c)" style="fill: #ffa500; opacity: 0.3; stroke: #ffa500; stroke-linejoin: miter"/>
   </g>
   <g id="matplotlib.axis_1">
    <g id="xtick_1">
     <g id="line2d_1">
      <defs>
       <path id="mc2be2a5e04" d="M 0 0 
L 0 3.5 
" style="stroke: #000000; stroke-width: 0.8"/>
      </defs>
      <g>
       <use xlink:href="#mc2be2a5e04" x="122.216483" y="312.44" style="stroke: #000000; stroke-width: 0.8"/>
      </g>
     </g>
     <g id="text_1">
      <!-- $\mathdefault{10^{0}}$ -->
      <g transform="translate(95.816483 342.235312)scale(0.3 -0.3)">
       <defs>
        <path id="DejaVuSans-31" d="M 794 531 
L 1825 531 
L 1825 4091 
L 703 3866 
L 703 4441 
L 1819 4666 
L 2450 4666 
L 2450 531 
L 3481 531 
L 3481 0 
L 794 0 
L 794 531 
z
" transform="scale(0.015625)"/>
        <path id="DejaVuSans-30" d="M 2034 4250 
Q 1547 4250 1301 3770 
Q 1056 3291 1056 2328 
Q 1056 1369 1301 889 
Q 1547 409 2034 409 
Q 2525 409 2770 889 
Q 3016 1369 3016 2328 
Q 3016 3291 2770 3770 
Q 2525 4250 2034 4250 
z
M 2034 4750 
Q 2819 4750 3233 4129 
Q 3647 3509 3647 2328 
Q 3647 1150 3233 529 
Q 2819 -91 2034 -91 
Q 1250 -91 836 529 
Q 422 1150 422 2328 
Q 422 3509 836 4129 
Q 1250 4750 2034 4750 
z
" transform="scale(0.015625)"/>
       </defs>
       <use xlink:href="#DejaVuSans-31" transform="translate(0 0.765625)"/>
       <use xlink:href="#DejaVuSans-30" transform="translate(63.623047 0.765625)"/>
       <use xlink:href="#DejaVuSans-30" transform="translate(128.203125 39.046875)scale(0.7)"/>
      </g>
     </g>
    </g>
    <g id="xtick_2">
     <g id="line2d_2">
      <g>
       <use xlink:href="#mc2be2a5e04" x="305.344699" y="312.44" style="stroke: #000000; stroke-width: 0.8"/>
      </g>
     </g>
     <g id="text_2">
      <!-- $\mathdefault{10^{1}}$ -->
      <g transform="translate(278.944699 342.235312)scale(0.3 -0.3)">
       <use xlink:href="#DejaVuSans-31" transform="translate(0 0.684375)"/>
       <use xlink:href="#DejaVuSans-30" transform="translate(63.623047 0.684375)"/>
       <use xlink:href="#DejaVuSans-31" transform="translate(128.203125 38.965625)scale(0.7)"/>
      </g>
     </g>
    </g>
    <g id="xtick_3">
     <g id="line2d_3">
      <g>
       <use xlink:href="#mc2be2a5e04" x="488.472914" y="312.44" style="stroke: #000000; stroke-width: 0.8"/>
      </g>
     </g>
     <g id="text_3">
      <!-- $\mathdefault{10^{2}}$ -->
      <g transform="translate(462.072914 342.235312)scale(0.3 -0.3)">
       <defs>
        <path id="DejaVuSans-32" d="M 1228 531 
L 3431 531 
L 3431 0 
L 469 0 
L 469 531 
Q 828 903 1448 1529 
Q 2069 2156 2228 2338 
Q 2531 2678 2651 2914 
Q 2772 3150 2772 3378 
Q 2772 3750 2511 3984 
Q 2250 4219 1831 4219 
Q 1534 4219 1204 4116 
Q 875 4013 500 3803 
L 500 4441 
Q 881 4594 1212 4672 
Q 1544 4750 1819 4750 
Q 2544 4750 2975 4387 
Q 3406 4025 3406 3419 
Q 3406 3131 3298 2873 
Q 3191 2616 2906 2266 
Q 2828 2175 2409 1742 
Q 1991 1309 1228 531 
z
" transform="scale(0.015625)"/>
       </defs>
       <use xlink:href="#DejaVuSans-31" transform="translate(0 0.765625)"/>
       <use xlink:href="#DejaVuSans-30" transform="translate(63.623047 0.765625)"/>
       <use xlink:href="#DejaVuSans-32" transform="translate(128.203125 39.046875)scale(0.7)"/>
      </g>
     </g>
    </g>
    <g id="xtick_4">
     <g id="line2d_4">
      <defs>
       <path id="m263608538c" d="M 0 0 
L 0 2 
" style="stroke: #000000; stroke-width: 0.6"/>
      </defs>
      <g>
       <use xlink:href="#m263608538c" x="177.343569" y="312.44" style="stroke: #000000; stroke-width: 0.6"/>
      </g>
     </g>
    </g>
    <g id="xtick_5">
     <g id="line2d_5">
      <g>
       <use xlink:href="#m263608538c" x="209.590847" y="312.44" style="stroke: #000000; stroke-width: 0.6"/>
      </g>
     </g>
    </g>
    <g id="xtick_6">
     <g id="line2d_6">
      <g>
       <use xlink:href="#m263608538c" x="232.470655" y="312.44" style="stroke: #000000; stroke-width: 0.6"/>
      </g>
     </g>
    </g>
    <g id="xtick_7">
     <g id="line2d_7">
      <g>
       <use xlink:href="#m263608538c" x="250.217613" y="312.44" style="stroke: #000000; stroke-width: 0.6"/>
      </g>
     </g>
    </g>
    <g id="xtick_8">
     <g id="line2d_8">
      <g>
       <use xlink:href="#m263608538c" x="264.717933" y="312.44" style="stroke: #000000; stroke-width: 0.6"/>
      </g>
     </g>
    </g>
    <g id="xtick_9">
     <g id="line2d_9">
      <g>
       <use xlink:href="#m263608538c" x="276.977779" y="312.44" style="stroke: #000000; stroke-width: 0.6"/>
      </g>
     </g>
    </g>
    <g id="xtick_10">
     <g id="line2d_10">
      <g>
       <use xlink:href="#m263608538c" x="287.597741" y="312.44" style="stroke: #000000; stroke-width: 0.6"/>
      </g>
     </g>
    </g>
    <g id="xtick_11">
     <g id="line2d_11">
      <g>
       <use xlink:href="#m263608538c" x="296.965211" y="312.44" style="stroke: #000000; stroke-width: 0.6"/>
      </g>
     </g>
    </g>
    <g id="xtick_12">
     <g id="line2d_12">
      <g>
       <use xlink:href="#m263608538c" x="360.471785" y="312.44" style="stroke: #000000; stroke-width: 0.6"/>
      </g>
     </g>
    </g>
    <g id="xtick_13">
     <g id="line2d_13">
      <g>
       <use xlink:href="#m263608538c" x="392.719063" y="312.44" style="stroke: #000000; stroke-width: 0.6"/>
      </g>
     </g>
    </g>
    <g id="xtick_14">
     <g id="line2d_14">
      <g>
       <use xlink:href="#m263608538c" x="415.598871" y="312.44" style="stroke: #000000; stroke-width: 0.6"/>
      </g>
     </g>
    </g>
    <g id="xtick_15">
     <g id="line2d_15">
      <g>
       <use xlink:href="#m263608538c" x="433.345828" y="312.44" style="stroke: #000000; stroke-width: 0.6"/>
      </g>
     </g>
    </g>
    <g id="xtick_16">
     <g id="line2d_16">
      <g>
       <use xlink:href="#m263608538c" x="447.846149" y="312.44" style="stroke: #000000; stroke-width: 0.6"/>
      </g>
     </g>
    </g>
    <g id="xtick_17">
     <g id="line2d_17">
      <g>
       <use xlink:href="#m263608538c" x="460.105995" y="312.44" style="stroke: #000000; stroke-width: 0.6"/>
      </g>
     </g>
    </g>
    <g id="xtick_18">
     <g id="line2d_18">
      <g>
       <use xlink:href="#m263608538c" x="470.725956" y="312.44" style="stroke: #000000; stroke-width: 0.6"/>
      </g>
     </g>
    </g>
    <g id="xtick_19">
     <g id="line2d_19">
      <g>
       <use xlink:href="#m263608538c" x="480.093427" y="312.44" style="stroke: #000000; stroke-width: 0.6"/>
      </g>
     </g>
    </g>
    <g id="xtick_20">
     <g id="line2d_20">
      <g>
       <use xlink:href="#m263608538c" x="543.6" y="312.44" style="stroke: #000000; stroke-width: 0.6"/>
      </g>
     </g>
    </g>
   </g>
   <g id="matplotlib.axis_2">
    <g id="ytick_1">
     <g id="line2d_21">
      <defs>
       <path id="mfa23f5baf4" d="M 0 0 
L -3.5 0 
" style="stroke: #000000; stroke-width: 0.8"/>
      </defs>
      <g>
       <use xlink:href="#mfa23f5baf4" x="122.216483" y="312.44" style="stroke: #000000; stroke-width: 0.8"/>
      </g>
     </g>
     <g id="text_4">
      <!-- $\mathdefault{10^{0}}$ -->
      <g transform="translate(62.416483 323.837656)scale(0.3 -0.3)">
       <use xlink:href="#DejaVuSans-31" transform="translate(0 0.765625)"/>
       <use xlink:href="#DejaVuSans-30" transform="translate(63.623047 0.765625)"/>
       <use xlink:href="#DejaVuSans-30" transform="translate(128.203125 39.046875)scale(0.7)"/>
      </g>
     </g>
    </g>
    <g id="ytick_2">
     <g id="line2d_22">
      <g>
       <use xlink:href="#mfa23f5baf4" x="122.216483" y="178.072" style="stroke: #000000; stroke-width: 0.8"/>
      </g>
     </g>
     <g id="text_5">
      <!-- $\mathdefault{10^{2}}$ -->
      <g transform="translate(62.416483 189.469656)scale(0.3 -0.3)">
       <use xlink:href="#DejaVuSans-31" transform="translate(0 0.765625)"/>
       <use xlink:href="#DejaVuSans-30" transform="translate(63.623047 0.765625)"/>
       <use xlink:href="#DejaVuSans-32" transform="translate(128.203125 39.046875)scale(0.7)"/>
      </g>
     </g>
    </g>
    <g id="ytick_3">
     <g id="line2d_23">
      <g>
       <use xlink:href="#mfa23f5baf4" x="122.216483" y="43.704" style="stroke: #000000; stroke-width: 0.8"/>
      </g>
     </g>
     <g id="text_6">
      <!-- $\mathdefault{10^{4}}$ -->
      <g transform="translate(62.416483 55.101656)scale(0.3 -0.3)">
       <defs>
        <path id="DejaVuSans-34" d="M 2419 4116 
L 825 1625 
L 2419 1625 
L 2419 4116 
z
M 2253 4666 
L 3047 4666 
L 3047 1625 
L 3713 1625 
L 3713 1100 
L 3047 1100 
L 3047 0 
L 2419 0 
L 2419 1100 
L 313 1100 
L 313 1709 
L 2253 4666 
z
" transform="scale(0.015625)"/>
       </defs>
       <use xlink:href="#DejaVuSans-31" transform="translate(0 0.684375)"/>
       <use xlink:href="#DejaVuSans-30" transform="translate(63.623047 0.684375)"/>
       <use xlink:href="#DejaVuSans-34" transform="translate(128.203125 38.965625)scale(0.7)"/>
      </g>
     </g>
    </g>
   </g>
   <g id="line2d_24">
    <path d="M -1 118.661847 
L 29.070458 118.369845 
L 51.306282 117.955624 
L 68.664332 117.42367 
L 82.904319 116.77205 
L 94.97769 115.998433 
L 105.457508 115.100127 
L 114.715807 114.074115 
L 123.007849 112.917132 
L 130.5164 111.625775 
L 136.716804 110.345866 
L 142.46858 108.952092 
L 147.832291 107.442569 
L 152.857008 105.81611 
L 157.583046 104.072661 
L 162.524485 102.000403 
L 167.17678 99.791939 
L 171.571908 97.459257 
L 176.141558 94.774766 
L 181.223928 91.503724 
L 194.451716 82.772051 
L 196.97674 81.520721 
L 198.819252 80.830795 
L 200.620044 80.393429 
L 202.090171 80.244664 
L 203.533614 80.307769 
L 204.951327 80.593056 
L 206.34421 81.105781 
L 207.713118 81.84575 
L 209.058862 82.807333 
L 210.644261 84.238494 
L 212.198674 85.947079 
L 213.974572 88.247705 
L 215.95677 91.212293 
L 218.129239 94.872507 
L 220.706335 99.656641 
L 224.091168 106.45052 
L 229.224018 117.33335 
L 241.483864 143.464228 
L 247.958958 156.646049 
L 254.249316 168.948069 
L 260.777904 181.230987 
L 267.837218 194.029219 
L 275.371026 207.223416 
L 283.727323 221.401192 
L 292.97874 236.652095 
L 303.494108 253.546754 
L 315.556013 272.493605 
L 329.74094 294.347825 
L 346.841535 320.270512 
L 368.124222 352.11201 
L 395.198509 392.201642 
L 427.385805 439.460987 
L 457.154685 482.792263 
L 480.252331 516.039196 
L 498.235293 541.549394 
L 512.775465 561.802615 
L 524.918042 578.346163 
L 535.304418 592.131242 
L 544.348044 603.773789 
L 552.328659 613.693829 
L 559.44751 622.195809 
L 565.849014 629.502199 
L 571.644961 635.787239 
L 576.924234 641.190801 
L 577 641.265878 
M 577 641.265878 
L 571.943454 636.101395 
L 566.418147 630.134152 
L 560.35138 623.24833 
L 553.65027 615.299023 
L 546.201412 606.110035 
L 537.85399 595.451361 
L 528.396704 583.005873 
L 517.545322 568.348226 
L 504.885332 550.862584 
L 489.790123 529.621367 
L 471.280738 503.176828 
L 447.885904 469.347334 
L 418.315657 426.182838 
L 386.087592 378.750808 
L 359.108124 338.667421 
L 338.330829 307.416463 
L 321.873495 282.274955 
L 308.310891 261.161 
L 296.788278 242.820518 
L 286.798422 226.510456 
L 277.99381 211.720415 
L 270.098932 198.036517 
L 262.840203 185.018238 
L 256.043337 172.370114 
L 249.738986 160.176666 
L 243.586142 147.802022 
L 237.104873 134.262166 
L 220.706335 99.656641 
L 217.890764 94.452234 
L 215.465833 90.442032 
L 213.471206 87.559613 
L 211.683904 85.348626 
L 210.119298 83.72917 
L 208.523293 82.396682 
L 207.168379 81.522735 
L 205.789981 80.873287 
L 204.387271 80.451823 
L 202.959377 80.256336 
L 201.505377 80.279478 
L 200.024299 80.509108 
L 198.209812 81.034398 
L 196.352959 81.800767 
L 194.130376 82.951257 
L 191.17835 84.746744 
L 186.356778 87.997658 
L 178.527684 93.272871 
L 173.681622 96.252343 
L 169.404701 98.640078 
L 164.884645 100.912613 
L 160.092137 103.054051 
L 155.517175 104.861912 
L 150.662895 106.553453 
L 145.492958 108.127855 
L 139.963441 109.585738 
L 134.02056 110.928642 
L 127.597482 112.158662 
L 120.60973 113.27818 
L 112.948366 114.289687 
L 104.469526 115.195652 
L 94.97769 115.998433 
L 84.197544 116.700219 
L 71.723616 117.302988 
L 56.922608 117.80848 
L 38.722478 118.218178 
L 15.081597 118.5333 
L -1 118.661847 
L -1 118.661847 
" clip-path="url(#pc58d4b754c)" style="fill: none; stroke: #ff0000; stroke-opacity: 0.7; stroke-width: 2.5; stroke-linecap: square"/>
   </g>
   <g id="line2d_25">
    <path d="M -1 115.814683 
L 29.070458 115.522682 
L 51.306282 115.10846 
L 68.664332 114.576506 
L 82.904319 113.924886 
L 94.97769 113.151269 
L 105.457508 112.252963 
L 114.715807 111.226951 
L 123.007849 110.069969 
L 130.5164 108.778611 
L 136.716804 107.498702 
L 142.46858 106.104929 
L 147.832291 104.595405 
L 152.857008 102.968946 
L 157.583046 101.225497 
L 162.524485 99.153239 
L 167.17678 96.944775 
L 171.571908 94.612093 
L 176.141558 91.927602 
L 181.223928 88.656561 
L 194.451716 79.924887 
L 196.97674 78.673557 
L 198.819252 77.983631 
L 200.620044 77.546265 
L 202.090171 77.397501 
L 203.533614 77.460605 
L 204.951327 77.745892 
L 206.34421 78.258618 
L 207.713118 78.998586 
L 209.058862 79.960169 
L 210.644261 81.39133 
L 212.198674 83.099916 
L 213.974572 85.400541 
L 215.95677 88.36513 
L 218.129239 92.025344 
L 220.706335 96.809477 
L 224.091168 103.603357 
L 229.224018 114.486186 
L 241.483864 140.617065 
L 247.958958 153.798886 
L 254.249316 166.100905 
L 260.777904 178.383823 
L 267.837218 191.182055 
L 275.371026 204.376253 
L 283.727323 218.554028 
L 292.97874 233.804931 
L 303.494108 250.69959 
L 315.556013 269.646441 
L 329.74094 291.500662 
L 346.841535 317.423349 
L 368.124222 349.264847 
L 395.198509 389.354478 
L 427.385805 436.613823 
L 457.154685 479.9451 
L 480.252331 513.192032 
L 498.235293 538.70223 
L 512.775465 558.955452 
L 524.918042 575.499 
L 535.304418 589.284078 
L 544.348044 600.926625 
L 552.328659 610.846665 
L 559.44751 619.348645 
L 565.849014 626.655035 
L 571.644961 632.940075 
L 576.924234 638.343637 
L 577 638.418715 
M 577 638.418715 
L 571.943454 633.254232 
L 566.418147 627.286988 
L 560.35138 620.401166 
L 553.65027 612.451859 
L 546.201412 603.262872 
L 537.85399 592.604197 
L 528.396704 580.15871 
L 517.545322 565.501062 
L 504.885332 548.01542 
L 489.790123 526.774203 
L 471.280738 500.329664 
L 447.885904 466.500171 
L 418.315657 423.335674 
L 386.087592 375.903645 
L 359.108124 335.820257 
L 338.330829 304.569299 
L 321.873495 279.427791 
L 308.310891 258.313836 
L 296.788278 239.973354 
L 286.798422 223.663292 
L 277.99381 208.873251 
L 270.098932 195.189353 
L 262.840203 182.171074 
L 256.043337 169.52295 
L 249.738986 157.329503 
L 243.586142 144.954858 
L 237.104873 131.415002 
L 220.706335 96.809477 
L 217.890764 91.60507 
L 215.465833 87.594868 
L 213.471206 84.712449 
L 211.683904 82.501462 
L 210.119298 80.882006 
L 208.523293 79.549518 
L 207.168379 78.675572 
L 205.789981 78.026123 
L 204.387271 77.604659 
L 202.959377 77.409173 
L 201.505377 77.432314 
L 200.024299 77.661944 
L 198.209812 78.187235 
L 196.352959 78.953604 
L 194.130376 80.104093 
L 191.17835 81.899581 
L 186.356778 85.150495 
L 178.527684 90.425707 
L 173.681622 93.405179 
L 169.404701 95.792914 
L 164.884645 98.06545 
L 160.092137 100.206887 
L 155.517175 102.014748 
L 150.662895 103.706289 
L 145.492958 105.280691 
L 139.963441 106.738574 
L 134.02056 108.081478 
L 127.597482 109.311498 
L 120.60973 110.431017 
L 112.948366 111.442524 
L 104.469526 112.348488 
L 94.97769 113.151269 
L 84.197544 113.853056 
L 71.723616 114.455825 
L 56.922608 114.961316 
L 38.722478 115.371014 
L 15.081597 115.686136 
L -1 115.814683 
L -1 115.814683 
" clip-path="url(#pc58d4b754c)" style="fill: none; stroke: #0000ff; stroke-opacity: 0.7; stroke-width: 2.5; stroke-linecap: square"/>
   </g>
   <g id="line2d_26">
    <path d="M -1 178.072 
L 577 178.072 
M 577 178.072 
L -1 178.072 
L -1 178.072 
" clip-path="url(#pc58d4b754c)" style="fill: none; stroke: #008000; stroke-opacity: 0.7; stroke-width: 2.5; stroke-linecap: square"/>
   </g>
   <g id="line2d_27">
    <path d="M -1 166.241485 
L 577 166.241485 
M 577 166.241485 
L -1 166.241485 
L -1 166.241485 
" clip-path="url(#pc58d4b754c)" style="fill: none; stroke: #ffa500; stroke-opacity: 0.7; stroke-width: 2.5; stroke-linecap: square"/>
   </g>
   <g id="line2d_28">
    <path d="M 254.400373 312.44 
L 254.400373 43.704 
" clip-path="url(#pc58d4b754c)" style="fill: none; stroke-dasharray: 5.55,2.4; stroke-dashoffset: 0; stroke: #808080; stroke-width: 1.5"/>
   </g>
   <g id="patch_5">
    <path d="M 122.216483 312.44 
L 122.216483 43.704 
" style="fill: none; stroke: #000000; stroke-width: 0.8; stroke-linejoin: miter; stroke-linecap: square"/>
   </g>
   <g id="patch_6">
    <path d="M 122.216483 312.44 
L 543.6 312.44 
" style="fill: none; stroke: #000000; stroke-width: 0.8; stroke-linejoin: miter; stroke-linecap: square"/>
   </g>
   <g id="legend_1">
    <g id="patch_7">
     <path d="M 129.216483 307.44 
L 302.016483 307.44 
Q 304.016483 307.44 304.016483 305.44 
L 304.016483 233.049375 
Q 304.016483 231.049375 302.016483 231.049375 
L 129.216483 231.049375 
Q 127.216483 231.049375 127.216483 233.049375 
L 127.216483 305.44 
Q 127.216483 307.44 129.216483 307.44 
z
" style="fill: #ffffff; opacity: 0.8; stroke: #cccccc; stroke-linejoin: miter"/>
    </g>
    <g id="line2d_29">
     <path d="M 131.216483 239.147812 
L 141.216483 239.147812 
L 151.216483 239.147812 
" style="fill: none; stroke: #000000; stroke-width: 2.5; stroke-linecap: square"/>
    </g>
    <g id="text_7">
     <!-- Total Spectrum -->
     <g transform="translate(159.216483 242.647812)scale(0.1 -0.1)">
      <defs>
       <path id="DejaVuSans-54" d="M -19 4666 
L 3928 4666 
L 3928 4134 
L 2272 4134 
L 2272 0 
L 1638 0 
L 1638 4134 
L -19 4134 
L -19 4666 
z
" transform="scale(0.015625)"/>
       <path id="DejaVuSans-6f" d="M 1959 3097 
Q 1497 3097 1228 2736 
Q 959 2375 959 1747 
Q 959 1119 1226 758 
Q 1494 397 1959 397 
Q 2419 397 2687 759 
Q 2956 1122 2956 1747 
Q 2956 2369 2687 2733 
Q 2419 3097 1959 3097 
z
M 1959 3584 
Q 2709 3584 3137 3096 
Q 3566 2609 3566 1747 
Q 3566 888 3137 398 
Q 2709 -91 1959 -91 
Q 1206 -91 779 398 
Q 353 888 353 1747 
Q 353 2609 779 3096 
Q 1206 3584 1959 3584 
z
" transform="scale(0.015625)"/>
       <path id="DejaVuSans-74" d="M 1172 4494 
L 1172 3500 
L 2356 3500 
L 2356 3053 
L 1172 3053 
L 1172 1153 
Q 1172 725 1289 603 
Q 1406 481 1766 481 
L 2356 481 
L 2356 0 
L 1766 0 
Q 1100 0 847 248 
Q 594 497 594 1153 
L 594 3053 
L 172 3053 
L 172 3500 
L 594 3500 
L 594 4494 
L 1172 4494 
z
" transform="scale(0.015625)"/>
       <path id="DejaVuSans-61" d="M 2194 1759 
Q 1497 1759 1228 1600 
Q 959 1441 959 1056 
Q 959 750 1161 570 
Q 1363 391 1709 391 
Q 2188 391 2477 730 
Q 2766 1069 2766 1631 
L 2766 1759 
L 2194 1759 
z
M 3341 1997 
L 3341 0 
L 2766 0 
L 2766 531 
Q 2569 213 2275 61 
Q 1981 -91 1556 -91 
Q 1019 -91 701 211 
Q 384 513 384 1019 
Q 384 1609 779 1909 
Q 1175 2209 1959 2209 
L 2766 2209 
L 2766 2266 
Q 2766 2663 2505 2880 
Q 2244 3097 1772 3097 
Q 1472 3097 1187 3025 
Q 903 2953 641 2809 
L 641 3341 
Q 956 3463 1253 3523 
Q 1550 3584 1831 3584 
Q 2591 3584 2966 3190 
Q 3341 2797 3341 1997 
z
" transform="scale(0.015625)"/>
       <path id="DejaVuSans-6c" d="M 603 4863 
L 1178 4863 
L 1178 0 
L 603 0 
L 603 4863 
z
" transform="scale(0.015625)"/>
       <path id="DejaVuSans-20" transform="scale(0.015625)"/>
       <path id="DejaVuSans-53" d="M 3425 4513 
L 3425 3897 
Q 3066 4069 2747 4153 
Q 2428 4238 2131 4238 
Q 1616 4238 1336 4038 
Q 1056 3838 1056 3469 
Q 1056 3159 1242 3001 
Q 1428 2844 1947 2747 
L 2328 2669 
Q 3034 2534 3370 2195 
Q 3706 1856 3706 1288 
Q 3706 609 3251 259 
Q 2797 -91 1919 -91 
Q 1588 -91 1214 -16 
Q 841 59 441 206 
L 441 856 
Q 825 641 1194 531 
Q 1563 422 1919 422 
Q 2459 422 2753 634 
Q 3047 847 3047 1241 
Q 3047 1584 2836 1778 
Q 2625 1972 2144 2069 
L 1759 2144 
Q 1053 2284 737 2584 
Q 422 2884 422 3419 
Q 422 4038 858 4394 
Q 1294 4750 2059 4750 
Q 2388 4750 2728 4690 
Q 3069 4631 3425 4513 
z
" transform="scale(0.015625)"/>
       <path id="DejaVuSans-70" d="M 1159 525 
L 1159 -1331 
L 581 -1331 
L 581 3500 
L 1159 3500 
L 1159 2969 
Q 1341 3281 1617 3432 
Q 1894 3584 2278 3584 
Q 2916 3584 3314 3078 
Q 3713 2572 3713 1747 
Q 3713 922 3314 415 
Q 2916 -91 2278 -91 
Q 1894 -91 1617 61 
Q 1341 213 1159 525 
z
M 3116 1747 
Q 3116 2381 2855 2742 
Q 2594 3103 2138 3103 
Q 1681 3103 1420 2742 
Q 1159 2381 1159 1747 
Q 1159 1113 1420 752 
Q 1681 391 2138 391 
Q 2594 391 2855 752 
Q 3116 1113 3116 1747 
z
" transform="scale(0.015625)"/>
       <path id="DejaVuSans-65" d="M 3597 1894 
L 3597 1613 
L 953 1613 
Q 991 1019 1311 708 
Q 1631 397 2203 397 
Q 2534 397 2845 478 
Q 3156 559 3463 722 
L 3463 178 
Q 3153 47 2828 -22 
Q 2503 -91 2169 -91 
Q 1331 -91 842 396 
Q 353 884 353 1716 
Q 353 2575 817 3079 
Q 1281 3584 2069 3584 
Q 2775 3584 3186 3129 
Q 3597 2675 3597 1894 
z
M 3022 2063 
Q 3016 2534 2758 2815 
Q 2500 3097 2075 3097 
Q 1594 3097 1305 2825 
Q 1016 2553 972 2059 
L 3022 2063 
z
" transform="scale(0.015625)"/>
       <path id="DejaVuSans-63" d="M 3122 3366 
L 3122 2828 
Q 2878 2963 2633 3030 
Q 2388 3097 2138 3097 
Q 1578 3097 1268 2742 
Q 959 2388 959 1747 
Q 959 1106 1268 751 
Q 1578 397 2138 397 
Q 2388 397 2633 464 
Q 2878 531 3122 666 
L 3122 134 
Q 2881 22 2623 -34 
Q 2366 -91 2075 -91 
Q 1284 -91 818 406 
Q 353 903 353 1747 
Q 353 2603 823 3093 
Q 1294 3584 2113 3584 
Q 2378 3584 2631 3529 
Q 2884 3475 3122 3366 
z
" transform="scale(0.015625)"/>
       <path id="DejaVuSans-72" d="M 2631 2963 
Q 2534 3019 2420 3045 
Q 2306 3072 2169 3072 
Q 1681 3072 1420 2755 
Q 1159 2438 1159 1844 
L 1159 0 
L 581 0 
L 581 3500 
L 1159 3500 
L 1159 2956 
Q 1341 3275 1631 3429 
Q 1922 3584 2338 3584 
Q 2397 3584 2469 3576 
Q 2541 3569 2628 3553 
L 2631 2963 
z
" transform="scale(0.015625)"/>
       <path id="DejaVuSans-75" d="M 544 1381 
L 544 3500 
L 1119 3500 
L 1119 1403 
Q 1119 906 1312 657 
Q 1506 409 1894 409 
Q 2359 409 2629 706 
Q 2900 1003 2900 1516 
L 2900 3500 
L 3475 3500 
L 3475 0 
L 2900 0 
L 2900 538 
Q 2691 219 2414 64 
Q 2138 -91 1772 -91 
Q 1169 -91 856 284 
Q 544 659 544 1381 
z
M 1991 3584 
L 1991 3584 
z
" transform="scale(0.015625)"/>
       <path id="DejaVuSans-6d" d="M 3328 2828 
Q 3544 3216 3844 3400 
Q 4144 3584 4550 3584 
Q 5097 3584 5394 3201 
Q 5691 2819 5691 2113 
L 5691 0 
L 5113 0 
L 5113 2094 
Q 5113 2597 4934 2840 
Q 4756 3084 4391 3084 
Q 3944 3084 3684 2787 
Q 3425 2491 3425 1978 
L 3425 0 
L 2847 0 
L 2847 2094 
Q 2847 2600 2669 2842 
Q 2491 3084 2119 3084 
Q 1678 3084 1418 2786 
Q 1159 2488 1159 1978 
L 1159 0 
L 581 0 
L 581 3500 
L 1159 3500 
L 1159 2956 
Q 1356 3278 1631 3431 
Q 1906 3584 2284 3584 
Q 2666 3584 2933 3390 
Q 3200 3197 3328 2828 
z
" transform="scale(0.015625)"/>
      </defs>
      <use xlink:href="#DejaVuSans-54"/>
      <use xlink:href="#DejaVuSans-6f" x="44.083984"/>
      <use xlink:href="#DejaVuSans-74" x="105.265625"/>
      <use xlink:href="#DejaVuSans-61" x="144.474609"/>
      <use xlink:href="#DejaVuSans-6c" x="205.753906"/>
      <use xlink:href="#DejaVuSans-20" x="233.537109"/>
      <use xlink:href="#DejaVuSans-53" x="265.324219"/>
      <use xlink:href="#DejaVuSans-70" x="328.800781"/>
      <use xlink:href="#DejaVuSans-65" x="392.277344"/>
      <use xlink:href="#DejaVuSans-63" x="453.800781"/>
      <use xlink:href="#DejaVuSans-74" x="508.78125"/>
      <use xlink:href="#DejaVuSans-72" x="547.990234"/>
      <use xlink:href="#DejaVuSans-75" x="589.103516"/>
      <use xlink:href="#DejaVuSans-6d" x="652.482422"/>
     </g>
    </g>
    <g id="line2d_30">
     <path d="M 131.216483 253.825938 
L 141.216483 253.825938 
L 151.216483 253.825938 
" style="fill: none; stroke: #ff0000; stroke-opacity: 0.7; stroke-width: 2.5; stroke-linecap: square"/>
    </g>
    <g id="text_8">
     <!-- Ensemble Dynamics (AMPA) -->
     <g transform="translate(159.216483 257.325938)scale(0.1 -0.1)">
      <defs>
       <path id="DejaVuSans-45" d="M 628 4666 
L 3578 4666 
L 3578 4134 
L 1259 4134 
L 1259 2753 
L 3481 2753 
L 3481 2222 
L 1259 2222 
L 1259 531 
L 3634 531 
L 3634 0 
L 628 0 
L 628 4666 
z
" transform="scale(0.015625)"/>
       <path id="DejaVuSans-6e" d="M 3513 2113 
L 3513 0 
L 2938 0 
L 2938 2094 
Q 2938 2591 2744 2837 
Q 2550 3084 2163 3084 
Q 1697 3084 1428 2787 
Q 1159 2491 1159 1978 
L 1159 0 
L 581 0 
L 581 3500 
L 1159 3500 
L 1159 2956 
Q 1366 3272 1645 3428 
Q 1925 3584 2291 3584 
Q 2894 3584 3203 3211 
Q 3513 2838 3513 2113 
z
" transform="scale(0.015625)"/>
       <path id="DejaVuSans-73" d="M 2834 3397 
L 2834 2853 
Q 2591 2978 2328 3040 
Q 2066 3103 1784 3103 
Q 1356 3103 1142 2972 
Q 928 2841 928 2578 
Q 928 2378 1081 2264 
Q 1234 2150 1697 2047 
L 1894 2003 
Q 2506 1872 2764 1633 
Q 3022 1394 3022 966 
Q 3022 478 2636 193 
Q 2250 -91 1575 -91 
Q 1294 -91 989 -36 
Q 684 19 347 128 
L 347 722 
Q 666 556 975 473 
Q 1284 391 1588 391 
Q 1994 391 2212 530 
Q 2431 669 2431 922 
Q 2431 1156 2273 1281 
Q 2116 1406 1581 1522 
L 1381 1569 
Q 847 1681 609 1914 
Q 372 2147 372 2553 
Q 372 3047 722 3315 
Q 1072 3584 1716 3584 
Q 2034 3584 2315 3537 
Q 2597 3491 2834 3397 
z
" transform="scale(0.015625)"/>
       <path id="DejaVuSans-62" d="M 3116 1747 
Q 3116 2381 2855 2742 
Q 2594 3103 2138 3103 
Q 1681 3103 1420 2742 
Q 1159 2381 1159 1747 
Q 1159 1113 1420 752 
Q 1681 391 2138 391 
Q 2594 391 2855 752 
Q 3116 1113 3116 1747 
z
M 1159 2969 
Q 1341 3281 1617 3432 
Q 1894 3584 2278 3584 
Q 2916 3584 3314 3078 
Q 3713 2572 3713 1747 
Q 3713 922 3314 415 
Q 2916 -91 2278 -91 
Q 1894 -91 1617 61 
Q 1341 213 1159 525 
L 1159 0 
L 581 0 
L 581 4863 
L 1159 4863 
L 1159 2969 
z
" transform="scale(0.015625)"/>
       <path id="DejaVuSans-44" d="M 1259 4147 
L 1259 519 
L 2022 519 
Q 2988 519 3436 956 
Q 3884 1394 3884 2338 
Q 3884 3275 3436 3711 
Q 2988 4147 2022 4147 
L 1259 4147 
z
M 628 4666 
L 1925 4666 
Q 3281 4666 3915 4102 
Q 4550 3538 4550 2338 
Q 4550 1131 3912 565 
Q 3275 0 1925 0 
L 628 0 
L 628 4666 
z
" transform="scale(0.015625)"/>
       <path id="DejaVuSans-79" d="M 2059 -325 
Q 1816 -950 1584 -1140 
Q 1353 -1331 966 -1331 
L 506 -1331 
L 506 -850 
L 844 -850 
Q 1081 -850 1212 -737 
Q 1344 -625 1503 -206 
L 1606 56 
L 191 3500 
L 800 3500 
L 1894 763 
L 2988 3500 
L 3597 3500 
L 2059 -325 
z
" transform="scale(0.015625)"/>
       <path id="DejaVuSans-69" d="M 603 3500 
L 1178 3500 
L 1178 0 
L 603 0 
L 603 3500 
z
M 603 4863 
L 1178 4863 
L 1178 4134 
L 603 4134 
L 603 4863 
z
" transform="scale(0.015625)"/>
       <path id="DejaVuSans-28" d="M 1984 4856 
Q 1566 4138 1362 3434 
Q 1159 2731 1159 2009 
Q 1159 1288 1364 580 
Q 1569 -128 1984 -844 
L 1484 -844 
Q 1016 -109 783 600 
Q 550 1309 550 2009 
Q 550 2706 781 3412 
Q 1013 4119 1484 4856 
L 1984 4856 
z
" transform="scale(0.015625)"/>
       <path id="DejaVuSans-41" d="M 2188 4044 
L 1331 1722 
L 3047 1722 
L 2188 4044 
z
M 1831 4666 
L 2547 4666 
L 4325 0 
L 3669 0 
L 3244 1197 
L 1141 1197 
L 716 0 
L 50 0 
L 1831 4666 
z
" transform="scale(0.015625)"/>
       <path id="DejaVuSans-4d" d="M 628 4666 
L 1569 4666 
L 2759 1491 
L 3956 4666 
L 4897 4666 
L 4897 0 
L 4281 0 
L 4281 4097 
L 3078 897 
L 2444 897 
L 1241 4097 
L 1241 0 
L 628 0 
L 628 4666 
z
" transform="scale(0.015625)"/>
       <path id="DejaVuSans-50" d="M 1259 4147 
L 1259 2394 
L 2053 2394 
Q 2494 2394 2734 2622 
Q 2975 2850 2975 3272 
Q 2975 3691 2734 3919 
Q 2494 4147 2053 4147 
L 1259 4147 
z
M 628 4666 
L 2053 4666 
Q 2838 4666 3239 4311 
Q 3641 3956 3641 3272 
Q 3641 2581 3239 2228 
Q 2838 1875 2053 1875 
L 1259 1875 
L 1259 0 
L 628 0 
L 628 4666 
z
" transform="scale(0.015625)"/>
       <path id="DejaVuSans-29" d="M 513 4856 
L 1013 4856 
Q 1481 4119 1714 3412 
Q 1947 2706 1947 2009 
Q 1947 1309 1714 600 
Q 1481 -109 1013 -844 
L 513 -844 
Q 928 -128 1133 580 
Q 1338 1288 1338 2009 
Q 1338 2731 1133 3434 
Q 928 4138 513 4856 
z
" transform="scale(0.015625)"/>
      </defs>
      <use xlink:href="#DejaVuSans-45"/>
      <use xlink:href="#DejaVuSans-6e" x="63.183594"/>
      <use xlink:href="#DejaVuSans-73" x="126.5625"/>
      <use xlink:href="#DejaVuSans-65" x="178.662109"/>
      <use xlink:href="#DejaVuSans-6d" x="240.185547"/>
      <use xlink:href="#DejaVuSans-62" x="337.597656"/>
      <use xlink:href="#DejaVuSans-6c" x="401.074219"/>
      <use xlink:href="#DejaVuSans-65" x="428.857422"/>
      <use xlink:href="#DejaVuSans-20" x="490.380859"/>
      <use xlink:href="#DejaVuSans-44" x="522.167969"/>
      <use xlink:href="#DejaVuSans-79" x="599.169922"/>
      <use xlink:href="#DejaVuSans-6e" x="658.349609"/>
      <use xlink:href="#DejaVuSans-61" x="721.728516"/>
      <use xlink:href="#DejaVuSans-6d" x="783.007812"/>
      <use xlink:href="#DejaVuSans-69" x="880.419922"/>
      <use xlink:href="#DejaVuSans-63" x="908.203125"/>
      <use xlink:href="#DejaVuSans-73" x="963.183594"/>
      <use xlink:href="#DejaVuSans-20" x="1015.283203"/>
      <use xlink:href="#DejaVuSans-28" x="1047.070312"/>
      <use xlink:href="#DejaVuSans-41" x="1086.083984"/>
      <use xlink:href="#DejaVuSans-4d" x="1154.492188"/>
      <use xlink:href="#DejaVuSans-50" x="1240.771484"/>
      <use xlink:href="#DejaVuSans-41" x="1294.699219"/>
      <use xlink:href="#DejaVuSans-29" x="1363.107422"/>
     </g>
    </g>
    <g id="line2d_31">
     <path d="M 131.216483 268.504063 
L 141.216483 268.504063 
L 151.216483 268.504063 
" style="fill: none; stroke: #ffa500; stroke-opacity: 0.7; stroke-width: 2.5; stroke-linecap: square"/>
    </g>
    <g id="text_9">
     <!-- AMPA Broadband (AMPA) -->
     <g transform="translate(159.216483 272.004063)scale(0.1 -0.1)">
      <defs>
       <path id="DejaVuSans-42" d="M 1259 2228 
L 1259 519 
L 2272 519 
Q 2781 519 3026 730 
Q 3272 941 3272 1375 
Q 3272 1813 3026 2020 
Q 2781 2228 2272 2228 
L 1259 2228 
z
M 1259 4147 
L 1259 2741 
L 2194 2741 
Q 2656 2741 2882 2914 
Q 3109 3088 3109 3444 
Q 3109 3797 2882 3972 
Q 2656 4147 2194 4147 
L 1259 4147 
z
M 628 4666 
L 2241 4666 
Q 2963 4666 3353 4366 
Q 3744 4066 3744 3513 
Q 3744 3084 3544 2831 
Q 3344 2578 2956 2516 
Q 3422 2416 3680 2098 
Q 3938 1781 3938 1306 
Q 3938 681 3513 340 
Q 3088 0 2303 0 
L 628 0 
L 628 4666 
z
" transform="scale(0.015625)"/>
       <path id="DejaVuSans-64" d="M 2906 2969 
L 2906 4863 
L 3481 4863 
L 3481 0 
L 2906 0 
L 2906 525 
Q 2725 213 2448 61 
Q 2172 -91 1784 -91 
Q 1150 -91 751 415 
Q 353 922 353 1747 
Q 353 2572 751 3078 
Q 1150 3584 1784 3584 
Q 2172 3584 2448 3432 
Q 2725 3281 2906 2969 
z
M 947 1747 
Q 947 1113 1208 752 
Q 1469 391 1925 391 
Q 2381 391 2643 752 
Q 2906 1113 2906 1747 
Q 2906 2381 2643 2742 
Q 2381 3103 1925 3103 
Q 1469 3103 1208 2742 
Q 947 2381 947 1747 
z
" transform="scale(0.015625)"/>
      </defs>
      <use xlink:href="#DejaVuSans-41"/>
      <use xlink:href="#DejaVuSans-4d" x="68.408203"/>
      <use xlink:href="#DejaVuSans-50" x="154.6875"/>
      <use xlink:href="#DejaVuSans-41" x="208.615234"/>
      <use xlink:href="#DejaVuSans-20" x="277.023438"/>
      <use xlink:href="#DejaVuSans-42" x="308.810547"/>
      <use xlink:href="#DejaVuSans-72" x="377.414062"/>
      <use xlink:href="#DejaVuSans-6f" x="416.277344"/>
      <use xlink:href="#DejaVuSans-61" x="477.458984"/>
      <use xlink:href="#DejaVuSans-64" x="538.738281"/>
      <use xlink:href="#DejaVuSans-62" x="602.214844"/>
      <use xlink:href="#DejaVuSans-61" x="665.691406"/>
      <use xlink:href="#DejaVuSans-6e" x="726.970703"/>
      <use xlink:href="#DejaVuSans-64" x="790.349609"/>
      <use xlink:href="#DejaVuSans-20" x="853.826172"/>
      <use xlink:href="#DejaVuSans-28" x="885.613281"/>
      <use xlink:href="#DejaVuSans-41" x="924.626953"/>
      <use xlink:href="#DejaVuSans-4d" x="993.035156"/>
      <use xlink:href="#DejaVuSans-50" x="1079.314453"/>
      <use xlink:href="#DejaVuSans-41" x="1133.242188"/>
      <use xlink:href="#DejaVuSans-29" x="1201.650391"/>
     </g>
    </g>
    <g id="line2d_32">
     <path d="M 131.216483 283.182187 
L 141.216483 283.182187 
L 151.216483 283.182187 
" style="fill: none; stroke: #0000ff; stroke-opacity: 0.7; stroke-width: 2.5; stroke-linecap: square"/>
    </g>
    <g id="text_10">
     <!-- Ensemble Dynamics (GABA) -->
     <g transform="translate(159.216483 286.682187)scale(0.1 -0.1)">
      <defs>
       <path id="DejaVuSans-47" d="M 3809 666 
L 3809 1919 
L 2778 1919 
L 2778 2438 
L 4434 2438 
L 4434 434 
Q 4069 175 3628 42 
Q 3188 -91 2688 -91 
Q 1594 -91 976 548 
Q 359 1188 359 2328 
Q 359 3472 976 4111 
Q 1594 4750 2688 4750 
Q 3144 4750 3555 4637 
Q 3966 4525 4313 4306 
L 4313 3634 
Q 3963 3931 3569 4081 
Q 3175 4231 2741 4231 
Q 1884 4231 1454 3753 
Q 1025 3275 1025 2328 
Q 1025 1384 1454 906 
Q 1884 428 2741 428 
Q 3075 428 3337 486 
Q 3600 544 3809 666 
z
" transform="scale(0.015625)"/>
      </defs>
      <use xlink:href="#DejaVuSans-45"/>
      <use xlink:href="#DejaVuSans-6e" x="63.183594"/>
      <use xlink:href="#DejaVuSans-73" x="126.5625"/>
      <use xlink:href="#DejaVuSans-65" x="178.662109"/>
      <use xlink:href="#DejaVuSans-6d" x="240.185547"/>
      <use xlink:href="#DejaVuSans-62" x="337.597656"/>
      <use xlink:href="#DejaVuSans-6c" x="401.074219"/>
      <use xlink:href="#DejaVuSans-65" x="428.857422"/>
      <use xlink:href="#DejaVuSans-20" x="490.380859"/>
      <use xlink:href="#DejaVuSans-44" x="522.167969"/>
      <use xlink:href="#DejaVuSans-79" x="599.169922"/>
      <use xlink:href="#DejaVuSans-6e" x="658.349609"/>
      <use xlink:href="#DejaVuSans-61" x="721.728516"/>
      <use xlink:href="#DejaVuSans-6d" x="783.007812"/>
      <use xlink:href="#DejaVuSans-69" x="880.419922"/>
      <use xlink:href="#DejaVuSans-63" x="908.203125"/>
      <use xlink:href="#DejaVuSans-73" x="963.183594"/>
      <use xlink:href="#DejaVuSans-20" x="1015.283203"/>
      <use xlink:href="#DejaVuSans-28" x="1047.070312"/>
      <use xlink:href="#DejaVuSans-47" x="1086.083984"/>
      <use xlink:href="#DejaVuSans-41" x="1163.574219"/>
      <use xlink:href="#DejaVuSans-42" x="1231.982422"/>
      <use xlink:href="#DejaVuSans-41" x="1300.585938"/>
      <use xlink:href="#DejaVuSans-29" x="1368.994141"/>
     </g>
    </g>
    <g id="line2d_33">
     <path d="M 131.216483 297.860312 
L 141.216483 297.860312 
L 151.216483 297.860312 
" style="fill: none; stroke: #008000; stroke-opacity: 0.7; stroke-width: 2.5; stroke-linecap: square"/>
    </g>
    <g id="text_11">
     <!-- Broadband (GABA) -->
     <g transform="translate(159.216483 301.360312)scale(0.1 -0.1)">
      <use xlink:href="#DejaVuSans-42"/>
      <use xlink:href="#DejaVuSans-72" x="68.603516"/>
      <use xlink:href="#DejaVuSans-6f" x="107.466797"/>
      <use xlink:href="#DejaVuSans-61" x="168.648438"/>
      <use xlink:href="#DejaVuSans-64" x="229.927734"/>
      <use xlink:href="#DejaVuSans-62" x="293.404297"/>
      <use xlink:href="#DejaVuSans-61" x="356.880859"/>
      <use xlink:href="#DejaVuSans-6e" x="418.160156"/>
      <use xlink:href="#DejaVuSans-64" x="481.539062"/>
      <use xlink:href="#DejaVuSans-20" x="545.015625"/>
      <use xlink:href="#DejaVuSans-28" x="576.802734"/>
      <use xlink:href="#DejaVuSans-47" x="615.816406"/>
      <use xlink:href="#DejaVuSans-41" x="693.306641"/>
      <use xlink:href="#DejaVuSans-42" x="761.714844"/>
      <use xlink:href="#DejaVuSans-41" x="830.318359"/>
      <use xlink:href="#DejaVuSans-29" x="898.726562"/>
     </g>
    </g>
   </g>
   <g id="line2d_34">
    <path d="M -1 92.769392 
L 31.595482 92.485097 
L 55.094216 92.072881 
L 73.21023 91.535334 
L 87.95564 90.869085 
L 99.336676 90.148288 
L 109.291097 89.314177 
L 118.137047 88.362766 
L 126.096842 87.289726 
L 133.331971 86.090512 
L 139.963441 84.760554 
L 146.084274 83.295544 
L 151.767518 81.691861 
L 157.071588 79.947213 
L 162.04393 78.061553 
L 166.723608 76.03842 
L 171.143165 73.886835 
L 175.736816 71.392506 
L 180.462854 68.565013 
L 187.06373 64.311028 
L 192.503906 60.88387 
L 195.408019 59.307841 
L 197.595666 58.351462 
L 199.424058 57.766858 
L 201.21136 57.434845 
L 202.670696 57.371915 
L 204.103736 57.516879 
L 205.511411 57.877629 
L 206.894604 58.456797 
L 208.254151 59.251522 
L 209.855512 60.477888 
L 211.425265 61.979747 
L 213.218323 64.0393 
L 215.219223 66.729309 
L 217.411656 70.079034 
L 220.011731 74.471786 
L 223.648094 81.100317 
L 235.014317 102.140985 
L 238.775376 108.481 
L 242.190816 113.80971 
L 245.465601 118.502077 
L 248.61086 122.611455 
L 251.63645 126.195933 
L 254.551144 129.313602 
L 257.508049 132.152005 
L 260.498845 134.707289 
L 263.515922 136.984128 
L 266.552351 138.994107 
L 269.726418 140.820709 
L 273.017849 142.449342 
L 276.407658 143.877339 
L 279.987743 145.14692 
L 283.935794 146.30481 
L 288.192002 147.315889 
L 292.885775 148.199164 
L 298.192845 148.967043 
L 304.304009 149.620944 
L 311.539138 150.164739 
L 320.43928 150.601779 
L 331.991167 150.934057 
L 348.29143 151.163208 
L 375.335792 151.293194 
L 444.613317 151.335464 
L 577 151.336795 
L 577 151.336795 
" clip-path="url(#pc58d4b754c)" style="fill: none; stroke: #000000; stroke-width: 2.5; stroke-linecap: square"/>
   </g>
  </g>
  <g id="axes_2">
   <g id="patch_8">
    <path d="M 122.216483 661.724 
L 543.6 661.724 
L 543.6 392.988 
L 122.216483 392.988 
z
" style="fill: #ffffff"/>
   </g>
   <g id="patch_9">
    <path d="M -183005.998858 661.724 
L -183005.998858 392.988 
L 260.638497 392.988 
L 260.638497 661.724 
z
" clip-path="url(#pf7bca98fc5)" style="fill: #add8e6; opacity: 0.3; stroke: #add8e6; stroke-linejoin: miter"/>
   </g>
   <g id="patch_10">
    <path d="M 260.638497 661.724 
L 260.638497 392.988 
L 451.283433 392.988 
L 451.283433 661.724 
z
" clip-path="url(#pf7bca98fc5)" style="fill: #90ee90; opacity: 0.3; stroke: #90ee90; stroke-linejoin: miter"/>
   </g>
   <g id="patch_11">
    <path d="M 451.283433 661.724 
L 451.283433 392.988 
L 616.474044 392.988 
L 616.474044 661.724 
z
" clip-path="url(#pf7bca98fc5)" style="fill: #ffa500; opacity: 0.3; stroke: #ffa500; stroke-linejoin: miter"/>
   </g>
   <g id="matplotlib.axis_3">
    <g id="xtick_21">
     <g id="line2d_35">
      <g>
       <use xlink:href="#mc2be2a5e04" x="122.216483" y="661.724" style="stroke: #000000; stroke-width: 0.8"/>
      </g>
     </g>
     <g id="text_12">
      <!-- $\mathdefault{10^{0}}$ -->
      <g transform="translate(95.816483 691.519312)scale(0.3 -0.3)">
       <use xlink:href="#DejaVuSans-31" transform="translate(0 0.765625)"/>
       <use xlink:href="#DejaVuSans-30" transform="translate(63.623047 0.765625)"/>
       <use xlink:href="#DejaVuSans-30" transform="translate(128.203125 39.046875)scale(0.7)"/>
      </g>
     </g>
    </g>
    <g id="xtick_22">
     <g id="line2d_36">
      <g>
       <use xlink:href="#mc2be2a5e04" x="305.344699" y="661.724" style="stroke: #000000; stroke-width: 0.8"/>
      </g>
     </g>
     <g id="text_13">
      <!-- $\mathdefault{10^{1}}$ -->
      <g transform="translate(278.944699 691.519312)scale(0.3 -0.3)">
       <use xlink:href="#DejaVuSans-31" transform="translate(0 0.684375)"/>
       <use xlink:href="#DejaVuSans-30" transform="translate(63.623047 0.684375)"/>
       <use xlink:href="#DejaVuSans-31" transform="translate(128.203125 38.965625)scale(0.7)"/>
      </g>
     </g>
    </g>
    <g id="xtick_23">
     <g id="line2d_37">
      <g>
       <use xlink:href="#mc2be2a5e04" x="488.472914" y="661.724" style="stroke: #000000; stroke-width: 0.8"/>
      </g>
     </g>
     <g id="text_14">
      <!-- $\mathdefault{10^{2}}$ -->
      <g transform="translate(462.072914 691.519312)scale(0.3 -0.3)">
       <use xlink:href="#DejaVuSans-31" transform="translate(0 0.765625)"/>
       <use xlink:href="#DejaVuSans-30" transform="translate(63.623047 0.765625)"/>
       <use xlink:href="#DejaVuSans-32" transform="translate(128.203125 39.046875)scale(0.7)"/>
      </g>
     </g>
    </g>
    <g id="xtick_24">
     <g id="line2d_38">
      <g>
       <use xlink:href="#m263608538c" x="177.343569" y="661.724" style="stroke: #000000; stroke-width: 0.6"/>
      </g>
     </g>
    </g>
    <g id="xtick_25">
     <g id="line2d_39">
      <g>
       <use xlink:href="#m263608538c" x="209.590847" y="661.724" style="stroke: #000000; stroke-width: 0.6"/>
      </g>
     </g>
    </g>
    <g id="xtick_26">
     <g id="line2d_40">
      <g>
       <use xlink:href="#m263608538c" x="232.470655" y="661.724" style="stroke: #000000; stroke-width: 0.6"/>
      </g>
     </g>
    </g>
    <g id="xtick_27">
     <g id="line2d_41">
      <g>
       <use xlink:href="#m263608538c" x="250.217613" y="661.724" style="stroke: #000000; stroke-width: 0.6"/>
      </g>
     </g>
    </g>
    <g id="xtick_28">
     <g id="line2d_42">
      <g>
       <use xlink:href="#m263608538c" x="264.717933" y="661.724" style="stroke: #000000; stroke-width: 0.6"/>
      </g>
     </g>
    </g>
    <g id="xtick_29">
     <g id="line2d_43">
      <g>
       <use xlink:href="#m263608538c" x="276.977779" y="661.724" style="stroke: #000000; stroke-width: 0.6"/>
      </g>
     </g>
    </g>
    <g id="xtick_30">
     <g id="line2d_44">
      <g>
       <use xlink:href="#m263608538c" x="287.597741" y="661.724" style="stroke: #000000; stroke-width: 0.6"/>
      </g>
     </g>
    </g>
    <g id="xtick_31">
     <g id="line2d_45">
      <g>
       <use xlink:href="#m263608538c" x="296.965211" y="661.724" style="stroke: #000000; stroke-width: 0.6"/>
      </g>
     </g>
    </g>
    <g id="xtick_32">
     <g id="line2d_46">
      <g>
       <use xlink:href="#m263608538c" x="360.471785" y="661.724" style="stroke: #000000; stroke-width: 0.6"/>
      </g>
     </g>
    </g>
    <g id="xtick_33">
     <g id="line2d_47">
      <g>
       <use xlink:href="#m263608538c" x="392.719063" y="661.724" style="stroke: #000000; stroke-width: 0.6"/>
      </g>
     </g>
    </g>
    <g id="xtick_34">
     <g id="line2d_48">
      <g>
       <use xlink:href="#m263608538c" x="415.598871" y="661.724" style="stroke: #000000; stroke-width: 0.6"/>
      </g>
     </g>
    </g>
    <g id="xtick_35">
     <g id="line2d_49">
      <g>
       <use xlink:href="#m263608538c" x="433.345828" y="661.724" style="stroke: #000000; stroke-width: 0.6"/>
      </g>
     </g>
    </g>
    <g id="xtick_36">
     <g id="line2d_50">
      <g>
       <use xlink:href="#m263608538c" x="447.846149" y="661.724" style="stroke: #000000; stroke-width: 0.6"/>
      </g>
     </g>
    </g>
    <g id="xtick_37">
     <g id="line2d_51">
      <g>
       <use xlink:href="#m263608538c" x="460.105995" y="661.724" style="stroke: #000000; stroke-width: 0.6"/>
      </g>
     </g>
    </g>
    <g id="xtick_38">
     <g id="line2d_52">
      <g>
       <use xlink:href="#m263608538c" x="470.725956" y="661.724" style="stroke: #000000; stroke-width: 0.6"/>
      </g>
     </g>
    </g>
    <g id="xtick_39">
     <g id="line2d_53">
      <g>
       <use xlink:href="#m263608538c" x="480.093427" y="661.724" style="stroke: #000000; stroke-width: 0.6"/>
      </g>
     </g>
    </g>
    <g id="xtick_40">
     <g id="line2d_54">
      <g>
       <use xlink:href="#m263608538c" x="543.6" y="661.724" style="stroke: #000000; stroke-width: 0.6"/>
      </g>
     </g>
    </g>
   </g>
   <g id="matplotlib.axis_4">
    <g id="ytick_4">
     <g id="line2d_55">
      <g>
       <use xlink:href="#mfa23f5baf4" x="122.216483" y="661.724" style="stroke: #000000; stroke-width: 0.8"/>
      </g>
     </g>
     <g id="text_15">
      <!-- $\mathdefault{10^{-12}}$ -->
      <g transform="translate(31.516483 673.121656)scale(0.3 -0.3)">
       <defs>
        <path id="DejaVuSans-2212" d="M 678 2272 
L 4684 2272 
L 4684 1741 
L 678 1741 
L 678 2272 
z
" transform="scale(0.015625)"/>
       </defs>
       <use xlink:href="#DejaVuSans-31" transform="translate(0 0.765625)"/>
       <use xlink:href="#DejaVuSans-30" transform="translate(63.623047 0.765625)"/>
       <use xlink:href="#DejaVuSans-2212" transform="translate(128.203125 39.046875)scale(0.7)"/>
       <use xlink:href="#DejaVuSans-31" transform="translate(186.855469 39.046875)scale(0.7)"/>
       <use xlink:href="#DejaVuSans-32" transform="translate(231.391602 39.046875)scale(0.7)"/>
      </g>
     </g>
    </g>
    <g id="ytick_5">
     <g id="line2d_56">
      <g>
       <use xlink:href="#mfa23f5baf4" x="122.216483" y="572.145333" style="stroke: #000000; stroke-width: 0.8"/>
      </g>
     </g>
     <g id="text_16">
      <!-- $\mathdefault{10^{-10}}$ -->
      <g transform="translate(31.516483 583.54299)scale(0.3 -0.3)">
       <use xlink:href="#DejaVuSans-31" transform="translate(0 0.765625)"/>
       <use xlink:href="#DejaVuSans-30" transform="translate(63.623047 0.765625)"/>
       <use xlink:href="#DejaVuSans-2212" transform="translate(128.203125 39.046875)scale(0.7)"/>
       <use xlink:href="#DejaVuSans-31" transform="translate(186.855469 39.046875)scale(0.7)"/>
       <use xlink:href="#DejaVuSans-30" transform="translate(231.391602 39.046875)scale(0.7)"/>
      </g>
     </g>
    </g>
    <g id="ytick_6">
     <g id="line2d_57">
      <g>
       <use xlink:href="#mfa23f5baf4" x="122.216483" y="482.566667" style="stroke: #000000; stroke-width: 0.8"/>
      </g>
     </g>
     <g id="text_17">
      <!-- $\mathdefault{10^{-8}}$ -->
      <g transform="translate(44.716483 493.964323)scale(0.3 -0.3)">
       <defs>
        <path id="DejaVuSans-38" d="M 2034 2216 
Q 1584 2216 1326 1975 
Q 1069 1734 1069 1313 
Q 1069 891 1326 650 
Q 1584 409 2034 409 
Q 2484 409 2743 651 
Q 3003 894 3003 1313 
Q 3003 1734 2745 1975 
Q 2488 2216 2034 2216 
z
M 1403 2484 
Q 997 2584 770 2862 
Q 544 3141 544 3541 
Q 544 4100 942 4425 
Q 1341 4750 2034 4750 
Q 2731 4750 3128 4425 
Q 3525 4100 3525 3541 
Q 3525 3141 3298 2862 
Q 3072 2584 2669 2484 
Q 3125 2378 3379 2068 
Q 3634 1759 3634 1313 
Q 3634 634 3220 271 
Q 2806 -91 2034 -91 
Q 1263 -91 848 271 
Q 434 634 434 1313 
Q 434 1759 690 2068 
Q 947 2378 1403 2484 
z
M 1172 3481 
Q 1172 3119 1398 2916 
Q 1625 2713 2034 2713 
Q 2441 2713 2670 2916 
Q 2900 3119 2900 3481 
Q 2900 3844 2670 4047 
Q 2441 4250 2034 4250 
Q 1625 4250 1398 4047 
Q 1172 3844 1172 3481 
z
" transform="scale(0.015625)"/>
       </defs>
       <use xlink:href="#DejaVuSans-31" transform="translate(0 0.765625)"/>
       <use xlink:href="#DejaVuSans-30" transform="translate(63.623047 0.765625)"/>
       <use xlink:href="#DejaVuSans-2212" transform="translate(128.203125 39.046875)scale(0.7)"/>
       <use xlink:href="#DejaVuSans-38" transform="translate(186.855469 39.046875)scale(0.7)"/>
      </g>
     </g>
    </g>
    <g id="ytick_7">
     <g id="line2d_58">
      <g>
       <use xlink:href="#mfa23f5baf4" x="122.216483" y="392.988" style="stroke: #000000; stroke-width: 0.8"/>
      </g>
     </g>
     <g id="text_18">
      <!-- $\mathdefault{10^{-6}}$ -->
      <g transform="translate(44.716483 404.385656)scale(0.3 -0.3)">
       <defs>
        <path id="DejaVuSans-36" d="M 2113 2584 
Q 1688 2584 1439 2293 
Q 1191 2003 1191 1497 
Q 1191 994 1439 701 
Q 1688 409 2113 409 
Q 2538 409 2786 701 
Q 3034 994 3034 1497 
Q 3034 2003 2786 2293 
Q 2538 2584 2113 2584 
z
M 3366 4563 
L 3366 3988 
Q 3128 4100 2886 4159 
Q 2644 4219 2406 4219 
Q 1781 4219 1451 3797 
Q 1122 3375 1075 2522 
Q 1259 2794 1537 2939 
Q 1816 3084 2150 3084 
Q 2853 3084 3261 2657 
Q 3669 2231 3669 1497 
Q 3669 778 3244 343 
Q 2819 -91 2113 -91 
Q 1303 -91 875 529 
Q 447 1150 447 2328 
Q 447 3434 972 4092 
Q 1497 4750 2381 4750 
Q 2619 4750 2861 4703 
Q 3103 4656 3366 4563 
z
" transform="scale(0.015625)"/>
       </defs>
       <use xlink:href="#DejaVuSans-31" transform="translate(0 0.765625)"/>
       <use xlink:href="#DejaVuSans-30" transform="translate(63.623047 0.765625)"/>
       <use xlink:href="#DejaVuSans-2212" transform="translate(128.203125 39.046875)scale(0.7)"/>
       <use xlink:href="#DejaVuSans-36" transform="translate(186.855469 39.046875)scale(0.7)"/>
      </g>
     </g>
    </g>
   </g>
   <g id="line2d_59">
    <path d="M -1 482.706289 
L 36.417054 482.437826 
L 62.168349 482.034368 
L 80.253021 481.543519 
L 94.97769 480.936374 
L 107.397399 480.209872 
L 118.137047 479.360512 
L 127.597482 478.384474 
L 136.051264 477.277837 
L 143.082726 476.145533 
L 149.542713 474.898113 
L 155.517175 473.534422 
L 161.074021 472.055276 
L 166.723608 470.314886 
L 171.998352 468.454417 
L 177.343569 466.331591 
L 183.464402 463.647528 
L 193.158491 459.348368 
L 196.352959 458.211576 
L 198.819252 457.570029 
L 200.916252 457.252341 
L 202.670696 457.187323 
L 204.387271 457.330126 
L 206.067578 457.689766 
L 207.713118 458.267915 
L 209.325299 459.058724 
L 211.165781 460.23282 
L 212.964634 461.649346 
L 214.971846 463.51881 
L 217.171016 465.872683 
L 219.778842 469.000075 
L 222.97882 473.19955 
L 227.549607 479.599729 
L 244.445952 503.571159 
L 251.166311 512.565812 
L 258.086463 521.454619 
L 265.509299 530.621316 
L 273.612703 540.270313 
L 282.782383 550.835226 
L 293.441942 562.767291 
L 306.685372 577.24098 
L 326.759648 598.808352 
L 354.956264 629.144674 
L 369.839255 645.499176 
L 382.582393 659.828011 
L 394.293997 673.329358 
L 405.454672 686.534532 
L 416.370548 699.794974 
L 427.300038 713.423176 
L 438.488619 727.732784 
L 450.184136 743.056226 
L 462.699159 759.826011 
L 476.477732 778.66889 
L 492.300234 800.69555 
L 512.210992 828.817056 
L 559.359491 895.567469 
L 570.649362 911.060908 
L 577 919.55645 
M 577 919.55645 
L 568.297061 907.86873 
L 557.47821 892.949803 
L 542.744427 872.226029 
L 479.481335 782.821706 
L 464.718773 762.564777 
L 451.612809 744.952046 
L 439.540267 729.095809 
L 428.119606 714.459219 
L 417.05676 700.64027 
L 406.107035 687.317262 
L 395.018427 674.176091 
L 383.540256 660.919541 
L 371.240728 647.058667 
L 357.473296 631.886967 
L 340.404781 613.426807 
L 295.448579 564.981165 
L 283.831627 552.024472 
L 274.203141 540.960889 
L 265.771347 530.938775 
L 258.230411 521.635805 
L 251.166311 512.565812 
L 244.445952 503.571159 
L 237.665615 494.124159 
L 220.24394 469.589118 
L 217.411656 466.1473 
L 214.971846 463.51881 
L 212.964634 461.649346 
L 211.165781 460.23282 
L 209.325299 459.058724 
L 207.713118 458.267915 
L 206.067578 457.689766 
L 204.387271 457.330126 
L 202.670696 457.187323 
L 200.916252 457.252341 
L 198.819252 457.570029 
L 196.665461 458.116902 
L 193.807732 459.096094 
L 190.169479 460.603517 
L 172.84444 468.134127 
L 167.627385 470.01267 
L 162.04393 471.774185 
L 156.556818 473.274007 
L 150.662895 474.658826 
L 144.296972 475.927345 
L 137.376821 477.080434 
L 129.796652 478.12021 
L 121.417164 479.049435 
L 112.049694 479.871117 
L 101.429733 480.588252 
L 89.169886 481.203669 
L 74.669566 481.71992 
L 56.922608 482.139219 
L 34.042801 482.463409 
L 1.795523 482.693934 
L -1 482.706289 
L -1 482.706289 
" clip-path="url(#pf7bca98fc5)" style="fill: none; stroke: #ff0000; stroke-opacity: 0.7; stroke-width: 2.5; stroke-linecap: square"/>
   </g>
   <g id="line2d_60">
    <path d="M -1 442.653381 
L 36.417054 442.389461 
L 62.168349 441.992789 
L 80.253021 441.510135 
L 94.97769 440.913034 
L 107.397399 440.19842 
L 118.137047 439.362788 
L 127.597482 438.402314 
L 136.051264 437.313068 
L 143.692167 436.091361 
L 150.104776 434.852603 
L 156.038696 433.499069 
L 162.04393 431.892895 
L 167.627385 430.157502 
L 172.84444 428.306861 
L 178.134935 426.203006 
L 184.561407 423.397711 
L 192.831872 419.798572 
L 196.039225 418.661174 
L 198.515116 418.01183 
L 200.620044 417.682391 
L 202.380963 417.604373 
L 204.103736 417.732436 
L 205.789981 418.076743 
L 207.441214 418.640223 
L 209.058862 419.418256 
L 210.905449 420.581247 
L 212.710132 421.991924 
L 214.723697 423.861987 
L 216.929645 426.225976 
L 219.545269 429.378194 
L 222.754471 433.625402 
L 227.125438 439.812809 
L 246.805112 468.122173 
L 253.946338 477.791603 
L 261.609252 487.789969 
L 270.346309 498.81147 
L 280.858138 511.6965 
L 295.987169 529.852774 
L 324.040355 563.493659 
L 337.64498 580.197735 
L 350.078732 595.816524 
L 362.20251 611.404479 
L 374.540138 627.63302 
L 387.487178 645.035738 
L 401.495217 664.244035 
L 417.173805 686.13008 
L 435.418225 711.992286 
L 457.92912 744.305993 
L 489.594319 790.183876 
L 540.663428 864.188469 
L 556.551031 886.788493 
L 568.104434 902.852553 
L 577 914.871093 
M 577 914.871093 
L 568.4485 903.324004 
L 558.037333 888.87701 
L 544.693954 869.960865 
L 525.823212 842.792288 
L 485.984825 784.940439 
L 450.863405 734.126401 
L 428.204494 701.723871 
L 410.104658 676.217258 
L 394.605275 654.750906 
L 380.754701 635.940992 
L 367.907219 618.863283 
L 355.593029 602.861796 
L 343.417701 587.404229 
L 330.787423 571.731991 
L 316.736338 554.661458 
L 295.897657 529.745978 
L 277.881557 508.079678 
L 267.325759 495.039749 
L 258.803614 484.170031 
L 251.166311 474.070943 
L 244.103142 464.365094 
L 236.728837 453.840856 
L 221.623135 432.090021 
L 218.367002 427.917098 
L 215.71168 424.883135 
L 213.471206 422.663732 
L 211.425265 420.960468 
L 209.590847 419.723446 
L 207.984094 418.876168 
L 206.34421 418.240291 
L 204.669799 417.822878 
L 202.959377 417.623521 
L 201.21136 417.634384 
L 199.12223 417.893203 
L 196.97674 418.386829 
L 194.451716 419.190795 
L 191.17835 420.470727 
L 185.284426 423.07234 
L 177.343569 426.531455 
L 171.998352 428.622377 
L 166.723608 430.45524 
L 161.074021 432.169806 
L 155.517175 433.626852 
L 149.542713 434.969956 
L 143.082726 436.198308 
L 136.051264 437.313068 
L 128.337316 438.316515 
L 119.794015 439.211485 
L 110.221302 440.001003 
L 99.336676 440.688051 
L 85.470076 441.323959 
L 68.664332 441.844452 
L 47.328875 442.25226 
L 20.97552 442.528968 
L -1 442.653381 
L -1 442.653381 
" clip-path="url(#pf7bca98fc5)" style="fill: none; stroke: #0000ff; stroke-opacity: 0.7; stroke-width: 2.5; stroke-linecap: square"/>
   </g>
   <g id="line2d_61">
    <path d="M -1 484.158258 
L 141.849654 484.280399 
L 185.643486 484.530221 
L 213.218323 484.898776 
L 233.85042 485.389016 
L 250.535105 486.002762 
L 264.58527 486.73604 
L 276.977779 487.600722 
L 288.192002 488.603662 
L 298.453462 489.741133 
L 308.080698 491.028558 
L 317.285781 492.482376 
L 326.14974 494.106042 
L 334.840865 495.923765 
L 343.417701 497.944079 
L 352.048101 500.20637 
L 360.789276 502.729162 
L 369.733142 505.542973 
L 379.041599 508.706725 
L 388.834727 512.273232 
L 399.2561 516.308649 
L 410.487226 520.899498 
L 422.762215 526.1612 
L 436.296695 532.209187 
L 451.181812 539.108104 
L 467.220005 546.788794 
L 483.66178 554.908848 
L 499.505369 562.978585 
L 514.111771 570.663734 
L 527.384105 577.894293 
L 539.499631 584.744561 
L 550.69063 591.324826 
L 561.187735 597.753075 
L 571.17965 604.13139 
L 577 607.973283 
M 577 607.973283 
L 567.290857 601.617241 
L 557.237377 595.302747 
L 546.677214 588.934502 
L 535.427908 582.412868 
L 523.271557 575.625658 
L 509.991084 568.469108 
L 495.42156 560.8739 
L 479.623689 552.891474 
L 463.170638 544.826884 
L 447.033439 537.161877 
L 432.046867 530.285091 
L 418.46923 524.29468 
L 406.196598 519.118377 
L 394.966901 514.619728 
L 384.574876 510.693398 
L 374.839442 507.249919 
L 365.554912 504.19995 
L 356.601367 501.491826 
L 347.873209 499.083341 
L 339.270806 496.938902 
L 330.671825 495.023333 
L 321.938076 493.306253 
L 312.997136 491.776619 
L 303.737946 490.419699 
L 293.994247 489.21885 
L 283.622883 488.166978 
L 272.418513 487.255498 
L 259.937774 486.467509 
L 245.8026 485.803922 
L 229.430862 485.262805 
L 209.325299 484.830579 
L 183.464402 484.510383 
L 146.671225 484.296533 
L 84.197544 484.18433 
L -1 484.158258 
L -1 484.158258 
" clip-path="url(#pf7bca98fc5)" style="fill: none; stroke: #008000; stroke-opacity: 0.7; stroke-width: 2.5; stroke-linecap: square"/>
   </g>
   <g id="line2d_62">
    <path d="M -1 514.426047 
L 210.644261 514.539842 
L 256.043337 514.781465 
L 284.247479 515.142426 
L 305.185476 515.624537 
L 322.002605 516.227774 
L 336.25528 516.956933 
L 348.707464 517.812284 
L 359.913106 518.800989 
L 370.227128 519.931451 
L 379.887188 521.212275 
L 389.057116 522.651224 
L 397.876763 524.259122 
L 406.486982 526.054461 
L 414.9801 528.052747 
L 423.449708 530.274638 
L 431.982167 532.74403 
L 440.650776 535.485377 
L 449.55093 538.534536 
L 458.753891 541.924038 
L 468.334229 545.691322 
L 478.333233 549.864082 
L 488.750789 554.454123 
L 499.526135 559.446119 
L 510.511216 564.781007 
L 521.506308 570.367783 
L 532.318317 576.11005 
L 542.820762 581.938443 
L 552.963935 587.820475 
L 562.768919 593.762418 
L 572.29352 599.793807 
L 577 602.873521 
M 577 602.873521 
L 567.609054 596.794383 
L 558.007479 590.844238 
L 548.117837 584.977903 
L 537.883906 579.166787 
L 527.296289 573.411382 
L 516.417195 567.75092 
L 505.381983 562.259431 
L 494.387286 557.035201 
L 483.627977 552.167118 
L 473.240728 547.70931 
L 463.290801 543.678808 
L 453.758059 540.055102 
L 444.599511 536.809549 
L 435.727566 533.900147 
L 427.07661 531.296153 
L 418.565063 528.965203 
L 410.08335 526.872705 
L 401.566408 525.00052 
L 392.90442 523.324668 
L 384.014896 521.831792 
L 374.739799 520.501336 
L 364.955801 519.325103 
L 354.486041 518.293485 
L 343.072019 517.396497 
L 330.440123 516.630913 
L 316.044152 515.986563 
L 299.144295 515.459861 
L 278.441247 515.046536 
L 251.480045 514.743179 
L 212.454814 514.545153 
L 142.46858 514.446127 
L -1 514.426047 
L -1 514.426047 
" clip-path="url(#pf7bca98fc5)" style="fill: none; stroke: #ffa500; stroke-opacity: 0.7; stroke-width: 2.5; stroke-linecap: square"/>
   </g>
   <g id="line2d_63">
    <path d="M 260.638497 661.724 
L 260.638497 392.988 
" clip-path="url(#pf7bca98fc5)" style="fill: none; stroke-dasharray: 5.55,2.4; stroke-dashoffset: 0; stroke: #808080; stroke-width: 1.5"/>
   </g>
   <g id="line2d_64">
    <path d="M 451.283433 661.724 
L 451.283433 392.988 
" clip-path="url(#pf7bca98fc5)" style="fill: none; stroke-dasharray: 5.55,2.4; stroke-dashoffset: 0; stroke: #808080; stroke-width: 1.5"/>
   </g>
   <g id="patch_12">
    <path d="M 122.216483 661.724 
L 122.216483 392.988 
" style="fill: none; stroke: #000000; stroke-width: 0.8; stroke-linejoin: miter; stroke-linecap: square"/>
   </g>
   <g id="patch_13">
    <path d="M 122.216483 661.724 
L 543.6 661.724 
" style="fill: none; stroke: #000000; stroke-width: 0.8; stroke-linejoin: miter; stroke-linecap: square"/>
   </g>
   <g id="line2d_65">
    <path d="M -1 437.989657 
L 38.722478 437.732369 
L 63.84276 437.370609 
L 82.904319 436.890504 
L 98.269122 436.288012 
L 111.140752 435.558215 
L 121.417164 434.766658 
L 130.5164 433.856888 
L 138.680646 432.823837 
L 146.084274 431.662667 
L 152.857008 430.369414 
L 159.097979 428.942018 
L 164.884645 427.381937 
L 170.278683 425.69664 
L 175.736816 423.749921 
L 181.601751 421.403449 
L 194.771763 415.991515 
L 197.595666 415.164927 
L 199.724745 414.747528 
L 201.798311 414.566258 
L 203.533614 414.620645 
L 205.231862 414.881502 
L 206.894604 415.353794 
L 208.523293 416.034951 
L 210.382213 417.080093 
L 212.198674 418.369606 
L 214.225065 420.098257 
L 216.444695 422.298896 
L 219.076055 425.241575 
L 222.529488 429.481958 
L 228.808708 437.647057 
L 234.821513 445.317495 
L 239.141882 450.474678 
L 243.065759 454.815117 
L 246.805112 458.61384 
L 250.376517 461.921438 
L 253.794415 464.79219 
L 257.217256 467.384299 
L 260.638497 469.704254 
L 264.185947 471.841491 
L 267.837218 473.779463 
L 271.693296 475.567822 
L 275.718074 477.187394 
L 280.097064 478.707059 
L 284.970029 480.156538 
L 290.525614 481.569978 
L 297.229876 483.035908 
L 306.214769 484.755354 
L 341.62368 491.309611 
L 352.532916 493.675815 
L 363.169354 496.210791 
L 373.803729 498.974621 
L 384.574876 502.004142 
L 395.531867 505.317665 
L 406.620648 508.904187 
L 417.775805 512.746098 
L 429.014842 516.852307 
L 440.389158 521.245407 
L 451.966003 525.956029 
L 463.83472 531.026774 
L 476.01399 536.473179 
L 488.449051 542.278308 
L 500.959669 548.364075 
L 513.289403 554.608141 
L 525.204209 560.889661 
L 536.569874 567.13111 
L 547.366661 573.312009 
L 557.64836 579.452615 
L 567.514906 585.603039 
L 577 591.773815 
L 577 591.773815 
" clip-path="url(#pf7bca98fc5)" style="fill: none; stroke: #000000; stroke-width: 2.5; stroke-linecap: square"/>
   </g>
  </g>
  <g id="axes_3">
   <g id="patch_14">
    <path d="M 122.216483 1011.008 
L 543.6 1011.008 
L 543.6 742.272 
L 122.216483 742.272 
z
" style="fill: #ffffff"/>
   </g>
   <g id="patch_15">
    <path d="M -183005.998858 1011.008 
L -183005.998858 742.272 
L 260.638497 742.272 
L 260.638497 1011.008 
z
" clip-path="url(#p6dc99116f9)" style="fill: #add8e6; opacity: 0.3; stroke: #add8e6; stroke-linejoin: miter"/>
   </g>
   <g id="patch_16">
    <path d="M 260.638497 1011.008 
L 260.638497 742.272 
L 451.283433 742.272 
L 451.283433 1011.008 
z
" clip-path="url(#p6dc99116f9)" style="fill: #90ee90; opacity: 0.3; stroke: #90ee90; stroke-linejoin: miter"/>
   </g>
   <g id="patch_17">
    <path d="M 451.283433 1011.008 
L 451.283433 742.272 
L 616.474044 742.272 
L 616.474044 1011.008 
z
" clip-path="url(#p6dc99116f9)" style="fill: #ffa500; opacity: 0.3; stroke: #ffa500; stroke-linejoin: miter"/>
   </g>
   <g id="matplotlib.axis_5">
    <g id="xtick_41">
     <g id="line2d_66">
      <g>
       <use xlink:href="#mc2be2a5e04" x="122.216483" y="1011.008" style="stroke: #000000; stroke-width: 0.8"/>
      </g>
     </g>
     <g id="text_19">
      <!-- $\mathdefault{10^{0}}$ -->
      <g transform="translate(95.816483 1040.803312)scale(0.3 -0.3)">
       <use xlink:href="#DejaVuSans-31" transform="translate(0 0.765625)"/>
       <use xlink:href="#DejaVuSans-30" transform="translate(63.623047 0.765625)"/>
       <use xlink:href="#DejaVuSans-30" transform="translate(128.203125 39.046875)scale(0.7)"/>
      </g>
     </g>
    </g>
    <g id="xtick_42">
     <g id="line2d_67">
      <g>
       <use xlink:href="#mc2be2a5e04" x="305.344699" y="1011.008" style="stroke: #000000; stroke-width: 0.8"/>
      </g>
     </g>
     <g id="text_20">
      <!-- $\mathdefault{10^{1}}$ -->
      <g transform="translate(278.944699 1040.803312)scale(0.3 -0.3)">
       <use xlink:href="#DejaVuSans-31" transform="translate(0 0.684375)"/>
       <use xlink:href="#DejaVuSans-30" transform="translate(63.623047 0.684375)"/>
       <use xlink:href="#DejaVuSans-31" transform="translate(128.203125 38.965625)scale(0.7)"/>
      </g>
     </g>
    </g>
    <g id="xtick_43">
     <g id="line2d_68">
      <g>
       <use xlink:href="#mc2be2a5e04" x="488.472914" y="1011.008" style="stroke: #000000; stroke-width: 0.8"/>
      </g>
     </g>
     <g id="text_21">
      <!-- $\mathdefault{10^{2}}$ -->
      <g transform="translate(462.072914 1040.803312)scale(0.3 -0.3)">
       <use xlink:href="#DejaVuSans-31" transform="translate(0 0.765625)"/>
       <use xlink:href="#DejaVuSans-30" transform="translate(63.623047 0.765625)"/>
       <use xlink:href="#DejaVuSans-32" transform="translate(128.203125 39.046875)scale(0.7)"/>
      </g>
     </g>
    </g>
    <g id="xtick_44">
     <g id="line2d_69">
      <g>
       <use xlink:href="#m263608538c" x="177.343569" y="1011.008" style="stroke: #000000; stroke-width: 0.6"/>
      </g>
     </g>
    </g>
    <g id="xtick_45">
     <g id="line2d_70">
      <g>
       <use xlink:href="#m263608538c" x="209.590847" y="1011.008" style="stroke: #000000; stroke-width: 0.6"/>
      </g>
     </g>
    </g>
    <g id="xtick_46">
     <g id="line2d_71">
      <g>
       <use xlink:href="#m263608538c" x="232.470655" y="1011.008" style="stroke: #000000; stroke-width: 0.6"/>
      </g>
     </g>
    </g>
    <g id="xtick_47">
     <g id="line2d_72">
      <g>
       <use xlink:href="#m263608538c" x="250.217613" y="1011.008" style="stroke: #000000; stroke-width: 0.6"/>
      </g>
     </g>
    </g>
    <g id="xtick_48">
     <g id="line2d_73">
      <g>
       <use xlink:href="#m263608538c" x="264.717933" y="1011.008" style="stroke: #000000; stroke-width: 0.6"/>
      </g>
     </g>
    </g>
    <g id="xtick_49">
     <g id="line2d_74">
      <g>
       <use xlink:href="#m263608538c" x="276.977779" y="1011.008" style="stroke: #000000; stroke-width: 0.6"/>
      </g>
     </g>
    </g>
    <g id="xtick_50">
     <g id="line2d_75">
      <g>
       <use xlink:href="#m263608538c" x="287.597741" y="1011.008" style="stroke: #000000; stroke-width: 0.6"/>
      </g>
     </g>
    </g>
    <g id="xtick_51">
     <g id="line2d_76">
      <g>
       <use xlink:href="#m263608538c" x="296.965211" y="1011.008" style="stroke: #000000; stroke-width: 0.6"/>
      </g>
     </g>
    </g>
    <g id="xtick_52">
     <g id="line2d_77">
      <g>
       <use xlink:href="#m263608538c" x="360.471785" y="1011.008" style="stroke: #000000; stroke-width: 0.6"/>
      </g>
     </g>
    </g>
    <g id="xtick_53">
     <g id="line2d_78">
      <g>
       <use xlink:href="#m263608538c" x="392.719063" y="1011.008" style="stroke: #000000; stroke-width: 0.6"/>
      </g>
     </g>
    </g>
    <g id="xtick_54">
     <g id="line2d_79">
      <g>
       <use xlink:href="#m263608538c" x="415.598871" y="1011.008" style="stroke: #000000; stroke-width: 0.6"/>
      </g>
     </g>
    </g>
    <g id="xtick_55">
     <g id="line2d_80">
      <g>
       <use xlink:href="#m263608538c" x="433.345828" y="1011.008" style="stroke: #000000; stroke-width: 0.6"/>
      </g>
     </g>
    </g>
    <g id="xtick_56">
     <g id="line2d_81">
      <g>
       <use xlink:href="#m263608538c" x="447.846149" y="1011.008" style="stroke: #000000; stroke-width: 0.6"/>
      </g>
     </g>
    </g>
    <g id="xtick_57">
     <g id="line2d_82">
      <g>
       <use xlink:href="#m263608538c" x="460.105995" y="1011.008" style="stroke: #000000; stroke-width: 0.6"/>
      </g>
     </g>
    </g>
    <g id="xtick_58">
     <g id="line2d_83">
      <g>
       <use xlink:href="#m263608538c" x="470.725956" y="1011.008" style="stroke: #000000; stroke-width: 0.6"/>
      </g>
     </g>
    </g>
    <g id="xtick_59">
     <g id="line2d_84">
      <g>
       <use xlink:href="#m263608538c" x="480.093427" y="1011.008" style="stroke: #000000; stroke-width: 0.6"/>
      </g>
     </g>
    </g>
    <g id="xtick_60">
     <g id="line2d_85">
      <g>
       <use xlink:href="#m263608538c" x="543.6" y="1011.008" style="stroke: #000000; stroke-width: 0.6"/>
      </g>
     </g>
    </g>
   </g>
   <g id="matplotlib.axis_6">
    <g id="ytick_8">
     <g id="line2d_86">
      <g>
       <use xlink:href="#mfa23f5baf4" x="122.216483" y="1011.008" style="stroke: #000000; stroke-width: 0.8"/>
      </g>
     </g>
     <g id="text_22">
      <!-- $\mathdefault{10^{-18}}$ -->
      <g transform="translate(31.516483 1022.405656)scale(0.3 -0.3)">
       <use xlink:href="#DejaVuSans-31" transform="translate(0 0.765625)"/>
       <use xlink:href="#DejaVuSans-30" transform="translate(63.623047 0.765625)"/>
       <use xlink:href="#DejaVuSans-2212" transform="translate(128.203125 39.046875)scale(0.7)"/>
       <use xlink:href="#DejaVuSans-31" transform="translate(186.855469 39.046875)scale(0.7)"/>
       <use xlink:href="#DejaVuSans-38" transform="translate(231.391602 39.046875)scale(0.7)"/>
      </g>
     </g>
    </g>
    <g id="ytick_9">
     <g id="line2d_87">
      <g>
       <use xlink:href="#mfa23f5baf4" x="122.216483" y="930.3872" style="stroke: #000000; stroke-width: 0.8"/>
      </g>
     </g>
     <g id="text_23">
      <!-- $\mathdefault{10^{-15}}$ -->
      <g transform="translate(31.516483 941.784856)scale(0.3 -0.3)">
       <defs>
        <path id="DejaVuSans-35" d="M 691 4666 
L 3169 4666 
L 3169 4134 
L 1269 4134 
L 1269 2991 
Q 1406 3038 1543 3061 
Q 1681 3084 1819 3084 
Q 2600 3084 3056 2656 
Q 3513 2228 3513 1497 
Q 3513 744 3044 326 
Q 2575 -91 1722 -91 
Q 1428 -91 1123 -41 
Q 819 9 494 109 
L 494 744 
Q 775 591 1075 516 
Q 1375 441 1709 441 
Q 2250 441 2565 725 
Q 2881 1009 2881 1497 
Q 2881 1984 2565 2268 
Q 2250 2553 1709 2553 
Q 1456 2553 1204 2497 
Q 953 2441 691 2322 
L 691 4666 
z
" transform="scale(0.015625)"/>
       </defs>
       <use xlink:href="#DejaVuSans-31" transform="translate(0 0.684375)"/>
       <use xlink:href="#DejaVuSans-30" transform="translate(63.623047 0.684375)"/>
       <use xlink:href="#DejaVuSans-2212" transform="translate(128.203125 38.965625)scale(0.7)"/>
       <use xlink:href="#DejaVuSans-31" transform="translate(186.855469 38.965625)scale(0.7)"/>
       <use xlink:href="#DejaVuSans-35" transform="translate(231.391602 38.965625)scale(0.7)"/>
      </g>
     </g>
    </g>
    <g id="ytick_10">
     <g id="line2d_88">
      <g>
       <use xlink:href="#mfa23f5baf4" x="122.216483" y="849.7664" style="stroke: #000000; stroke-width: 0.8"/>
      </g>
     </g>
     <g id="text_24">
      <!-- $\mathdefault{10^{-12}}$ -->
      <g transform="translate(31.516483 861.164056)scale(0.3 -0.3)">
       <use xlink:href="#DejaVuSans-31" transform="translate(0 0.765625)"/>
       <use xlink:href="#DejaVuSans-30" transform="translate(63.623047 0.765625)"/>
       <use xlink:href="#DejaVuSans-2212" transform="translate(128.203125 39.046875)scale(0.7)"/>
       <use xlink:href="#DejaVuSans-31" transform="translate(186.855469 39.046875)scale(0.7)"/>
       <use xlink:href="#DejaVuSans-32" transform="translate(231.391602 39.046875)scale(0.7)"/>
      </g>
     </g>
    </g>
    <g id="ytick_11">
     <g id="line2d_89">
      <g>
       <use xlink:href="#mfa23f5baf4" x="122.216483" y="769.1456" style="stroke: #000000; stroke-width: 0.8"/>
      </g>
     </g>
     <g id="text_25">
      <!-- $\mathdefault{10^{-9}}$ -->
      <g transform="translate(44.716483 780.543256)scale(0.3 -0.3)">
       <defs>
        <path id="DejaVuSans-39" d="M 703 97 
L 703 672 
Q 941 559 1184 500 
Q 1428 441 1663 441 
Q 2288 441 2617 861 
Q 2947 1281 2994 2138 
Q 2813 1869 2534 1725 
Q 2256 1581 1919 1581 
Q 1219 1581 811 2004 
Q 403 2428 403 3163 
Q 403 3881 828 4315 
Q 1253 4750 1959 4750 
Q 2769 4750 3195 4129 
Q 3622 3509 3622 2328 
Q 3622 1225 3098 567 
Q 2575 -91 1691 -91 
Q 1453 -91 1209 -44 
Q 966 3 703 97 
z
M 1959 2075 
Q 2384 2075 2632 2365 
Q 2881 2656 2881 3163 
Q 2881 3666 2632 3958 
Q 2384 4250 1959 4250 
Q 1534 4250 1286 3958 
Q 1038 3666 1038 3163 
Q 1038 2656 1286 2365 
Q 1534 2075 1959 2075 
z
" transform="scale(0.015625)"/>
       </defs>
       <use xlink:href="#DejaVuSans-31" transform="translate(0 0.765625)"/>
       <use xlink:href="#DejaVuSans-30" transform="translate(63.623047 0.765625)"/>
       <use xlink:href="#DejaVuSans-2212" transform="translate(128.203125 39.046875)scale(0.7)"/>
       <use xlink:href="#DejaVuSans-39" transform="translate(186.855469 39.046875)scale(0.7)"/>
      </g>
     </g>
    </g>
   </g>
   <g id="line2d_90">
    <path d="M -1 796.309173 
L 47.328875 796.538737 
L 80.253021 796.908151 
L 110.221302 797.474582 
L 146.084274 798.161003 
L 157.583046 798.143488 
L 166.723608 797.91805 
L 174.921101 797.500391 
L 184.561407 796.767511 
L 192.503906 796.22274 
L 196.352959 796.182861 
L 199.424058 796.382711 
L 201.798311 796.742038 
L 204.103736 797.307828 
L 206.34421 798.095964 
L 208.523293 799.108824 
L 210.644261 800.33485 
L 212.964634 801.939579 
L 215.465833 803.949913 
L 218.367002 806.587154 
L 221.850693 810.07748 
L 226.698994 815.291069 
L 251.792547 842.777598 
L 260.917067 852.205147 
L 271.083856 862.37998 
L 282.993342 873.971334 
L 297.756577 888.014749 
L 319.645941 908.495705 
L 357.059284 943.498547 
L 374.506812 960.154449 
L 389.527636 974.797621 
L 403.418516 988.647966 
L 416.841731 1002.345984 
L 430.264709 1016.36336 
L 444.100879 1031.137145 
L 458.846289 1047.21248 
L 475.162977 1065.337554 
L 489.063936 1081 
M 489.063936 1081 
L 469.685267 1059.217887 
L 453.32619 1041.157429 
L 438.578031 1025.201932 
L 424.73625 1010.551523 
L 411.288877 996.640853 
L 397.80219 983.009616 
L 383.807589 969.18336 
L 368.664153 954.539728 
L 351.158974 937.931968 
L 326.759648 915.120592 
L 293.62647 884.112983 
L 278.775179 869.898985 
L 267.068791 858.397746 
L 257.071461 848.270082 
L 248.122435 838.891794 
L 239.324503 829.343121 
L 220.24394 808.431753 
L 216.929645 805.244136 
L 214.225065 802.918734 
L 211.683904 801.020874 
L 209.325299 799.544635 
L 207.168379 798.44978 
L 204.951327 797.576883 
L 202.670696 796.928891 
L 200.32273 796.49476 
L 197.595666 796.233048 
L 194.451716 796.171173 
L 190.507193 796.32343 
L 183.464402 796.857838 
L 172.84444 797.626859 
L 164.418183 797.996995 
L 155.517175 798.165114 
L 144.296972 798.145038 
L 127.597482 797.862418 
L 74.669566 796.827795 
L 43.142036 796.507374 
L -1 796.309173 
L -1 796.309173 
" clip-path="url(#p6dc99116f9)" style="fill: none; stroke: #ff0000; stroke-opacity: 0.7; stroke-width: 2.5; stroke-linecap: square"/>
   </g>
   <g id="line2d_91">
    <path d="M -1 772.277428 
L 47.328875 772.51113 
L 80.253021 772.888121 
L 109.291097 773.448514 
L 147.253877 774.208058 
L 158.596201 774.191903 
L 167.627385 773.969542 
L 176.141558 773.535122 
L 195.408019 772.375081 
L 198.515116 772.522153 
L 201.21136 772.877771 
L 203.533614 773.406378 
L 205.789981 774.154994 
L 207.984094 775.129521 
L 210.119298 776.321769 
L 212.454814 777.89715 
L 214.971846 779.887898 
L 217.651571 782.293035 
L 220.936527 785.551998 
L 225.188172 790.103938 
L 232.669236 798.505666 
L 245.127168 812.455001 
L 254.400373 822.482458 
L 264.717933 833.300142 
L 277.317901 846.17216 
L 297.669035 866.594882 
L 323.155256 892.245208 
L 339.166911 908.685589 
L 353.926715 924.15952 
L 368.55646 939.821884 
L 383.77793 956.447876 
L 400.323328 974.856096 
L 419.137647 996.131103 
L 441.788916 1022.094266 
L 471.74339 1056.788731 
L 492.538928 1081 
M 492.538928 1081 
L 447.660358 1028.869396 
L 421.793309 999.157939 
L 401.495217 976.171555 
L 384.162642 956.872148 
L 368.520529 939.783026 
L 353.710537 923.930516 
L 339.06288 908.577665 
L 323.599037 892.6966 
L 305.105745 874.039708 
L 268.345409 837.03682 
L 256.925397 825.159514 
L 247.301669 814.83556 
L 238.037259 804.570439 
L 221.623135 786.266385 
L 217.890764 782.519984 
L 214.971846 779.887898 
L 212.454814 777.89715 
L 210.119298 776.321769 
L 207.984094 775.129521 
L 205.789981 774.154994 
L 203.533614 773.406378 
L 201.21136 772.877771 
L 198.819252 772.550291 
L 196.039225 772.386574 
L 192.503906 772.412918 
L 187.414863 772.702111 
L 169.842893 773.878592 
L 161.074021 774.15278 
L 151.217124 774.228458 
L 138.031405 774.085927 
L 112.948366 773.532387 
L 81.589718 772.909018 
L 51.306282 772.544323 
L 11.962312 772.316774 
L -1 772.277428 
L -1 772.277428 
" clip-path="url(#p6dc99116f9)" style="fill: none; stroke: #0000ff; stroke-opacity: 0.7; stroke-width: 2.5; stroke-linecap: square"/>
   </g>
   <g id="line2d_92">
    <path d="M -1 797.180355 
L 34.042801 797.468372 
L 58.70991 797.879022 
L 77.510281 798.395535 
L 93.849564 799.058613 
L 108.349884 799.872567 
L 121.417164 800.834715 
L 133.331971 801.935866 
L 144.897213 803.234969 
L 156.038696 804.718132 
L 166.723608 806.362476 
L 177.740236 808.286266 
L 188.804096 810.445283 
L 200.32273 812.921473 
L 212.454814 815.762172 
L 225.188172 818.977207 
L 238.407174 822.545433 
L 252.103826 826.473888 
L 265.902048 830.664345 
L 279.328637 834.974122 
L 292.138116 839.316658 
L 304.384547 843.700743 
L 316.113643 848.133775 
L 327.485416 852.667882 
L 338.697697 857.377662 
L 349.897257 862.323779 
L 361.302512 867.605249 
L 373.128298 873.328935 
L 385.625198 879.627623 
L 399.133913 886.689722 
L 414.032684 894.734684 
L 430.808489 904.051856 
L 449.848777 914.886639 
L 470.91462 927.13279 
L 492.36842 939.859462 
L 512.169675 951.858829 
L 529.648143 962.705032 
L 545.147639 972.580406 
L 559.202772 981.795877 
L 572.282431 990.63553 
L 577 993.892872 
M 577 993.892872 
L 564.340729 985.235906 
L 550.995586 976.381782 
L 536.582905 967.089921 
L 520.656541 957.091404 
L 502.720985 946.099361 
L 482.564306 934.011045 
L 460.998538 921.337074 
L 440.11207 909.315411 
L 421.443071 898.820239 
L 405.115132 889.890041 
L 390.596662 882.198102 
L 377.419423 875.464204 
L 365.143509 869.437545 
L 353.450346 863.943069 
L 342.126092 858.866111 
L 330.902854 854.077865 
L 319.645941 849.516581 
L 308.157503 845.100774 
L 296.255103 840.763991 
L 283.831627 836.473863 
L 270.838766 832.221553 
L 257.362785 828.043292 
L 243.586142 824.003738 
L 230.048186 820.262793 
L 216.929645 816.865931 
L 204.387271 813.847639 
L 192.503906 811.216017 
L 181.223928 808.942026 
L 170.278683 806.95811 
L 159.596612 805.24135 
L 148.97665 803.750989 
L 138.031405 802.435171 
L 126.850701 801.308556 
L 114.715807 800.311513 
L 101.429733 799.454007 
L 86.722568 798.740305 
L 70.208683 798.168309 
L 51.306282 797.729739 
L 26.462632 797.383707 
L -1 797.180355 
L -1 797.180355 
" clip-path="url(#p6dc99116f9)" style="fill: none; stroke: #008000; stroke-opacity: 0.7; stroke-width: 2.5; stroke-linecap: square"/>
   </g>
   <g id="line2d_93">
    <path d="M -1 815.341028 
L 34.042801 815.626579 
L 58.70991 816.033609 
L 78.893474 816.592345 
L 94.97769 817.256504 
L 109.291097 818.068593 
L 122.216483 819.025359 
L 134.02056 820.117145 
L 145.492958 821.401614 
L 156.556818 822.863946 
L 167.627385 824.553638 
L 178.918503 826.508416 
L 190.507193 828.746675 
L 202.670696 831.327965 
L 215.71168 834.328267 
L 230.048186 837.861863 
L 245.970565 842.021325 
L 263.918614 846.9451 
L 283.727323 852.612858 
L 304.223389 858.708249 
L 323.472495 864.660989 
L 340.609233 870.188299 
L 355.804156 875.318509 
L 369.520491 880.181045 
L 382.159673 884.895353 
L 394.059736 889.569421 
L 405.522407 894.309714 
L 416.763394 899.198782 
L 428.000611 904.329382 
L 439.422464 909.790209 
L 451.207229 915.672932 
L 463.541466 922.081001 
L 476.551681 929.093554 
L 490.281421 936.748985 
L 504.574155 944.974241 
L 519.070145 953.572851 
L 533.315634 962.279976 
L 546.997922 970.901504 
L 560.03506 979.377479 
L 572.517752 987.756832 
L 577 990.833014 
M 577 990.833014 
L 564.762405 982.519174 
L 552.093136 974.182276 
L 538.843767 965.731455 
L 524.958268 957.14003 
L 510.571476 948.500414 
L 496.045852 940.035813 
L 481.841444 932.013343 
L 468.282987 924.607937 
L 455.46246 917.855774 
L 443.290893 911.694198 
L 431.625377 906.035916 
L 420.270595 900.773959 
L 409.032209 895.810261 
L 397.702651 891.049759 
L 386.087592 886.411584 
L 373.93813 881.801438 
L 360.987067 877.127551 
L 346.888721 872.279177 
L 331.190699 867.12052 
L 313.572933 861.569549 
L 293.994247 855.636871 
L 273.494088 849.656728 
L 253.946338 844.181853 
L 236.54015 839.530921 
L 221.166056 835.646037 
L 207.441214 832.399398 
L 194.771763 829.625924 
L 183.095345 827.288895 
L 171.571908 825.210337 
L 160.584594 823.452398 
L 149.542713 821.910864 
L 138.680646 820.611252 
L 126.850701 819.427601 
L 114.715807 818.441944 
L 101.429733 817.593512 
L 86.722568 816.886888 
L 70.208683 816.320271 
L 51.306282 815.885656 
L 26.462632 815.542645 
L -1 815.341028 
L -1 815.341028 
" clip-path="url(#p6dc99116f9)" style="fill: none; stroke: #ffa500; stroke-opacity: 0.7; stroke-width: 2.5; stroke-linecap: square"/>
   </g>
   <g id="line2d_94">
    <path d="M 260.638497 1011.008 
L 260.638497 742.272 
" clip-path="url(#p6dc99116f9)" style="fill: none; stroke-dasharray: 5.55,2.4; stroke-dashoffset: 0; stroke: #808080; stroke-width: 1.5"/>
   </g>
   <g id="line2d_95">
    <path d="M 451.283433 1011.008 
L 451.283433 742.272 
" clip-path="url(#p6dc99116f9)" style="fill: none; stroke-dasharray: 5.55,2.4; stroke-dashoffset: 0; stroke: #808080; stroke-width: 1.5"/>
   </g>
   <g id="patch_18">
    <path d="M 122.216483 1011.008 
L 122.216483 742.272 
" style="fill: none; stroke: #000000; stroke-width: 0.8; stroke-linejoin: miter; stroke-linecap: square"/>
   </g>
   <g id="patch_19">
    <path d="M 122.216483 1011.008 
L 543.6 1011.008 
" style="fill: none; stroke: #000000; stroke-width: 0.8; stroke-linejoin: miter; stroke-linecap: square"/>
   </g>
   <g id="line2d_96">
    <path d="M -1 769.479194 
L 45.263003 769.721784 
L 76.102606 770.095083 
L 102.455961 770.637895 
L 158.091237 771.924477 
L 167.627385 771.807529 
L 176.141558 771.479848 
L 187.414863 770.782702 
L 193.483774 770.524043 
L 196.97674 770.581307 
L 199.724745 770.823424 
L 202.380963 771.290086 
L 204.669799 771.921449 
L 206.894604 772.769577 
L 209.058862 773.832656 
L 211.425265 775.265888 
L 213.974572 777.107575 
L 216.68754 779.360375 
L 220.011731 782.4359 
L 224.531787 786.957497 
L 237.851654 800.465849 
L 242.891539 805.168997 
L 247.630992 809.282831 
L 252.103826 812.874556 
L 256.632463 816.224272 
L 261.194664 819.319901 
L 265.902048 822.244277 
L 270.838766 825.05108 
L 276.293142 827.891104 
L 282.358778 830.793115 
L 289.561583 833.982351 
L 298.799629 837.812776 
L 314.428886 844.009522 
L 335.822749 852.545605 
L 350.304995 858.574041 
L 364.162557 864.584577 
L 378.123247 870.883812 
L 392.400298 877.570837 
L 406.975998 884.644109 
L 421.719703 892.046562 
L 436.633175 899.783682 
L 451.865251 907.937999 
L 467.572465 916.600696 
L 483.788416 925.799208 
L 500.263277 935.400223 
L 516.456364 945.092694 
L 531.84951 954.562706 
L 546.232195 963.669182 
L 559.685 972.447654 
L 572.418172 981.020363 
L 577 984.173191 
L 577 984.173191 
" clip-path="url(#p6dc99116f9)" style="fill: none; stroke: #000000; stroke-width: 2.5; stroke-linecap: square"/>
   </g>
  </g>
 </g>
 <defs>
  <clipPath id="pc58d4b754c">
   <rect x="122.216483" y="43.704" width="421.383517" height="268.736"/>
  </clipPath>
  <clipPath id="pf7bca98fc5">
   <rect x="122.216483" y="392.988" width="421.383517" height="268.736"/>
  </clipPath>
  <clipPath id="p6dc99116f9">
   <rect x="122.216483" y="742.272" width="421.383517" height="268.736"/>
  </clipPath>
 </defs>
</svg>
