<?xml version="1.0" encoding="utf-8" standalone="no"?>
<!DOCTYPE svg PUBLIC "-//W3C//DTD SVG 1.1//EN"
  "http://www.w3.org/Graphics/SVG/1.1/DTD/svg11.dtd">
<svg xmlns:xlink="http://www.w3.org/1999/xlink" width="576pt" height="576pt" viewBox="0 0 576 576" xmlns="http://www.w3.org/2000/svg" version="1.1">
 <metadata>
  <rdf:RDF xmlns:dc="http://purl.org/dc/elements/1.1/" xmlns:cc="http://creativecommons.org/ns#" xmlns:rdf="http://www.w3.org/1999/02/22-rdf-syntax-ns#">
   <cc:Work>
    <dc:type rdf:resource="http://purl.org/dc/dcmitype/StillImage"/>
    <dc:date>2024-06-09T10:01:05.115375</dc:date>
    <dc:format>image/svg+xml</dc:format>
    <dc:creator>
     <cc:Agent>
      <dc:title>Matplotlib v3.5.3, https://matplotlib.org/</dc:title>
     </cc:Agent>
    </dc:creator>
   </cc:Work>
  </rdf:RDF>
 </metadata>
 <defs>
  <style type="text/css">*{stroke-linejoin: round; stroke-linecap: butt}</style>
 </defs>
 <g id="figure_1">
  <g id="patch_1">
   <path d="M 0 576 
L 576 576 
L 576 0 
L 0 0 
z
" style="fill: #ffffff"/>
  </g>
  <g id="axes_1">
   <g id="patch_2">
    <path d="M 72 512.64 
L 518.4 512.64 
L 518.4 69.12 
L 72 69.12 
z
" style="fill: #ffffff"/>
   </g>
   <g id="patch_3">
    <path d="M 72 512.64 
L 72 69.12 
L 405.95454 69.12 
L 405.95454 512.64 
z
" clip-path="url(#pee149e9021)" style="fill: #add8e6; opacity: 0.3; stroke: #add8e6; stroke-linejoin: miter"/>
   </g>
   <g id="patch_4">
    <path d="M 405.95454 512.64 
L 405.95454 69.12 
L 518.4 69.12 
L 518.4 512.64 
z
" clip-path="url(#pee149e9021)" style="fill: #90ee90; opacity: 0.3; stroke: #90ee90; stroke-linejoin: miter"/>
   </g>
   <g id="matplotlib.axis_1">
    <g id="xtick_1">
     <g id="line2d_1">
      <defs>
       <path id="md4b2bda72a" d="M 0 0 
L 0 3.5 
" style="stroke: #000000; stroke-width: 0.8"/>
      </defs>
      <g>
       <use xlink:href="#md4b2bda72a" x="155.879375" y="512.64" style="stroke: #000000; stroke-width: 0.8"/>
      </g>
     </g>
     <g id="text_1">
      <!-- $\mathdefault{10^{1}}$ -->
      <g transform="translate(129.479375 542.435313)scale(0.3 -0.3)">
       <defs>
        <path id="DejaVuSans-31" d="M 794 531 
L 1825 531 
L 1825 4091 
L 703 3866 
L 703 4441 
L 1819 4666 
L 2450 4666 
L 2450 531 
L 3481 531 
L 3481 0 
L 794 0 
L 794 531 
z
" transform="scale(0.015625)"/>
        <path id="DejaVuSans-30" d="M 2034 4250 
Q 1547 4250 1301 3770 
Q 1056 3291 1056 2328 
Q 1056 1369 1301 889 
Q 1547 409 2034 409 
Q 2525 409 2770 889 
Q 3016 1369 3016 2328 
Q 3016 3291 2770 3770 
Q 2525 4250 2034 4250 
z
M 2034 4750 
Q 2819 4750 3233 4129 
Q 3647 3509 3647 2328 
Q 3647 1150 3233 529 
Q 2819 -91 2034 -91 
Q 1250 -91 836 529 
Q 422 1150 422 2328 
Q 422 3509 836 4129 
Q 1250 4750 2034 4750 
z
" transform="scale(0.015625)"/>
       </defs>
       <use xlink:href="#DejaVuSans-31" transform="translate(0 0.684375)"/>
       <use xlink:href="#DejaVuSans-30" transform="translate(63.623047 0.684375)"/>
       <use xlink:href="#DejaVuSans-31" transform="translate(128.203125 38.965625)scale(0.7)"/>
      </g>
     </g>
    </g>
    <g id="xtick_2">
     <g id="line2d_2">
      <g>
       <use xlink:href="#md4b2bda72a" x="434.520625" y="512.64" style="stroke: #000000; stroke-width: 0.8"/>
      </g>
     </g>
     <g id="text_2">
      <!-- $\mathdefault{10^{2}}$ -->
      <g transform="translate(408.120625 542.435313)scale(0.3 -0.3)">
       <defs>
        <path id="DejaVuSans-32" d="M 1228 531 
L 3431 531 
L 3431 0 
L 469 0 
L 469 531 
Q 828 903 1448 1529 
Q 2069 2156 2228 2338 
Q 2531 2678 2651 2914 
Q 2772 3150 2772 3378 
Q 2772 3750 2511 3984 
Q 2250 4219 1831 4219 
Q 1534 4219 1204 4116 
Q 875 4013 500 3803 
L 500 4441 
Q 881 4594 1212 4672 
Q 1544 4750 1819 4750 
Q 2544 4750 2975 4387 
Q 3406 4025 3406 3419 
Q 3406 3131 3298 2873 
Q 3191 2616 2906 2266 
Q 2828 2175 2409 1742 
Q 1991 1309 1228 531 
z
" transform="scale(0.015625)"/>
       </defs>
       <use xlink:href="#DejaVuSans-31" transform="translate(0 0.765625)"/>
       <use xlink:href="#DejaVuSans-30" transform="translate(63.623047 0.765625)"/>
       <use xlink:href="#DejaVuSans-32" transform="translate(128.203125 39.046875)scale(0.7)"/>
      </g>
     </g>
    </g>
    <g id="xtick_3">
     <g id="line2d_3">
      <defs>
       <path id="m9fd07ea5c3" d="M 0 0 
L 0 2 
" style="stroke: #000000; stroke-width: 0.6"/>
      </defs>
      <g>
       <use xlink:href="#m9fd07ea5c3" x="72" y="512.64" style="stroke: #000000; stroke-width: 0.6"/>
      </g>
     </g>
    </g>
    <g id="xtick_4">
     <g id="line2d_4">
      <g>
       <use xlink:href="#m9fd07ea5c3" x="94.063161" y="512.64" style="stroke: #000000; stroke-width: 0.6"/>
      </g>
     </g>
    </g>
    <g id="xtick_5">
     <g id="line2d_5">
      <g>
       <use xlink:href="#m9fd07ea5c3" x="112.717299" y="512.64" style="stroke: #000000; stroke-width: 0.6"/>
      </g>
     </g>
    </g>
    <g id="xtick_6">
     <g id="line2d_6">
      <g>
       <use xlink:href="#m9fd07ea5c3" x="128.876247" y="512.64" style="stroke: #000000; stroke-width: 0.6"/>
      </g>
     </g>
    </g>
    <g id="xtick_7">
     <g id="line2d_7">
      <g>
       <use xlink:href="#m9fd07ea5c3" x="143.12945" y="512.64" style="stroke: #000000; stroke-width: 0.6"/>
      </g>
     </g>
    </g>
    <g id="xtick_8">
     <g id="line2d_8">
      <g>
       <use xlink:href="#m9fd07ea5c3" x="239.758749" y="512.64" style="stroke: #000000; stroke-width: 0.6"/>
      </g>
     </g>
    </g>
    <g id="xtick_9">
     <g id="line2d_9">
      <g>
       <use xlink:href="#m9fd07ea5c3" x="288.825038" y="512.64" style="stroke: #000000; stroke-width: 0.6"/>
      </g>
     </g>
    </g>
    <g id="xtick_10">
     <g id="line2d_10">
      <g>
       <use xlink:href="#m9fd07ea5c3" x="323.638124" y="512.64" style="stroke: #000000; stroke-width: 0.6"/>
      </g>
     </g>
    </g>
    <g id="xtick_11">
     <g id="line2d_11">
      <g>
       <use xlink:href="#m9fd07ea5c3" x="350.641251" y="512.64" style="stroke: #000000; stroke-width: 0.6"/>
      </g>
     </g>
    </g>
    <g id="xtick_12">
     <g id="line2d_12">
      <g>
       <use xlink:href="#m9fd07ea5c3" x="372.704412" y="512.64" style="stroke: #000000; stroke-width: 0.6"/>
      </g>
     </g>
    </g>
    <g id="xtick_13">
     <g id="line2d_13">
      <g>
       <use xlink:href="#m9fd07ea5c3" x="391.35855" y="512.64" style="stroke: #000000; stroke-width: 0.6"/>
      </g>
     </g>
    </g>
    <g id="xtick_14">
     <g id="line2d_14">
      <g>
       <use xlink:href="#m9fd07ea5c3" x="407.517498" y="512.64" style="stroke: #000000; stroke-width: 0.6"/>
      </g>
     </g>
    </g>
    <g id="xtick_15">
     <g id="line2d_15">
      <g>
       <use xlink:href="#m9fd07ea5c3" x="421.770701" y="512.64" style="stroke: #000000; stroke-width: 0.6"/>
      </g>
     </g>
    </g>
    <g id="xtick_16">
     <g id="line2d_16">
      <g>
       <use xlink:href="#m9fd07ea5c3" x="518.4" y="512.64" style="stroke: #000000; stroke-width: 0.6"/>
      </g>
     </g>
    </g>
   </g>
   <g id="matplotlib.axis_2">
    <g id="ytick_1">
     <g id="line2d_17">
      <defs>
       <path id="mcb8813ee3f" d="M 0 0 
L -3.5 0 
" style="stroke: #000000; stroke-width: 0.8"/>
      </defs>
      <g>
       <use xlink:href="#mcb8813ee3f" x="72" y="512.64" style="stroke: #000000; stroke-width: 0.8"/>
      </g>
     </g>
     <g id="text_3">
      <!-- $\mathdefault{10^{1}}$ -->
      <g transform="translate(12.2 524.037656)scale(0.3 -0.3)">
       <use xlink:href="#DejaVuSans-31" transform="translate(0 0.684375)"/>
       <use xlink:href="#DejaVuSans-30" transform="translate(63.623047 0.684375)"/>
       <use xlink:href="#DejaVuSans-31" transform="translate(128.203125 38.965625)scale(0.7)"/>
      </g>
     </g>
    </g>
    <g id="ytick_2">
     <g id="line2d_18">
      <g>
       <use xlink:href="#mcb8813ee3f" x="72" y="308.825018" style="stroke: #000000; stroke-width: 0.8"/>
      </g>
     </g>
     <g id="text_4">
      <!-- $\mathdefault{10^{2}}$ -->
      <g transform="translate(12.2 320.222675)scale(0.3 -0.3)">
       <use xlink:href="#DejaVuSans-31" transform="translate(0 0.765625)"/>
       <use xlink:href="#DejaVuSans-30" transform="translate(63.623047 0.765625)"/>
       <use xlink:href="#DejaVuSans-32" transform="translate(128.203125 39.046875)scale(0.7)"/>
      </g>
     </g>
    </g>
    <g id="ytick_3">
     <g id="line2d_19">
      <g>
       <use xlink:href="#mcb8813ee3f" x="72" y="105.010037" style="stroke: #000000; stroke-width: 0.8"/>
      </g>
     </g>
     <g id="text_5">
      <!-- $\mathdefault{10^{3}}$ -->
      <g transform="translate(12.2 116.407693)scale(0.3 -0.3)">
       <defs>
        <path id="DejaVuSans-33" d="M 2597 2516 
Q 3050 2419 3304 2112 
Q 3559 1806 3559 1356 
Q 3559 666 3084 287 
Q 2609 -91 1734 -91 
Q 1441 -91 1130 -33 
Q 819 25 488 141 
L 488 750 
Q 750 597 1062 519 
Q 1375 441 1716 441 
Q 2309 441 2620 675 
Q 2931 909 2931 1356 
Q 2931 1769 2642 2001 
Q 2353 2234 1838 2234 
L 1294 2234 
L 1294 2753 
L 1863 2753 
Q 2328 2753 2575 2939 
Q 2822 3125 2822 3475 
Q 2822 3834 2567 4026 
Q 2313 4219 1838 4219 
Q 1578 4219 1281 4162 
Q 984 4106 628 3988 
L 628 4550 
Q 988 4650 1302 4700 
Q 1616 4750 1894 4750 
Q 2613 4750 3031 4423 
Q 3450 4097 3450 3541 
Q 3450 3153 3228 2886 
Q 3006 2619 2597 2516 
z
" transform="scale(0.015625)"/>
       </defs>
       <use xlink:href="#DejaVuSans-31" transform="translate(0 0.765625)"/>
       <use xlink:href="#DejaVuSans-30" transform="translate(63.623047 0.765625)"/>
       <use xlink:href="#DejaVuSans-33" transform="translate(128.203125 39.046875)scale(0.7)"/>
      </g>
     </g>
    </g>
    <g id="ytick_4">
     <g id="line2d_20">
      <defs>
       <path id="m250f26448a" d="M 0 0 
L -2 0 
" style="stroke: #000000; stroke-width: 0.6"/>
      </defs>
      <g>
       <use xlink:href="#m250f26448a" x="72" y="451.285577" style="stroke: #000000; stroke-width: 0.6"/>
      </g>
     </g>
    </g>
    <g id="ytick_5">
     <g id="line2d_21">
      <g>
       <use xlink:href="#m250f26448a" x="72" y="415.39554" style="stroke: #000000; stroke-width: 0.6"/>
      </g>
     </g>
    </g>
    <g id="ytick_6">
     <g id="line2d_22">
      <g>
       <use xlink:href="#m250f26448a" x="72" y="389.931154" style="stroke: #000000; stroke-width: 0.6"/>
      </g>
     </g>
    </g>
    <g id="ytick_7">
     <g id="line2d_23">
      <g>
       <use xlink:href="#m250f26448a" x="72" y="370.179441" style="stroke: #000000; stroke-width: 0.6"/>
      </g>
     </g>
    </g>
    <g id="ytick_8">
     <g id="line2d_24">
      <g>
       <use xlink:href="#m250f26448a" x="72" y="354.041117" style="stroke: #000000; stroke-width: 0.6"/>
      </g>
     </g>
    </g>
    <g id="ytick_9">
     <g id="line2d_25">
      <g>
       <use xlink:href="#m250f26448a" x="72" y="340.396358" style="stroke: #000000; stroke-width: 0.6"/>
      </g>
     </g>
    </g>
    <g id="ytick_10">
     <g id="line2d_26">
      <g>
       <use xlink:href="#m250f26448a" x="72" y="328.576731" style="stroke: #000000; stroke-width: 0.6"/>
      </g>
     </g>
    </g>
    <g id="ytick_11">
     <g id="line2d_27">
      <g>
       <use xlink:href="#m250f26448a" x="72" y="318.15108" style="stroke: #000000; stroke-width: 0.6"/>
      </g>
     </g>
    </g>
    <g id="ytick_12">
     <g id="line2d_28">
      <g>
       <use xlink:href="#m250f26448a" x="72" y="247.470595" style="stroke: #000000; stroke-width: 0.6"/>
      </g>
     </g>
    </g>
    <g id="ytick_13">
     <g id="line2d_29">
      <g>
       <use xlink:href="#m250f26448a" x="72" y="211.580559" style="stroke: #000000; stroke-width: 0.6"/>
      </g>
     </g>
    </g>
    <g id="ytick_14">
     <g id="line2d_30">
      <g>
       <use xlink:href="#m250f26448a" x="72" y="186.116172" style="stroke: #000000; stroke-width: 0.6"/>
      </g>
     </g>
    </g>
    <g id="ytick_15">
     <g id="line2d_31">
      <g>
       <use xlink:href="#m250f26448a" x="72" y="166.36446" style="stroke: #000000; stroke-width: 0.6"/>
      </g>
     </g>
    </g>
    <g id="ytick_16">
     <g id="line2d_32">
      <g>
       <use xlink:href="#m250f26448a" x="72" y="150.226136" style="stroke: #000000; stroke-width: 0.6"/>
      </g>
     </g>
    </g>
    <g id="ytick_17">
     <g id="line2d_33">
      <g>
       <use xlink:href="#m250f26448a" x="72" y="136.581377" style="stroke: #000000; stroke-width: 0.6"/>
      </g>
     </g>
    </g>
    <g id="ytick_18">
     <g id="line2d_34">
      <g>
       <use xlink:href="#m250f26448a" x="72" y="124.761749" style="stroke: #000000; stroke-width: 0.6"/>
      </g>
     </g>
    </g>
    <g id="ytick_19">
     <g id="line2d_35">
      <g>
       <use xlink:href="#m250f26448a" x="72" y="114.336099" style="stroke: #000000; stroke-width: 0.6"/>
      </g>
     </g>
    </g>
   </g>
   <g id="line2d_36">
    <path d="M -1 63.620709 
L 33.761006 64.051119 
L 60.672922 64.598885 
L 82.709045 65.263299 
L 101.459722 66.045732 
L 117.842827 66.947614 
L 132.427087 67.969418 
L 145.622227 69.113549 
L 157.701018 70.380943 
L 168.898588 71.776877 
L 179.360313 73.302835 
L 189.227664 74.964987 
L 198.584503 76.764789 
L 207.534874 78.711399 
L 216.138241 80.808811 
L 224.464035 83.066418 
L 232.56763 85.493542 
L 240.49327 88.099017 
L 248.293478 90.897166 
L 256.009296 93.901329 
L 263.687503 97.129733 
L 271.377606 100.604959 
L 279.12934 104.352937 
L 287.003049 108.408058 
L 295.075545 112.817364 
L 303.44207 117.642917 
L 312.240056 122.977031 
L 321.691103 128.971388 
L 332.198661 135.905567 
L 344.761779 144.474525 
L 365.568801 158.986279 
L 383.658276 171.489245 
L 395.470992 179.385438 
L 405.579859 185.880132 
L 414.782987 191.532289 
L 423.420436 196.57889 
L 431.680882 201.149914 
L 439.689636 205.329217 
L 447.533206 209.172778 
L 455.279306 212.721929 
L 462.986173 216.009179 
L 470.703421 219.059498 
L 478.477773 221.893403 
L 486.354325 224.52774 
L 494.378183 226.976484 
L 502.597166 229.251646 
L 511.061825 231.363208 
L 519.829031 233.319933 
L 528.962761 235.129232 
L 538.537249 236.797488 
L 548.640305 238.330178 
L 559.378297 239.732031 
L 570.883468 241.00719 
L 577 241.600767 
M 577 241.600767 
L 564.744319 240.35397 
L 553.412574 238.980359 
L 542.835288 237.476579 
L 532.880315 235.838755 
L 523.440669 234.062173 
L 514.428333 232.141291 
L 505.769219 230.069614 
L 497.400536 227.839829 
L 489.265585 225.443007 
L 481.314204 222.869044 
L 473.498475 220.105617 
L 465.77207 217.137974 
L 458.09126 213.949452 
L 450.407371 210.518388 
L 442.671015 206.81959 
L 434.821232 202.818901 
L 426.789425 198.474282 
L 418.481903 193.725584 
L 409.770364 188.486975 
L 400.451236 182.619491 
L 390.167783 175.876137 
L 378.089673 167.679626 
L 360.522695 155.45732 
L 337.898712 139.762709 
L 325.872864 131.700401 
L 315.665564 125.120037 
L 306.405566 119.411163 
L 297.729165 114.320501 
L 289.440203 109.712876 
L 281.414904 105.504539 
L 273.561749 101.636199 
L 265.812755 98.065898 
L 258.105978 94.75908 
L 250.391715 91.690571 
L 242.621774 88.839166 
L 234.752291 86.188375 
L 226.747159 83.726717 
L 218.549346 81.438844 
L 210.109956 79.315091 
L 201.367698 77.345566 
L 192.272857 75.525705 
L 182.734691 73.845578 
L 172.685634 72.302973 
L 162.007071 70.890774 
L 150.564605 69.604585 
L 138.204221 68.442146 
L 124.723174 67.400977 
L 109.820291 66.476971 
L 93.100392 65.667968 
L 74.021558 64.972967 
L 51.711181 64.389369 
L 24.773542 63.915463 
L -1 63.620709 
L -1 63.620709 
" clip-path="url(#pee149e9021)" style="fill: none; stroke: #000000; stroke-width: 2.5; stroke-linecap: square"/>
   </g>
   <g id="line2d_37">
    <path d="M -1 247.470595 
L 577 247.470595 
M 577 247.470595 
L -1 247.470595 
L -1 247.470595 
" clip-path="url(#pee149e9021)" style="fill: none; stroke: #008000; stroke-opacity: 0.5; stroke-width: 2.5; stroke-linecap: square"/>
   </g>
   <g id="line2d_38">
    <path d="M -1 75.470861 
L 31.717693 75.925794 
L 57.38434 76.497955 
L 78.548244 77.186102 
L 96.616218 77.990609 
L 112.439477 78.913039 
L 126.548647 79.954136 
L 139.331509 81.117043 
L 151.026778 82.401262 
L 161.848989 83.810714 
L 171.944115 85.347491 
L 181.426115 87.01374 
L 190.399435 88.81457 
L 198.934306 90.752503 
L 207.100315 92.833146 
L 214.954102 95.062399 
L 222.542158 97.446305 
L 229.902903 99.990902 
L 237.077691 102.705796 
L 244.100449 105.600659 
L 250.990599 108.68107 
L 257.780259 111.959841 
L 264.495438 115.449422 
L 271.16413 119.165654 
L 277.808473 123.123497 
L 284.445621 127.336586 
L 291.100557 131.825199 
L 297.797766 136.611726 
L 304.555147 141.715848 
L 311.400237 147.166394 
L 318.357114 152.991973 
L 325.450672 159.223972 
L 332.709398 165.899118 
L 340.166846 173.061393 
L 347.858204 180.759204 
L 355.824415 189.049626 
L 364.107341 197.993662 
L 372.764101 207.672018 
L 381.857034 218.175321 
L 391.460855 229.612588 
L 401.668552 242.119315 
L 412.596241 255.864931 
L 424.386016 271.057839 
L 437.228465 287.976229 
L 451.375088 306.987575 
L 467.174466 328.600639 
L 485.132981 353.553622 
L 506.043561 383.000582 
L 531.296448 418.961364 
L 563.997951 465.938376 
L 577 484.694021 
M 577 484.694021 
L 535.532056 425.024752 
L 507.437356 384.97542 
L 485.060037 353.451569 
L 466.223346 327.289685 
L 449.85717 304.930974 
L 435.326703 285.448954 
L 422.212234 268.230617 
L 410.224886 252.852977 
L 399.152317 239.004911 
L 388.83112 226.447574 
L 379.138902 215.001046 
L 369.976148 204.519618 
L 361.262378 194.885632 
L 352.927642 185.998632 
L 344.920626 177.782772 
L 337.190915 170.166962 
L 329.695587 163.09155 
L 322.402062 156.509908 
L 315.275416 150.376096 
L 308.285776 144.651616 
L 301.406814 139.303493 
L 294.612894 134.301701 
L 287.880879 129.620376 
L 281.192214 125.238724 
L 274.51458 121.129222 
L 267.835457 117.27901 
L 261.122531 113.665465 
L 254.359416 110.277094 
L 247.516648 107.097518 
L 240.575831 104.117613 
L 233.50458 101.323927 
L 226.273328 98.706621 
L 218.856986 96.259227 
L 211.213705 93.971611 
L 203.292263 91.834005 
L 195.056426 89.84333 
L 186.448582 87.99324 
L 177.413281 86.280459 
L 167.866139 84.698943 
L 157.719205 83.245625 
L 146.861955 81.917423 
L 135.131139 80.709254 
L 122.359294 79.620628 
L 108.297761 78.648813 
L 92.603037 77.791297 
L 74.817933 77.047136 
L 54.217955 76.413803 
L 29.744057 75.890922 
L -0.496165 75.476178 
L -1 75.470861 
L -1 75.470861 
" clip-path="url(#pee149e9021)" style="fill: none; stroke: #0000ff; stroke-opacity: 0.5; stroke-width: 2.5; stroke-linecap: square"/>
   </g>
   <g id="line2d_39">
    <path d="M 405.95454 512.64 
L 405.95454 69.12 
" clip-path="url(#pee149e9021)" style="fill: none; stroke-dasharray: 5.55,2.4; stroke-dashoffset: 0; stroke: #808080; stroke-width: 1.5"/>
   </g>
   <g id="patch_5">
    <path d="M 72 512.64 
L 72 69.12 
" style="fill: none; stroke: #000000; stroke-width: 0.8; stroke-linejoin: miter; stroke-linecap: square"/>
   </g>
   <g id="patch_6">
    <path d="M 72 512.64 
L 518.4 512.64 
" style="fill: none; stroke: #000000; stroke-width: 0.8; stroke-linejoin: miter; stroke-linecap: square"/>
   </g>
  </g>
 </g>
 <defs>
  <clipPath id="pee149e9021">
   <rect x="72" y="69.12" width="446.4" height="443.52"/>
  </clipPath>
 </defs>
</svg>
