<?xml version="1.0" encoding="utf-8" standalone="no"?>
<!DOCTYPE svg PUBLIC "-//W3C//DTD SVG 1.1//EN"
  "http://www.w3.org/Graphics/SVG/1.1/DTD/svg11.dtd">
<svg xmlns:xlink="http://www.w3.org/1999/xlink" width="576pt" height="1080pt" viewBox="0 0 576 1080" xmlns="http://www.w3.org/2000/svg" version="1.1">
 <metadata>
  <rdf:RDF xmlns:dc="http://purl.org/dc/elements/1.1/" xmlns:cc="http://creativecommons.org/ns#" xmlns:rdf="http://www.w3.org/1999/02/22-rdf-syntax-ns#">
   <cc:Work>
    <dc:type rdf:resource="http://purl.org/dc/dcmitype/StillImage"/>
    <dc:date>2024-06-06T09:51:28.727575</dc:date>
    <dc:format>image/svg+xml</dc:format>
    <dc:creator>
     <cc:Agent>
      <dc:title>Matplotlib v3.8.4, https://matplotlib.org/</dc:title>
     </cc:Agent>
    </dc:creator>
   </cc:Work>
  </rdf:RDF>
 </metadata>
 <defs>
  <style type="text/css">*{stroke-linejoin: round; stroke-linecap: butt}</style>
 </defs>
 <g id="figure_1">
  <g id="patch_1">
   <path d="M 0 1080 
L 576 1080 
L 576 0 
L 0 0 
z
" style="fill: #ffffff"/>
  </g>
  <g id="axes_1">
   <g id="patch_2">
    <path d="M 72 374.188235 
L 518.4 374.188235 
L 518.4 129.6 
L 72 129.6 
z
" style="fill: #ffffff"/>
   </g>
   <g id="patch_3">
    <path d="M 72 374.188235 
L 72 129.6 
L 405.95454 129.6 
L 405.95454 374.188235 
z
" clip-path="url(#pae09c50a3a)" style="fill: #add8e6; opacity: 0.3; stroke: #add8e6; stroke-linejoin: miter"/>
   </g>
   <g id="patch_4">
    <path d="M 405.95454 374.188235 
L 405.95454 129.6 
L 518.4 129.6 
L 518.4 374.188235 
z
" clip-path="url(#pae09c50a3a)" style="fill: #90ee90; opacity: 0.3; stroke: #90ee90; stroke-linejoin: miter"/>
   </g>
   <g id="matplotlib.axis_1">
    <g id="xtick_1">
     <g id="line2d_1">
      <defs>
       <path id="me31ef30846" d="M 0 0 
L 0 3.5 
" style="stroke: #000000; stroke-width: 0.8"/>
      </defs>
      <g>
       <use xlink:href="#me31ef30846" x="155.879375" y="374.188235" style="stroke: #000000; stroke-width: 0.8"/>
      </g>
     </g>
     <g id="text_1">
      <!-- $\mathdefault{10^{1}}$ -->
      <g transform="translate(147.079375 388.786673) scale(0.1 -0.1)">
       <defs>
        <path id="DejaVuSans-31" d="M 794 531 
L 1825 531 
L 1825 4091 
L 703 3866 
L 703 4441 
L 1819 4666 
L 2450 4666 
L 2450 531 
L 3481 531 
L 3481 0 
L 794 0 
L 794 531 
z
" transform="scale(0.015625)"/>
        <path id="DejaVuSans-30" d="M 2034 4250 
Q 1547 4250 1301 3770 
Q 1056 3291 1056 2328 
Q 1056 1369 1301 889 
Q 1547 409 2034 409 
Q 2525 409 2770 889 
Q 3016 1369 3016 2328 
Q 3016 3291 2770 3770 
Q 2525 4250 2034 4250 
z
M 2034 4750 
Q 2819 4750 3233 4129 
Q 3647 3509 3647 2328 
Q 3647 1150 3233 529 
Q 2819 -91 2034 -91 
Q 1250 -91 836 529 
Q 422 1150 422 2328 
Q 422 3509 836 4129 
Q 1250 4750 2034 4750 
z
" transform="scale(0.015625)"/>
       </defs>
       <use xlink:href="#DejaVuSans-31" transform="translate(0 0.684375)"/>
       <use xlink:href="#DejaVuSans-30" transform="translate(63.623047 0.684375)"/>
       <use xlink:href="#DejaVuSans-31" transform="translate(128.203125 38.965625) scale(0.7)"/>
      </g>
     </g>
    </g>
    <g id="xtick_2">
     <g id="line2d_2">
      <g>
       <use xlink:href="#me31ef30846" x="434.520625" y="374.188235" style="stroke: #000000; stroke-width: 0.8"/>
      </g>
     </g>
     <g id="text_2">
      <!-- $\mathdefault{10^{2}}$ -->
      <g transform="translate(425.720625 388.786673) scale(0.1 -0.1)">
       <defs>
        <path id="DejaVuSans-32" d="M 1228 531 
L 3431 531 
L 3431 0 
L 469 0 
L 469 531 
Q 828 903 1448 1529 
Q 2069 2156 2228 2338 
Q 2531 2678 2651 2914 
Q 2772 3150 2772 3378 
Q 2772 3750 2511 3984 
Q 2250 4219 1831 4219 
Q 1534 4219 1204 4116 
Q 875 4013 500 3803 
L 500 4441 
Q 881 4594 1212 4672 
Q 1544 4750 1819 4750 
Q 2544 4750 2975 4387 
Q 3406 4025 3406 3419 
Q 3406 3131 3298 2873 
Q 3191 2616 2906 2266 
Q 2828 2175 2409 1742 
Q 1991 1309 1228 531 
z
" transform="scale(0.015625)"/>
       </defs>
       <use xlink:href="#DejaVuSans-31" transform="translate(0 0.765625)"/>
       <use xlink:href="#DejaVuSans-30" transform="translate(63.623047 0.765625)"/>
       <use xlink:href="#DejaVuSans-32" transform="translate(128.203125 39.046875) scale(0.7)"/>
      </g>
     </g>
    </g>
    <g id="xtick_3">
     <g id="line2d_3">
      <defs>
       <path id="m215a7e5c71" d="M 0 0 
L 0 2 
" style="stroke: #000000; stroke-width: 0.6"/>
      </defs>
      <g>
       <use xlink:href="#m215a7e5c71" x="72" y="374.188235" style="stroke: #000000; stroke-width: 0.6"/>
      </g>
     </g>
    </g>
    <g id="xtick_4">
     <g id="line2d_4">
      <g>
       <use xlink:href="#m215a7e5c71" x="94.063161" y="374.188235" style="stroke: #000000; stroke-width: 0.6"/>
      </g>
     </g>
    </g>
    <g id="xtick_5">
     <g id="line2d_5">
      <g>
       <use xlink:href="#m215a7e5c71" x="112.717299" y="374.188235" style="stroke: #000000; stroke-width: 0.6"/>
      </g>
     </g>
    </g>
    <g id="xtick_6">
     <g id="line2d_6">
      <g>
       <use xlink:href="#m215a7e5c71" x="128.876247" y="374.188235" style="stroke: #000000; stroke-width: 0.6"/>
      </g>
     </g>
    </g>
    <g id="xtick_7">
     <g id="line2d_7">
      <g>
       <use xlink:href="#m215a7e5c71" x="143.12945" y="374.188235" style="stroke: #000000; stroke-width: 0.6"/>
      </g>
     </g>
    </g>
    <g id="xtick_8">
     <g id="line2d_8">
      <g>
       <use xlink:href="#m215a7e5c71" x="239.758749" y="374.188235" style="stroke: #000000; stroke-width: 0.6"/>
      </g>
     </g>
    </g>
    <g id="xtick_9">
     <g id="line2d_9">
      <g>
       <use xlink:href="#m215a7e5c71" x="288.825038" y="374.188235" style="stroke: #000000; stroke-width: 0.6"/>
      </g>
     </g>
    </g>
    <g id="xtick_10">
     <g id="line2d_10">
      <g>
       <use xlink:href="#m215a7e5c71" x="323.638124" y="374.188235" style="stroke: #000000; stroke-width: 0.6"/>
      </g>
     </g>
    </g>
    <g id="xtick_11">
     <g id="line2d_11">
      <g>
       <use xlink:href="#m215a7e5c71" x="350.641251" y="374.188235" style="stroke: #000000; stroke-width: 0.6"/>
      </g>
     </g>
    </g>
    <g id="xtick_12">
     <g id="line2d_12">
      <g>
       <use xlink:href="#m215a7e5c71" x="372.704412" y="374.188235" style="stroke: #000000; stroke-width: 0.6"/>
      </g>
     </g>
    </g>
    <g id="xtick_13">
     <g id="line2d_13">
      <g>
       <use xlink:href="#m215a7e5c71" x="391.35855" y="374.188235" style="stroke: #000000; stroke-width: 0.6"/>
      </g>
     </g>
    </g>
    <g id="xtick_14">
     <g id="line2d_14">
      <g>
       <use xlink:href="#m215a7e5c71" x="407.517498" y="374.188235" style="stroke: #000000; stroke-width: 0.6"/>
      </g>
     </g>
    </g>
    <g id="xtick_15">
     <g id="line2d_15">
      <g>
       <use xlink:href="#m215a7e5c71" x="421.770701" y="374.188235" style="stroke: #000000; stroke-width: 0.6"/>
      </g>
     </g>
    </g>
    <g id="xtick_16">
     <g id="line2d_16">
      <g>
       <use xlink:href="#m215a7e5c71" x="518.4" y="374.188235" style="stroke: #000000; stroke-width: 0.6"/>
      </g>
     </g>
    </g>
   </g>
   <g id="matplotlib.axis_2">
    <g id="ytick_1">
     <g id="line2d_17">
      <defs>
       <path id="m3fcc764a53" d="M 0 0 
L -3.5 0 
" style="stroke: #000000; stroke-width: 0.8"/>
      </defs>
      <g>
       <use xlink:href="#m3fcc764a53" x="72" y="324.342364" style="stroke: #000000; stroke-width: 0.8"/>
      </g>
     </g>
     <g id="text_3">
      <!-- $\mathdefault{10^{2}}$ -->
      <g transform="translate(47.4 328.141583) scale(0.1 -0.1)">
       <use xlink:href="#DejaVuSans-31" transform="translate(0 0.765625)"/>
       <use xlink:href="#DejaVuSans-30" transform="translate(63.623047 0.765625)"/>
       <use xlink:href="#DejaVuSans-32" transform="translate(128.203125 39.046875) scale(0.7)"/>
      </g>
     </g>
    </g>
    <g id="ytick_2">
     <g id="line2d_18">
      <g>
       <use xlink:href="#m3fcc764a53" x="72" y="158.757965" style="stroke: #000000; stroke-width: 0.8"/>
      </g>
     </g>
     <g id="text_4">
      <!-- $\mathdefault{10^{3}}$ -->
      <g transform="translate(47.4 162.557184) scale(0.1 -0.1)">
       <defs>
        <path id="DejaVuSans-33" d="M 2597 2516 
Q 3050 2419 3304 2112 
Q 3559 1806 3559 1356 
Q 3559 666 3084 287 
Q 2609 -91 1734 -91 
Q 1441 -91 1130 -33 
Q 819 25 488 141 
L 488 750 
Q 750 597 1062 519 
Q 1375 441 1716 441 
Q 2309 441 2620 675 
Q 2931 909 2931 1356 
Q 2931 1769 2642 2001 
Q 2353 2234 1838 2234 
L 1294 2234 
L 1294 2753 
L 1863 2753 
Q 2328 2753 2575 2939 
Q 2822 3125 2822 3475 
Q 2822 3834 2567 4026 
Q 2313 4219 1838 4219 
Q 1578 4219 1281 4162 
Q 984 4106 628 3988 
L 628 4550 
Q 988 4650 1302 4700 
Q 1616 4750 1894 4750 
Q 2613 4750 3031 4423 
Q 3450 4097 3450 3541 
Q 3450 3153 3228 2886 
Q 3006 2619 2597 2516 
z
" transform="scale(0.015625)"/>
       </defs>
       <use xlink:href="#DejaVuSans-31" transform="translate(0 0.765625)"/>
       <use xlink:href="#DejaVuSans-30" transform="translate(63.623047 0.765625)"/>
       <use xlink:href="#DejaVuSans-33" transform="translate(128.203125 39.046875) scale(0.7)"/>
      </g>
     </g>
    </g>
    <g id="ytick_3">
     <g id="line2d_19">
      <defs>
       <path id="m231cc96d9d" d="M 0 0 
L -2 0 
" style="stroke: #000000; stroke-width: 0.6"/>
      </defs>
      <g>
       <use xlink:href="#m231cc96d9d" x="72" y="374.188235" style="stroke: #000000; stroke-width: 0.6"/>
      </g>
     </g>
    </g>
    <g id="ytick_4">
     <g id="line2d_20">
      <g>
       <use xlink:href="#m231cc96d9d" x="72" y="361.077056" style="stroke: #000000; stroke-width: 0.6"/>
      </g>
     </g>
    </g>
    <g id="ytick_5">
     <g id="line2d_21">
      <g>
       <use xlink:href="#m231cc96d9d" x="72" y="349.991712" style="stroke: #000000; stroke-width: 0.6"/>
      </g>
     </g>
    </g>
    <g id="ytick_6">
     <g id="line2d_22">
      <g>
       <use xlink:href="#m231cc96d9d" x="72" y="340.389151" style="stroke: #000000; stroke-width: 0.6"/>
      </g>
     </g>
    </g>
    <g id="ytick_7">
     <g id="line2d_23">
      <g>
       <use xlink:href="#m231cc96d9d" x="72" y="331.919091" style="stroke: #000000; stroke-width: 0.6"/>
      </g>
     </g>
    </g>
    <g id="ytick_8">
     <g id="line2d_24">
      <g>
       <use xlink:href="#m231cc96d9d" x="72" y="274.496493" style="stroke: #000000; stroke-width: 0.6"/>
      </g>
     </g>
    </g>
    <g id="ytick_9">
     <g id="line2d_25">
      <g>
       <use xlink:href="#m231cc96d9d" x="72" y="245.338528" style="stroke: #000000; stroke-width: 0.6"/>
      </g>
     </g>
    </g>
    <g id="ytick_10">
     <g id="line2d_26">
      <g>
       <use xlink:href="#m231cc96d9d" x="72" y="224.650623" style="stroke: #000000; stroke-width: 0.6"/>
      </g>
     </g>
    </g>
    <g id="ytick_11">
     <g id="line2d_27">
      <g>
       <use xlink:href="#m231cc96d9d" x="72" y="208.603836" style="stroke: #000000; stroke-width: 0.6"/>
      </g>
     </g>
    </g>
    <g id="ytick_12">
     <g id="line2d_28">
      <g>
       <use xlink:href="#m231cc96d9d" x="72" y="195.492657" style="stroke: #000000; stroke-width: 0.6"/>
      </g>
     </g>
    </g>
    <g id="ytick_13">
     <g id="line2d_29">
      <g>
       <use xlink:href="#m231cc96d9d" x="72" y="184.407313" style="stroke: #000000; stroke-width: 0.6"/>
      </g>
     </g>
    </g>
    <g id="ytick_14">
     <g id="line2d_30">
      <g>
       <use xlink:href="#m231cc96d9d" x="72" y="174.804752" style="stroke: #000000; stroke-width: 0.6"/>
      </g>
     </g>
    </g>
    <g id="ytick_15">
     <g id="line2d_31">
      <g>
       <use xlink:href="#m231cc96d9d" x="72" y="166.334692" style="stroke: #000000; stroke-width: 0.6"/>
      </g>
     </g>
    </g>
   </g>
   <g id="line2d_32">
    <path d="M -1 125.132238 
L 37.206609 125.528636 
L 66.105019 126.042776 
L 89.479354 126.674684 
L 109.197283 127.425009 
L 126.313123 128.294284 
L 141.513483 129.285055 
L 155.238792 130.399183 
L 167.799226 131.638765 
L 179.436331 133.007943 
L 190.330004 134.511317 
L 200.617291 136.153707 
L 210.40449 137.939892 
L 219.786131 139.876726 
L 228.846635 141.973277 
L 237.652125 144.238253 
L 246.272003 146.684681 
L 254.759727 149.32454 
L 263.178839 152.176004 
L 271.590706 155.260213 
L 280.059341 158.602752 
L 288.666134 162.239945 
L 297.511671 166.221139 
L 306.724509 170.613844 
L 316.510674 175.529703 
L 327.215857 181.161202 
L 339.605808 187.939055 
L 356.586256 197.505365 
L 384.339469 213.143248 
L 396.885438 219.933814 
L 407.617168 225.493949 
L 417.406175 230.318436 
L 426.622002 234.614949 
L 435.473353 238.497961 
L 444.093667 242.038071 
L 452.580314 245.283825 
L 461.013042 248.271462 
L 469.459208 251.028184 
L 477.979808 253.575202 
L 486.633139 255.929448 
L 495.478874 258.104977 
L 504.580754 260.113619 
L 514.007819 261.965128 
L 523.837644 263.667667 
L 534.161182 265.228283 
L 545.087333 266.653007 
L 556.748011 267.946812 
L 569.310969 269.114137 
L 577 269.727698 
M 577 269.727698 
L 563.453272 268.596845 
L 551.027756 267.339414 
L 539.500392 265.951959 
L 528.699344 264.430173 
L 518.491367 262.769306 
L 508.766303 260.963354 
L 499.43263 259.005258 
L 490.412386 256.886775 
L 481.63614 254.597968 
L 473.041346 252.127213 
L 464.566616 249.459832 
L 456.153403 246.578627 
L 447.738655 243.461442 
L 439.255382 240.080991 
L 430.621445 236.399929 
L 421.737049 232.36864 
L 412.461157 227.913105 
L 402.578379 222.915847 
L 391.705721 217.163415 
L 378.969532 210.163747 
L 360.461418 199.707769 
L 336.760928 186.362715 
L 324.092433 179.493625 
L 313.305584 173.893286 
L 303.485699 169.042207 
L 294.248558 164.724594 
L 285.386466 160.82587 
L 276.758982 157.27193 
L 268.266614 154.013256 
L 259.831098 151.014078 
L 251.38542 148.247128 
L 242.873977 145.692531 
L 234.231558 143.330927 
L 225.392857 141.146876 
L 216.306462 139.131495 
L 206.894563 137.272863 
L 197.083171 135.563513 
L 186.778023 133.995811 
L 175.889136 132.566134 
L 164.26775 131.266824 
L 151.754963 130.09428 
L 138.140097 129.044842 
L 123.136262 128.114942 
L 106.339456 127.301242 
L 87.220993 126.6028 
L 64.897029 126.016129 
L 37.991769 125.539654 
L 4.055941 125.171606 
L -1 125.132238 
L -1 125.132238 
" clip-path="url(#pae09c50a3a)" style="fill: none; stroke: #000000; stroke-width: 2.5; stroke-linecap: square"/>
   </g>
   <g id="line2d_33">
    <path d="M -1 274.496493 
L 577 274.496493 
M 577 274.496493 
L -1 274.496493 
L -1 274.496493 
" clip-path="url(#pae09c50a3a)" style="fill: none; stroke: #008000; stroke-opacity: 0.5; stroke-width: 2.5; stroke-linecap: square"/>
   </g>
   <g id="line2d_34">
    <path d="M -1 134.759599 
L 34.920476 135.17716 
L 62.484217 135.711804 
L 84.952869 136.363466 
L 103.980904 137.13219 
L 120.567939 138.020427 
L 135.284471 139.02712 
L 148.580432 140.156127 
L 160.736589 141.408636 
L 171.960283 142.785773 
L 182.438528 144.293153 
L 192.286525 145.932469 
L 201.608368 147.707684 
L 210.49859 149.625597 
L 219.010513 151.687857 
L 227.219143 153.904243 
L 235.165352 156.279025 
L 242.900968 158.822149 
L 250.459343 161.540362 
L 257.883631 164.446273 
L 265.200789 167.548816 
L 272.44642 170.86263 
L 279.648365 174.401373 
L 286.827968 178.177228 
L 294.018816 182.21069 
L 301.251392 186.523336 
L 308.552756 191.137068 
L 315.946284 196.073263 
L 323.469975 201.365193 
L 331.153322 207.042946 
L 339.034028 213.144903 
L 347.153276 219.714927 
L 355.555215 226.80209 
L 364.295528 234.468272 
L 373.432815 242.781386 
L 383.041059 251.826873 
L 393.208772 261.708124 
L 404.045677 272.553952 
L 415.683855 284.5209 
L 428.301452 297.819064 
L 442.127761 312.720092 
L 457.477265 329.596376 
L 474.798716 348.97907 
L 494.771636 371.671818 
L 518.526419 399.009696 
L 548.298968 433.628295 
L 577 467.22275 
M 577 467.22275 
L 534.168477 417.159408 
L 505.382242 383.843584 
L 482.528562 357.723386 
L 463.327205 336.106405 
L 446.66115 317.670949 
L 431.869769 301.634145 
L 418.519845 287.482242 
L 406.309415 274.857068 
L 395.018847 263.498118 
L 384.48195 253.208561 
L 374.57152 243.837639 
L 365.182984 235.26265 
L 356.234148 227.387102 
L 347.653971 220.129204 
L 339.383095 213.421538 
L 331.374373 207.210307 
L 323.580869 201.445191 
L 315.965959 196.08675 
L 308.48999 191.096297 
L 301.123575 186.444892 
L 293.835889 182.104943 
L 286.596222 178.051441 
L 279.375822 174.262946 
L 272.15008 170.722292 
L 264.893641 167.413705 
L 257.573251 164.31997 
L 250.154718 161.426197 
L 242.612757 158.723144 
L 234.906153 156.197842 
L 227.003901 153.843126 
L 218.856986 151.648588 
L 210.428022 149.609451 
L 201.658974 147.717959 
L 192.47772 145.966611 
L 182.823399 144.35299 
L 172.589172 142.869898 
L 161.673099 141.514967 
L 149.92622 140.283726 
L 137.17414 139.173858 
L 123.184657 138.18296 
L 107.611826 137.307232 
L 90.02151 136.545974 
L 69.771184 135.897877 
L 45.804784 135.360208 
L 16.358283 134.93105 
L -1 134.759599 
L -1 134.759599 
" clip-path="url(#pae09c50a3a)" style="fill: none; stroke: #0000ff; stroke-opacity: 0.5; stroke-width: 2.5; stroke-linecap: square"/>
   </g>
   <g id="line2d_35">
    <path d="M 405.95454 374.188235 
L 405.95454 129.6 
" clip-path="url(#pae09c50a3a)" style="fill: none; stroke-dasharray: 5.55,2.4; stroke-dashoffset: 0; stroke: #808080; stroke-width: 1.5"/>
   </g>
   <g id="patch_5">
    <path d="M 72 374.188235 
L 72 129.6 
" style="fill: none; stroke: #000000; stroke-width: 0.8; stroke-linejoin: miter; stroke-linecap: square"/>
   </g>
   <g id="patch_6">
    <path d="M 72 374.188235 
L 518.4 374.188235 
" style="fill: none; stroke: #000000; stroke-width: 0.8; stroke-linejoin: miter; stroke-linecap: square"/>
   </g>
   <g id="legend_1">
    <g id="patch_7">
     <path d="M 318.654687 181.634375 
L 511.4 181.634375 
Q 513.4 181.634375 513.4 179.634375 
L 513.4 136.6 
Q 513.4 134.6 511.4 134.6 
L 318.654687 134.6 
Q 316.654687 134.6 316.654687 136.6 
L 316.654687 179.634375 
Q 316.654687 181.634375 318.654687 181.634375 
z
" style="fill: #ffffff; opacity: 0.8; stroke: #cccccc; stroke-linejoin: miter"/>
    </g>
    <g id="line2d_36">
     <path d="M 320.654687 142.698438 
L 330.654687 142.698438 
L 340.654687 142.698438 
" style="fill: none; stroke: #000000; stroke-width: 2.5; stroke-linecap: square"/>
    </g>
    <g id="text_5">
     <!-- Final Point Process -->
     <g transform="translate(348.654687 146.198438) scale(0.1 -0.1)">
      <defs>
       <path id="DejaVuSans-46" d="M 628 4666 
L 3309 4666 
L 3309 4134 
L 1259 4134 
L 1259 2759 
L 3109 2759 
L 3109 2228 
L 1259 2228 
L 1259 0 
L 628 0 
L 628 4666 
z
" transform="scale(0.015625)"/>
       <path id="DejaVuSans-69" d="M 603 3500 
L 1178 3500 
L 1178 0 
L 603 0 
L 603 3500 
z
M 603 4863 
L 1178 4863 
L 1178 4134 
L 603 4134 
L 603 4863 
z
" transform="scale(0.015625)"/>
       <path id="DejaVuSans-6e" d="M 3513 2113 
L 3513 0 
L 2938 0 
L 2938 2094 
Q 2938 2591 2744 2837 
Q 2550 3084 2163 3084 
Q 1697 3084 1428 2787 
Q 1159 2491 1159 1978 
L 1159 0 
L 581 0 
L 581 3500 
L 1159 3500 
L 1159 2956 
Q 1366 3272 1645 3428 
Q 1925 3584 2291 3584 
Q 2894 3584 3203 3211 
Q 3513 2838 3513 2113 
z
" transform="scale(0.015625)"/>
       <path id="DejaVuSans-61" d="M 2194 1759 
Q 1497 1759 1228 1600 
Q 959 1441 959 1056 
Q 959 750 1161 570 
Q 1363 391 1709 391 
Q 2188 391 2477 730 
Q 2766 1069 2766 1631 
L 2766 1759 
L 2194 1759 
z
M 3341 1997 
L 3341 0 
L 2766 0 
L 2766 531 
Q 2569 213 2275 61 
Q 1981 -91 1556 -91 
Q 1019 -91 701 211 
Q 384 513 384 1019 
Q 384 1609 779 1909 
Q 1175 2209 1959 2209 
L 2766 2209 
L 2766 2266 
Q 2766 2663 2505 2880 
Q 2244 3097 1772 3097 
Q 1472 3097 1187 3025 
Q 903 2953 641 2809 
L 641 3341 
Q 956 3463 1253 3523 
Q 1550 3584 1831 3584 
Q 2591 3584 2966 3190 
Q 3341 2797 3341 1997 
z
" transform="scale(0.015625)"/>
       <path id="DejaVuSans-6c" d="M 603 4863 
L 1178 4863 
L 1178 0 
L 603 0 
L 603 4863 
z
" transform="scale(0.015625)"/>
       <path id="DejaVuSans-20" transform="scale(0.015625)"/>
       <path id="DejaVuSans-50" d="M 1259 4147 
L 1259 2394 
L 2053 2394 
Q 2494 2394 2734 2622 
Q 2975 2850 2975 3272 
Q 2975 3691 2734 3919 
Q 2494 4147 2053 4147 
L 1259 4147 
z
M 628 4666 
L 2053 4666 
Q 2838 4666 3239 4311 
Q 3641 3956 3641 3272 
Q 3641 2581 3239 2228 
Q 2838 1875 2053 1875 
L 1259 1875 
L 1259 0 
L 628 0 
L 628 4666 
z
" transform="scale(0.015625)"/>
       <path id="DejaVuSans-6f" d="M 1959 3097 
Q 1497 3097 1228 2736 
Q 959 2375 959 1747 
Q 959 1119 1226 758 
Q 1494 397 1959 397 
Q 2419 397 2687 759 
Q 2956 1122 2956 1747 
Q 2956 2369 2687 2733 
Q 2419 3097 1959 3097 
z
M 1959 3584 
Q 2709 3584 3137 3096 
Q 3566 2609 3566 1747 
Q 3566 888 3137 398 
Q 2709 -91 1959 -91 
Q 1206 -91 779 398 
Q 353 888 353 1747 
Q 353 2609 779 3096 
Q 1206 3584 1959 3584 
z
" transform="scale(0.015625)"/>
       <path id="DejaVuSans-74" d="M 1172 4494 
L 1172 3500 
L 2356 3500 
L 2356 3053 
L 1172 3053 
L 1172 1153 
Q 1172 725 1289 603 
Q 1406 481 1766 481 
L 2356 481 
L 2356 0 
L 1766 0 
Q 1100 0 847 248 
Q 594 497 594 1153 
L 594 3053 
L 172 3053 
L 172 3500 
L 594 3500 
L 594 4494 
L 1172 4494 
z
" transform="scale(0.015625)"/>
       <path id="DejaVuSans-72" d="M 2631 2963 
Q 2534 3019 2420 3045 
Q 2306 3072 2169 3072 
Q 1681 3072 1420 2755 
Q 1159 2438 1159 1844 
L 1159 0 
L 581 0 
L 581 3500 
L 1159 3500 
L 1159 2956 
Q 1341 3275 1631 3429 
Q 1922 3584 2338 3584 
Q 2397 3584 2469 3576 
Q 2541 3569 2628 3553 
L 2631 2963 
z
" transform="scale(0.015625)"/>
       <path id="DejaVuSans-63" d="M 3122 3366 
L 3122 2828 
Q 2878 2963 2633 3030 
Q 2388 3097 2138 3097 
Q 1578 3097 1268 2742 
Q 959 2388 959 1747 
Q 959 1106 1268 751 
Q 1578 397 2138 397 
Q 2388 397 2633 464 
Q 2878 531 3122 666 
L 3122 134 
Q 2881 22 2623 -34 
Q 2366 -91 2075 -91 
Q 1284 -91 818 406 
Q 353 903 353 1747 
Q 353 2603 823 3093 
Q 1294 3584 2113 3584 
Q 2378 3584 2631 3529 
Q 2884 3475 3122 3366 
z
" transform="scale(0.015625)"/>
       <path id="DejaVuSans-65" d="M 3597 1894 
L 3597 1613 
L 953 1613 
Q 991 1019 1311 708 
Q 1631 397 2203 397 
Q 2534 397 2845 478 
Q 3156 559 3463 722 
L 3463 178 
Q 3153 47 2828 -22 
Q 2503 -91 2169 -91 
Q 1331 -91 842 396 
Q 353 884 353 1716 
Q 353 2575 817 3079 
Q 1281 3584 2069 3584 
Q 2775 3584 3186 3129 
Q 3597 2675 3597 1894 
z
M 3022 2063 
Q 3016 2534 2758 2815 
Q 2500 3097 2075 3097 
Q 1594 3097 1305 2825 
Q 1016 2553 972 2059 
L 3022 2063 
z
" transform="scale(0.015625)"/>
       <path id="DejaVuSans-73" d="M 2834 3397 
L 2834 2853 
Q 2591 2978 2328 3040 
Q 2066 3103 1784 3103 
Q 1356 3103 1142 2972 
Q 928 2841 928 2578 
Q 928 2378 1081 2264 
Q 1234 2150 1697 2047 
L 1894 2003 
Q 2506 1872 2764 1633 
Q 3022 1394 3022 966 
Q 3022 478 2636 193 
Q 2250 -91 1575 -91 
Q 1294 -91 989 -36 
Q 684 19 347 128 
L 347 722 
Q 666 556 975 473 
Q 1284 391 1588 391 
Q 1994 391 2212 530 
Q 2431 669 2431 922 
Q 2431 1156 2273 1281 
Q 2116 1406 1581 1522 
L 1381 1569 
Q 847 1681 609 1914 
Q 372 2147 372 2553 
Q 372 3047 722 3315 
Q 1072 3584 1716 3584 
Q 2034 3584 2315 3537 
Q 2597 3491 2834 3397 
z
" transform="scale(0.015625)"/>
      </defs>
      <use xlink:href="#DejaVuSans-46"/>
      <use xlink:href="#DejaVuSans-69" x="50.269531"/>
      <use xlink:href="#DejaVuSans-6e" x="78.052734"/>
      <use xlink:href="#DejaVuSans-61" x="141.431641"/>
      <use xlink:href="#DejaVuSans-6c" x="202.710938"/>
      <use xlink:href="#DejaVuSans-20" x="230.494141"/>
      <use xlink:href="#DejaVuSans-50" x="262.28125"/>
      <use xlink:href="#DejaVuSans-6f" x="318.958984"/>
      <use xlink:href="#DejaVuSans-69" x="380.140625"/>
      <use xlink:href="#DejaVuSans-6e" x="407.923828"/>
      <use xlink:href="#DejaVuSans-74" x="471.302734"/>
      <use xlink:href="#DejaVuSans-20" x="510.511719"/>
      <use xlink:href="#DejaVuSans-50" x="542.298828"/>
      <use xlink:href="#DejaVuSans-72" x="600.851562"/>
      <use xlink:href="#DejaVuSans-6f" x="639.714844"/>
      <use xlink:href="#DejaVuSans-63" x="700.896484"/>
      <use xlink:href="#DejaVuSans-65" x="755.876953"/>
      <use xlink:href="#DejaVuSans-73" x="817.400391"/>
      <use xlink:href="#DejaVuSans-73" x="869.5"/>
     </g>
    </g>
    <g id="line2d_37">
     <path d="M 320.654687 157.376563 
L 330.654687 157.376563 
L 340.654687 157.376563 
" style="fill: none; stroke: #008000; stroke-opacity: 0.5; stroke-width: 2.5; stroke-linecap: square"/>
    </g>
    <g id="text_6">
     <!-- Broadband Power -->
     <g transform="translate(348.654687 160.876563) scale(0.1 -0.1)">
      <defs>
       <path id="DejaVuSans-42" d="M 1259 2228 
L 1259 519 
L 2272 519 
Q 2781 519 3026 730 
Q 3272 941 3272 1375 
Q 3272 1813 3026 2020 
Q 2781 2228 2272 2228 
L 1259 2228 
z
M 1259 4147 
L 1259 2741 
L 2194 2741 
Q 2656 2741 2882 2914 
Q 3109 3088 3109 3444 
Q 3109 3797 2882 3972 
Q 2656 4147 2194 4147 
L 1259 4147 
z
M 628 4666 
L 2241 4666 
Q 2963 4666 3353 4366 
Q 3744 4066 3744 3513 
Q 3744 3084 3544 2831 
Q 3344 2578 2956 2516 
Q 3422 2416 3680 2098 
Q 3938 1781 3938 1306 
Q 3938 681 3513 340 
Q 3088 0 2303 0 
L 628 0 
L 628 4666 
z
" transform="scale(0.015625)"/>
       <path id="DejaVuSans-64" d="M 2906 2969 
L 2906 4863 
L 3481 4863 
L 3481 0 
L 2906 0 
L 2906 525 
Q 2725 213 2448 61 
Q 2172 -91 1784 -91 
Q 1150 -91 751 415 
Q 353 922 353 1747 
Q 353 2572 751 3078 
Q 1150 3584 1784 3584 
Q 2172 3584 2448 3432 
Q 2725 3281 2906 2969 
z
M 947 1747 
Q 947 1113 1208 752 
Q 1469 391 1925 391 
Q 2381 391 2643 752 
Q 2906 1113 2906 1747 
Q 2906 2381 2643 2742 
Q 2381 3103 1925 3103 
Q 1469 3103 1208 2742 
Q 947 2381 947 1747 
z
" transform="scale(0.015625)"/>
       <path id="DejaVuSans-62" d="M 3116 1747 
Q 3116 2381 2855 2742 
Q 2594 3103 2138 3103 
Q 1681 3103 1420 2742 
Q 1159 2381 1159 1747 
Q 1159 1113 1420 752 
Q 1681 391 2138 391 
Q 2594 391 2855 752 
Q 3116 1113 3116 1747 
z
M 1159 2969 
Q 1341 3281 1617 3432 
Q 1894 3584 2278 3584 
Q 2916 3584 3314 3078 
Q 3713 2572 3713 1747 
Q 3713 922 3314 415 
Q 2916 -91 2278 -91 
Q 1894 -91 1617 61 
Q 1341 213 1159 525 
L 1159 0 
L 581 0 
L 581 4863 
L 1159 4863 
L 1159 2969 
z
" transform="scale(0.015625)"/>
       <path id="DejaVuSans-77" d="M 269 3500 
L 844 3500 
L 1563 769 
L 2278 3500 
L 2956 3500 
L 3675 769 
L 4391 3500 
L 4966 3500 
L 4050 0 
L 3372 0 
L 2619 2869 
L 1863 0 
L 1184 0 
L 269 3500 
z
" transform="scale(0.015625)"/>
      </defs>
      <use xlink:href="#DejaVuSans-42"/>
      <use xlink:href="#DejaVuSans-72" x="68.603516"/>
      <use xlink:href="#DejaVuSans-6f" x="107.466797"/>
      <use xlink:href="#DejaVuSans-61" x="168.648438"/>
      <use xlink:href="#DejaVuSans-64" x="229.927734"/>
      <use xlink:href="#DejaVuSans-62" x="293.404297"/>
      <use xlink:href="#DejaVuSans-61" x="356.880859"/>
      <use xlink:href="#DejaVuSans-6e" x="418.160156"/>
      <use xlink:href="#DejaVuSans-64" x="481.539062"/>
      <use xlink:href="#DejaVuSans-20" x="545.015625"/>
      <use xlink:href="#DejaVuSans-50" x="576.802734"/>
      <use xlink:href="#DejaVuSans-6f" x="633.480469"/>
      <use xlink:href="#DejaVuSans-77" x="694.662109"/>
      <use xlink:href="#DejaVuSans-65" x="776.449219"/>
      <use xlink:href="#DejaVuSans-72" x="837.972656"/>
     </g>
    </g>
    <g id="line2d_38">
     <path d="M 320.654687 172.054688 
L 330.654687 172.054688 
L 340.654687 172.054688 
" style="fill: none; stroke: #0000ff; stroke-opacity: 0.5; stroke-width: 2.5; stroke-linecap: square"/>
    </g>
    <g id="text_7">
     <!-- Structured Ensemble Dynamics  -->
     <g transform="translate(348.654687 175.554688) scale(0.1 -0.1)">
      <defs>
       <path id="DejaVuSans-53" d="M 3425 4513 
L 3425 3897 
Q 3066 4069 2747 4153 
Q 2428 4238 2131 4238 
Q 1616 4238 1336 4038 
Q 1056 3838 1056 3469 
Q 1056 3159 1242 3001 
Q 1428 2844 1947 2747 
L 2328 2669 
Q 3034 2534 3370 2195 
Q 3706 1856 3706 1288 
Q 3706 609 3251 259 
Q 2797 -91 1919 -91 
Q 1588 -91 1214 -16 
Q 841 59 441 206 
L 441 856 
Q 825 641 1194 531 
Q 1563 422 1919 422 
Q 2459 422 2753 634 
Q 3047 847 3047 1241 
Q 3047 1584 2836 1778 
Q 2625 1972 2144 2069 
L 1759 2144 
Q 1053 2284 737 2584 
Q 422 2884 422 3419 
Q 422 4038 858 4394 
Q 1294 4750 2059 4750 
Q 2388 4750 2728 4690 
Q 3069 4631 3425 4513 
z
" transform="scale(0.015625)"/>
       <path id="DejaVuSans-75" d="M 544 1381 
L 544 3500 
L 1119 3500 
L 1119 1403 
Q 1119 906 1312 657 
Q 1506 409 1894 409 
Q 2359 409 2629 706 
Q 2900 1003 2900 1516 
L 2900 3500 
L 3475 3500 
L 3475 0 
L 2900 0 
L 2900 538 
Q 2691 219 2414 64 
Q 2138 -91 1772 -91 
Q 1169 -91 856 284 
Q 544 659 544 1381 
z
M 1991 3584 
L 1991 3584 
z
" transform="scale(0.015625)"/>
       <path id="DejaVuSans-45" d="M 628 4666 
L 3578 4666 
L 3578 4134 
L 1259 4134 
L 1259 2753 
L 3481 2753 
L 3481 2222 
L 1259 2222 
L 1259 531 
L 3634 531 
L 3634 0 
L 628 0 
L 628 4666 
z
" transform="scale(0.015625)"/>
       <path id="DejaVuSans-6d" d="M 3328 2828 
Q 3544 3216 3844 3400 
Q 4144 3584 4550 3584 
Q 5097 3584 5394 3201 
Q 5691 2819 5691 2113 
L 5691 0 
L 5113 0 
L 5113 2094 
Q 5113 2597 4934 2840 
Q 4756 3084 4391 3084 
Q 3944 3084 3684 2787 
Q 3425 2491 3425 1978 
L 3425 0 
L 2847 0 
L 2847 2094 
Q 2847 2600 2669 2842 
Q 2491 3084 2119 3084 
Q 1678 3084 1418 2786 
Q 1159 2488 1159 1978 
L 1159 0 
L 581 0 
L 581 3500 
L 1159 3500 
L 1159 2956 
Q 1356 3278 1631 3431 
Q 1906 3584 2284 3584 
Q 2666 3584 2933 3390 
Q 3200 3197 3328 2828 
z
" transform="scale(0.015625)"/>
       <path id="DejaVuSans-44" d="M 1259 4147 
L 1259 519 
L 2022 519 
Q 2988 519 3436 956 
Q 3884 1394 3884 2338 
Q 3884 3275 3436 3711 
Q 2988 4147 2022 4147 
L 1259 4147 
z
M 628 4666 
L 1925 4666 
Q 3281 4666 3915 4102 
Q 4550 3538 4550 2338 
Q 4550 1131 3912 565 
Q 3275 0 1925 0 
L 628 0 
L 628 4666 
z
" transform="scale(0.015625)"/>
       <path id="DejaVuSans-79" d="M 2059 -325 
Q 1816 -950 1584 -1140 
Q 1353 -1331 966 -1331 
L 506 -1331 
L 506 -850 
L 844 -850 
Q 1081 -850 1212 -737 
Q 1344 -625 1503 -206 
L 1606 56 
L 191 3500 
L 800 3500 
L 1894 763 
L 2988 3500 
L 3597 3500 
L 2059 -325 
z
" transform="scale(0.015625)"/>
      </defs>
      <use xlink:href="#DejaVuSans-53"/>
      <use xlink:href="#DejaVuSans-74" x="63.476562"/>
      <use xlink:href="#DejaVuSans-72" x="102.685547"/>
      <use xlink:href="#DejaVuSans-75" x="143.798828"/>
      <use xlink:href="#DejaVuSans-63" x="207.177734"/>
      <use xlink:href="#DejaVuSans-74" x="262.158203"/>
      <use xlink:href="#DejaVuSans-75" x="301.367188"/>
      <use xlink:href="#DejaVuSans-72" x="364.746094"/>
      <use xlink:href="#DejaVuSans-65" x="403.609375"/>
      <use xlink:href="#DejaVuSans-64" x="465.132812"/>
      <use xlink:href="#DejaVuSans-20" x="528.609375"/>
      <use xlink:href="#DejaVuSans-45" x="560.396484"/>
      <use xlink:href="#DejaVuSans-6e" x="623.580078"/>
      <use xlink:href="#DejaVuSans-73" x="686.958984"/>
      <use xlink:href="#DejaVuSans-65" x="739.058594"/>
      <use xlink:href="#DejaVuSans-6d" x="800.582031"/>
      <use xlink:href="#DejaVuSans-62" x="897.994141"/>
      <use xlink:href="#DejaVuSans-6c" x="961.470703"/>
      <use xlink:href="#DejaVuSans-65" x="989.253906"/>
      <use xlink:href="#DejaVuSans-20" x="1050.777344"/>
      <use xlink:href="#DejaVuSans-44" x="1082.564453"/>
      <use xlink:href="#DejaVuSans-79" x="1159.566406"/>
      <use xlink:href="#DejaVuSans-6e" x="1218.746094"/>
      <use xlink:href="#DejaVuSans-61" x="1282.125"/>
      <use xlink:href="#DejaVuSans-6d" x="1343.404297"/>
      <use xlink:href="#DejaVuSans-69" x="1440.816406"/>
      <use xlink:href="#DejaVuSans-63" x="1468.599609"/>
      <use xlink:href="#DejaVuSans-73" x="1523.580078"/>
      <use xlink:href="#DejaVuSans-20" x="1575.679688"/>
     </g>
    </g>
   </g>
  </g>
  <g id="axes_2">
   <g id="patch_8">
    <path d="M 72 667.694118 
L 518.4 667.694118 
L 518.4 423.105882 
L 72 423.105882 
z
" style="fill: #ffffff"/>
   </g>
   <g id="patch_9">
    <path d="M 72 667.694118 
L 72 423.105882 
L 405.95454 423.105882 
L 405.95454 667.694118 
z
" clip-path="url(#pdba29b8e55)" style="fill: #add8e6; opacity: 0.3; stroke: #add8e6; stroke-linejoin: miter"/>
   </g>
   <g id="patch_10">
    <path d="M 405.95454 667.694118 
L 405.95454 423.105882 
L 518.4 423.105882 
L 518.4 667.694118 
z
" clip-path="url(#pdba29b8e55)" style="fill: #90ee90; opacity: 0.3; stroke: #90ee90; stroke-linejoin: miter"/>
   </g>
   <g id="matplotlib.axis_3">
    <g id="xtick_17">
     <g id="line2d_39">
      <g>
       <use xlink:href="#me31ef30846" x="155.879375" y="667.694118" style="stroke: #000000; stroke-width: 0.8"/>
      </g>
     </g>
     <g id="text_8">
      <!-- $\mathdefault{10^{1}}$ -->
      <g transform="translate(147.079375 682.292555) scale(0.1 -0.1)">
       <use xlink:href="#DejaVuSans-31" transform="translate(0 0.684375)"/>
       <use xlink:href="#DejaVuSans-30" transform="translate(63.623047 0.684375)"/>
       <use xlink:href="#DejaVuSans-31" transform="translate(128.203125 38.965625) scale(0.7)"/>
      </g>
     </g>
    </g>
    <g id="xtick_18">
     <g id="line2d_40">
      <g>
       <use xlink:href="#me31ef30846" x="434.520625" y="667.694118" style="stroke: #000000; stroke-width: 0.8"/>
      </g>
     </g>
     <g id="text_9">
      <!-- $\mathdefault{10^{2}}$ -->
      <g transform="translate(425.720625 682.292555) scale(0.1 -0.1)">
       <use xlink:href="#DejaVuSans-31" transform="translate(0 0.765625)"/>
       <use xlink:href="#DejaVuSans-30" transform="translate(63.623047 0.765625)"/>
       <use xlink:href="#DejaVuSans-32" transform="translate(128.203125 39.046875) scale(0.7)"/>
      </g>
     </g>
    </g>
    <g id="xtick_19">
     <g id="line2d_41">
      <g>
       <use xlink:href="#m215a7e5c71" x="72" y="667.694118" style="stroke: #000000; stroke-width: 0.6"/>
      </g>
     </g>
    </g>
    <g id="xtick_20">
     <g id="line2d_42">
      <g>
       <use xlink:href="#m215a7e5c71" x="94.063161" y="667.694118" style="stroke: #000000; stroke-width: 0.6"/>
      </g>
     </g>
    </g>
    <g id="xtick_21">
     <g id="line2d_43">
      <g>
       <use xlink:href="#m215a7e5c71" x="112.717299" y="667.694118" style="stroke: #000000; stroke-width: 0.6"/>
      </g>
     </g>
    </g>
    <g id="xtick_22">
     <g id="line2d_44">
      <g>
       <use xlink:href="#m215a7e5c71" x="128.876247" y="667.694118" style="stroke: #000000; stroke-width: 0.6"/>
      </g>
     </g>
    </g>
    <g id="xtick_23">
     <g id="line2d_45">
      <g>
       <use xlink:href="#m215a7e5c71" x="143.12945" y="667.694118" style="stroke: #000000; stroke-width: 0.6"/>
      </g>
     </g>
    </g>
    <g id="xtick_24">
     <g id="line2d_46">
      <g>
       <use xlink:href="#m215a7e5c71" x="239.758749" y="667.694118" style="stroke: #000000; stroke-width: 0.6"/>
      </g>
     </g>
    </g>
    <g id="xtick_25">
     <g id="line2d_47">
      <g>
       <use xlink:href="#m215a7e5c71" x="288.825038" y="667.694118" style="stroke: #000000; stroke-width: 0.6"/>
      </g>
     </g>
    </g>
    <g id="xtick_26">
     <g id="line2d_48">
      <g>
       <use xlink:href="#m215a7e5c71" x="323.638124" y="667.694118" style="stroke: #000000; stroke-width: 0.6"/>
      </g>
     </g>
    </g>
    <g id="xtick_27">
     <g id="line2d_49">
      <g>
       <use xlink:href="#m215a7e5c71" x="350.641251" y="667.694118" style="stroke: #000000; stroke-width: 0.6"/>
      </g>
     </g>
    </g>
    <g id="xtick_28">
     <g id="line2d_50">
      <g>
       <use xlink:href="#m215a7e5c71" x="372.704412" y="667.694118" style="stroke: #000000; stroke-width: 0.6"/>
      </g>
     </g>
    </g>
    <g id="xtick_29">
     <g id="line2d_51">
      <g>
       <use xlink:href="#m215a7e5c71" x="391.35855" y="667.694118" style="stroke: #000000; stroke-width: 0.6"/>
      </g>
     </g>
    </g>
    <g id="xtick_30">
     <g id="line2d_52">
      <g>
       <use xlink:href="#m215a7e5c71" x="407.517498" y="667.694118" style="stroke: #000000; stroke-width: 0.6"/>
      </g>
     </g>
    </g>
    <g id="xtick_31">
     <g id="line2d_53">
      <g>
       <use xlink:href="#m215a7e5c71" x="421.770701" y="667.694118" style="stroke: #000000; stroke-width: 0.6"/>
      </g>
     </g>
    </g>
    <g id="xtick_32">
     <g id="line2d_54">
      <g>
       <use xlink:href="#m215a7e5c71" x="518.4" y="667.694118" style="stroke: #000000; stroke-width: 0.6"/>
      </g>
     </g>
    </g>
   </g>
   <g id="matplotlib.axis_4">
    <g id="ytick_16">
     <g id="line2d_55">
      <g>
       <use xlink:href="#m3fcc764a53" x="72" y="667.694118" style="stroke: #000000; stroke-width: 0.8"/>
      </g>
     </g>
     <g id="text_10">
      <!-- $\mathdefault{10^{-10}}$ -->
      <g transform="translate(37.1 671.493336) scale(0.1 -0.1)">
       <defs>
        <path id="DejaVuSans-2212" d="M 678 2272 
L 4684 2272 
L 4684 1741 
L 678 1741 
L 678 2272 
z
" transform="scale(0.015625)"/>
       </defs>
       <use xlink:href="#DejaVuSans-31" transform="translate(0 0.765625)"/>
       <use xlink:href="#DejaVuSans-30" transform="translate(63.623047 0.765625)"/>
       <use xlink:href="#DejaVuSans-2212" transform="translate(128.203125 39.046875) scale(0.7)"/>
       <use xlink:href="#DejaVuSans-31" transform="translate(186.855469 39.046875) scale(0.7)"/>
       <use xlink:href="#DejaVuSans-30" transform="translate(231.391602 39.046875) scale(0.7)"/>
      </g>
     </g>
    </g>
    <g id="ytick_17">
     <g id="line2d_56">
      <g>
       <use xlink:href="#m3fcc764a53" x="72" y="569.858824" style="stroke: #000000; stroke-width: 0.8"/>
      </g>
     </g>
     <g id="text_11">
      <!-- $\mathdefault{10^{-8}}$ -->
      <g transform="translate(41.5 573.658042) scale(0.1 -0.1)">
       <defs>
        <path id="DejaVuSans-38" d="M 2034 2216 
Q 1584 2216 1326 1975 
Q 1069 1734 1069 1313 
Q 1069 891 1326 650 
Q 1584 409 2034 409 
Q 2484 409 2743 651 
Q 3003 894 3003 1313 
Q 3003 1734 2745 1975 
Q 2488 2216 2034 2216 
z
M 1403 2484 
Q 997 2584 770 2862 
Q 544 3141 544 3541 
Q 544 4100 942 4425 
Q 1341 4750 2034 4750 
Q 2731 4750 3128 4425 
Q 3525 4100 3525 3541 
Q 3525 3141 3298 2862 
Q 3072 2584 2669 2484 
Q 3125 2378 3379 2068 
Q 3634 1759 3634 1313 
Q 3634 634 3220 271 
Q 2806 -91 2034 -91 
Q 1263 -91 848 271 
Q 434 634 434 1313 
Q 434 1759 690 2068 
Q 947 2378 1403 2484 
z
M 1172 3481 
Q 1172 3119 1398 2916 
Q 1625 2713 2034 2713 
Q 2441 2713 2670 2916 
Q 2900 3119 2900 3481 
Q 2900 3844 2670 4047 
Q 2441 4250 2034 4250 
Q 1625 4250 1398 4047 
Q 1172 3844 1172 3481 
z
" transform="scale(0.015625)"/>
       </defs>
       <use xlink:href="#DejaVuSans-31" transform="translate(0 0.765625)"/>
       <use xlink:href="#DejaVuSans-30" transform="translate(63.623047 0.765625)"/>
       <use xlink:href="#DejaVuSans-2212" transform="translate(128.203125 39.046875) scale(0.7)"/>
       <use xlink:href="#DejaVuSans-38" transform="translate(186.855469 39.046875) scale(0.7)"/>
      </g>
     </g>
    </g>
    <g id="ytick_18">
     <g id="line2d_57">
      <g>
       <use xlink:href="#m3fcc764a53" x="72" y="472.023529" style="stroke: #000000; stroke-width: 0.8"/>
      </g>
     </g>
     <g id="text_12">
      <!-- $\mathdefault{10^{-6}}$ -->
      <g transform="translate(41.5 475.822748) scale(0.1 -0.1)">
       <defs>
        <path id="DejaVuSans-36" d="M 2113 2584 
Q 1688 2584 1439 2293 
Q 1191 2003 1191 1497 
Q 1191 994 1439 701 
Q 1688 409 2113 409 
Q 2538 409 2786 701 
Q 3034 994 3034 1497 
Q 3034 2003 2786 2293 
Q 2538 2584 2113 2584 
z
M 3366 4563 
L 3366 3988 
Q 3128 4100 2886 4159 
Q 2644 4219 2406 4219 
Q 1781 4219 1451 3797 
Q 1122 3375 1075 2522 
Q 1259 2794 1537 2939 
Q 1816 3084 2150 3084 
Q 2853 3084 3261 2657 
Q 3669 2231 3669 1497 
Q 3669 778 3244 343 
Q 2819 -91 2113 -91 
Q 1303 -91 875 529 
Q 447 1150 447 2328 
Q 447 3434 972 4092 
Q 1497 4750 2381 4750 
Q 2619 4750 2861 4703 
Q 3103 4656 3366 4563 
z
" transform="scale(0.015625)"/>
       </defs>
       <use xlink:href="#DejaVuSans-31" transform="translate(0 0.765625)"/>
       <use xlink:href="#DejaVuSans-30" transform="translate(63.623047 0.765625)"/>
       <use xlink:href="#DejaVuSans-2212" transform="translate(128.203125 39.046875) scale(0.7)"/>
       <use xlink:href="#DejaVuSans-36" transform="translate(186.855469 39.046875) scale(0.7)"/>
      </g>
     </g>
    </g>
   </g>
   <g id="line2d_58">
    <path d="M -1 413.791393 
L 29.79641 414.281034 
L 54.559677 414.890503 
L 75.429744 415.621424 
L 93.564812 416.474378 
L 109.739211 417.453694 
L 124.436188 418.562967 
L 137.990343 419.806055 
L 150.661036 421.189084 
L 162.619882 422.715962 
L 174.028099 424.394964 
L 185.005709 426.234167 
L 195.642766 428.240931 
L 206.019244 430.424115 
L 216.216773 432.79656 
L 226.293968 435.369239 
L 236.310678 438.156002 
L 246.333229 441.175525 
L 256.420286 444.447299 
L 266.643642 447.998011 
L 277.078177 451.858774 
L 287.818831 456.071546 
L 298.992033 460.694923 
L 310.77551 465.814191 
L 323.44686 471.5654 
L 337.479472 478.184066 
L 353.884181 486.17621 
L 375.978498 497.20782 
L 428.371411 523.445838 
L 451.119395 534.527064 
L 475.298052 546.05001 
L 552.434595 582.594447 
L 569.377026 591.015737 
L 577 594.894467 
M 577 594.894467 
L 561.335205 586.986358 
L 544.044629 578.511923 
L 523.268744 568.58805 
L 485.472808 550.840886 
L 456.110157 536.925275 
L 433.204322 525.820933 
L 409.586715 514.117555 
L 337.890506 478.381316 
L 323.173762 471.439023 
L 310.126897 465.526364 
L 298.105991 460.319772 
L 286.771638 455.65054 
L 275.919634 451.418607 
L 265.402632 447.554583 
L 255.118065 444.011882 
L 244.987901 440.756773 
L 234.93498 437.759606 
L 224.903244 435.000494 
L 214.829376 432.460268 
L 204.644926 430.121775 
L 194.2926 427.973485 
L 183.70692 426.004575 
L 172.798077 424.202871 
L 161.479324 422.560392 
L 149.654369 421.070722 
L 137.17414 419.724602 
L 123.884222 418.517056 
L 109.549812 417.440851 
L 93.904258 416.492643 
L 76.537498 415.667126 
L 56.883253 414.960745 
L 34.115066 414.370975 
L 6.808523 413.893697 
L -1 413.791393 
L -1 413.791393 
" clip-path="url(#pdba29b8e55)" style="fill: none; stroke: #000000; stroke-width: 2.5; stroke-linecap: square"/>
   </g>
   <g id="line2d_59">
    <path d="M -1 457.917216 
L 32.794733 458.369077 
L 59.532056 458.941831 
L 81.895057 459.637825 
L 101.314883 460.460431 
L 118.649243 461.413855 
L 134.449749 462.502562 
L 149.128354 463.734267 
L 162.986085 465.118386 
L 176.232966 466.663519 
L 189.059338 468.382437 
L 201.621021 470.289604 
L 214.066894 472.404078 
L 226.520776 474.745882 
L 239.108885 477.33983 
L 251.979418 480.220152 
L 265.275585 483.425222 
L 279.162678 487.003522 
L 293.829983 491.014891 
L 309.51111 495.537004 
L 326.456057 500.658314 
L 344.943854 506.481816 
L 365.192809 513.096769 
L 387.179539 520.516114 
L 410.362489 528.574783 
L 433.601277 536.88689 
L 455.712494 545.028736 
L 476.087753 552.764646 
L 494.693047 560.06286 
L 511.765094 566.995386 
L 527.598837 573.662465 
L 542.471856 580.164213 
L 556.623533 586.59176 
L 570.258362 593.027735 
L 577 596.303284 
M 577 596.303284 
L 563.627481 589.866852 
L 549.894375 583.504619 
L 535.622577 577.13938 
L 520.611173 570.689757 
L 504.627317 564.066871 
L 487.407316 557.175486 
L 468.675029 549.921709 
L 448.217781 542.241654 
L 426.072807 534.167911 
L 402.816169 525.926084 
L 379.604907 517.934425 
L 357.612072 510.593943 
L 337.413577 504.082755 
L 319.025546 498.384923 
L 302.202987 493.401487 
L 286.652633 489.023813 
L 272.10062 485.155653 
L 258.312078 481.718516 
L 245.093959 478.651181 
L 232.28316 475.905329 
L 219.720778 473.439266 
L 207.269496 471.221278 
L 194.802353 469.226385 
L 182.186218 467.433264 
L 169.279365 465.824241 
L 155.923682 464.384623 
L 141.92862 463.101685 
L 127.08862 461.966874 
L 111.110242 460.970783 
L 93.59571 460.105454 
L 74.021558 459.365693 
L 51.580097 458.746083 
L 25.046031 458.243122 
L -1 457.917216 
L -1 457.917216 
" clip-path="url(#pdba29b8e55)" style="fill: none; stroke: #008000; stroke-opacity: 0.5; stroke-width: 2.5; stroke-linecap: square"/>
   </g>
   <g id="line2d_60">
    <path d="M -1 416.635549 
L 29.429467 417.130322 
L 53.918154 417.743963 
L 74.601259 418.479434 
L 92.603037 419.337866 
L 108.625634 420.320551 
L 123.184657 421.432918 
L 136.612496 422.679359 
L 149.128354 424.062119 
L 160.931556 425.587798 
L 172.170276 427.263199 
L 182.941575 429.09228 
L 193.347925 431.083634 
L 203.466848 433.245339 
L 213.368491 435.587376 
L 223.104983 438.118534 
L 232.724293 440.84885 
L 242.269613 443.789248 
L 251.787315 446.95393 
L 261.315836 450.356812 
L 270.900323 454.016381 
L 280.5744 457.948867 
L 290.385689 462.178036 
L 300.381798 466.730171 
L 310.611112 471.63419 
L 321.131567 476.925901 
L 332.00927 482.647935 
L 343.322694 488.852487 
L 355.153847 495.596915 
L 367.598481 502.949599 
L 380.759246 510.986485 
L 394.734435 519.784192 
L 409.602597 529.409704 
L 425.383785 539.893869 
L 441.982017 551.189845 
L 459.148896 563.142851 
L 476.502218 575.49655 
L 493.637277 587.966762 
L 510.261657 600.338731 
L 526.246191 612.509965 
L 541.601544 624.480046 
L 556.421406 636.313443 
L 570.840977 648.111044 
L 577 653.239294 
M 577 653.239294 
L 562.736001 641.444387 
L 548.19075 629.706087 
L 533.216509 617.908376 
L 517.687 605.957597 
L 501.524602 593.801719 
L 484.742216 581.458819 
L 467.495476 569.050729 
L 450.102554 556.810606 
L 432.978241 545.029463 
L 416.494513 533.956128 
L 400.88113 523.732051 
L 386.203539 514.383172 
L 372.425269 505.867466 
L 359.452705 498.108094 
L 347.17988 491.023589 
L 335.499395 484.535297 
L 324.317572 478.576133 
L 313.546674 473.085976 
L 303.114345 468.016252 
L 292.952777 463.323923 
L 283.007579 458.97527 
L 273.233129 454.942836 
L 263.573808 451.197623 
L 253.990613 447.719894 
L 244.44733 444.492747 
L 234.896542 441.497611 
L 225.299255 438.721026 
L 215.620901 436.152501 
L 205.799421 433.776474 
L 195.788908 431.584275 
L 185.541579 429.568555 
L 174.977965 427.71816 
L 164.026312 426.026548 
L 152.57371 424.484095 
L 140.511304 423.085843 
L 127.696136 421.826363 
L 113.937206 420.700018 
L 98.97358 419.701236 
L 82.472197 418.826376 
L 63.953458 418.071645 
L 42.6928 417.43327 
L 17.580347 416.908645 
L -1 416.635549 
L -1 416.635549 
" clip-path="url(#pdba29b8e55)" style="fill: none; stroke: #0000ff; stroke-opacity: 0.5; stroke-width: 2.5; stroke-linecap: square"/>
   </g>
   <g id="line2d_61">
    <path d="M 405.95454 667.694118 
L 405.95454 423.105882 
" clip-path="url(#pdba29b8e55)" style="fill: none; stroke-dasharray: 5.55,2.4; stroke-dashoffset: 0; stroke: #808080; stroke-width: 1.5"/>
   </g>
   <g id="patch_11">
    <path d="M 72 667.694118 
L 72 423.105882 
" style="fill: none; stroke: #000000; stroke-width: 0.8; stroke-linejoin: miter; stroke-linecap: square"/>
   </g>
   <g id="patch_12">
    <path d="M 72 667.694118 
L 518.4 667.694118 
" style="fill: none; stroke: #000000; stroke-width: 0.8; stroke-linejoin: miter; stroke-linecap: square"/>
   </g>
   <g id="legend_2">
    <g id="patch_13">
     <path d="M 262.826562 475.140257 
L 511.4 475.140257 
Q 513.4 475.140257 513.4 473.140257 
L 513.4 430.105882 
Q 513.4 428.105882 511.4 428.105882 
L 262.826562 428.105882 
Q 260.826562 428.105882 260.826562 430.105882 
L 260.826562 473.140257 
Q 260.826562 475.140257 262.826562 475.140257 
z
" style="fill: #ffffff; opacity: 0.8; stroke: #cccccc; stroke-linejoin: miter"/>
    </g>
    <g id="line2d_62">
     <path d="M 264.826562 436.20432 
L 274.826562 436.20432 
L 284.826562 436.20432 
" style="fill: none; stroke: #000000; stroke-width: 2.5; stroke-linecap: square"/>
    </g>
    <g id="text_13">
     <!-- Final Point Process (PSP filter) -->
     <g transform="translate(292.826562 439.70432) scale(0.1 -0.1)">
      <defs>
       <path id="DejaVuSans-28" d="M 1984 4856 
Q 1566 4138 1362 3434 
Q 1159 2731 1159 2009 
Q 1159 1288 1364 580 
Q 1569 -128 1984 -844 
L 1484 -844 
Q 1016 -109 783 600 
Q 550 1309 550 2009 
Q 550 2706 781 3412 
Q 1013 4119 1484 4856 
L 1984 4856 
z
" transform="scale(0.015625)"/>
       <path id="DejaVuSans-66" d="M 2375 4863 
L 2375 4384 
L 1825 4384 
Q 1516 4384 1395 4259 
Q 1275 4134 1275 3809 
L 1275 3500 
L 2222 3500 
L 2222 3053 
L 1275 3053 
L 1275 0 
L 697 0 
L 697 3053 
L 147 3053 
L 147 3500 
L 697 3500 
L 697 3744 
Q 697 4328 969 4595 
Q 1241 4863 1831 4863 
L 2375 4863 
z
" transform="scale(0.015625)"/>
       <path id="DejaVuSans-29" d="M 513 4856 
L 1013 4856 
Q 1481 4119 1714 3412 
Q 1947 2706 1947 2009 
Q 1947 1309 1714 600 
Q 1481 -109 1013 -844 
L 513 -844 
Q 928 -128 1133 580 
Q 1338 1288 1338 2009 
Q 1338 2731 1133 3434 
Q 928 4138 513 4856 
z
" transform="scale(0.015625)"/>
      </defs>
      <use xlink:href="#DejaVuSans-46"/>
      <use xlink:href="#DejaVuSans-69" x="50.269531"/>
      <use xlink:href="#DejaVuSans-6e" x="78.052734"/>
      <use xlink:href="#DejaVuSans-61" x="141.431641"/>
      <use xlink:href="#DejaVuSans-6c" x="202.710938"/>
      <use xlink:href="#DejaVuSans-20" x="230.494141"/>
      <use xlink:href="#DejaVuSans-50" x="262.28125"/>
      <use xlink:href="#DejaVuSans-6f" x="318.958984"/>
      <use xlink:href="#DejaVuSans-69" x="380.140625"/>
      <use xlink:href="#DejaVuSans-6e" x="407.923828"/>
      <use xlink:href="#DejaVuSans-74" x="471.302734"/>
      <use xlink:href="#DejaVuSans-20" x="510.511719"/>
      <use xlink:href="#DejaVuSans-50" x="542.298828"/>
      <use xlink:href="#DejaVuSans-72" x="600.851562"/>
      <use xlink:href="#DejaVuSans-6f" x="639.714844"/>
      <use xlink:href="#DejaVuSans-63" x="700.896484"/>
      <use xlink:href="#DejaVuSans-65" x="755.876953"/>
      <use xlink:href="#DejaVuSans-73" x="817.400391"/>
      <use xlink:href="#DejaVuSans-73" x="869.5"/>
      <use xlink:href="#DejaVuSans-20" x="921.599609"/>
      <use xlink:href="#DejaVuSans-28" x="953.386719"/>
      <use xlink:href="#DejaVuSans-50" x="992.400391"/>
      <use xlink:href="#DejaVuSans-53" x="1052.703125"/>
      <use xlink:href="#DejaVuSans-50" x="1116.179688"/>
      <use xlink:href="#DejaVuSans-20" x="1176.482422"/>
      <use xlink:href="#DejaVuSans-66" x="1208.269531"/>
      <use xlink:href="#DejaVuSans-69" x="1243.474609"/>
      <use xlink:href="#DejaVuSans-6c" x="1271.257812"/>
      <use xlink:href="#DejaVuSans-74" x="1299.041016"/>
      <use xlink:href="#DejaVuSans-65" x="1338.25"/>
      <use xlink:href="#DejaVuSans-72" x="1399.773438"/>
      <use xlink:href="#DejaVuSans-29" x="1440.886719"/>
     </g>
    </g>
    <g id="line2d_63">
     <path d="M 264.826562 450.882445 
L 274.826562 450.882445 
L 284.826562 450.882445 
" style="fill: none; stroke: #008000; stroke-opacity: 0.5; stroke-width: 2.5; stroke-linecap: square"/>
    </g>
    <g id="text_14">
     <!-- Broadband Power (PSP filter) -->
     <g transform="translate(292.826562 454.382445) scale(0.1 -0.1)">
      <use xlink:href="#DejaVuSans-42"/>
      <use xlink:href="#DejaVuSans-72" x="68.603516"/>
      <use xlink:href="#DejaVuSans-6f" x="107.466797"/>
      <use xlink:href="#DejaVuSans-61" x="168.648438"/>
      <use xlink:href="#DejaVuSans-64" x="229.927734"/>
      <use xlink:href="#DejaVuSans-62" x="293.404297"/>
      <use xlink:href="#DejaVuSans-61" x="356.880859"/>
      <use xlink:href="#DejaVuSans-6e" x="418.160156"/>
      <use xlink:href="#DejaVuSans-64" x="481.539062"/>
      <use xlink:href="#DejaVuSans-20" x="545.015625"/>
      <use xlink:href="#DejaVuSans-50" x="576.802734"/>
      <use xlink:href="#DejaVuSans-6f" x="633.480469"/>
      <use xlink:href="#DejaVuSans-77" x="694.662109"/>
      <use xlink:href="#DejaVuSans-65" x="776.449219"/>
      <use xlink:href="#DejaVuSans-72" x="837.972656"/>
      <use xlink:href="#DejaVuSans-20" x="879.085938"/>
      <use xlink:href="#DejaVuSans-28" x="910.873047"/>
      <use xlink:href="#DejaVuSans-50" x="949.886719"/>
      <use xlink:href="#DejaVuSans-53" x="1010.189453"/>
      <use xlink:href="#DejaVuSans-50" x="1073.666016"/>
      <use xlink:href="#DejaVuSans-20" x="1133.96875"/>
      <use xlink:href="#DejaVuSans-66" x="1165.755859"/>
      <use xlink:href="#DejaVuSans-69" x="1200.960938"/>
      <use xlink:href="#DejaVuSans-6c" x="1228.744141"/>
      <use xlink:href="#DejaVuSans-74" x="1256.527344"/>
      <use xlink:href="#DejaVuSans-65" x="1295.736328"/>
      <use xlink:href="#DejaVuSans-72" x="1357.259766"/>
      <use xlink:href="#DejaVuSans-29" x="1398.373047"/>
     </g>
    </g>
    <g id="line2d_64">
     <path d="M 264.826562 465.56057 
L 274.826562 465.56057 
L 284.826562 465.56057 
" style="fill: none; stroke: #0000ff; stroke-opacity: 0.5; stroke-width: 2.5; stroke-linecap: square"/>
    </g>
    <g id="text_15">
     <!-- Structured Ensemble Dynamics  (PSP filter) -->
     <g transform="translate(292.826562 469.06057) scale(0.1 -0.1)">
      <use xlink:href="#DejaVuSans-53"/>
      <use xlink:href="#DejaVuSans-74" x="63.476562"/>
      <use xlink:href="#DejaVuSans-72" x="102.685547"/>
      <use xlink:href="#DejaVuSans-75" x="143.798828"/>
      <use xlink:href="#DejaVuSans-63" x="207.177734"/>
      <use xlink:href="#DejaVuSans-74" x="262.158203"/>
      <use xlink:href="#DejaVuSans-75" x="301.367188"/>
      <use xlink:href="#DejaVuSans-72" x="364.746094"/>
      <use xlink:href="#DejaVuSans-65" x="403.609375"/>
      <use xlink:href="#DejaVuSans-64" x="465.132812"/>
      <use xlink:href="#DejaVuSans-20" x="528.609375"/>
      <use xlink:href="#DejaVuSans-45" x="560.396484"/>
      <use xlink:href="#DejaVuSans-6e" x="623.580078"/>
      <use xlink:href="#DejaVuSans-73" x="686.958984"/>
      <use xlink:href="#DejaVuSans-65" x="739.058594"/>
      <use xlink:href="#DejaVuSans-6d" x="800.582031"/>
      <use xlink:href="#DejaVuSans-62" x="897.994141"/>
      <use xlink:href="#DejaVuSans-6c" x="961.470703"/>
      <use xlink:href="#DejaVuSans-65" x="989.253906"/>
      <use xlink:href="#DejaVuSans-20" x="1050.777344"/>
      <use xlink:href="#DejaVuSans-44" x="1082.564453"/>
      <use xlink:href="#DejaVuSans-79" x="1159.566406"/>
      <use xlink:href="#DejaVuSans-6e" x="1218.746094"/>
      <use xlink:href="#DejaVuSans-61" x="1282.125"/>
      <use xlink:href="#DejaVuSans-6d" x="1343.404297"/>
      <use xlink:href="#DejaVuSans-69" x="1440.816406"/>
      <use xlink:href="#DejaVuSans-63" x="1468.599609"/>
      <use xlink:href="#DejaVuSans-73" x="1523.580078"/>
      <use xlink:href="#DejaVuSans-20" x="1575.679688"/>
      <use xlink:href="#DejaVuSans-20" x="1607.466797"/>
      <use xlink:href="#DejaVuSans-28" x="1639.253906"/>
      <use xlink:href="#DejaVuSans-50" x="1678.267578"/>
      <use xlink:href="#DejaVuSans-53" x="1738.570312"/>
      <use xlink:href="#DejaVuSans-50" x="1802.046875"/>
      <use xlink:href="#DejaVuSans-20" x="1862.349609"/>
      <use xlink:href="#DejaVuSans-66" x="1894.136719"/>
      <use xlink:href="#DejaVuSans-69" x="1929.341797"/>
      <use xlink:href="#DejaVuSans-6c" x="1957.125"/>
      <use xlink:href="#DejaVuSans-74" x="1984.908203"/>
      <use xlink:href="#DejaVuSans-65" x="2024.117188"/>
      <use xlink:href="#DejaVuSans-72" x="2085.640625"/>
      <use xlink:href="#DejaVuSans-29" x="2126.753906"/>
     </g>
    </g>
   </g>
  </g>
  <g id="axes_3">
   <g id="patch_14">
    <path d="M 72 961.2 
L 518.4 961.2 
L 518.4 716.611765 
L 72 716.611765 
z
" style="fill: #ffffff"/>
   </g>
   <g id="patch_15">
    <path d="M 72 961.2 
L 72 716.611765 
L 405.95454 716.611765 
L 405.95454 961.2 
z
" clip-path="url(#p5b50b048f5)" style="fill: #add8e6; opacity: 0.3; stroke: #add8e6; stroke-linejoin: miter"/>
   </g>
   <g id="patch_16">
    <path d="M 405.95454 961.2 
L 405.95454 716.611765 
L 518.4 716.611765 
L 518.4 961.2 
z
" clip-path="url(#p5b50b048f5)" style="fill: #90ee90; opacity: 0.3; stroke: #90ee90; stroke-linejoin: miter"/>
   </g>
   <g id="matplotlib.axis_5">
    <g id="xtick_33">
     <g id="line2d_65">
      <g>
       <use xlink:href="#me31ef30846" x="155.879375" y="961.2" style="stroke: #000000; stroke-width: 0.8"/>
      </g>
     </g>
     <g id="text_16">
      <!-- $\mathdefault{10^{1}}$ -->
      <g transform="translate(147.079375 975.798437) scale(0.1 -0.1)">
       <use xlink:href="#DejaVuSans-31" transform="translate(0 0.684375)"/>
       <use xlink:href="#DejaVuSans-30" transform="translate(63.623047 0.684375)"/>
       <use xlink:href="#DejaVuSans-31" transform="translate(128.203125 38.965625) scale(0.7)"/>
      </g>
     </g>
    </g>
    <g id="xtick_34">
     <g id="line2d_66">
      <g>
       <use xlink:href="#me31ef30846" x="434.520625" y="961.2" style="stroke: #000000; stroke-width: 0.8"/>
      </g>
     </g>
     <g id="text_17">
      <!-- $\mathdefault{10^{2}}$ -->
      <g transform="translate(425.720625 975.798437) scale(0.1 -0.1)">
       <use xlink:href="#DejaVuSans-31" transform="translate(0 0.765625)"/>
       <use xlink:href="#DejaVuSans-30" transform="translate(63.623047 0.765625)"/>
       <use xlink:href="#DejaVuSans-32" transform="translate(128.203125 39.046875) scale(0.7)"/>
      </g>
     </g>
    </g>
    <g id="xtick_35">
     <g id="line2d_67">
      <g>
       <use xlink:href="#m215a7e5c71" x="72" y="961.2" style="stroke: #000000; stroke-width: 0.6"/>
      </g>
     </g>
    </g>
    <g id="xtick_36">
     <g id="line2d_68">
      <g>
       <use xlink:href="#m215a7e5c71" x="94.063161" y="961.2" style="stroke: #000000; stroke-width: 0.6"/>
      </g>
     </g>
    </g>
    <g id="xtick_37">
     <g id="line2d_69">
      <g>
       <use xlink:href="#m215a7e5c71" x="112.717299" y="961.2" style="stroke: #000000; stroke-width: 0.6"/>
      </g>
     </g>
    </g>
    <g id="xtick_38">
     <g id="line2d_70">
      <g>
       <use xlink:href="#m215a7e5c71" x="128.876247" y="961.2" style="stroke: #000000; stroke-width: 0.6"/>
      </g>
     </g>
    </g>
    <g id="xtick_39">
     <g id="line2d_71">
      <g>
       <use xlink:href="#m215a7e5c71" x="143.12945" y="961.2" style="stroke: #000000; stroke-width: 0.6"/>
      </g>
     </g>
    </g>
    <g id="xtick_40">
     <g id="line2d_72">
      <g>
       <use xlink:href="#m215a7e5c71" x="239.758749" y="961.2" style="stroke: #000000; stroke-width: 0.6"/>
      </g>
     </g>
    </g>
    <g id="xtick_41">
     <g id="line2d_73">
      <g>
       <use xlink:href="#m215a7e5c71" x="288.825038" y="961.2" style="stroke: #000000; stroke-width: 0.6"/>
      </g>
     </g>
    </g>
    <g id="xtick_42">
     <g id="line2d_74">
      <g>
       <use xlink:href="#m215a7e5c71" x="323.638124" y="961.2" style="stroke: #000000; stroke-width: 0.6"/>
      </g>
     </g>
    </g>
    <g id="xtick_43">
     <g id="line2d_75">
      <g>
       <use xlink:href="#m215a7e5c71" x="350.641251" y="961.2" style="stroke: #000000; stroke-width: 0.6"/>
      </g>
     </g>
    </g>
    <g id="xtick_44">
     <g id="line2d_76">
      <g>
       <use xlink:href="#m215a7e5c71" x="372.704412" y="961.2" style="stroke: #000000; stroke-width: 0.6"/>
      </g>
     </g>
    </g>
    <g id="xtick_45">
     <g id="line2d_77">
      <g>
       <use xlink:href="#m215a7e5c71" x="391.35855" y="961.2" style="stroke: #000000; stroke-width: 0.6"/>
      </g>
     </g>
    </g>
    <g id="xtick_46">
     <g id="line2d_78">
      <g>
       <use xlink:href="#m215a7e5c71" x="407.517498" y="961.2" style="stroke: #000000; stroke-width: 0.6"/>
      </g>
     </g>
    </g>
    <g id="xtick_47">
     <g id="line2d_79">
      <g>
       <use xlink:href="#m215a7e5c71" x="421.770701" y="961.2" style="stroke: #000000; stroke-width: 0.6"/>
      </g>
     </g>
    </g>
    <g id="xtick_48">
     <g id="line2d_80">
      <g>
       <use xlink:href="#m215a7e5c71" x="518.4" y="961.2" style="stroke: #000000; stroke-width: 0.6"/>
      </g>
     </g>
    </g>
   </g>
   <g id="matplotlib.axis_6">
    <g id="ytick_19">
     <g id="line2d_81">
      <g>
       <use xlink:href="#m3fcc764a53" x="72" y="961.2" style="stroke: #000000; stroke-width: 0.8"/>
      </g>
     </g>
     <g id="text_18">
      <!-- $\mathdefault{10^{-14}}$ -->
      <g transform="translate(37.1 964.999219) scale(0.1 -0.1)">
       <defs>
        <path id="DejaVuSans-34" d="M 2419 4116 
L 825 1625 
L 2419 1625 
L 2419 4116 
z
M 2253 4666 
L 3047 4666 
L 3047 1625 
L 3713 1625 
L 3713 1100 
L 3047 1100 
L 3047 0 
L 2419 0 
L 2419 1100 
L 313 1100 
L 313 1709 
L 2253 4666 
z
" transform="scale(0.015625)"/>
       </defs>
       <use xlink:href="#DejaVuSans-31" transform="translate(0 0.684375)"/>
       <use xlink:href="#DejaVuSans-30" transform="translate(63.623047 0.684375)"/>
       <use xlink:href="#DejaVuSans-2212" transform="translate(128.203125 38.965625) scale(0.7)"/>
       <use xlink:href="#DejaVuSans-31" transform="translate(186.855469 38.965625) scale(0.7)"/>
       <use xlink:href="#DejaVuSans-34" transform="translate(231.391602 38.965625) scale(0.7)"/>
      </g>
     </g>
    </g>
    <g id="ytick_20">
     <g id="line2d_82">
      <g>
       <use xlink:href="#m3fcc764a53" x="72" y="869.479412" style="stroke: #000000; stroke-width: 0.8"/>
      </g>
     </g>
     <g id="text_19">
      <!-- $\mathdefault{10^{-11}}$ -->
      <g transform="translate(37.1 873.278631) scale(0.1 -0.1)">
       <use xlink:href="#DejaVuSans-31" transform="translate(0 0.684375)"/>
       <use xlink:href="#DejaVuSans-30" transform="translate(63.623047 0.684375)"/>
       <use xlink:href="#DejaVuSans-2212" transform="translate(128.203125 38.965625) scale(0.7)"/>
       <use xlink:href="#DejaVuSans-31" transform="translate(186.855469 38.965625) scale(0.7)"/>
       <use xlink:href="#DejaVuSans-31" transform="translate(231.391602 38.965625) scale(0.7)"/>
      </g>
     </g>
    </g>
    <g id="ytick_21">
     <g id="line2d_83">
      <g>
       <use xlink:href="#m3fcc764a53" x="72" y="777.758824" style="stroke: #000000; stroke-width: 0.8"/>
      </g>
     </g>
     <g id="text_20">
      <!-- $\mathdefault{10^{-8}}$ -->
      <g transform="translate(41.5 781.558042) scale(0.1 -0.1)">
       <use xlink:href="#DejaVuSans-31" transform="translate(0 0.765625)"/>
       <use xlink:href="#DejaVuSans-30" transform="translate(63.623047 0.765625)"/>
       <use xlink:href="#DejaVuSans-2212" transform="translate(128.203125 39.046875) scale(0.7)"/>
       <use xlink:href="#DejaVuSans-38" transform="translate(186.855469 39.046875) scale(0.7)"/>
      </g>
     </g>
    </g>
   </g>
   <g id="line2d_84">
    <path d="M -1 698.468325 
L 15.88947 701.479481 
L 33.4567 704.838494 
L 51.623807 708.539912 
L 70.071742 712.525939 
L 88.387699 716.710263 
L 106.172504 720.999958 
L 123.136262 725.318245 
L 139.225608 729.641348 
L 154.475305 733.967345 
L 168.981468 738.311829 
L 182.897273 742.710333 
L 196.345288 747.193237 
L 209.447586 751.794473 
L 222.339752 756.55733 
L 235.117394 761.514903 
L 247.905686 766.715523 
L 260.820358 772.208441 
L 274.000844 778.05741 
L 287.620063 784.346278 
L 301.921608 791.197875 
L 317.281829 798.807142 
L 334.376742 807.529806 
L 354.77256 818.196942 
L 385.172417 834.378605 
L 430.846258 858.662374 
L 459.863863 873.815269 
L 495.178355 891.983768 
L 542.613279 916.409419 
L 565.592427 928.509072 
L 577 934.626538 
M 577 934.626538 
L 556.918706 923.910016 
L 533.678782 911.768897 
L 499.815394 894.359095 
L 453.067618 870.288404 
L 424.034139 855.068931 
L 389.764858 836.832985 
L 347.004946 814.107849 
L 326.793835 803.631454 
L 309.904747 795.122668 
L 294.700876 787.708424 
L 280.508489 781.032325 
L 266.961134 774.903526 
L 253.818119 769.200447 
L 240.914661 763.842858 
L 228.116971 758.769342 
L 215.293612 753.924789 
L 202.340096 749.269144 
L 189.14353 744.763171 
L 175.591404 740.371716 
L 161.549823 736.056758 
L 146.901735 731.789525 
L 131.504612 727.537519 
L 115.261746 723.28472 
L 98.173054 719.041769 
L 80.319442 714.838747 
L 61.963733 710.746067 
L 43.536749 706.864425 
L 25.426488 703.275379 
L 7.942431 700.034981 
L -1 698.468325 
L -1 698.468325 
" clip-path="url(#p5b50b048f5)" style="fill: none; stroke: #000000; stroke-width: 2.5; stroke-linecap: square"/>
   </g>
   <g id="line2d_85">
    <path d="M -1 726.046965 
L 16.124104 729.074239 
L 34.115066 732.481878 
L 52.88459 736.264565 
L 72.191884 740.382829 
L 91.633557 744.756755 
L 110.708607 749.274845 
L 129.086566 753.854426 
L 146.662856 758.461416 
L 163.507316 763.104922 
L 179.770242 767.817832 
L 195.642766 772.648706 
L 211.330535 777.655738 
L 227.065438 782.911699 
L 243.089733 788.499919 
L 259.666738 794.518231 
L 277.105304 801.088472 
L 295.77494 808.363449 
L 316.133069 816.539035 
L 338.72471 825.855874 
L 364.074296 836.555489 
L 392.269919 848.701397 
L 422.126348 861.805183 
L 451.161244 874.787735 
L 477.54321 886.822649 
L 501.023643 897.773665 
L 522.115693 907.852276 
L 541.430697 917.325238 
L 559.494715 926.430226 
L 576.738121 935.369318 
L 577 935.507049 
M 577 935.507049 
L 559.92259 926.649018 
L 542.168035 917.692019 
L 523.352964 908.451664 
L 503.018301 898.716205 
L 480.623605 888.245227 
L 455.616364 876.802744 
L 427.77351 864.311028 
L 397.999218 851.197204 
L 368.653215 838.511698 
L 341.834519 827.155636 
L 318.028761 817.311658 
L 296.799224 808.769098 
L 277.524993 801.2494 
L 259.682401 794.524026 
L 242.83798 788.410339 
L 226.64431 782.768006 
L 210.827364 777.49152 
L 195.123199 772.486858 
L 179.31468 767.682603 
L 163.177463 763.011723 
L 146.523291 758.423903 
L 129.178695 753.877977 
L 111.056768 749.359478 
L 92.197426 744.887039 
L 72.817082 740.51994 
L 53.402476 736.372073 
L 34.367333 732.531218 
L 16.065488 729.063506 
L -1 726.046965 
L -1 726.046965 
" clip-path="url(#p5b50b048f5)" style="fill: none; stroke: #008000; stroke-opacity: 0.5; stroke-width: 2.5; stroke-linecap: square"/>
   </g>
   <g id="line2d_86">
    <path d="M -1 700.245923 
L 15.83074 703.25006 
L 33.355095 706.605162 
L 51.405097 710.288073 
L 69.733561 714.254914 
L 87.902938 718.414069 
L 105.502383 722.669069 
L 122.286196 726.953324 
L 138.18285 731.238415 
L 153.217193 735.519213 
L 167.514431 739.819699 
L 181.171683 744.158314 
L 194.332922 748.571447 
L 207.100315 753.086026 
L 219.589965 757.73769 
L 231.879835 762.551854 
L 244.064815 767.563725 
L 256.218995 772.803668 
L 268.419706 778.306418 
L 280.73902 784.107312 
L 293.267643 790.253557 
L 306.096453 796.796084 
L 319.332076 803.797383 
L 333.098513 811.3331 
L 347.540358 819.494471 
L 362.831872 828.394303 
L 379.162245 838.15928 
L 396.729091 848.926177 
L 415.679539 860.805344 
L 435.99618 873.80618 
L 457.347363 887.734492 
L 479.049124 902.156687 
L 500.323514 916.5601 
L 520.672801 930.603369 
L 539.984897 944.198815 
L 558.403105 957.435213 
L 576.186144 970.487981 
L 577 971.092055 
M 577 971.092055 
L 559.337491 958.11421 
L 541.157145 945.033119 
L 522.187299 931.659738 
L 502.231555 917.865386 
L 481.276568 903.652161 
L 459.636013 889.242892 
L 437.99344 875.097887 
L 417.137873 861.72981 
L 397.586509 849.458018 
L 379.479844 838.351635 
L 362.708262 828.321373 
L 347.073429 819.226749 
L 332.361988 810.923701 
L 318.390864 803.2914 
L 304.997527 796.22606 
L 292.045195 789.64311 
L 279.422397 783.475741 
L 267.027481 777.666245 
L 254.776038 772.168941 
L 242.594721 766.946283 
L 230.392691 761.956559 
L 218.108499 757.173411 
L 205.640412 752.55771 
L 192.913604 748.084046 
L 179.830854 743.721807 
L 166.283815 739.440144 
L 152.136465 735.203539 
L 137.28185 730.989172 
L 121.626327 726.780409 
L 105.081665 722.564613 
L 87.708488 718.368331 
L 69.658282 714.238156 
L 51.317502 710.269661 
L 33.100707 706.554875 
L 15.359874 703.163035 
L -1 700.245923 
L -1 700.245923 
" clip-path="url(#p5b50b048f5)" style="fill: none; stroke: #0000ff; stroke-opacity: 0.5; stroke-width: 2.5; stroke-linecap: square"/>
   </g>
   <g id="line2d_87">
    <path d="M 405.95454 961.2 
L 405.95454 716.611765 
" clip-path="url(#p5b50b048f5)" style="fill: none; stroke-dasharray: 5.55,2.4; stroke-dashoffset: 0; stroke: #808080; stroke-width: 1.5"/>
   </g>
   <g id="patch_17">
    <path d="M 72 961.2 
L 72 716.611765 
" style="fill: none; stroke: #000000; stroke-width: 0.8; stroke-linejoin: miter; stroke-linecap: square"/>
   </g>
   <g id="patch_18">
    <path d="M 72 961.2 
L 518.4 961.2 
" style="fill: none; stroke: #000000; stroke-width: 0.8; stroke-linejoin: miter; stroke-linecap: square"/>
   </g>
   <g id="legend_3">
    <g id="patch_19">
     <path d="M 227.582812 768.64614 
L 511.4 768.64614 
Q 513.4 768.64614 513.4 766.64614 
L 513.4 723.611765 
Q 513.4 721.611765 511.4 721.611765 
L 227.582812 721.611765 
Q 225.582812 721.611765 225.582812 723.611765 
L 225.582812 766.64614 
Q 225.582812 768.64614 227.582812 768.64614 
z
" style="fill: #ffffff; opacity: 0.8; stroke: #cccccc; stroke-linejoin: miter"/>
    </g>
    <g id="line2d_88">
     <path d="M 229.582812 729.710202 
L 239.582812 729.710202 
L 249.582812 729.710202 
" style="fill: none; stroke: #000000; stroke-width: 2.5; stroke-linecap: square"/>
    </g>
    <g id="text_21">
     <!-- Final Point Process (PSP and 1/f filter) -->
     <g transform="translate(257.582812 733.210202) scale(0.1 -0.1)">
      <defs>
       <path id="DejaVuSans-2f" d="M 1625 4666 
L 2156 4666 
L 531 -594 
L 0 -594 
L 1625 4666 
z
" transform="scale(0.015625)"/>
      </defs>
      <use xlink:href="#DejaVuSans-46"/>
      <use xlink:href="#DejaVuSans-69" x="50.269531"/>
      <use xlink:href="#DejaVuSans-6e" x="78.052734"/>
      <use xlink:href="#DejaVuSans-61" x="141.431641"/>
      <use xlink:href="#DejaVuSans-6c" x="202.710938"/>
      <use xlink:href="#DejaVuSans-20" x="230.494141"/>
      <use xlink:href="#DejaVuSans-50" x="262.28125"/>
      <use xlink:href="#DejaVuSans-6f" x="318.958984"/>
      <use xlink:href="#DejaVuSans-69" x="380.140625"/>
      <use xlink:href="#DejaVuSans-6e" x="407.923828"/>
      <use xlink:href="#DejaVuSans-74" x="471.302734"/>
      <use xlink:href="#DejaVuSans-20" x="510.511719"/>
      <use xlink:href="#DejaVuSans-50" x="542.298828"/>
      <use xlink:href="#DejaVuSans-72" x="600.851562"/>
      <use xlink:href="#DejaVuSans-6f" x="639.714844"/>
      <use xlink:href="#DejaVuSans-63" x="700.896484"/>
      <use xlink:href="#DejaVuSans-65" x="755.876953"/>
      <use xlink:href="#DejaVuSans-73" x="817.400391"/>
      <use xlink:href="#DejaVuSans-73" x="869.5"/>
      <use xlink:href="#DejaVuSans-20" x="921.599609"/>
      <use xlink:href="#DejaVuSans-28" x="953.386719"/>
      <use xlink:href="#DejaVuSans-50" x="992.400391"/>
      <use xlink:href="#DejaVuSans-53" x="1052.703125"/>
      <use xlink:href="#DejaVuSans-50" x="1116.179688"/>
      <use xlink:href="#DejaVuSans-20" x="1176.482422"/>
      <use xlink:href="#DejaVuSans-61" x="1208.269531"/>
      <use xlink:href="#DejaVuSans-6e" x="1269.548828"/>
      <use xlink:href="#DejaVuSans-64" x="1332.927734"/>
      <use xlink:href="#DejaVuSans-20" x="1396.404297"/>
      <use xlink:href="#DejaVuSans-31" x="1428.191406"/>
      <use xlink:href="#DejaVuSans-2f" x="1491.814453"/>
      <use xlink:href="#DejaVuSans-66" x="1525.505859"/>
      <use xlink:href="#DejaVuSans-20" x="1560.710938"/>
      <use xlink:href="#DejaVuSans-66" x="1592.498047"/>
      <use xlink:href="#DejaVuSans-69" x="1627.703125"/>
      <use xlink:href="#DejaVuSans-6c" x="1655.486328"/>
      <use xlink:href="#DejaVuSans-74" x="1683.269531"/>
      <use xlink:href="#DejaVuSans-65" x="1722.478516"/>
      <use xlink:href="#DejaVuSans-72" x="1784.001953"/>
      <use xlink:href="#DejaVuSans-29" x="1825.115234"/>
     </g>
    </g>
    <g id="line2d_89">
     <path d="M 229.582812 744.388327 
L 239.582812 744.388327 
L 249.582812 744.388327 
" style="fill: none; stroke: #008000; stroke-opacity: 0.5; stroke-width: 2.5; stroke-linecap: square"/>
    </g>
    <g id="text_22">
     <!-- Broadband Power (PSP and 1/f filter) -->
     <g transform="translate(257.582812 747.888327) scale(0.1 -0.1)">
      <use xlink:href="#DejaVuSans-42"/>
      <use xlink:href="#DejaVuSans-72" x="68.603516"/>
      <use xlink:href="#DejaVuSans-6f" x="107.466797"/>
      <use xlink:href="#DejaVuSans-61" x="168.648438"/>
      <use xlink:href="#DejaVuSans-64" x="229.927734"/>
      <use xlink:href="#DejaVuSans-62" x="293.404297"/>
      <use xlink:href="#DejaVuSans-61" x="356.880859"/>
      <use xlink:href="#DejaVuSans-6e" x="418.160156"/>
      <use xlink:href="#DejaVuSans-64" x="481.539062"/>
      <use xlink:href="#DejaVuSans-20" x="545.015625"/>
      <use xlink:href="#DejaVuSans-50" x="576.802734"/>
      <use xlink:href="#DejaVuSans-6f" x="633.480469"/>
      <use xlink:href="#DejaVuSans-77" x="694.662109"/>
      <use xlink:href="#DejaVuSans-65" x="776.449219"/>
      <use xlink:href="#DejaVuSans-72" x="837.972656"/>
      <use xlink:href="#DejaVuSans-20" x="879.085938"/>
      <use xlink:href="#DejaVuSans-28" x="910.873047"/>
      <use xlink:href="#DejaVuSans-50" x="949.886719"/>
      <use xlink:href="#DejaVuSans-53" x="1010.189453"/>
      <use xlink:href="#DejaVuSans-50" x="1073.666016"/>
      <use xlink:href="#DejaVuSans-20" x="1133.96875"/>
      <use xlink:href="#DejaVuSans-61" x="1165.755859"/>
      <use xlink:href="#DejaVuSans-6e" x="1227.035156"/>
      <use xlink:href="#DejaVuSans-64" x="1290.414062"/>
      <use xlink:href="#DejaVuSans-20" x="1353.890625"/>
      <use xlink:href="#DejaVuSans-31" x="1385.677734"/>
      <use xlink:href="#DejaVuSans-2f" x="1449.300781"/>
      <use xlink:href="#DejaVuSans-66" x="1482.992188"/>
      <use xlink:href="#DejaVuSans-20" x="1518.197266"/>
      <use xlink:href="#DejaVuSans-66" x="1549.984375"/>
      <use xlink:href="#DejaVuSans-69" x="1585.189453"/>
      <use xlink:href="#DejaVuSans-6c" x="1612.972656"/>
      <use xlink:href="#DejaVuSans-74" x="1640.755859"/>
      <use xlink:href="#DejaVuSans-65" x="1679.964844"/>
      <use xlink:href="#DejaVuSans-72" x="1741.488281"/>
      <use xlink:href="#DejaVuSans-29" x="1782.601562"/>
     </g>
    </g>
    <g id="line2d_90">
     <path d="M 229.582812 759.066452 
L 239.582812 759.066452 
L 249.582812 759.066452 
" style="fill: none; stroke: #0000ff; stroke-opacity: 0.5; stroke-width: 2.5; stroke-linecap: square"/>
    </g>
    <g id="text_23">
     <!-- Structured Ensemble Dynamics (PSP and 1/f filter) -->
     <g transform="translate(257.582812 762.566452) scale(0.1 -0.1)">
      <use xlink:href="#DejaVuSans-53"/>
      <use xlink:href="#DejaVuSans-74" x="63.476562"/>
      <use xlink:href="#DejaVuSans-72" x="102.685547"/>
      <use xlink:href="#DejaVuSans-75" x="143.798828"/>
      <use xlink:href="#DejaVuSans-63" x="207.177734"/>
      <use xlink:href="#DejaVuSans-74" x="262.158203"/>
      <use xlink:href="#DejaVuSans-75" x="301.367188"/>
      <use xlink:href="#DejaVuSans-72" x="364.746094"/>
      <use xlink:href="#DejaVuSans-65" x="403.609375"/>
      <use xlink:href="#DejaVuSans-64" x="465.132812"/>
      <use xlink:href="#DejaVuSans-20" x="528.609375"/>
      <use xlink:href="#DejaVuSans-45" x="560.396484"/>
      <use xlink:href="#DejaVuSans-6e" x="623.580078"/>
      <use xlink:href="#DejaVuSans-73" x="686.958984"/>
      <use xlink:href="#DejaVuSans-65" x="739.058594"/>
      <use xlink:href="#DejaVuSans-6d" x="800.582031"/>
      <use xlink:href="#DejaVuSans-62" x="897.994141"/>
      <use xlink:href="#DejaVuSans-6c" x="961.470703"/>
      <use xlink:href="#DejaVuSans-65" x="989.253906"/>
      <use xlink:href="#DejaVuSans-20" x="1050.777344"/>
      <use xlink:href="#DejaVuSans-44" x="1082.564453"/>
      <use xlink:href="#DejaVuSans-79" x="1159.566406"/>
      <use xlink:href="#DejaVuSans-6e" x="1218.746094"/>
      <use xlink:href="#DejaVuSans-61" x="1282.125"/>
      <use xlink:href="#DejaVuSans-6d" x="1343.404297"/>
      <use xlink:href="#DejaVuSans-69" x="1440.816406"/>
      <use xlink:href="#DejaVuSans-63" x="1468.599609"/>
      <use xlink:href="#DejaVuSans-73" x="1523.580078"/>
      <use xlink:href="#DejaVuSans-20" x="1575.679688"/>
      <use xlink:href="#DejaVuSans-28" x="1607.466797"/>
      <use xlink:href="#DejaVuSans-50" x="1646.480469"/>
      <use xlink:href="#DejaVuSans-53" x="1706.783203"/>
      <use xlink:href="#DejaVuSans-50" x="1770.259766"/>
      <use xlink:href="#DejaVuSans-20" x="1830.5625"/>
      <use xlink:href="#DejaVuSans-61" x="1862.349609"/>
      <use xlink:href="#DejaVuSans-6e" x="1923.628906"/>
      <use xlink:href="#DejaVuSans-64" x="1987.007812"/>
      <use xlink:href="#DejaVuSans-20" x="2050.484375"/>
      <use xlink:href="#DejaVuSans-31" x="2082.271484"/>
      <use xlink:href="#DejaVuSans-2f" x="2145.894531"/>
      <use xlink:href="#DejaVuSans-66" x="2179.585938"/>
      <use xlink:href="#DejaVuSans-20" x="2214.791016"/>
      <use xlink:href="#DejaVuSans-66" x="2246.578125"/>
      <use xlink:href="#DejaVuSans-69" x="2281.783203"/>
      <use xlink:href="#DejaVuSans-6c" x="2309.566406"/>
      <use xlink:href="#DejaVuSans-74" x="2337.349609"/>
      <use xlink:href="#DejaVuSans-65" x="2376.558594"/>
      <use xlink:href="#DejaVuSans-72" x="2438.082031"/>
      <use xlink:href="#DejaVuSans-29" x="2479.195312"/>
     </g>
    </g>
   </g>
  </g>
 </g>
 <defs>
  <clipPath id="pae09c50a3a">
   <rect x="72" y="129.6" width="446.4" height="244.588235"/>
  </clipPath>
  <clipPath id="pdba29b8e55">
   <rect x="72" y="423.105882" width="446.4" height="244.588235"/>
  </clipPath>
  <clipPath id="p5b50b048f5">
   <rect x="72" y="716.611765" width="446.4" height="244.588235"/>
  </clipPath>
 </defs>
</svg>
