<?xml version="1.0" encoding="utf-8" standalone="no"?>
<!DOCTYPE svg PUBLIC "-//W3C//DTD SVG 1.1//EN"
  "http://www.w3.org/Graphics/SVG/1.1/DTD/svg11.dtd">
<svg xmlns:xlink="http://www.w3.org/1999/xlink" width="576pt" height="1080pt" viewBox="0 0 576 1080" xmlns="http://www.w3.org/2000/svg" version="1.1">
 <metadata>
  <rdf:RDF xmlns:dc="http://purl.org/dc/elements/1.1/" xmlns:cc="http://creativecommons.org/ns#" xmlns:rdf="http://www.w3.org/1999/02/22-rdf-syntax-ns#">
   <cc:Work>
    <dc:type rdf:resource="http://purl.org/dc/dcmitype/StillImage"/>
    <dc:date>2024-06-09T08:51:18.969390</dc:date>
    <dc:format>image/svg+xml</dc:format>
    <dc:creator>
     <cc:Agent>
      <dc:title>Matplotlib v3.5.3, https://matplotlib.org/</dc:title>
     </cc:Agent>
    </dc:creator>
   </cc:Work>
  </rdf:RDF>
 </metadata>
 <defs>
  <style type="text/css">*{stroke-linejoin: round; stroke-linecap: butt}</style>
 </defs>
 <g id="figure_1">
  <g id="patch_1">
   <path d="M 0 1080 
L 576 1080 
L 576 0 
L 0 0 
z
" style="fill: #ffffff"/>
  </g>
  <g id="axes_1">
   <g id="patch_2">
    <path d="M 122.396483 304.904 
L 543.6 304.904 
L 543.6 32.4 
L 122.396483 32.4 
z
" style="fill: #ffffff"/>
   </g>
   <g id="patch_3">
    <path d="M 122.396483 304.904 
L 122.396483 32.4 
L 437.501382 32.4 
L 437.501382 304.904 
z
" clip-path="url(#p4a3c663cd9)" style="fill: #add8e6; opacity: 0.3; stroke: #add8e6; stroke-linejoin: miter"/>
   </g>
   <g id="patch_4">
    <path d="M 437.501382 304.904 
L 437.501382 32.4 
L 543.6 32.4 
L 543.6 304.904 
z
" clip-path="url(#p4a3c663cd9)" style="fill: #90ee90; opacity: 0.3; stroke: #90ee90; stroke-linejoin: miter"/>
   </g>
   <g id="matplotlib.axis_1">
    <g id="xtick_1">
     <g id="line2d_1">
      <defs>
       <path id="ma1057663d4" d="M 0 0 
L 0 3.5 
" style="stroke: #000000; stroke-width: 0.8"/>
      </defs>
      <g>
       <use xlink:href="#ma1057663d4" x="201.541393" y="304.904" style="stroke: #000000; stroke-width: 0.8"/>
      </g>
     </g>
     <g id="text_1">
      <!-- $\mathdefault{10^{1}}$ -->
      <g transform="translate(175.141393 334.699313)scale(0.3 -0.3)">
       <defs>
        <path id="DejaVuSans-31" d="M 794 531 
L 1825 531 
L 1825 4091 
L 703 3866 
L 703 4441 
L 1819 4666 
L 2450 4666 
L 2450 531 
L 3481 531 
L 3481 0 
L 794 0 
L 794 531 
z
" transform="scale(0.015625)"/>
        <path id="DejaVuSans-30" d="M 2034 4250 
Q 1547 4250 1301 3770 
Q 1056 3291 1056 2328 
Q 1056 1369 1301 889 
Q 1547 409 2034 409 
Q 2525 409 2770 889 
Q 3016 1369 3016 2328 
Q 3016 3291 2770 3770 
Q 2525 4250 2034 4250 
z
M 2034 4750 
Q 2819 4750 3233 4129 
Q 3647 3509 3647 2328 
Q 3647 1150 3233 529 
Q 2819 -91 2034 -91 
Q 1250 -91 836 529 
Q 422 1150 422 2328 
Q 422 3509 836 4129 
Q 1250 4750 2034 4750 
z
" transform="scale(0.015625)"/>
       </defs>
       <use xlink:href="#DejaVuSans-31" transform="translate(0 0.684375)"/>
       <use xlink:href="#DejaVuSans-30" transform="translate(63.623047 0.684375)"/>
       <use xlink:href="#DejaVuSans-31" transform="translate(128.203125 38.965625)scale(0.7)"/>
      </g>
     </g>
    </g>
    <g id="xtick_2">
     <g id="line2d_2">
      <g>
       <use xlink:href="#ma1057663d4" x="464.455091" y="304.904" style="stroke: #000000; stroke-width: 0.8"/>
      </g>
     </g>
     <g id="text_2">
      <!-- $\mathdefault{10^{2}}$ -->
      <g transform="translate(438.055091 334.699313)scale(0.3 -0.3)">
       <defs>
        <path id="DejaVuSans-32" d="M 1228 531 
L 3431 531 
L 3431 0 
L 469 0 
L 469 531 
Q 828 903 1448 1529 
Q 2069 2156 2228 2338 
Q 2531 2678 2651 2914 
Q 2772 3150 2772 3378 
Q 2772 3750 2511 3984 
Q 2250 4219 1831 4219 
Q 1534 4219 1204 4116 
Q 875 4013 500 3803 
L 500 4441 
Q 881 4594 1212 4672 
Q 1544 4750 1819 4750 
Q 2544 4750 2975 4387 
Q 3406 4025 3406 3419 
Q 3406 3131 3298 2873 
Q 3191 2616 2906 2266 
Q 2828 2175 2409 1742 
Q 1991 1309 1228 531 
z
" transform="scale(0.015625)"/>
       </defs>
       <use xlink:href="#DejaVuSans-31" transform="translate(0 0.765625)"/>
       <use xlink:href="#DejaVuSans-30" transform="translate(63.623047 0.765625)"/>
       <use xlink:href="#DejaVuSans-32" transform="translate(128.203125 39.046875)scale(0.7)"/>
      </g>
     </g>
    </g>
    <g id="xtick_3">
     <g id="line2d_3">
      <defs>
       <path id="m2fcda35e81" d="M 0 0 
L 0 2 
" style="stroke: #000000; stroke-width: 0.6"/>
      </defs>
      <g>
       <use xlink:href="#m2fcda35e81" x="122.396483" y="304.904" style="stroke: #000000; stroke-width: 0.6"/>
      </g>
     </g>
    </g>
    <g id="xtick_4">
     <g id="line2d_4">
      <g>
       <use xlink:href="#m2fcda35e81" x="143.214318" y="304.904" style="stroke: #000000; stroke-width: 0.6"/>
      </g>
     </g>
    </g>
    <g id="xtick_5">
     <g id="line2d_5">
      <g>
       <use xlink:href="#m2fcda35e81" x="160.815546" y="304.904" style="stroke: #000000; stroke-width: 0.6"/>
      </g>
     </g>
    </g>
    <g id="xtick_6">
     <g id="line2d_6">
      <g>
       <use xlink:href="#m2fcda35e81" x="176.062423" y="304.904" style="stroke: #000000; stroke-width: 0.6"/>
      </g>
     </g>
    </g>
    <g id="xtick_7">
     <g id="line2d_7">
      <g>
       <use xlink:href="#m2fcda35e81" x="189.511122" y="304.904" style="stroke: #000000; stroke-width: 0.6"/>
      </g>
     </g>
    </g>
    <g id="xtick_8">
     <g id="line2d_8">
      <g>
       <use xlink:href="#m2fcda35e81" x="280.686302" y="304.904" style="stroke: #000000; stroke-width: 0.6"/>
      </g>
     </g>
    </g>
    <g id="xtick_9">
     <g id="line2d_9">
      <g>
       <use xlink:href="#m2fcda35e81" x="326.983106" y="304.904" style="stroke: #000000; stroke-width: 0.6"/>
      </g>
     </g>
    </g>
    <g id="xtick_10">
     <g id="line2d_10">
      <g>
       <use xlink:href="#m2fcda35e81" x="359.831211" y="304.904" style="stroke: #000000; stroke-width: 0.6"/>
      </g>
     </g>
    </g>
    <g id="xtick_11">
     <g id="line2d_11">
      <g>
       <use xlink:href="#m2fcda35e81" x="385.310181" y="304.904" style="stroke: #000000; stroke-width: 0.6"/>
      </g>
     </g>
    </g>
    <g id="xtick_12">
     <g id="line2d_12">
      <g>
       <use xlink:href="#m2fcda35e81" x="406.128016" y="304.904" style="stroke: #000000; stroke-width: 0.6"/>
      </g>
     </g>
    </g>
    <g id="xtick_13">
     <g id="line2d_13">
      <g>
       <use xlink:href="#m2fcda35e81" x="423.729244" y="304.904" style="stroke: #000000; stroke-width: 0.6"/>
      </g>
     </g>
    </g>
    <g id="xtick_14">
     <g id="line2d_14">
      <g>
       <use xlink:href="#m2fcda35e81" x="438.976121" y="304.904" style="stroke: #000000; stroke-width: 0.6"/>
      </g>
     </g>
    </g>
    <g id="xtick_15">
     <g id="line2d_15">
      <g>
       <use xlink:href="#m2fcda35e81" x="452.42482" y="304.904" style="stroke: #000000; stroke-width: 0.6"/>
      </g>
     </g>
    </g>
    <g id="xtick_16">
     <g id="line2d_16">
      <g>
       <use xlink:href="#m2fcda35e81" x="543.6" y="304.904" style="stroke: #000000; stroke-width: 0.6"/>
      </g>
     </g>
    </g>
   </g>
   <g id="matplotlib.axis_2">
    <g id="ytick_1">
     <g id="line2d_17">
      <defs>
       <path id="m8482a566a3" d="M 0 0 
L -3.5 0 
" style="stroke: #000000; stroke-width: 0.8"/>
      </defs>
      <g>
       <use xlink:href="#m8482a566a3" x="122.396483" y="252.194531" style="stroke: #000000; stroke-width: 0.8"/>
      </g>
     </g>
     <g id="text_3">
      <!-- $\mathdefault{10^{2}}$ -->
      <g transform="translate(62.596483 263.592188)scale(0.3 -0.3)">
       <use xlink:href="#DejaVuSans-31" transform="translate(0 0.765625)"/>
       <use xlink:href="#DejaVuSans-30" transform="translate(63.623047 0.765625)"/>
       <use xlink:href="#DejaVuSans-32" transform="translate(128.203125 39.046875)scale(0.7)"/>
      </g>
     </g>
    </g>
    <g id="ytick_2">
     <g id="line2d_18">
      <g>
       <use xlink:href="#m8482a566a3" x="122.396483" y="77.097466" style="stroke: #000000; stroke-width: 0.8"/>
      </g>
     </g>
     <g id="text_4">
      <!-- $\mathdefault{10^{3}}$ -->
      <g transform="translate(62.596483 88.495123)scale(0.3 -0.3)">
       <defs>
        <path id="DejaVuSans-33" d="M 2597 2516 
Q 3050 2419 3304 2112 
Q 3559 1806 3559 1356 
Q 3559 666 3084 287 
Q 2609 -91 1734 -91 
Q 1441 -91 1130 -33 
Q 819 25 488 141 
L 488 750 
Q 750 597 1062 519 
Q 1375 441 1716 441 
Q 2309 441 2620 675 
Q 2931 909 2931 1356 
Q 2931 1769 2642 2001 
Q 2353 2234 1838 2234 
L 1294 2234 
L 1294 2753 
L 1863 2753 
Q 2328 2753 2575 2939 
Q 2822 3125 2822 3475 
Q 2822 3834 2567 4026 
Q 2313 4219 1838 4219 
Q 1578 4219 1281 4162 
Q 984 4106 628 3988 
L 628 4550 
Q 988 4650 1302 4700 
Q 1616 4750 1894 4750 
Q 2613 4750 3031 4423 
Q 3450 4097 3450 3541 
Q 3450 3153 3228 2886 
Q 3006 2619 2597 2516 
z
" transform="scale(0.015625)"/>
       </defs>
       <use xlink:href="#DejaVuSans-31" transform="translate(0 0.765625)"/>
       <use xlink:href="#DejaVuSans-30" transform="translate(63.623047 0.765625)"/>
       <use xlink:href="#DejaVuSans-33" transform="translate(128.203125 39.046875)scale(0.7)"/>
      </g>
     </g>
    </g>
    <g id="ytick_3">
     <g id="line2d_19">
      <defs>
       <path id="md2570cacef" d="M 0 0 
L -2 0 
" style="stroke: #000000; stroke-width: 0.6"/>
      </defs>
      <g>
       <use xlink:href="#md2570cacef" x="122.396483" y="304.904" style="stroke: #000000; stroke-width: 0.6"/>
      </g>
     </g>
    </g>
    <g id="ytick_4">
     <g id="line2d_20">
      <g>
       <use xlink:href="#md2570cacef" x="122.396483" y="291.039596" style="stroke: #000000; stroke-width: 0.6"/>
      </g>
     </g>
    </g>
    <g id="ytick_5">
     <g id="line2d_21">
      <g>
       <use xlink:href="#md2570cacef" x="122.396483" y="279.31741" style="stroke: #000000; stroke-width: 0.6"/>
      </g>
     </g>
    </g>
    <g id="ytick_6">
     <g id="line2d_22">
      <g>
       <use xlink:href="#md2570cacef" x="122.396483" y="269.16319" style="stroke: #000000; stroke-width: 0.6"/>
      </g>
     </g>
    </g>
    <g id="ytick_7">
     <g id="line2d_23">
      <g>
       <use xlink:href="#md2570cacef" x="122.396483" y="260.206534" style="stroke: #000000; stroke-width: 0.6"/>
      </g>
     </g>
    </g>
    <g id="ytick_8">
     <g id="line2d_24">
      <g>
       <use xlink:href="#md2570cacef" x="122.396483" y="199.485063" style="stroke: #000000; stroke-width: 0.6"/>
      </g>
     </g>
    </g>
    <g id="ytick_9">
     <g id="line2d_25">
      <g>
       <use xlink:href="#md2570cacef" x="122.396483" y="168.652" style="stroke: #000000; stroke-width: 0.6"/>
      </g>
     </g>
    </g>
    <g id="ytick_10">
     <g id="line2d_26">
      <g>
       <use xlink:href="#md2570cacef" x="122.396483" y="146.775594" style="stroke: #000000; stroke-width: 0.6"/>
      </g>
     </g>
    </g>
    <g id="ytick_11">
     <g id="line2d_27">
      <g>
       <use xlink:href="#md2570cacef" x="122.396483" y="129.806935" style="stroke: #000000; stroke-width: 0.6"/>
      </g>
     </g>
    </g>
    <g id="ytick_12">
     <g id="line2d_28">
      <g>
       <use xlink:href="#md2570cacef" x="122.396483" y="115.942531" style="stroke: #000000; stroke-width: 0.6"/>
      </g>
     </g>
    </g>
    <g id="ytick_13">
     <g id="line2d_29">
      <g>
       <use xlink:href="#md2570cacef" x="122.396483" y="104.220345" style="stroke: #000000; stroke-width: 0.6"/>
      </g>
     </g>
    </g>
    <g id="ytick_14">
     <g id="line2d_30">
      <g>
       <use xlink:href="#md2570cacef" x="122.396483" y="94.066125" style="stroke: #000000; stroke-width: 0.6"/>
      </g>
     </g>
    </g>
    <g id="ytick_15">
     <g id="line2d_31">
      <g>
       <use xlink:href="#md2570cacef" x="122.396483" y="85.109469" style="stroke: #000000; stroke-width: 0.6"/>
      </g>
     </g>
    </g>
   </g>
   <g id="line2d_32">
    <path d="M -1 41.245293 
L 52.137695 41.528567 
L 87.693548 41.930336 
L 114.655056 42.449423 
L 136.481467 43.08534 
L 154.9288 43.839812 
L 170.965686 44.713787 
L 185.206145 45.708777 
L 198.063644 46.826756 
L 209.829574 48.070042 
L 220.731425 49.443184 
L 230.92522 50.949183 
L 240.543375 52.593174 
L 249.688523 54.380444 
L 258.441372 56.316166 
L 266.885775 58.410259 
L 275.087465 60.672598 
L 283.098098 63.112481 
L 290.974134 65.743634 
L 298.766398 68.581258 
L 306.527092 71.644176 
L 314.320512 74.959689 
L 322.204742 78.55648 
L 330.258773 82.476592 
L 338.582221 86.777206 
L 347.31614 91.543134 
L 356.676315 96.90814 
L 367.077668 103.132481 
L 379.528214 110.85393 
L 400.855035 124.396573 
L 417.905376 135.100335 
L 429.447168 142.086169 
L 439.378748 147.842068 
L 448.457066 152.849828 
L 457.007875 157.315191 
L 465.217401 161.35338 
L 473.205737 165.036433 
L 481.063897 168.415656 
L 488.861369 171.527433 
L 496.659354 174.400368 
L 504.512038 177.056555 
L 512.471862 179.514042 
L 520.59145 181.787668 
L 528.926137 183.889867 
L 537.535435 185.830984 
L 546.486743 187.619939 
L 555.855413 189.263936 
L 565.732625 190.769486 
L 576.227276 192.141957 
L 577 192.234561 
M 577 192.234561 
L 566.23387 190.840131 
L 556.149247 189.31197 
L 546.621716 187.645229 
L 537.551052 185.834303 
L 528.851817 183.872115 
L 520.452836 181.750761 
L 512.290942 179.460742 
L 504.308214 176.990559 
L 496.451538 174.326872 
L 488.66845 171.45334 
L 480.904105 168.349372 
L 473.100796 164.989659 
L 465.193168 161.341834 
L 457.10268 157.363247 
L 448.72333 152.992683 
L 439.904888 148.139285 
L 430.406657 142.653591 
L 419.765499 136.244212 
L 406.746011 128.129251 
L 363.713336 101.092673 
L 353.263031 94.923247 
L 343.892299 89.645449 
L 335.152404 84.975352 
L 326.821541 80.773795 
L 318.755877 76.953353 
L 310.855396 73.45591 
L 303.042611 70.239526 
L 295.255385 67.273435 
L 287.432948 64.531562 
L 279.520008 61.993805 
L 271.47178 59.646599 
L 263.229882 57.475254 
L 254.740756 55.469639 
L 245.936135 53.619225 
L 236.754373 51.918041 
L 227.103961 50.357645 
L 216.882314 48.931993 
L 205.956952 47.63527 
L 194.19084 46.465494 
L 181.362924 45.417115 
L 167.215607 44.488154 
L 151.389022 43.676362 
L 133.358988 42.979288 
L 112.281281 42.393479 
L 86.887944 41.918232 
L 54.813957 41.550953 
L 11.347356 41.289899 
L -1 41.245293 
L -1 41.245293 
" clip-path="url(#p4a3c663cd9)" style="fill: none; stroke: #000000; stroke-width: 2.5; stroke-linecap: square"/>
   </g>
   <g id="line2d_33">
    <path d="M -1 199.485063 
L 577 199.485063 
M 577 199.485063 
L -1 199.485063 
L -1 199.485063 
" clip-path="url(#p4a3c663cd9)" style="fill: none; stroke: #008000; stroke-opacity: 0.5; stroke-width: 2.5; stroke-linecap: square"/>
   </g>
   <g id="line2d_34">
    <path d="M -1 51.383617 
L 49.132733 51.680025 
L 83.362486 52.094633 
L 109.545561 52.62631 
L 130.830398 53.274327 
L 148.846984 54.03979 
L 164.524926 54.92399 
L 178.43583 55.927397 
L 190.968394 57.050616 
L 202.43343 58.298463 
L 213.009267 59.670425 
L 222.876093 61.172427 
L 232.144423 62.806437 
L 240.901874 64.574205 
L 249.24194 66.482775 
L 257.228244 68.536922 
L 264.922542 70.744411 
L 272.365412 73.110118 
L 279.599188 75.641765 
L 286.666706 78.350208 
L 293.60256 81.24619 
L 300.427283 84.336568 
L 307.178256 87.637719 
L 313.878424 91.1618 
L 320.557858 94.926807 
L 327.239514 98.949189 
L 333.945786 103.246878 
L 340.70302 107.842336 
L 347.539493 112.761802 
L 354.483701 118.034255 
L 361.562905 123.690117 
L 368.809975 129.766659 
L 376.259859 136.305652 
L 383.953631 143.357162 
L 391.933587 150.975453 
L 400.251315 159.226737 
L 408.968315 168.190743 
L 418.156544 177.962048 
L 427.905096 188.658023 
L 438.321328 200.421276 
L 449.544227 213.436058 
L 461.752443 227.939746 
L 475.184688 244.249491 
L 490.169374 262.801593 
L 507.183104 284.22855 
L 526.963825 309.508515 
L 550.787576 340.330006 
L 577 374.55173 
M 577 374.55173 
L 544.619028 332.318369 
L 520.382398 301.060388 
L 500.54655 275.830517 
L 483.606825 254.635236 
L 468.746544 236.390252 
L 455.453794 220.415141 
L 443.385394 206.252982 
L 432.294852 193.575637 
L 421.998303 182.138671 
L 412.358906 171.759498 
L 403.26529 162.290723 
L 394.630669 153.617269 
L 386.385316 145.646587 
L 378.467624 138.298706 
L 370.825367 131.506844 
L 363.414028 125.215016 
L 356.191694 119.373108 
L 349.129126 113.944382 
L 342.191937 108.890666 
L 335.352273 104.181466 
L 328.581728 99.788391 
L 321.852965 95.686338 
L 315.141619 91.854387 
L 308.421729 88.272887 
L 301.666343 84.92401 
L 294.848264 81.792158 
L 287.949109 78.86755 
L 280.928222 76.132955 
L 273.762321 73.580696 
L 266.41293 71.199459 
L 258.832352 68.978029 
L 250.995292 66.914053 
L 242.835548 64.996334 
L 234.309325 63.222234 
L 225.335404 61.583789 
L 215.841785 60.078318 
L 205.722044 58.700751 
L 194.83934 57.446447 
L 183.034664 56.313099 
L 170.119975 55.299992 
L 155.790358 54.402871 
L 139.640734 53.619519 
L 121.106912 52.948937 
L 99.31225 52.389583 
L 72.783471 51.939384 
L 38.81787 51.596311 
L -1 51.383617 
L -1 51.383617 
" clip-path="url(#p4a3c663cd9)" style="fill: none; stroke: #0000ff; stroke-opacity: 0.5; stroke-width: 2.5; stroke-linecap: square"/>
   </g>
   <g id="line2d_35">
    <path d="M 437.501382 304.904 
L 437.501382 32.4 
" clip-path="url(#p4a3c663cd9)" style="fill: none; stroke-dasharray: 5.55,2.4; stroke-dashoffset: 0; stroke: #808080; stroke-width: 1.5"/>
   </g>
   <g id="patch_5">
    <path d="M 122.396483 304.904 
L 122.396483 32.4 
" style="fill: none; stroke: #000000; stroke-width: 0.8; stroke-linejoin: miter; stroke-linecap: square"/>
   </g>
   <g id="patch_6">
    <path d="M 122.396483 304.904 
L 543.6 304.904 
" style="fill: none; stroke: #000000; stroke-width: 0.8; stroke-linejoin: miter; stroke-linecap: square"/>
   </g>
   <g id="legend_1">
    <g id="patch_7">
     <path d="M 129.396483 299.904 
L 322.141796 299.904 
Q 324.141796 299.904 324.141796 297.904 
L 324.141796 254.869625 
Q 324.141796 252.869625 322.141796 252.869625 
L 129.396483 252.869625 
Q 127.396483 252.869625 127.396483 254.869625 
L 127.396483 297.904 
Q 127.396483 299.904 129.396483 299.904 
z
" style="fill: #ffffff; opacity: 0.8; stroke: #cccccc; stroke-linejoin: miter"/>
    </g>
    <g id="line2d_36">
     <path d="M 131.396483 260.968063 
L 141.396483 260.968063 
L 151.396483 260.968063 
" style="fill: none; stroke: #000000; stroke-width: 2.5; stroke-linecap: square"/>
    </g>
    <g id="text_5">
     <!-- Final Point Process -->
     <g transform="translate(159.396483 264.468063)scale(0.1 -0.1)">
      <defs>
       <path id="DejaVuSans-46" d="M 628 4666 
L 3309 4666 
L 3309 4134 
L 1259 4134 
L 1259 2759 
L 3109 2759 
L 3109 2228 
L 1259 2228 
L 1259 0 
L 628 0 
L 628 4666 
z
" transform="scale(0.015625)"/>
       <path id="DejaVuSans-69" d="M 603 3500 
L 1178 3500 
L 1178 0 
L 603 0 
L 603 3500 
z
M 603 4863 
L 1178 4863 
L 1178 4134 
L 603 4134 
L 603 4863 
z
" transform="scale(0.015625)"/>
       <path id="DejaVuSans-6e" d="M 3513 2113 
L 3513 0 
L 2938 0 
L 2938 2094 
Q 2938 2591 2744 2837 
Q 2550 3084 2163 3084 
Q 1697 3084 1428 2787 
Q 1159 2491 1159 1978 
L 1159 0 
L 581 0 
L 581 3500 
L 1159 3500 
L 1159 2956 
Q 1366 3272 1645 3428 
Q 1925 3584 2291 3584 
Q 2894 3584 3203 3211 
Q 3513 2838 3513 2113 
z
" transform="scale(0.015625)"/>
       <path id="DejaVuSans-61" d="M 2194 1759 
Q 1497 1759 1228 1600 
Q 959 1441 959 1056 
Q 959 750 1161 570 
Q 1363 391 1709 391 
Q 2188 391 2477 730 
Q 2766 1069 2766 1631 
L 2766 1759 
L 2194 1759 
z
M 3341 1997 
L 3341 0 
L 2766 0 
L 2766 531 
Q 2569 213 2275 61 
Q 1981 -91 1556 -91 
Q 1019 -91 701 211 
Q 384 513 384 1019 
Q 384 1609 779 1909 
Q 1175 2209 1959 2209 
L 2766 2209 
L 2766 2266 
Q 2766 2663 2505 2880 
Q 2244 3097 1772 3097 
Q 1472 3097 1187 3025 
Q 903 2953 641 2809 
L 641 3341 
Q 956 3463 1253 3523 
Q 1550 3584 1831 3584 
Q 2591 3584 2966 3190 
Q 3341 2797 3341 1997 
z
" transform="scale(0.015625)"/>
       <path id="DejaVuSans-6c" d="M 603 4863 
L 1178 4863 
L 1178 0 
L 603 0 
L 603 4863 
z
" transform="scale(0.015625)"/>
       <path id="DejaVuSans-20" transform="scale(0.015625)"/>
       <path id="DejaVuSans-50" d="M 1259 4147 
L 1259 2394 
L 2053 2394 
Q 2494 2394 2734 2622 
Q 2975 2850 2975 3272 
Q 2975 3691 2734 3919 
Q 2494 4147 2053 4147 
L 1259 4147 
z
M 628 4666 
L 2053 4666 
Q 2838 4666 3239 4311 
Q 3641 3956 3641 3272 
Q 3641 2581 3239 2228 
Q 2838 1875 2053 1875 
L 1259 1875 
L 1259 0 
L 628 0 
L 628 4666 
z
" transform="scale(0.015625)"/>
       <path id="DejaVuSans-6f" d="M 1959 3097 
Q 1497 3097 1228 2736 
Q 959 2375 959 1747 
Q 959 1119 1226 758 
Q 1494 397 1959 397 
Q 2419 397 2687 759 
Q 2956 1122 2956 1747 
Q 2956 2369 2687 2733 
Q 2419 3097 1959 3097 
z
M 1959 3584 
Q 2709 3584 3137 3096 
Q 3566 2609 3566 1747 
Q 3566 888 3137 398 
Q 2709 -91 1959 -91 
Q 1206 -91 779 398 
Q 353 888 353 1747 
Q 353 2609 779 3096 
Q 1206 3584 1959 3584 
z
" transform="scale(0.015625)"/>
       <path id="DejaVuSans-74" d="M 1172 4494 
L 1172 3500 
L 2356 3500 
L 2356 3053 
L 1172 3053 
L 1172 1153 
Q 1172 725 1289 603 
Q 1406 481 1766 481 
L 2356 481 
L 2356 0 
L 1766 0 
Q 1100 0 847 248 
Q 594 497 594 1153 
L 594 3053 
L 172 3053 
L 172 3500 
L 594 3500 
L 594 4494 
L 1172 4494 
z
" transform="scale(0.015625)"/>
       <path id="DejaVuSans-72" d="M 2631 2963 
Q 2534 3019 2420 3045 
Q 2306 3072 2169 3072 
Q 1681 3072 1420 2755 
Q 1159 2438 1159 1844 
L 1159 0 
L 581 0 
L 581 3500 
L 1159 3500 
L 1159 2956 
Q 1341 3275 1631 3429 
Q 1922 3584 2338 3584 
Q 2397 3584 2469 3576 
Q 2541 3569 2628 3553 
L 2631 2963 
z
" transform="scale(0.015625)"/>
       <path id="DejaVuSans-63" d="M 3122 3366 
L 3122 2828 
Q 2878 2963 2633 3030 
Q 2388 3097 2138 3097 
Q 1578 3097 1268 2742 
Q 959 2388 959 1747 
Q 959 1106 1268 751 
Q 1578 397 2138 397 
Q 2388 397 2633 464 
Q 2878 531 3122 666 
L 3122 134 
Q 2881 22 2623 -34 
Q 2366 -91 2075 -91 
Q 1284 -91 818 406 
Q 353 903 353 1747 
Q 353 2603 823 3093 
Q 1294 3584 2113 3584 
Q 2378 3584 2631 3529 
Q 2884 3475 3122 3366 
z
" transform="scale(0.015625)"/>
       <path id="DejaVuSans-65" d="M 3597 1894 
L 3597 1613 
L 953 1613 
Q 991 1019 1311 708 
Q 1631 397 2203 397 
Q 2534 397 2845 478 
Q 3156 559 3463 722 
L 3463 178 
Q 3153 47 2828 -22 
Q 2503 -91 2169 -91 
Q 1331 -91 842 396 
Q 353 884 353 1716 
Q 353 2575 817 3079 
Q 1281 3584 2069 3584 
Q 2775 3584 3186 3129 
Q 3597 2675 3597 1894 
z
M 3022 2063 
Q 3016 2534 2758 2815 
Q 2500 3097 2075 3097 
Q 1594 3097 1305 2825 
Q 1016 2553 972 2059 
L 3022 2063 
z
" transform="scale(0.015625)"/>
       <path id="DejaVuSans-73" d="M 2834 3397 
L 2834 2853 
Q 2591 2978 2328 3040 
Q 2066 3103 1784 3103 
Q 1356 3103 1142 2972 
Q 928 2841 928 2578 
Q 928 2378 1081 2264 
Q 1234 2150 1697 2047 
L 1894 2003 
Q 2506 1872 2764 1633 
Q 3022 1394 3022 966 
Q 3022 478 2636 193 
Q 2250 -91 1575 -91 
Q 1294 -91 989 -36 
Q 684 19 347 128 
L 347 722 
Q 666 556 975 473 
Q 1284 391 1588 391 
Q 1994 391 2212 530 
Q 2431 669 2431 922 
Q 2431 1156 2273 1281 
Q 2116 1406 1581 1522 
L 1381 1569 
Q 847 1681 609 1914 
Q 372 2147 372 2553 
Q 372 3047 722 3315 
Q 1072 3584 1716 3584 
Q 2034 3584 2315 3537 
Q 2597 3491 2834 3397 
z
" transform="scale(0.015625)"/>
      </defs>
      <use xlink:href="#DejaVuSans-46"/>
      <use xlink:href="#DejaVuSans-69" x="50.269531"/>
      <use xlink:href="#DejaVuSans-6e" x="78.052734"/>
      <use xlink:href="#DejaVuSans-61" x="141.431641"/>
      <use xlink:href="#DejaVuSans-6c" x="202.710938"/>
      <use xlink:href="#DejaVuSans-20" x="230.494141"/>
      <use xlink:href="#DejaVuSans-50" x="262.28125"/>
      <use xlink:href="#DejaVuSans-6f" x="318.958984"/>
      <use xlink:href="#DejaVuSans-69" x="380.140625"/>
      <use xlink:href="#DejaVuSans-6e" x="407.923828"/>
      <use xlink:href="#DejaVuSans-74" x="471.302734"/>
      <use xlink:href="#DejaVuSans-20" x="510.511719"/>
      <use xlink:href="#DejaVuSans-50" x="542.298828"/>
      <use xlink:href="#DejaVuSans-72" x="600.851562"/>
      <use xlink:href="#DejaVuSans-6f" x="639.714844"/>
      <use xlink:href="#DejaVuSans-63" x="700.896484"/>
      <use xlink:href="#DejaVuSans-65" x="755.876953"/>
      <use xlink:href="#DejaVuSans-73" x="817.400391"/>
      <use xlink:href="#DejaVuSans-73" x="869.5"/>
     </g>
    </g>
    <g id="line2d_37">
     <path d="M 131.396483 275.646188 
L 141.396483 275.646188 
L 151.396483 275.646188 
" style="fill: none; stroke: #008000; stroke-opacity: 0.5; stroke-width: 2.5; stroke-linecap: square"/>
    </g>
    <g id="text_6">
     <!-- Broadband Power -->
     <g transform="translate(159.396483 279.146188)scale(0.1 -0.1)">
      <defs>
       <path id="DejaVuSans-42" d="M 1259 2228 
L 1259 519 
L 2272 519 
Q 2781 519 3026 730 
Q 3272 941 3272 1375 
Q 3272 1813 3026 2020 
Q 2781 2228 2272 2228 
L 1259 2228 
z
M 1259 4147 
L 1259 2741 
L 2194 2741 
Q 2656 2741 2882 2914 
Q 3109 3088 3109 3444 
Q 3109 3797 2882 3972 
Q 2656 4147 2194 4147 
L 1259 4147 
z
M 628 4666 
L 2241 4666 
Q 2963 4666 3353 4366 
Q 3744 4066 3744 3513 
Q 3744 3084 3544 2831 
Q 3344 2578 2956 2516 
Q 3422 2416 3680 2098 
Q 3938 1781 3938 1306 
Q 3938 681 3513 340 
Q 3088 0 2303 0 
L 628 0 
L 628 4666 
z
" transform="scale(0.015625)"/>
       <path id="DejaVuSans-64" d="M 2906 2969 
L 2906 4863 
L 3481 4863 
L 3481 0 
L 2906 0 
L 2906 525 
Q 2725 213 2448 61 
Q 2172 -91 1784 -91 
Q 1150 -91 751 415 
Q 353 922 353 1747 
Q 353 2572 751 3078 
Q 1150 3584 1784 3584 
Q 2172 3584 2448 3432 
Q 2725 3281 2906 2969 
z
M 947 1747 
Q 947 1113 1208 752 
Q 1469 391 1925 391 
Q 2381 391 2643 752 
Q 2906 1113 2906 1747 
Q 2906 2381 2643 2742 
Q 2381 3103 1925 3103 
Q 1469 3103 1208 2742 
Q 947 2381 947 1747 
z
" transform="scale(0.015625)"/>
       <path id="DejaVuSans-62" d="M 3116 1747 
Q 3116 2381 2855 2742 
Q 2594 3103 2138 3103 
Q 1681 3103 1420 2742 
Q 1159 2381 1159 1747 
Q 1159 1113 1420 752 
Q 1681 391 2138 391 
Q 2594 391 2855 752 
Q 3116 1113 3116 1747 
z
M 1159 2969 
Q 1341 3281 1617 3432 
Q 1894 3584 2278 3584 
Q 2916 3584 3314 3078 
Q 3713 2572 3713 1747 
Q 3713 922 3314 415 
Q 2916 -91 2278 -91 
Q 1894 -91 1617 61 
Q 1341 213 1159 525 
L 1159 0 
L 581 0 
L 581 4863 
L 1159 4863 
L 1159 2969 
z
" transform="scale(0.015625)"/>
       <path id="DejaVuSans-77" d="M 269 3500 
L 844 3500 
L 1563 769 
L 2278 3500 
L 2956 3500 
L 3675 769 
L 4391 3500 
L 4966 3500 
L 4050 0 
L 3372 0 
L 2619 2869 
L 1863 0 
L 1184 0 
L 269 3500 
z
" transform="scale(0.015625)"/>
      </defs>
      <use xlink:href="#DejaVuSans-42"/>
      <use xlink:href="#DejaVuSans-72" x="68.603516"/>
      <use xlink:href="#DejaVuSans-6f" x="107.466797"/>
      <use xlink:href="#DejaVuSans-61" x="168.648438"/>
      <use xlink:href="#DejaVuSans-64" x="229.927734"/>
      <use xlink:href="#DejaVuSans-62" x="293.404297"/>
      <use xlink:href="#DejaVuSans-61" x="356.880859"/>
      <use xlink:href="#DejaVuSans-6e" x="418.160156"/>
      <use xlink:href="#DejaVuSans-64" x="481.539062"/>
      <use xlink:href="#DejaVuSans-20" x="545.015625"/>
      <use xlink:href="#DejaVuSans-50" x="576.802734"/>
      <use xlink:href="#DejaVuSans-6f" x="633.480469"/>
      <use xlink:href="#DejaVuSans-77" x="694.662109"/>
      <use xlink:href="#DejaVuSans-65" x="776.449219"/>
      <use xlink:href="#DejaVuSans-72" x="837.972656"/>
     </g>
    </g>
    <g id="line2d_38">
     <path d="M 131.396483 290.324313 
L 141.396483 290.324313 
L 151.396483 290.324313 
" style="fill: none; stroke: #0000ff; stroke-opacity: 0.5; stroke-width: 2.5; stroke-linecap: square"/>
    </g>
    <g id="text_7">
     <!-- Structured Ensemble Dynamics  -->
     <g transform="translate(159.396483 293.824313)scale(0.1 -0.1)">
      <defs>
       <path id="DejaVuSans-53" d="M 3425 4513 
L 3425 3897 
Q 3066 4069 2747 4153 
Q 2428 4238 2131 4238 
Q 1616 4238 1336 4038 
Q 1056 3838 1056 3469 
Q 1056 3159 1242 3001 
Q 1428 2844 1947 2747 
L 2328 2669 
Q 3034 2534 3370 2195 
Q 3706 1856 3706 1288 
Q 3706 609 3251 259 
Q 2797 -91 1919 -91 
Q 1588 -91 1214 -16 
Q 841 59 441 206 
L 441 856 
Q 825 641 1194 531 
Q 1563 422 1919 422 
Q 2459 422 2753 634 
Q 3047 847 3047 1241 
Q 3047 1584 2836 1778 
Q 2625 1972 2144 2069 
L 1759 2144 
Q 1053 2284 737 2584 
Q 422 2884 422 3419 
Q 422 4038 858 4394 
Q 1294 4750 2059 4750 
Q 2388 4750 2728 4690 
Q 3069 4631 3425 4513 
z
" transform="scale(0.015625)"/>
       <path id="DejaVuSans-75" d="M 544 1381 
L 544 3500 
L 1119 3500 
L 1119 1403 
Q 1119 906 1312 657 
Q 1506 409 1894 409 
Q 2359 409 2629 706 
Q 2900 1003 2900 1516 
L 2900 3500 
L 3475 3500 
L 3475 0 
L 2900 0 
L 2900 538 
Q 2691 219 2414 64 
Q 2138 -91 1772 -91 
Q 1169 -91 856 284 
Q 544 659 544 1381 
z
M 1991 3584 
L 1991 3584 
z
" transform="scale(0.015625)"/>
       <path id="DejaVuSans-45" d="M 628 4666 
L 3578 4666 
L 3578 4134 
L 1259 4134 
L 1259 2753 
L 3481 2753 
L 3481 2222 
L 1259 2222 
L 1259 531 
L 3634 531 
L 3634 0 
L 628 0 
L 628 4666 
z
" transform="scale(0.015625)"/>
       <path id="DejaVuSans-6d" d="M 3328 2828 
Q 3544 3216 3844 3400 
Q 4144 3584 4550 3584 
Q 5097 3584 5394 3201 
Q 5691 2819 5691 2113 
L 5691 0 
L 5113 0 
L 5113 2094 
Q 5113 2597 4934 2840 
Q 4756 3084 4391 3084 
Q 3944 3084 3684 2787 
Q 3425 2491 3425 1978 
L 3425 0 
L 2847 0 
L 2847 2094 
Q 2847 2600 2669 2842 
Q 2491 3084 2119 3084 
Q 1678 3084 1418 2786 
Q 1159 2488 1159 1978 
L 1159 0 
L 581 0 
L 581 3500 
L 1159 3500 
L 1159 2956 
Q 1356 3278 1631 3431 
Q 1906 3584 2284 3584 
Q 2666 3584 2933 3390 
Q 3200 3197 3328 2828 
z
" transform="scale(0.015625)"/>
       <path id="DejaVuSans-44" d="M 1259 4147 
L 1259 519 
L 2022 519 
Q 2988 519 3436 956 
Q 3884 1394 3884 2338 
Q 3884 3275 3436 3711 
Q 2988 4147 2022 4147 
L 1259 4147 
z
M 628 4666 
L 1925 4666 
Q 3281 4666 3915 4102 
Q 4550 3538 4550 2338 
Q 4550 1131 3912 565 
Q 3275 0 1925 0 
L 628 0 
L 628 4666 
z
" transform="scale(0.015625)"/>
       <path id="DejaVuSans-79" d="M 2059 -325 
Q 1816 -950 1584 -1140 
Q 1353 -1331 966 -1331 
L 506 -1331 
L 506 -850 
L 844 -850 
Q 1081 -850 1212 -737 
Q 1344 -625 1503 -206 
L 1606 56 
L 191 3500 
L 800 3500 
L 1894 763 
L 2988 3500 
L 3597 3500 
L 2059 -325 
z
" transform="scale(0.015625)"/>
      </defs>
      <use xlink:href="#DejaVuSans-53"/>
      <use xlink:href="#DejaVuSans-74" x="63.476562"/>
      <use xlink:href="#DejaVuSans-72" x="102.685547"/>
      <use xlink:href="#DejaVuSans-75" x="143.798828"/>
      <use xlink:href="#DejaVuSans-63" x="207.177734"/>
      <use xlink:href="#DejaVuSans-74" x="262.158203"/>
      <use xlink:href="#DejaVuSans-75" x="301.367188"/>
      <use xlink:href="#DejaVuSans-72" x="364.746094"/>
      <use xlink:href="#DejaVuSans-65" x="403.609375"/>
      <use xlink:href="#DejaVuSans-64" x="465.132812"/>
      <use xlink:href="#DejaVuSans-20" x="528.609375"/>
      <use xlink:href="#DejaVuSans-45" x="560.396484"/>
      <use xlink:href="#DejaVuSans-6e" x="623.580078"/>
      <use xlink:href="#DejaVuSans-73" x="686.958984"/>
      <use xlink:href="#DejaVuSans-65" x="739.058594"/>
      <use xlink:href="#DejaVuSans-6d" x="800.582031"/>
      <use xlink:href="#DejaVuSans-62" x="897.994141"/>
      <use xlink:href="#DejaVuSans-6c" x="961.470703"/>
      <use xlink:href="#DejaVuSans-65" x="989.253906"/>
      <use xlink:href="#DejaVuSans-20" x="1050.777344"/>
      <use xlink:href="#DejaVuSans-44" x="1082.564453"/>
      <use xlink:href="#DejaVuSans-79" x="1159.566406"/>
      <use xlink:href="#DejaVuSans-6e" x="1218.746094"/>
      <use xlink:href="#DejaVuSans-61" x="1282.125"/>
      <use xlink:href="#DejaVuSans-6d" x="1343.404297"/>
      <use xlink:href="#DejaVuSans-69" x="1440.816406"/>
      <use xlink:href="#DejaVuSans-63" x="1468.599609"/>
      <use xlink:href="#DejaVuSans-73" x="1523.580078"/>
      <use xlink:href="#DejaVuSans-20" x="1575.679688"/>
     </g>
    </g>
   </g>
  </g>
  <g id="axes_2">
   <g id="patch_8">
    <path d="M 122.396483 657.956 
L 543.6 657.956 
L 543.6 385.452 
L 122.396483 385.452 
z
" style="fill: #ffffff"/>
   </g>
   <g id="patch_9">
    <path d="M 122.396483 657.956 
L 122.396483 385.452 
L 437.501382 385.452 
L 437.501382 657.956 
z
" clip-path="url(#p9fdf585aed)" style="fill: #add8e6; opacity: 0.3; stroke: #add8e6; stroke-linejoin: miter"/>
   </g>
   <g id="patch_10">
    <path d="M 437.501382 657.956 
L 437.501382 385.452 
L 543.6 385.452 
L 543.6 657.956 
z
" clip-path="url(#p9fdf585aed)" style="fill: #90ee90; opacity: 0.3; stroke: #90ee90; stroke-linejoin: miter"/>
   </g>
   <g id="matplotlib.axis_3">
    <g id="xtick_17">
     <g id="line2d_39">
      <g>
       <use xlink:href="#ma1057663d4" x="201.541393" y="657.956" style="stroke: #000000; stroke-width: 0.8"/>
      </g>
     </g>
     <g id="text_8">
      <!-- $\mathdefault{10^{1}}$ -->
      <g transform="translate(175.141393 687.751313)scale(0.3 -0.3)">
       <use xlink:href="#DejaVuSans-31" transform="translate(0 0.684375)"/>
       <use xlink:href="#DejaVuSans-30" transform="translate(63.623047 0.684375)"/>
       <use xlink:href="#DejaVuSans-31" transform="translate(128.203125 38.965625)scale(0.7)"/>
      </g>
     </g>
    </g>
    <g id="xtick_18">
     <g id="line2d_40">
      <g>
       <use xlink:href="#ma1057663d4" x="464.455091" y="657.956" style="stroke: #000000; stroke-width: 0.8"/>
      </g>
     </g>
     <g id="text_9">
      <!-- $\mathdefault{10^{2}}$ -->
      <g transform="translate(438.055091 687.751313)scale(0.3 -0.3)">
       <use xlink:href="#DejaVuSans-31" transform="translate(0 0.765625)"/>
       <use xlink:href="#DejaVuSans-30" transform="translate(63.623047 0.765625)"/>
       <use xlink:href="#DejaVuSans-32" transform="translate(128.203125 39.046875)scale(0.7)"/>
      </g>
     </g>
    </g>
    <g id="xtick_19">
     <g id="line2d_41">
      <g>
       <use xlink:href="#m2fcda35e81" x="122.396483" y="657.956" style="stroke: #000000; stroke-width: 0.6"/>
      </g>
     </g>
    </g>
    <g id="xtick_20">
     <g id="line2d_42">
      <g>
       <use xlink:href="#m2fcda35e81" x="143.214318" y="657.956" style="stroke: #000000; stroke-width: 0.6"/>
      </g>
     </g>
    </g>
    <g id="xtick_21">
     <g id="line2d_43">
      <g>
       <use xlink:href="#m2fcda35e81" x="160.815546" y="657.956" style="stroke: #000000; stroke-width: 0.6"/>
      </g>
     </g>
    </g>
    <g id="xtick_22">
     <g id="line2d_44">
      <g>
       <use xlink:href="#m2fcda35e81" x="176.062423" y="657.956" style="stroke: #000000; stroke-width: 0.6"/>
      </g>
     </g>
    </g>
    <g id="xtick_23">
     <g id="line2d_45">
      <g>
       <use xlink:href="#m2fcda35e81" x="189.511122" y="657.956" style="stroke: #000000; stroke-width: 0.6"/>
      </g>
     </g>
    </g>
    <g id="xtick_24">
     <g id="line2d_46">
      <g>
       <use xlink:href="#m2fcda35e81" x="280.686302" y="657.956" style="stroke: #000000; stroke-width: 0.6"/>
      </g>
     </g>
    </g>
    <g id="xtick_25">
     <g id="line2d_47">
      <g>
       <use xlink:href="#m2fcda35e81" x="326.983106" y="657.956" style="stroke: #000000; stroke-width: 0.6"/>
      </g>
     </g>
    </g>
    <g id="xtick_26">
     <g id="line2d_48">
      <g>
       <use xlink:href="#m2fcda35e81" x="359.831211" y="657.956" style="stroke: #000000; stroke-width: 0.6"/>
      </g>
     </g>
    </g>
    <g id="xtick_27">
     <g id="line2d_49">
      <g>
       <use xlink:href="#m2fcda35e81" x="385.310181" y="657.956" style="stroke: #000000; stroke-width: 0.6"/>
      </g>
     </g>
    </g>
    <g id="xtick_28">
     <g id="line2d_50">
      <g>
       <use xlink:href="#m2fcda35e81" x="406.128016" y="657.956" style="stroke: #000000; stroke-width: 0.6"/>
      </g>
     </g>
    </g>
    <g id="xtick_29">
     <g id="line2d_51">
      <g>
       <use xlink:href="#m2fcda35e81" x="423.729244" y="657.956" style="stroke: #000000; stroke-width: 0.6"/>
      </g>
     </g>
    </g>
    <g id="xtick_30">
     <g id="line2d_52">
      <g>
       <use xlink:href="#m2fcda35e81" x="438.976121" y="657.956" style="stroke: #000000; stroke-width: 0.6"/>
      </g>
     </g>
    </g>
    <g id="xtick_31">
     <g id="line2d_53">
      <g>
       <use xlink:href="#m2fcda35e81" x="452.42482" y="657.956" style="stroke: #000000; stroke-width: 0.6"/>
      </g>
     </g>
    </g>
    <g id="xtick_32">
     <g id="line2d_54">
      <g>
       <use xlink:href="#m2fcda35e81" x="543.6" y="657.956" style="stroke: #000000; stroke-width: 0.6"/>
      </g>
     </g>
    </g>
   </g>
   <g id="matplotlib.axis_4">
    <g id="ytick_16">
     <g id="line2d_55">
      <g>
       <use xlink:href="#m8482a566a3" x="122.396483" y="657.956" style="stroke: #000000; stroke-width: 0.8"/>
      </g>
     </g>
     <g id="text_10">
      <!-- $\mathdefault{10^{-14}}$ -->
      <g transform="translate(31.696483 669.353656)scale(0.3 -0.3)">
       <defs>
        <path id="DejaVuSans-2212" d="M 678 2272 
L 4684 2272 
L 4684 1741 
L 678 1741 
L 678 2272 
z
" transform="scale(0.015625)"/>
        <path id="DejaVuSans-34" d="M 2419 4116 
L 825 1625 
L 2419 1625 
L 2419 4116 
z
M 2253 4666 
L 3047 4666 
L 3047 1625 
L 3713 1625 
L 3713 1100 
L 3047 1100 
L 3047 0 
L 2419 0 
L 2419 1100 
L 313 1100 
L 313 1709 
L 2253 4666 
z
" transform="scale(0.015625)"/>
       </defs>
       <use xlink:href="#DejaVuSans-31" transform="translate(0 0.684375)"/>
       <use xlink:href="#DejaVuSans-30" transform="translate(63.623047 0.684375)"/>
       <use xlink:href="#DejaVuSans-2212" transform="translate(128.203125 38.965625)scale(0.7)"/>
       <use xlink:href="#DejaVuSans-31" transform="translate(186.855469 38.965625)scale(0.7)"/>
       <use xlink:href="#DejaVuSans-34" transform="translate(231.391602 38.965625)scale(0.7)"/>
      </g>
     </g>
    </g>
    <g id="ytick_17">
     <g id="line2d_56">
      <g>
       <use xlink:href="#m8482a566a3" x="122.396483" y="567.121333" style="stroke: #000000; stroke-width: 0.8"/>
      </g>
     </g>
     <g id="text_11">
      <!-- $\mathdefault{10^{-12}}$ -->
      <g transform="translate(31.696483 578.51899)scale(0.3 -0.3)">
       <use xlink:href="#DejaVuSans-31" transform="translate(0 0.765625)"/>
       <use xlink:href="#DejaVuSans-30" transform="translate(63.623047 0.765625)"/>
       <use xlink:href="#DejaVuSans-2212" transform="translate(128.203125 39.046875)scale(0.7)"/>
       <use xlink:href="#DejaVuSans-31" transform="translate(186.855469 39.046875)scale(0.7)"/>
       <use xlink:href="#DejaVuSans-32" transform="translate(231.391602 39.046875)scale(0.7)"/>
      </g>
     </g>
    </g>
    <g id="ytick_18">
     <g id="line2d_57">
      <g>
       <use xlink:href="#m8482a566a3" x="122.396483" y="476.286667" style="stroke: #000000; stroke-width: 0.8"/>
      </g>
     </g>
     <g id="text_12">
      <!-- $\mathdefault{10^{-10}}$ -->
      <g transform="translate(31.696483 487.684323)scale(0.3 -0.3)">
       <use xlink:href="#DejaVuSans-31" transform="translate(0 0.765625)"/>
       <use xlink:href="#DejaVuSans-30" transform="translate(63.623047 0.765625)"/>
       <use xlink:href="#DejaVuSans-2212" transform="translate(128.203125 39.046875)scale(0.7)"/>
       <use xlink:href="#DejaVuSans-31" transform="translate(186.855469 39.046875)scale(0.7)"/>
       <use xlink:href="#DejaVuSans-30" transform="translate(231.391602 39.046875)scale(0.7)"/>
      </g>
     </g>
    </g>
    <g id="ytick_19">
     <g id="line2d_58">
      <g>
       <use xlink:href="#m8482a566a3" x="122.396483" y="385.452" style="stroke: #000000; stroke-width: 0.8"/>
      </g>
     </g>
     <g id="text_13">
      <!-- $\mathdefault{10^{-8}}$ -->
      <g transform="translate(44.896483 396.849656)scale(0.3 -0.3)">
       <defs>
        <path id="DejaVuSans-38" d="M 2034 2216 
Q 1584 2216 1326 1975 
Q 1069 1734 1069 1313 
Q 1069 891 1326 650 
Q 1584 409 2034 409 
Q 2484 409 2743 651 
Q 3003 894 3003 1313 
Q 3003 1734 2745 1975 
Q 2488 2216 2034 2216 
z
M 1403 2484 
Q 997 2584 770 2862 
Q 544 3141 544 3541 
Q 544 4100 942 4425 
Q 1341 4750 2034 4750 
Q 2731 4750 3128 4425 
Q 3525 4100 3525 3541 
Q 3525 3141 3298 2862 
Q 3072 2584 2669 2484 
Q 3125 2378 3379 2068 
Q 3634 1759 3634 1313 
Q 3634 634 3220 271 
Q 2806 -91 2034 -91 
Q 1263 -91 848 271 
Q 434 634 434 1313 
Q 434 1759 690 2068 
Q 947 2378 1403 2484 
z
M 1172 3481 
Q 1172 3119 1398 2916 
Q 1625 2713 2034 2713 
Q 2441 2713 2670 2916 
Q 2900 3119 2900 3481 
Q 2900 3844 2670 4047 
Q 2441 4250 2034 4250 
Q 1625 4250 1398 4047 
Q 1172 3844 1172 3481 
z
" transform="scale(0.015625)"/>
       </defs>
       <use xlink:href="#DejaVuSans-31" transform="translate(0 0.765625)"/>
       <use xlink:href="#DejaVuSans-30" transform="translate(63.623047 0.765625)"/>
       <use xlink:href="#DejaVuSans-2212" transform="translate(128.203125 39.046875)scale(0.7)"/>
       <use xlink:href="#DejaVuSans-38" transform="translate(186.855469 39.046875)scale(0.7)"/>
      </g>
     </g>
    </g>
   </g>
   <g id="line2d_59">
    <path d="M -1 423.403536 
L 44.333613 423.728911 
L 76.593417 424.173667 
L 101.884879 424.737592 
L 122.890222 425.422817 
L 140.981088 426.230895 
L 156.980573 427.16402 
L 171.442913 428.226652 
L 184.74285 429.423991 
L 197.125799 430.759456 
L 208.8042 432.24042 
L 219.93336 433.874281 
L 230.628503 435.667935 
L 240.98824 437.629763 
L 251.10822 439.771942 
L 261.047113 442.102567 
L 270.884774 444.637604 
L 280.68456 447.392646 
L 290.503477 450.384335 
L 300.412625 453.636491 
L 310.486926 457.177725 
L 320.821735 461.047674 
L 331.52152 465.293614 
L 342.744681 469.988924 
L 354.725365 475.245537 
L 367.851731 481.252409 
L 382.897958 488.389924 
L 401.986757 497.706182 
L 469.48416 530.86052 
L 491.874407 541.468509 
L 519.504693 554.294045 
L 561.904432 573.973199 
L 577 581.176678 
M 577 581.176678 
L 558.872355 572.544788 
L 534.756008 561.327361 
L 484.655362 538.074226 
L 462.279293 527.394252 
L 438.98309 516.020928 
L 375.023521 484.625584 
L 360.398653 477.812786 
L 347.558894 472.07271 
L 335.777853 467.046417 
L 324.696563 462.55804 
L 314.099682 458.503819 
L 303.834875 454.813245 
L 293.796886 451.439431 
L 283.897052 448.34599 
L 274.067361 445.50707 
L 264.240438 442.900308 
L 254.35743 440.508748 
L 244.342485 438.314521 
L 234.139207 436.307313 
L 223.668276 434.474867 
L 212.835798 432.806096 
L 201.548362 431.293629 
L 189.661246 429.927273 
L 177.040864 428.702848 
L 163.484151 427.613594 
L 148.708699 426.652857 
L 132.373421 425.817368 
L 113.944338 425.102066 
L 92.637663 424.503361 
L 67.158693 424.01754 
L 35.286187 423.642268 
L -1 423.403536 
L -1 423.403536 
" clip-path="url(#p9fdf585aed)" style="fill: none; stroke: #000000; stroke-width: 2.5; stroke-linecap: square"/>
   </g>
   <g id="line2d_60">
    <path d="M -1 464.44836 
L 48.402284 464.751493 
L 82.673752 465.174298 
L 109.311341 465.717792 
L 131.347059 466.383743 
L 150.357168 467.175749 
L 167.262663 468.098617 
L 182.665276 469.159231 
L 196.944558 470.36299 
L 210.411394 471.719508 
L 223.294474 473.239278 
L 235.790373 474.936495 
L 248.042441 476.82445 
L 260.216393 478.925421 
L 272.440346 481.261247 
L 284.850156 483.859863 
L 297.600503 486.758354 
L 310.848707 489.999859 
L 324.785405 493.641048 
L 339.626751 497.75122 
L 355.62821 502.416671 
L 373.077627 507.739612 
L 392.238979 513.821064 
L 413.21357 520.714574 
L 435.639732 528.320879 
L 458.482355 536.302404 
L 480.433987 544.205193 
L 500.697594 551.732824 
L 519.143727 558.818777 
L 535.995531 565.527198 
L 551.562849 571.960887 
L 566.139517 578.223593 
L 577 583.05734 
M 577 583.05734 
L 563.203126 576.941981 
L 548.709067 570.76279 
L 533.281877 564.430027 
L 516.650703 557.846435 
L 498.524512 550.913576 
L 478.663215 543.558562 
L 457.076663 535.804353 
L 434.333931 527.871713 
L 411.641767 520.19027 
L 390.217479 513.169086 
L 370.631365 506.980109 
L 352.860941 501.594035 
L 336.629622 496.903315 
L 321.634074 492.798227 
L 307.598842 489.184025 
L 294.285125 485.983132 
L 281.491871 483.134494 
L 269.047565 480.590375 
L 256.810249 478.314867 
L 244.629555 476.275862 
L 232.37075 474.449486 
L 219.888859 472.815404 
L 207.024704 471.356831 
L 193.613363 470.061567 
L 179.41284 468.91589 
L 164.162941 467.911816 
L 147.512483 467.042055 
L 128.937655 466.299048 
L 107.697852 465.677686 
L 82.575021 465.172697 
L 51.555957 464.780975 
L 10.51492 464.497917 
L -1 464.44836 
L -1 464.44836 
" clip-path="url(#p9fdf585aed)" style="fill: none; stroke: #008000; stroke-opacity: 0.5; stroke-width: 2.5; stroke-linecap: square"/>
   </g>
   <g id="line2d_61">
    <path d="M -1 426.033252 
L 43.84935 426.361801 
L 75.810094 426.808857 
L 100.921666 427.375089 
L 121.774542 428.061765 
L 139.730582 428.870445 
L 155.634194 429.805242 
L 169.98224 430.867746 
L 183.157529 432.063311 
L 195.410666 433.395777 
L 206.941645 434.871064 
L 217.89835 436.495076 
L 228.405747 438.275825 
L 238.557551 440.220915 
L 248.424418 442.337106 
L 258.07029 444.632595 
L 267.562077 447.119512 
L 276.947813 449.808263 
L 286.277501 452.712327 
L 295.592273 455.844949 
L 304.932072 459.221035 
L 314.339976 462.858759 
L 323.864026 466.780675 
L 333.546213 471.009239 
L 343.440669 475.574434 
L 353.603928 480.510063 
L 364.10001 485.856237 
L 375.004454 491.661902 
L 386.406026 497.986463 
L 398.399017 504.895984 
L 411.08704 512.465372 
L 424.57929 520.776479 
L 438.96131 529.899861 
L 454.267526 539.875658 
L 470.413999 550.666676 
L 487.157531 562.125307 
L 504.104025 573.992201 
L 520.830963 585.975686 
L 537.034588 597.856119 
L 552.588426 609.53408 
L 567.511358 621.014843 
L 577 628.466789 
M 577 628.466789 
L 562.553412 617.16895 
L 547.585646 605.74712 
L 531.99502 594.131141 
L 515.761511 582.314684 
L 499.003138 570.391745 
L 482.014994 558.577658 
L 465.219131 547.166328 
L 449.022884 536.428424 
L 433.685653 526.523525 
L 419.295539 517.491513 
L 405.815139 509.289665 
L 393.150284 501.841192 
L 381.18759 495.06084 
L 369.820122 488.870863 
L 358.941808 483.198221 
L 348.471872 477.987277 
L 338.330106 473.186245 
L 328.449935 468.753556 
L 318.774599 464.655206 
L 309.252295 460.862116 
L 299.83951 457.35104 
L 290.487489 454.099205 
L 281.154016 451.088746 
L 271.79241 448.302766 
L 262.363821 445.729022 
L 252.822242 443.355262 
L 243.114322 441.169797 
L 233.179192 439.161968 
L 222.96278 437.324923 
L 212.361357 435.645936 
L 201.304197 434.121342 
L 189.661246 432.742133 
L 177.278136 431.50147 
L 163.969413 430.394439 
L 149.480947 429.415963 
L 133.48554 428.562544 
L 115.472503 427.829021 
L 94.699088 427.211908 
L 70.005714 426.708641 
L 39.396007 426.316713 
L -1 426.033252 
L -1 426.033252 
" clip-path="url(#p9fdf585aed)" style="fill: none; stroke: #0000ff; stroke-opacity: 0.5; stroke-width: 2.5; stroke-linecap: square"/>
   </g>
   <g id="line2d_62">
    <path d="M 437.501382 657.956 
L 437.501382 385.452 
" clip-path="url(#p9fdf585aed)" style="fill: none; stroke-dasharray: 5.55,2.4; stroke-dashoffset: 0; stroke: #808080; stroke-width: 1.5"/>
   </g>
   <g id="patch_11">
    <path d="M 122.396483 657.956 
L 122.396483 385.452 
" style="fill: none; stroke: #000000; stroke-width: 0.8; stroke-linejoin: miter; stroke-linecap: square"/>
   </g>
   <g id="patch_12">
    <path d="M 122.396483 657.956 
L 543.6 657.956 
" style="fill: none; stroke: #000000; stroke-width: 0.8; stroke-linejoin: miter; stroke-linecap: square"/>
   </g>
   <g id="legend_2">
    <g id="patch_13">
     <path d="M 129.396483 652.956 
L 377.969921 652.956 
Q 379.969921 652.956 379.969921 650.956 
L 379.969921 607.921625 
Q 379.969921 605.921625 377.969921 605.921625 
L 129.396483 605.921625 
Q 127.396483 605.921625 127.396483 607.921625 
L 127.396483 650.956 
Q 127.396483 652.956 129.396483 652.956 
z
" style="fill: #ffffff; opacity: 0.8; stroke: #cccccc; stroke-linejoin: miter"/>
    </g>
    <g id="line2d_63">
     <path d="M 131.396483 614.020062 
L 141.396483 614.020062 
L 151.396483 614.020062 
" style="fill: none; stroke: #000000; stroke-width: 2.5; stroke-linecap: square"/>
    </g>
    <g id="text_14">
     <!-- Final Point Process (PSP filter) -->
     <g transform="translate(159.396483 617.520062)scale(0.1 -0.1)">
      <defs>
       <path id="DejaVuSans-28" d="M 1984 4856 
Q 1566 4138 1362 3434 
Q 1159 2731 1159 2009 
Q 1159 1288 1364 580 
Q 1569 -128 1984 -844 
L 1484 -844 
Q 1016 -109 783 600 
Q 550 1309 550 2009 
Q 550 2706 781 3412 
Q 1013 4119 1484 4856 
L 1984 4856 
z
" transform="scale(0.015625)"/>
       <path id="DejaVuSans-66" d="M 2375 4863 
L 2375 4384 
L 1825 4384 
Q 1516 4384 1395 4259 
Q 1275 4134 1275 3809 
L 1275 3500 
L 2222 3500 
L 2222 3053 
L 1275 3053 
L 1275 0 
L 697 0 
L 697 3053 
L 147 3053 
L 147 3500 
L 697 3500 
L 697 3744 
Q 697 4328 969 4595 
Q 1241 4863 1831 4863 
L 2375 4863 
z
" transform="scale(0.015625)"/>
       <path id="DejaVuSans-29" d="M 513 4856 
L 1013 4856 
Q 1481 4119 1714 3412 
Q 1947 2706 1947 2009 
Q 1947 1309 1714 600 
Q 1481 -109 1013 -844 
L 513 -844 
Q 928 -128 1133 580 
Q 1338 1288 1338 2009 
Q 1338 2731 1133 3434 
Q 928 4138 513 4856 
z
" transform="scale(0.015625)"/>
      </defs>
      <use xlink:href="#DejaVuSans-46"/>
      <use xlink:href="#DejaVuSans-69" x="50.269531"/>
      <use xlink:href="#DejaVuSans-6e" x="78.052734"/>
      <use xlink:href="#DejaVuSans-61" x="141.431641"/>
      <use xlink:href="#DejaVuSans-6c" x="202.710938"/>
      <use xlink:href="#DejaVuSans-20" x="230.494141"/>
      <use xlink:href="#DejaVuSans-50" x="262.28125"/>
      <use xlink:href="#DejaVuSans-6f" x="318.958984"/>
      <use xlink:href="#DejaVuSans-69" x="380.140625"/>
      <use xlink:href="#DejaVuSans-6e" x="407.923828"/>
      <use xlink:href="#DejaVuSans-74" x="471.302734"/>
      <use xlink:href="#DejaVuSans-20" x="510.511719"/>
      <use xlink:href="#DejaVuSans-50" x="542.298828"/>
      <use xlink:href="#DejaVuSans-72" x="600.851562"/>
      <use xlink:href="#DejaVuSans-6f" x="639.714844"/>
      <use xlink:href="#DejaVuSans-63" x="700.896484"/>
      <use xlink:href="#DejaVuSans-65" x="755.876953"/>
      <use xlink:href="#DejaVuSans-73" x="817.400391"/>
      <use xlink:href="#DejaVuSans-73" x="869.5"/>
      <use xlink:href="#DejaVuSans-20" x="921.599609"/>
      <use xlink:href="#DejaVuSans-28" x="953.386719"/>
      <use xlink:href="#DejaVuSans-50" x="992.400391"/>
      <use xlink:href="#DejaVuSans-53" x="1052.703125"/>
      <use xlink:href="#DejaVuSans-50" x="1116.179688"/>
      <use xlink:href="#DejaVuSans-20" x="1176.482422"/>
      <use xlink:href="#DejaVuSans-66" x="1208.269531"/>
      <use xlink:href="#DejaVuSans-69" x="1243.474609"/>
      <use xlink:href="#DejaVuSans-6c" x="1271.257812"/>
      <use xlink:href="#DejaVuSans-74" x="1299.041016"/>
      <use xlink:href="#DejaVuSans-65" x="1338.25"/>
      <use xlink:href="#DejaVuSans-72" x="1399.773438"/>
      <use xlink:href="#DejaVuSans-29" x="1440.886719"/>
     </g>
    </g>
    <g id="line2d_64">
     <path d="M 131.396483 628.698188 
L 141.396483 628.698188 
L 151.396483 628.698188 
" style="fill: none; stroke: #008000; stroke-opacity: 0.5; stroke-width: 2.5; stroke-linecap: square"/>
    </g>
    <g id="text_15">
     <!-- Broadband Power (PSP filter) -->
     <g transform="translate(159.396483 632.198188)scale(0.1 -0.1)">
      <use xlink:href="#DejaVuSans-42"/>
      <use xlink:href="#DejaVuSans-72" x="68.603516"/>
      <use xlink:href="#DejaVuSans-6f" x="107.466797"/>
      <use xlink:href="#DejaVuSans-61" x="168.648438"/>
      <use xlink:href="#DejaVuSans-64" x="229.927734"/>
      <use xlink:href="#DejaVuSans-62" x="293.404297"/>
      <use xlink:href="#DejaVuSans-61" x="356.880859"/>
      <use xlink:href="#DejaVuSans-6e" x="418.160156"/>
      <use xlink:href="#DejaVuSans-64" x="481.539062"/>
      <use xlink:href="#DejaVuSans-20" x="545.015625"/>
      <use xlink:href="#DejaVuSans-50" x="576.802734"/>
      <use xlink:href="#DejaVuSans-6f" x="633.480469"/>
      <use xlink:href="#DejaVuSans-77" x="694.662109"/>
      <use xlink:href="#DejaVuSans-65" x="776.449219"/>
      <use xlink:href="#DejaVuSans-72" x="837.972656"/>
      <use xlink:href="#DejaVuSans-20" x="879.085938"/>
      <use xlink:href="#DejaVuSans-28" x="910.873047"/>
      <use xlink:href="#DejaVuSans-50" x="949.886719"/>
      <use xlink:href="#DejaVuSans-53" x="1010.189453"/>
      <use xlink:href="#DejaVuSans-50" x="1073.666016"/>
      <use xlink:href="#DejaVuSans-20" x="1133.96875"/>
      <use xlink:href="#DejaVuSans-66" x="1165.755859"/>
      <use xlink:href="#DejaVuSans-69" x="1200.960938"/>
      <use xlink:href="#DejaVuSans-6c" x="1228.744141"/>
      <use xlink:href="#DejaVuSans-74" x="1256.527344"/>
      <use xlink:href="#DejaVuSans-65" x="1295.736328"/>
      <use xlink:href="#DejaVuSans-72" x="1357.259766"/>
      <use xlink:href="#DejaVuSans-29" x="1398.373047"/>
     </g>
    </g>
    <g id="line2d_65">
     <path d="M 131.396483 643.376313 
L 141.396483 643.376313 
L 151.396483 643.376313 
" style="fill: none; stroke: #0000ff; stroke-opacity: 0.5; stroke-width: 2.5; stroke-linecap: square"/>
    </g>
    <g id="text_16">
     <!-- Structured Ensemble Dynamics  (PSP filter) -->
     <g transform="translate(159.396483 646.876313)scale(0.1 -0.1)">
      <use xlink:href="#DejaVuSans-53"/>
      <use xlink:href="#DejaVuSans-74" x="63.476562"/>
      <use xlink:href="#DejaVuSans-72" x="102.685547"/>
      <use xlink:href="#DejaVuSans-75" x="143.798828"/>
      <use xlink:href="#DejaVuSans-63" x="207.177734"/>
      <use xlink:href="#DejaVuSans-74" x="262.158203"/>
      <use xlink:href="#DejaVuSans-75" x="301.367188"/>
      <use xlink:href="#DejaVuSans-72" x="364.746094"/>
      <use xlink:href="#DejaVuSans-65" x="403.609375"/>
      <use xlink:href="#DejaVuSans-64" x="465.132812"/>
      <use xlink:href="#DejaVuSans-20" x="528.609375"/>
      <use xlink:href="#DejaVuSans-45" x="560.396484"/>
      <use xlink:href="#DejaVuSans-6e" x="623.580078"/>
      <use xlink:href="#DejaVuSans-73" x="686.958984"/>
      <use xlink:href="#DejaVuSans-65" x="739.058594"/>
      <use xlink:href="#DejaVuSans-6d" x="800.582031"/>
      <use xlink:href="#DejaVuSans-62" x="897.994141"/>
      <use xlink:href="#DejaVuSans-6c" x="961.470703"/>
      <use xlink:href="#DejaVuSans-65" x="989.253906"/>
      <use xlink:href="#DejaVuSans-20" x="1050.777344"/>
      <use xlink:href="#DejaVuSans-44" x="1082.564453"/>
      <use xlink:href="#DejaVuSans-79" x="1159.566406"/>
      <use xlink:href="#DejaVuSans-6e" x="1218.746094"/>
      <use xlink:href="#DejaVuSans-61" x="1282.125"/>
      <use xlink:href="#DejaVuSans-6d" x="1343.404297"/>
      <use xlink:href="#DejaVuSans-69" x="1440.816406"/>
      <use xlink:href="#DejaVuSans-63" x="1468.599609"/>
      <use xlink:href="#DejaVuSans-73" x="1523.580078"/>
      <use xlink:href="#DejaVuSans-20" x="1575.679688"/>
      <use xlink:href="#DejaVuSans-20" x="1607.466797"/>
      <use xlink:href="#DejaVuSans-28" x="1639.253906"/>
      <use xlink:href="#DejaVuSans-50" x="1678.267578"/>
      <use xlink:href="#DejaVuSans-53" x="1738.570312"/>
      <use xlink:href="#DejaVuSans-50" x="1802.046875"/>
      <use xlink:href="#DejaVuSans-20" x="1862.349609"/>
      <use xlink:href="#DejaVuSans-66" x="1894.136719"/>
      <use xlink:href="#DejaVuSans-69" x="1929.341797"/>
      <use xlink:href="#DejaVuSans-6c" x="1957.125"/>
      <use xlink:href="#DejaVuSans-74" x="1984.908203"/>
      <use xlink:href="#DejaVuSans-65" x="2024.117188"/>
      <use xlink:href="#DejaVuSans-72" x="2085.640625"/>
      <use xlink:href="#DejaVuSans-29" x="2126.753906"/>
     </g>
    </g>
   </g>
  </g>
  <g id="axes_3">
   <g id="patch_14">
    <path d="M 122.396483 1011.008 
L 543.6 1011.008 
L 543.6 738.504 
L 122.396483 738.504 
z
" style="fill: #ffffff"/>
   </g>
   <g id="patch_15">
    <path d="M 122.396483 1011.008 
L 122.396483 738.504 
L 437.501382 738.504 
L 437.501382 1011.008 
z
" clip-path="url(#p4ab9a4dadb)" style="fill: #add8e6; opacity: 0.3; stroke: #add8e6; stroke-linejoin: miter"/>
   </g>
   <g id="patch_16">
    <path d="M 437.501382 1011.008 
L 437.501382 738.504 
L 543.6 738.504 
L 543.6 1011.008 
z
" clip-path="url(#p4ab9a4dadb)" style="fill: #90ee90; opacity: 0.3; stroke: #90ee90; stroke-linejoin: miter"/>
   </g>
   <g id="matplotlib.axis_5">
    <g id="xtick_33">
     <g id="line2d_66">
      <g>
       <use xlink:href="#ma1057663d4" x="201.541393" y="1011.008" style="stroke: #000000; stroke-width: 0.8"/>
      </g>
     </g>
     <g id="text_17">
      <!-- $\mathdefault{10^{1}}$ -->
      <g transform="translate(175.141393 1040.803312)scale(0.3 -0.3)">
       <use xlink:href="#DejaVuSans-31" transform="translate(0 0.684375)"/>
       <use xlink:href="#DejaVuSans-30" transform="translate(63.623047 0.684375)"/>
       <use xlink:href="#DejaVuSans-31" transform="translate(128.203125 38.965625)scale(0.7)"/>
      </g>
     </g>
    </g>
    <g id="xtick_34">
     <g id="line2d_67">
      <g>
       <use xlink:href="#ma1057663d4" x="464.455091" y="1011.008" style="stroke: #000000; stroke-width: 0.8"/>
      </g>
     </g>
     <g id="text_18">
      <!-- $\mathdefault{10^{2}}$ -->
      <g transform="translate(438.055091 1040.803312)scale(0.3 -0.3)">
       <use xlink:href="#DejaVuSans-31" transform="translate(0 0.765625)"/>
       <use xlink:href="#DejaVuSans-30" transform="translate(63.623047 0.765625)"/>
       <use xlink:href="#DejaVuSans-32" transform="translate(128.203125 39.046875)scale(0.7)"/>
      </g>
     </g>
    </g>
    <g id="xtick_35">
     <g id="line2d_68">
      <g>
       <use xlink:href="#m2fcda35e81" x="122.396483" y="1011.008" style="stroke: #000000; stroke-width: 0.6"/>
      </g>
     </g>
    </g>
    <g id="xtick_36">
     <g id="line2d_69">
      <g>
       <use xlink:href="#m2fcda35e81" x="143.214318" y="1011.008" style="stroke: #000000; stroke-width: 0.6"/>
      </g>
     </g>
    </g>
    <g id="xtick_37">
     <g id="line2d_70">
      <g>
       <use xlink:href="#m2fcda35e81" x="160.815546" y="1011.008" style="stroke: #000000; stroke-width: 0.6"/>
      </g>
     </g>
    </g>
    <g id="xtick_38">
     <g id="line2d_71">
      <g>
       <use xlink:href="#m2fcda35e81" x="176.062423" y="1011.008" style="stroke: #000000; stroke-width: 0.6"/>
      </g>
     </g>
    </g>
    <g id="xtick_39">
     <g id="line2d_72">
      <g>
       <use xlink:href="#m2fcda35e81" x="189.511122" y="1011.008" style="stroke: #000000; stroke-width: 0.6"/>
      </g>
     </g>
    </g>
    <g id="xtick_40">
     <g id="line2d_73">
      <g>
       <use xlink:href="#m2fcda35e81" x="280.686302" y="1011.008" style="stroke: #000000; stroke-width: 0.6"/>
      </g>
     </g>
    </g>
    <g id="xtick_41">
     <g id="line2d_74">
      <g>
       <use xlink:href="#m2fcda35e81" x="326.983106" y="1011.008" style="stroke: #000000; stroke-width: 0.6"/>
      </g>
     </g>
    </g>
    <g id="xtick_42">
     <g id="line2d_75">
      <g>
       <use xlink:href="#m2fcda35e81" x="359.831211" y="1011.008" style="stroke: #000000; stroke-width: 0.6"/>
      </g>
     </g>
    </g>
    <g id="xtick_43">
     <g id="line2d_76">
      <g>
       <use xlink:href="#m2fcda35e81" x="385.310181" y="1011.008" style="stroke: #000000; stroke-width: 0.6"/>
      </g>
     </g>
    </g>
    <g id="xtick_44">
     <g id="line2d_77">
      <g>
       <use xlink:href="#m2fcda35e81" x="406.128016" y="1011.008" style="stroke: #000000; stroke-width: 0.6"/>
      </g>
     </g>
    </g>
    <g id="xtick_45">
     <g id="line2d_78">
      <g>
       <use xlink:href="#m2fcda35e81" x="423.729244" y="1011.008" style="stroke: #000000; stroke-width: 0.6"/>
      </g>
     </g>
    </g>
    <g id="xtick_46">
     <g id="line2d_79">
      <g>
       <use xlink:href="#m2fcda35e81" x="438.976121" y="1011.008" style="stroke: #000000; stroke-width: 0.6"/>
      </g>
     </g>
    </g>
    <g id="xtick_47">
     <g id="line2d_80">
      <g>
       <use xlink:href="#m2fcda35e81" x="452.42482" y="1011.008" style="stroke: #000000; stroke-width: 0.6"/>
      </g>
     </g>
    </g>
    <g id="xtick_48">
     <g id="line2d_81">
      <g>
       <use xlink:href="#m2fcda35e81" x="543.6" y="1011.008" style="stroke: #000000; stroke-width: 0.6"/>
      </g>
     </g>
    </g>
   </g>
   <g id="matplotlib.axis_6">
    <g id="ytick_20">
     <g id="line2d_82">
      <g>
       <use xlink:href="#m8482a566a3" x="122.396483" y="1011.008" style="stroke: #000000; stroke-width: 0.8"/>
      </g>
     </g>
     <g id="text_19">
      <!-- $\mathdefault{10^{-20}}$ -->
      <g transform="translate(31.696483 1022.405656)scale(0.3 -0.3)">
       <use xlink:href="#DejaVuSans-31" transform="translate(0 0.765625)"/>
       <use xlink:href="#DejaVuSans-30" transform="translate(63.623047 0.765625)"/>
       <use xlink:href="#DejaVuSans-2212" transform="translate(128.203125 39.046875)scale(0.7)"/>
       <use xlink:href="#DejaVuSans-32" transform="translate(186.855469 39.046875)scale(0.7)"/>
       <use xlink:href="#DejaVuSans-30" transform="translate(231.391602 39.046875)scale(0.7)"/>
      </g>
     </g>
    </g>
    <g id="ytick_21">
     <g id="line2d_83">
      <g>
       <use xlink:href="#m8482a566a3" x="122.396483" y="920.173333" style="stroke: #000000; stroke-width: 0.8"/>
      </g>
     </g>
     <g id="text_20">
      <!-- $\mathdefault{10^{-17}}$ -->
      <g transform="translate(31.696483 931.57099)scale(0.3 -0.3)">
       <defs>
        <path id="DejaVuSans-37" d="M 525 4666 
L 3525 4666 
L 3525 4397 
L 1831 0 
L 1172 0 
L 2766 4134 
L 525 4134 
L 525 4666 
z
" transform="scale(0.015625)"/>
       </defs>
       <use xlink:href="#DejaVuSans-31" transform="translate(0 0.684375)"/>
       <use xlink:href="#DejaVuSans-30" transform="translate(63.623047 0.684375)"/>
       <use xlink:href="#DejaVuSans-2212" transform="translate(128.203125 38.965625)scale(0.7)"/>
       <use xlink:href="#DejaVuSans-31" transform="translate(186.855469 38.965625)scale(0.7)"/>
       <use xlink:href="#DejaVuSans-37" transform="translate(231.391602 38.965625)scale(0.7)"/>
      </g>
     </g>
    </g>
    <g id="ytick_22">
     <g id="line2d_84">
      <g>
       <use xlink:href="#m8482a566a3" x="122.396483" y="829.338667" style="stroke: #000000; stroke-width: 0.8"/>
      </g>
     </g>
     <g id="text_21">
      <!-- $\mathdefault{10^{-14}}$ -->
      <g transform="translate(31.696483 840.736323)scale(0.3 -0.3)">
       <use xlink:href="#DejaVuSans-31" transform="translate(0 0.684375)"/>
       <use xlink:href="#DejaVuSans-30" transform="translate(63.623047 0.684375)"/>
       <use xlink:href="#DejaVuSans-2212" transform="translate(128.203125 38.965625)scale(0.7)"/>
       <use xlink:href="#DejaVuSans-31" transform="translate(186.855469 38.965625)scale(0.7)"/>
       <use xlink:href="#DejaVuSans-34" transform="translate(231.391602 38.965625)scale(0.7)"/>
      </g>
     </g>
    </g>
    <g id="ytick_23">
     <g id="line2d_85">
      <g>
       <use xlink:href="#m8482a566a3" x="122.396483" y="738.504" style="stroke: #000000; stroke-width: 0.8"/>
      </g>
     </g>
     <g id="text_22">
      <!-- $\mathdefault{10^{-11}}$ -->
      <g transform="translate(31.696483 749.901656)scale(0.3 -0.3)">
       <use xlink:href="#DejaVuSans-31" transform="translate(0 0.684375)"/>
       <use xlink:href="#DejaVuSans-30" transform="translate(63.623047 0.684375)"/>
       <use xlink:href="#DejaVuSans-2212" transform="translate(128.203125 38.965625)scale(0.7)"/>
       <use xlink:href="#DejaVuSans-31" transform="translate(186.855469 38.965625)scale(0.7)"/>
       <use xlink:href="#DejaVuSans-31" transform="translate(231.391602 38.965625)scale(0.7)"/>
      </g>
     </g>
    </g>
   </g>
   <g id="line2d_86">
    <path d="M -1 743.51036 
L 13.537965 745.449083 
L 28.275176 747.638841 
L 43.432627 750.117608 
L 59.078895 752.903326 
L 75.337508 756.025253 
L 92.22995 759.496548 
L 109.584551 763.290363 
L 127.079918 767.342092 
L 144.307861 771.558835 
L 160.902129 775.847351 
L 176.694858 780.156268 
L 191.654403 784.466492 
L 205.839558 788.783206 
L 219.383299 793.135734 
L 232.410644 797.554854 
L 245.046909 802.075459 
L 257.409968 806.734153 
L 269.605678 811.567218 
L 281.751081 816.619679 
L 293.959864 821.940002 
L 306.346325 827.581303 
L 319.067526 833.620994 
L 332.311324 840.157191 
L 346.369336 847.346426 
L 361.717246 855.44986 
L 379.319086 865.002666 
L 401.95363 877.55649 
L 474.551703 917.999342 
L 503.377803 933.671949 
L 577 973.523008 
M 577 973.523008 
L 554.09701 961.000472 
L 516.38235 940.679719 
L 479.75183 920.845003 
L 452.115825 905.618734 
L 417.609021 886.326265 
L 381.731803 866.329088 
L 362.511365 855.87544 
L 346.457515 847.392268 
L 332.006062 840.003842 
L 318.518453 833.355347 
L 305.641388 827.253794 
L 293.150446 821.579831 
L 280.876053 816.247644 
L 268.699773 811.199972 
L 256.498438 806.38248 
L 244.162699 801.751337 
L 231.596722 797.271739 
L 218.665735 792.89912 
L 205.267638 788.604531 
L 191.273796 784.353858 
L 176.564834 780.119817 
L 161.026415 775.880364 
L 144.681146 771.652786 
L 127.613792 767.469332 
L 110.167808 763.421771 
L 92.682874 759.592676 
L 75.600297 756.07752 
L 59.078895 752.903326 
L 43.223694 750.081935 
L 27.956899 747.589214 
L 13.085041 745.385332 
L -1 743.51036 
L -1 743.51036 
" clip-path="url(#p4ab9a4dadb)" style="fill: none; stroke: #000000; stroke-width: 2.5; stroke-linecap: square"/>
   </g>
   <g id="line2d_87">
    <path d="M -1 770.873576 
L 13.628334 772.815716 
L 28.513303 775.017643 
L 43.780002 777.502234 
L 59.623628 780.307208 
L 76.228535 783.474668 
L 93.628206 787.022222 
L 111.708748 790.937105 
L 130.148712 795.15768 
L 148.514818 799.588803 
L 166.388968 804.128716 
L 183.525331 808.708967 
L 199.898862 813.313691 
L 215.626377 817.96627 
L 230.884804 822.711196 
L 245.853433 827.598456 
L 260.757048 832.698585 
L 275.817065 838.088182 
L 291.268305 843.85551 
L 307.385295 850.110865 
L 324.494933 856.99292 
L 342.997341 864.678585 
L 363.376031 873.388864 
L 386.174556 883.380196 
L 411.76621 894.842959 
L 439.690827 907.596534 
L 467.993999 920.765514 
L 494.357665 933.272599 
L 517.895836 944.680349 
L 538.891559 955.098715 
L 557.937279 964.794321 
L 575.585257 974.025433 
L 577 974.776783 
M 577 974.776783 
L 559.767327 965.739887 
L 541.368251 956.34535 
L 521.328604 946.366614 
L 499.103511 935.552521 
L 474.217896 923.695682 
L 446.777177 910.870604 
L 418.287142 897.799533 
L 391.204578 885.614279 
L 366.926317 874.929037 
L 345.414615 865.69928 
L 326.109797 857.654199 
L 308.449056 850.531798 
L 291.957032 844.117963 
L 276.270709 838.254139 
L 261.078148 832.811042 
L 246.124944 827.689273 
L 231.180856 822.805597 
L 216.026098 818.087606 
L 200.463073 813.476596 
L 184.318193 808.926631 
L 167.474177 804.411948 
L 149.865122 799.923751 
L 131.668789 795.515742 
L 113.191405 791.268042 
L 94.92093 787.294588 
L 77.21623 783.669977 
L 60.285903 780.429213 
L 44.126323 777.561145 
L 28.671779 775.04228 
L 13.718633 772.828394 
L -1 770.873576 
L -1 770.873576 
" clip-path="url(#p4ab9a4dadb)" style="fill: none; stroke: #008000; stroke-opacity: 0.5; stroke-width: 2.5; stroke-linecap: square"/>
   </g>
   <g id="line2d_88">
    <path d="M -1 745.263504 
L 13.537965 747.203549 
L 28.275176 749.395038 
L 43.363026 751.864219 
L 58.957489 754.642475 
L 75.179543 757.759751 
L 92.002813 761.220213 
L 109.272258 765.000115 
L 126.6443 769.029594 
L 143.731184 773.219904 
L 160.178587 777.48054 
L 175.803401 781.755791 
L 190.566311 786.023526 
L 204.55717 790.297619 
L 217.883252 794.599647 
L 230.655509 798.955224 
L 242.9932 803.39637 
L 255.013775 807.959046 
L 266.797266 812.669134 
L 278.432342 817.559088 
L 290.006789 822.664953 
L 301.586574 828.016684 
L 313.244822 833.650254 
L 325.063328 839.609099 
L 337.13021 845.943487 
L 349.535018 852.707955 
L 362.396432 859.976684 
L 375.840399 867.832432 
L 390.023713 876.380501 
L 405.125886 885.745129 
L 421.34193 896.065597 
L 438.845811 907.472892 
L 457.708687 920.034531 
L 477.755018 933.653652 
L 498.44433 947.978881 
L 519.005504 962.484549 
L 538.815277 976.729979 
L 557.627216 990.529372 
L 575.509526 1003.920667 
L 577 1005.049749 
M 577 1005.049749 
L 559.403808 991.84737 
L 540.974039 978.299517 
L 521.563407 964.30856 
L 501.251821 949.943515 
L 480.483963 935.527755 
L 460.012329 921.586014 
L 440.542525 908.591963 
L 422.429602 896.766756 
L 405.689864 886.099667 
L 390.167399 876.468372 
L 375.658532 867.724503 
L 361.961192 859.726647 
L 348.908864 852.360577 
L 336.351755 845.5274 
L 324.173963 839.152137 
L 312.264657 833.167193 
L 300.537154 827.521636 
L 288.917759 822.174193 
L 277.325244 817.083392 
L 265.680103 812.212237 
L 253.906747 807.528783 
L 241.933979 803.005669 
L 229.652003 798.604326 
L 216.973672 794.298376 
L 203.791017 790.057358 
L 189.989439 785.852268 
L 175.453619 781.657469 
L 160.078428 777.453877 
L 143.875626 773.256323 
L 126.979538 769.109608 
L 109.623527 765.079339 
L 92.275324 761.278095 
L 75.284877 757.780713 
L 58.835954 754.619974 
L 43.014378 751.804676 
L 27.797427 749.320521 
L 12.99424 747.126987 
L -1 745.263504 
L -1 745.263504 
" clip-path="url(#p4ab9a4dadb)" style="fill: none; stroke: #0000ff; stroke-opacity: 0.5; stroke-width: 2.5; stroke-linecap: square"/>
   </g>
   <g id="line2d_89">
    <path d="M 437.501382 1011.008 
L 437.501382 738.504 
" clip-path="url(#p4ab9a4dadb)" style="fill: none; stroke-dasharray: 5.55,2.4; stroke-dashoffset: 0; stroke: #808080; stroke-width: 1.5"/>
   </g>
   <g id="patch_17">
    <path d="M 122.396483 1011.008 
L 122.396483 738.504 
" style="fill: none; stroke: #000000; stroke-width: 0.8; stroke-linejoin: miter; stroke-linecap: square"/>
   </g>
   <g id="patch_18">
    <path d="M 122.396483 1011.008 
L 543.6 1011.008 
" style="fill: none; stroke: #000000; stroke-width: 0.8; stroke-linejoin: miter; stroke-linecap: square"/>
   </g>
   <g id="legend_3">
    <g id="patch_19">
     <path d="M 129.396483 1006.008 
L 413.213671 1006.008 
Q 415.213671 1006.008 415.213671 1004.008 
L 415.213671 960.973625 
Q 415.213671 958.973625 413.213671 958.973625 
L 129.396483 958.973625 
Q 127.396483 958.973625 127.396483 960.973625 
L 127.396483 1004.008 
Q 127.396483 1006.008 129.396483 1006.008 
z
" style="fill: #ffffff; opacity: 0.8; stroke: #cccccc; stroke-linejoin: miter"/>
    </g>
    <g id="line2d_90">
     <path d="M 131.396483 967.072063 
L 141.396483 967.072063 
L 151.396483 967.072063 
" style="fill: none; stroke: #000000; stroke-width: 2.5; stroke-linecap: square"/>
    </g>
    <g id="text_23">
     <!-- Final Point Process (PSP and 1/f filter) -->
     <g transform="translate(159.396483 970.572063)scale(0.1 -0.1)">
      <defs>
       <path id="DejaVuSans-2f" d="M 1625 4666 
L 2156 4666 
L 531 -594 
L 0 -594 
L 1625 4666 
z
" transform="scale(0.015625)"/>
      </defs>
      <use xlink:href="#DejaVuSans-46"/>
      <use xlink:href="#DejaVuSans-69" x="50.269531"/>
      <use xlink:href="#DejaVuSans-6e" x="78.052734"/>
      <use xlink:href="#DejaVuSans-61" x="141.431641"/>
      <use xlink:href="#DejaVuSans-6c" x="202.710938"/>
      <use xlink:href="#DejaVuSans-20" x="230.494141"/>
      <use xlink:href="#DejaVuSans-50" x="262.28125"/>
      <use xlink:href="#DejaVuSans-6f" x="318.958984"/>
      <use xlink:href="#DejaVuSans-69" x="380.140625"/>
      <use xlink:href="#DejaVuSans-6e" x="407.923828"/>
      <use xlink:href="#DejaVuSans-74" x="471.302734"/>
      <use xlink:href="#DejaVuSans-20" x="510.511719"/>
      <use xlink:href="#DejaVuSans-50" x="542.298828"/>
      <use xlink:href="#DejaVuSans-72" x="600.851562"/>
      <use xlink:href="#DejaVuSans-6f" x="639.714844"/>
      <use xlink:href="#DejaVuSans-63" x="700.896484"/>
      <use xlink:href="#DejaVuSans-65" x="755.876953"/>
      <use xlink:href="#DejaVuSans-73" x="817.400391"/>
      <use xlink:href="#DejaVuSans-73" x="869.5"/>
      <use xlink:href="#DejaVuSans-20" x="921.599609"/>
      <use xlink:href="#DejaVuSans-28" x="953.386719"/>
      <use xlink:href="#DejaVuSans-50" x="992.400391"/>
      <use xlink:href="#DejaVuSans-53" x="1052.703125"/>
      <use xlink:href="#DejaVuSans-50" x="1116.179688"/>
      <use xlink:href="#DejaVuSans-20" x="1176.482422"/>
      <use xlink:href="#DejaVuSans-61" x="1208.269531"/>
      <use xlink:href="#DejaVuSans-6e" x="1269.548828"/>
      <use xlink:href="#DejaVuSans-64" x="1332.927734"/>
      <use xlink:href="#DejaVuSans-20" x="1396.404297"/>
      <use xlink:href="#DejaVuSans-31" x="1428.191406"/>
      <use xlink:href="#DejaVuSans-2f" x="1491.814453"/>
      <use xlink:href="#DejaVuSans-66" x="1525.505859"/>
      <use xlink:href="#DejaVuSans-20" x="1560.710938"/>
      <use xlink:href="#DejaVuSans-66" x="1592.498047"/>
      <use xlink:href="#DejaVuSans-69" x="1627.703125"/>
      <use xlink:href="#DejaVuSans-6c" x="1655.486328"/>
      <use xlink:href="#DejaVuSans-74" x="1683.269531"/>
      <use xlink:href="#DejaVuSans-65" x="1722.478516"/>
      <use xlink:href="#DejaVuSans-72" x="1784.001953"/>
      <use xlink:href="#DejaVuSans-29" x="1825.115234"/>
     </g>
    </g>
    <g id="line2d_91">
     <path d="M 131.396483 981.750188 
L 141.396483 981.750188 
L 151.396483 981.750188 
" style="fill: none; stroke: #008000; stroke-opacity: 0.5; stroke-width: 2.5; stroke-linecap: square"/>
    </g>
    <g id="text_24">
     <!-- Broadband Power (PSP and 1/f filter) -->
     <g transform="translate(159.396483 985.250188)scale(0.1 -0.1)">
      <use xlink:href="#DejaVuSans-42"/>
      <use xlink:href="#DejaVuSans-72" x="68.603516"/>
      <use xlink:href="#DejaVuSans-6f" x="107.466797"/>
      <use xlink:href="#DejaVuSans-61" x="168.648438"/>
      <use xlink:href="#DejaVuSans-64" x="229.927734"/>
      <use xlink:href="#DejaVuSans-62" x="293.404297"/>
      <use xlink:href="#DejaVuSans-61" x="356.880859"/>
      <use xlink:href="#DejaVuSans-6e" x="418.160156"/>
      <use xlink:href="#DejaVuSans-64" x="481.539062"/>
      <use xlink:href="#DejaVuSans-20" x="545.015625"/>
      <use xlink:href="#DejaVuSans-50" x="576.802734"/>
      <use xlink:href="#DejaVuSans-6f" x="633.480469"/>
      <use xlink:href="#DejaVuSans-77" x="694.662109"/>
      <use xlink:href="#DejaVuSans-65" x="776.449219"/>
      <use xlink:href="#DejaVuSans-72" x="837.972656"/>
      <use xlink:href="#DejaVuSans-20" x="879.085938"/>
      <use xlink:href="#DejaVuSans-28" x="910.873047"/>
      <use xlink:href="#DejaVuSans-50" x="949.886719"/>
      <use xlink:href="#DejaVuSans-53" x="1010.189453"/>
      <use xlink:href="#DejaVuSans-50" x="1073.666016"/>
      <use xlink:href="#DejaVuSans-20" x="1133.96875"/>
      <use xlink:href="#DejaVuSans-61" x="1165.755859"/>
      <use xlink:href="#DejaVuSans-6e" x="1227.035156"/>
      <use xlink:href="#DejaVuSans-64" x="1290.414062"/>
      <use xlink:href="#DejaVuSans-20" x="1353.890625"/>
      <use xlink:href="#DejaVuSans-31" x="1385.677734"/>
      <use xlink:href="#DejaVuSans-2f" x="1449.300781"/>
      <use xlink:href="#DejaVuSans-66" x="1482.992188"/>
      <use xlink:href="#DejaVuSans-20" x="1518.197266"/>
      <use xlink:href="#DejaVuSans-66" x="1549.984375"/>
      <use xlink:href="#DejaVuSans-69" x="1585.189453"/>
      <use xlink:href="#DejaVuSans-6c" x="1612.972656"/>
      <use xlink:href="#DejaVuSans-74" x="1640.755859"/>
      <use xlink:href="#DejaVuSans-65" x="1679.964844"/>
      <use xlink:href="#DejaVuSans-72" x="1741.488281"/>
      <use xlink:href="#DejaVuSans-29" x="1782.601562"/>
     </g>
    </g>
    <g id="line2d_92">
     <path d="M 131.396483 996.428313 
L 141.396483 996.428313 
L 151.396483 996.428313 
" style="fill: none; stroke: #0000ff; stroke-opacity: 0.5; stroke-width: 2.5; stroke-linecap: square"/>
    </g>
    <g id="text_25">
     <!-- Structured Ensemble Dynamics (PSP and 1/f filter) -->
     <g transform="translate(159.396483 999.928313)scale(0.1 -0.1)">
      <use xlink:href="#DejaVuSans-53"/>
      <use xlink:href="#DejaVuSans-74" x="63.476562"/>
      <use xlink:href="#DejaVuSans-72" x="102.685547"/>
      <use xlink:href="#DejaVuSans-75" x="143.798828"/>
      <use xlink:href="#DejaVuSans-63" x="207.177734"/>
      <use xlink:href="#DejaVuSans-74" x="262.158203"/>
      <use xlink:href="#DejaVuSans-75" x="301.367188"/>
      <use xlink:href="#DejaVuSans-72" x="364.746094"/>
      <use xlink:href="#DejaVuSans-65" x="403.609375"/>
      <use xlink:href="#DejaVuSans-64" x="465.132812"/>
      <use xlink:href="#DejaVuSans-20" x="528.609375"/>
      <use xlink:href="#DejaVuSans-45" x="560.396484"/>
      <use xlink:href="#DejaVuSans-6e" x="623.580078"/>
      <use xlink:href="#DejaVuSans-73" x="686.958984"/>
      <use xlink:href="#DejaVuSans-65" x="739.058594"/>
      <use xlink:href="#DejaVuSans-6d" x="800.582031"/>
      <use xlink:href="#DejaVuSans-62" x="897.994141"/>
      <use xlink:href="#DejaVuSans-6c" x="961.470703"/>
      <use xlink:href="#DejaVuSans-65" x="989.253906"/>
      <use xlink:href="#DejaVuSans-20" x="1050.777344"/>
      <use xlink:href="#DejaVuSans-44" x="1082.564453"/>
      <use xlink:href="#DejaVuSans-79" x="1159.566406"/>
      <use xlink:href="#DejaVuSans-6e" x="1218.746094"/>
      <use xlink:href="#DejaVuSans-61" x="1282.125"/>
      <use xlink:href="#DejaVuSans-6d" x="1343.404297"/>
      <use xlink:href="#DejaVuSans-69" x="1440.816406"/>
      <use xlink:href="#DejaVuSans-63" x="1468.599609"/>
      <use xlink:href="#DejaVuSans-73" x="1523.580078"/>
      <use xlink:href="#DejaVuSans-20" x="1575.679688"/>
      <use xlink:href="#DejaVuSans-28" x="1607.466797"/>
      <use xlink:href="#DejaVuSans-50" x="1646.480469"/>
      <use xlink:href="#DejaVuSans-53" x="1706.783203"/>
      <use xlink:href="#DejaVuSans-50" x="1770.259766"/>
      <use xlink:href="#DejaVuSans-20" x="1830.5625"/>
      <use xlink:href="#DejaVuSans-61" x="1862.349609"/>
      <use xlink:href="#DejaVuSans-6e" x="1923.628906"/>
      <use xlink:href="#DejaVuSans-64" x="1987.007812"/>
      <use xlink:href="#DejaVuSans-20" x="2050.484375"/>
      <use xlink:href="#DejaVuSans-31" x="2082.271484"/>
      <use xlink:href="#DejaVuSans-2f" x="2145.894531"/>
      <use xlink:href="#DejaVuSans-66" x="2179.585938"/>
      <use xlink:href="#DejaVuSans-20" x="2214.791016"/>
      <use xlink:href="#DejaVuSans-66" x="2246.578125"/>
      <use xlink:href="#DejaVuSans-69" x="2281.783203"/>
      <use xlink:href="#DejaVuSans-6c" x="2309.566406"/>
      <use xlink:href="#DejaVuSans-74" x="2337.349609"/>
      <use xlink:href="#DejaVuSans-65" x="2376.558594"/>
      <use xlink:href="#DejaVuSans-72" x="2438.082031"/>
      <use xlink:href="#DejaVuSans-29" x="2479.195312"/>
     </g>
    </g>
   </g>
  </g>
 </g>
 <defs>
  <clipPath id="p4a3c663cd9">
   <rect x="122.396483" y="32.4" width="421.203517" height="272.504"/>
  </clipPath>
  <clipPath id="p9fdf585aed">
   <rect x="122.396483" y="385.452" width="421.203517" height="272.504"/>
  </clipPath>
  <clipPath id="p4ab9a4dadb">
   <rect x="122.396483" y="738.504" width="421.203517" height="272.504"/>
  </clipPath>
 </defs>
</svg>
