<?xml version="1.0" encoding="utf-8" standalone="no"?>
<!DOCTYPE svg PUBLIC "-//W3C//DTD SVG 1.1//EN"
  "http://www.w3.org/Graphics/SVG/1.1/DTD/svg11.dtd">
<svg xmlns:xlink="http://www.w3.org/1999/xlink" width="576pt" height="1080pt" viewBox="0 0 576 1080" xmlns="http://www.w3.org/2000/svg" version="1.1">
 <metadata>
  <rdf:RDF xmlns:dc="http://purl.org/dc/elements/1.1/" xmlns:cc="http://creativecommons.org/ns#" xmlns:rdf="http://www.w3.org/1999/02/22-rdf-syntax-ns#">
   <cc:Work>
    <dc:type rdf:resource="http://purl.org/dc/dcmitype/StillImage"/>
    <dc:date>2024-11-01T11:58:17.936947</dc:date>
    <dc:format>image/svg+xml</dc:format>
    <dc:creator>
     <cc:Agent>
      <dc:title>Matplotlib v3.5.3, https://matplotlib.org/</dc:title>
     </cc:Agent>
    </dc:creator>
   </cc:Work>
  </rdf:RDF>
 </metadata>
 <defs>
  <style type="text/css">*{stroke-linejoin: round; stroke-linecap: butt}</style>
 </defs>
 <g id="figure_1">
  <g id="patch_1">
   <path d="M 0 1080 
L 576 1080 
L 576 0 
L 0 0 
z
" style="fill: #ffffff"/>
  </g>
  <g id="axes_1">
   <g id="patch_2">
    <path d="M 122.216483 487.208 
L 543.6 487.208 
L 543.6 43.956 
L 122.216483 43.956 
z
" style="fill: #ffffff"/>
   </g>
   <g id="patch_3">
    <path d="M 122.216483 487.208 
L 122.216483 43.956 
L 271.814626 43.956 
L 271.814626 487.208 
z
" clip-path="url(#pce571a6c27)" style="fill: #add8e6; opacity: 0.3; stroke: #add8e6; stroke-linejoin: miter"/>
   </g>
   <g id="patch_4">
    <path d="M 271.814626 487.208 
L 271.814626 43.956 
L 543.6 43.956 
L 543.6 487.208 
z
" clip-path="url(#pce571a6c27)" style="fill: #90ee90; opacity: 0.3; stroke: #90ee90; stroke-linejoin: miter"/>
   </g>
   <g id="patch_5">
    <path d="M 122.216483 487.208 
L 122.216483 43.956 
L 239.869864 43.956 
L 239.869864 487.208 
z
" clip-path="url(#pce571a6c27)" style="fill: #add8e6; opacity: 0.3; stroke: #add8e6; stroke-linejoin: miter"/>
   </g>
   <g id="patch_6">
    <path d="M 239.869864 487.208 
L 239.869864 43.956 
L 543.6 43.956 
L 543.6 487.208 
z
" clip-path="url(#pce571a6c27)" style="fill: #90ee90; opacity: 0.3; stroke: #90ee90; stroke-linejoin: miter"/>
   </g>
   <g id="matplotlib.axis_1">
    <g id="xtick_1">
     <g id="line2d_1">
      <defs>
       <path id="m49515a153f" d="M 0 0 
L 0 3.5 
" style="stroke: #000000; stroke-width: 0.8"/>
      </defs>
      <g>
       <use xlink:href="#m49515a153f" x="122.216483" y="487.208" style="stroke: #000000; stroke-width: 0.8"/>
      </g>
     </g>
     <g id="text_1">
      <!-- $\mathdefault{10^{0}}$ -->
      <g transform="translate(95.816483 517.003312)scale(0.3 -0.3)">
       <defs>
        <path id="DejaVuSans-31" d="M 794 531 
L 1825 531 
L 1825 4091 
L 703 3866 
L 703 4441 
L 1819 4666 
L 2450 4666 
L 2450 531 
L 3481 531 
L 3481 0 
L 794 0 
L 794 531 
z
" transform="scale(0.015625)"/>
        <path id="DejaVuSans-30" d="M 2034 4250 
Q 1547 4250 1301 3770 
Q 1056 3291 1056 2328 
Q 1056 1369 1301 889 
Q 1547 409 2034 409 
Q 2525 409 2770 889 
Q 3016 1369 3016 2328 
Q 3016 3291 2770 3770 
Q 2525 4250 2034 4250 
z
M 2034 4750 
Q 2819 4750 3233 4129 
Q 3647 3509 3647 2328 
Q 3647 1150 3233 529 
Q 2819 -91 2034 -91 
Q 1250 -91 836 529 
Q 422 1150 422 2328 
Q 422 3509 836 4129 
Q 1250 4750 2034 4750 
z
" transform="scale(0.015625)"/>
       </defs>
       <use xlink:href="#DejaVuSans-31" transform="translate(0 0.765625)"/>
       <use xlink:href="#DejaVuSans-30" transform="translate(63.623047 0.765625)"/>
       <use xlink:href="#DejaVuSans-30" transform="translate(128.203125 39.046875)scale(0.7)"/>
      </g>
     </g>
    </g>
    <g id="xtick_2">
     <g id="line2d_2">
      <g>
       <use xlink:href="#m49515a153f" x="305.344699" y="487.208" style="stroke: #000000; stroke-width: 0.8"/>
      </g>
     </g>
     <g id="text_2">
      <!-- $\mathdefault{10^{1}}$ -->
      <g transform="translate(278.944699 517.003312)scale(0.3 -0.3)">
       <use xlink:href="#DejaVuSans-31" transform="translate(0 0.684375)"/>
       <use xlink:href="#DejaVuSans-30" transform="translate(63.623047 0.684375)"/>
       <use xlink:href="#DejaVuSans-31" transform="translate(128.203125 38.965625)scale(0.7)"/>
      </g>
     </g>
    </g>
    <g id="xtick_3">
     <g id="line2d_3">
      <g>
       <use xlink:href="#m49515a153f" x="488.472914" y="487.208" style="stroke: #000000; stroke-width: 0.8"/>
      </g>
     </g>
     <g id="text_3">
      <!-- $\mathdefault{10^{2}}$ -->
      <g transform="translate(462.072914 517.003312)scale(0.3 -0.3)">
       <defs>
        <path id="DejaVuSans-32" d="M 1228 531 
L 3431 531 
L 3431 0 
L 469 0 
L 469 531 
Q 828 903 1448 1529 
Q 2069 2156 2228 2338 
Q 2531 2678 2651 2914 
Q 2772 3150 2772 3378 
Q 2772 3750 2511 3984 
Q 2250 4219 1831 4219 
Q 1534 4219 1204 4116 
Q 875 4013 500 3803 
L 500 4441 
Q 881 4594 1212 4672 
Q 1544 4750 1819 4750 
Q 2544 4750 2975 4387 
Q 3406 4025 3406 3419 
Q 3406 3131 3298 2873 
Q 3191 2616 2906 2266 
Q 2828 2175 2409 1742 
Q 1991 1309 1228 531 
z
" transform="scale(0.015625)"/>
       </defs>
       <use xlink:href="#DejaVuSans-31" transform="translate(0 0.765625)"/>
       <use xlink:href="#DejaVuSans-30" transform="translate(63.623047 0.765625)"/>
       <use xlink:href="#DejaVuSans-32" transform="translate(128.203125 39.046875)scale(0.7)"/>
      </g>
     </g>
    </g>
    <g id="xtick_4">
     <g id="line2d_4">
      <defs>
       <path id="m96cfcc3542" d="M 0 0 
L 0 2 
" style="stroke: #000000; stroke-width: 0.6"/>
      </defs>
      <g>
       <use xlink:href="#m96cfcc3542" x="177.343569" y="487.208" style="stroke: #000000; stroke-width: 0.6"/>
      </g>
     </g>
    </g>
    <g id="xtick_5">
     <g id="line2d_5">
      <g>
       <use xlink:href="#m96cfcc3542" x="209.590847" y="487.208" style="stroke: #000000; stroke-width: 0.6"/>
      </g>
     </g>
    </g>
    <g id="xtick_6">
     <g id="line2d_6">
      <g>
       <use xlink:href="#m96cfcc3542" x="232.470655" y="487.208" style="stroke: #000000; stroke-width: 0.6"/>
      </g>
     </g>
    </g>
    <g id="xtick_7">
     <g id="line2d_7">
      <g>
       <use xlink:href="#m96cfcc3542" x="250.217613" y="487.208" style="stroke: #000000; stroke-width: 0.6"/>
      </g>
     </g>
    </g>
    <g id="xtick_8">
     <g id="line2d_8">
      <g>
       <use xlink:href="#m96cfcc3542" x="264.717933" y="487.208" style="stroke: #000000; stroke-width: 0.6"/>
      </g>
     </g>
    </g>
    <g id="xtick_9">
     <g id="line2d_9">
      <g>
       <use xlink:href="#m96cfcc3542" x="276.977779" y="487.208" style="stroke: #000000; stroke-width: 0.6"/>
      </g>
     </g>
    </g>
    <g id="xtick_10">
     <g id="line2d_10">
      <g>
       <use xlink:href="#m96cfcc3542" x="287.597741" y="487.208" style="stroke: #000000; stroke-width: 0.6"/>
      </g>
     </g>
    </g>
    <g id="xtick_11">
     <g id="line2d_11">
      <g>
       <use xlink:href="#m96cfcc3542" x="296.965211" y="487.208" style="stroke: #000000; stroke-width: 0.6"/>
      </g>
     </g>
    </g>
    <g id="xtick_12">
     <g id="line2d_12">
      <g>
       <use xlink:href="#m96cfcc3542" x="360.471785" y="487.208" style="stroke: #000000; stroke-width: 0.6"/>
      </g>
     </g>
    </g>
    <g id="xtick_13">
     <g id="line2d_13">
      <g>
       <use xlink:href="#m96cfcc3542" x="392.719063" y="487.208" style="stroke: #000000; stroke-width: 0.6"/>
      </g>
     </g>
    </g>
    <g id="xtick_14">
     <g id="line2d_14">
      <g>
       <use xlink:href="#m96cfcc3542" x="415.598871" y="487.208" style="stroke: #000000; stroke-width: 0.6"/>
      </g>
     </g>
    </g>
    <g id="xtick_15">
     <g id="line2d_15">
      <g>
       <use xlink:href="#m96cfcc3542" x="433.345828" y="487.208" style="stroke: #000000; stroke-width: 0.6"/>
      </g>
     </g>
    </g>
    <g id="xtick_16">
     <g id="line2d_16">
      <g>
       <use xlink:href="#m96cfcc3542" x="447.846149" y="487.208" style="stroke: #000000; stroke-width: 0.6"/>
      </g>
     </g>
    </g>
    <g id="xtick_17">
     <g id="line2d_17">
      <g>
       <use xlink:href="#m96cfcc3542" x="460.105995" y="487.208" style="stroke: #000000; stroke-width: 0.6"/>
      </g>
     </g>
    </g>
    <g id="xtick_18">
     <g id="line2d_18">
      <g>
       <use xlink:href="#m96cfcc3542" x="470.725956" y="487.208" style="stroke: #000000; stroke-width: 0.6"/>
      </g>
     </g>
    </g>
    <g id="xtick_19">
     <g id="line2d_19">
      <g>
       <use xlink:href="#m96cfcc3542" x="480.093427" y="487.208" style="stroke: #000000; stroke-width: 0.6"/>
      </g>
     </g>
    </g>
    <g id="xtick_20">
     <g id="line2d_20">
      <g>
       <use xlink:href="#m96cfcc3542" x="543.6" y="487.208" style="stroke: #000000; stroke-width: 0.6"/>
      </g>
     </g>
    </g>
   </g>
   <g id="matplotlib.axis_2">
    <g id="ytick_1">
     <g id="line2d_21">
      <defs>
       <path id="me712fe3861" d="M 0 0 
L -3.5 0 
" style="stroke: #000000; stroke-width: 0.8"/>
      </defs>
      <g>
       <use xlink:href="#me712fe3861" x="122.216483" y="487.208" style="stroke: #000000; stroke-width: 0.8"/>
      </g>
     </g>
     <g id="text_4">
      <!-- $\mathdefault{10^{-12}}$ -->
      <g transform="translate(31.516483 498.605656)scale(0.3 -0.3)">
       <defs>
        <path id="DejaVuSans-2212" d="M 678 2272 
L 4684 2272 
L 4684 1741 
L 678 1741 
L 678 2272 
z
" transform="scale(0.015625)"/>
       </defs>
       <use xlink:href="#DejaVuSans-31" transform="translate(0 0.765625)"/>
       <use xlink:href="#DejaVuSans-30" transform="translate(63.623047 0.765625)"/>
       <use xlink:href="#DejaVuSans-2212" transform="translate(128.203125 39.046875)scale(0.7)"/>
       <use xlink:href="#DejaVuSans-31" transform="translate(186.855469 39.046875)scale(0.7)"/>
       <use xlink:href="#DejaVuSans-32" transform="translate(231.391602 39.046875)scale(0.7)"/>
      </g>
     </g>
    </g>
    <g id="ytick_2">
     <g id="line2d_22">
      <g>
       <use xlink:href="#me712fe3861" x="122.216483" y="398.5576" style="stroke: #000000; stroke-width: 0.8"/>
      </g>
     </g>
     <g id="text_5">
      <!-- $\mathdefault{10^{-10}}$ -->
      <g transform="translate(31.516483 409.955256)scale(0.3 -0.3)">
       <use xlink:href="#DejaVuSans-31" transform="translate(0 0.765625)"/>
       <use xlink:href="#DejaVuSans-30" transform="translate(63.623047 0.765625)"/>
       <use xlink:href="#DejaVuSans-2212" transform="translate(128.203125 39.046875)scale(0.7)"/>
       <use xlink:href="#DejaVuSans-31" transform="translate(186.855469 39.046875)scale(0.7)"/>
       <use xlink:href="#DejaVuSans-30" transform="translate(231.391602 39.046875)scale(0.7)"/>
      </g>
     </g>
    </g>
    <g id="ytick_3">
     <g id="line2d_23">
      <g>
       <use xlink:href="#me712fe3861" x="122.216483" y="309.9072" style="stroke: #000000; stroke-width: 0.8"/>
      </g>
     </g>
     <g id="text_6">
      <!-- $\mathdefault{10^{-8}}$ -->
      <g transform="translate(44.716483 321.304856)scale(0.3 -0.3)">
       <defs>
        <path id="DejaVuSans-38" d="M 2034 2216 
Q 1584 2216 1326 1975 
Q 1069 1734 1069 1313 
Q 1069 891 1326 650 
Q 1584 409 2034 409 
Q 2484 409 2743 651 
Q 3003 894 3003 1313 
Q 3003 1734 2745 1975 
Q 2488 2216 2034 2216 
z
M 1403 2484 
Q 997 2584 770 2862 
Q 544 3141 544 3541 
Q 544 4100 942 4425 
Q 1341 4750 2034 4750 
Q 2731 4750 3128 4425 
Q 3525 4100 3525 3541 
Q 3525 3141 3298 2862 
Q 3072 2584 2669 2484 
Q 3125 2378 3379 2068 
Q 3634 1759 3634 1313 
Q 3634 634 3220 271 
Q 2806 -91 2034 -91 
Q 1263 -91 848 271 
Q 434 634 434 1313 
Q 434 1759 690 2068 
Q 947 2378 1403 2484 
z
M 1172 3481 
Q 1172 3119 1398 2916 
Q 1625 2713 2034 2713 
Q 2441 2713 2670 2916 
Q 2900 3119 2900 3481 
Q 2900 3844 2670 4047 
Q 2441 4250 2034 4250 
Q 1625 4250 1398 4047 
Q 1172 3844 1172 3481 
z
" transform="scale(0.015625)"/>
       </defs>
       <use xlink:href="#DejaVuSans-31" transform="translate(0 0.765625)"/>
       <use xlink:href="#DejaVuSans-30" transform="translate(63.623047 0.765625)"/>
       <use xlink:href="#DejaVuSans-2212" transform="translate(128.203125 39.046875)scale(0.7)"/>
       <use xlink:href="#DejaVuSans-38" transform="translate(186.855469 39.046875)scale(0.7)"/>
      </g>
     </g>
    </g>
    <g id="ytick_4">
     <g id="line2d_24">
      <g>
       <use xlink:href="#me712fe3861" x="122.216483" y="221.2568" style="stroke: #000000; stroke-width: 0.8"/>
      </g>
     </g>
     <g id="text_7">
      <!-- $\mathdefault{10^{-6}}$ -->
      <g transform="translate(44.716483 232.654456)scale(0.3 -0.3)">
       <defs>
        <path id="DejaVuSans-36" d="M 2113 2584 
Q 1688 2584 1439 2293 
Q 1191 2003 1191 1497 
Q 1191 994 1439 701 
Q 1688 409 2113 409 
Q 2538 409 2786 701 
Q 3034 994 3034 1497 
Q 3034 2003 2786 2293 
Q 2538 2584 2113 2584 
z
M 3366 4563 
L 3366 3988 
Q 3128 4100 2886 4159 
Q 2644 4219 2406 4219 
Q 1781 4219 1451 3797 
Q 1122 3375 1075 2522 
Q 1259 2794 1537 2939 
Q 1816 3084 2150 3084 
Q 2853 3084 3261 2657 
Q 3669 2231 3669 1497 
Q 3669 778 3244 343 
Q 2819 -91 2113 -91 
Q 1303 -91 875 529 
Q 447 1150 447 2328 
Q 447 3434 972 4092 
Q 1497 4750 2381 4750 
Q 2619 4750 2861 4703 
Q 3103 4656 3366 4563 
z
" transform="scale(0.015625)"/>
       </defs>
       <use xlink:href="#DejaVuSans-31" transform="translate(0 0.765625)"/>
       <use xlink:href="#DejaVuSans-30" transform="translate(63.623047 0.765625)"/>
       <use xlink:href="#DejaVuSans-2212" transform="translate(128.203125 39.046875)scale(0.7)"/>
       <use xlink:href="#DejaVuSans-36" transform="translate(186.855469 39.046875)scale(0.7)"/>
      </g>
     </g>
    </g>
    <g id="ytick_5">
     <g id="line2d_25">
      <g>
       <use xlink:href="#me712fe3861" x="122.216483" y="132.6064" style="stroke: #000000; stroke-width: 0.8"/>
      </g>
     </g>
     <g id="text_8">
      <!-- $\mathdefault{10^{-4}}$ -->
      <g transform="translate(44.716483 144.004056)scale(0.3 -0.3)">
       <defs>
        <path id="DejaVuSans-34" d="M 2419 4116 
L 825 1625 
L 2419 1625 
L 2419 4116 
z
M 2253 4666 
L 3047 4666 
L 3047 1625 
L 3713 1625 
L 3713 1100 
L 3047 1100 
L 3047 0 
L 2419 0 
L 2419 1100 
L 313 1100 
L 313 1709 
L 2253 4666 
z
" transform="scale(0.015625)"/>
       </defs>
       <use xlink:href="#DejaVuSans-31" transform="translate(0 0.684375)"/>
       <use xlink:href="#DejaVuSans-30" transform="translate(63.623047 0.684375)"/>
       <use xlink:href="#DejaVuSans-2212" transform="translate(128.203125 38.965625)scale(0.7)"/>
       <use xlink:href="#DejaVuSans-34" transform="translate(186.855469 38.965625)scale(0.7)"/>
      </g>
     </g>
    </g>
    <g id="ytick_6">
     <g id="line2d_26">
      <g>
       <use xlink:href="#me712fe3861" x="122.216483" y="43.956" style="stroke: #000000; stroke-width: 0.8"/>
      </g>
     </g>
     <g id="text_9">
      <!-- $\mathdefault{10^{-2}}$ -->
      <g transform="translate(44.716483 55.353656)scale(0.3 -0.3)">
       <use xlink:href="#DejaVuSans-31" transform="translate(0 0.765625)"/>
       <use xlink:href="#DejaVuSans-30" transform="translate(63.623047 0.765625)"/>
       <use xlink:href="#DejaVuSans-2212" transform="translate(128.203125 39.046875)scale(0.7)"/>
       <use xlink:href="#DejaVuSans-32" transform="translate(186.855469 39.046875)scale(0.7)"/>
      </g>
     </g>
    </g>
   </g>
   <g id="line2d_27">
    <path d="M -1 92.339721 
L 36.417054 92.612296 
L 63.84276 93.02482 
L 86.722568 93.596461 
L 108.349884 94.369886 
L 147.832291 95.877923 
L 157.071588 95.948652 
L 164.418183 95.796113 
L 171.143165 95.440144 
L 177.740236 94.866355 
L 194.130376 93.275776 
L 196.665461 93.341737 
L 198.819252 93.587747 
L 200.916252 94.048111 
L 202.670696 94.637651 
L 204.387271 95.423214 
L 206.067578 96.413514 
L 207.984094 97.829158 
L 209.855512 99.514756 
L 211.683904 101.447734 
L 213.723287 103.918858 
L 215.95677 106.966457 
L 218.604056 110.962252 
L 221.850693 116.282974 
L 226.484911 124.345361 
L 239.869864 147.85985 
L 245.127168 156.545748 
L 250.05839 164.266406 
L 254.70163 171.124686 
L 259.230822 177.413371 
L 263.650379 183.162837 
L 267.964571 188.410932 
L 272.298102 193.333514 
L 276.750221 198.049271 
L 281.289789 202.53344 
L 286.092367 206.964334 
L 291.288513 211.453002 
L 297.141752 216.207151 
L 303.981038 221.46671 
L 312.997136 228.101611 
L 347.733312 253.397356 
L 358.417424 261.603991 
L 368.879103 269.921334 
L 379.543773 278.686501 
L 390.705498 288.15159 
L 402.626687 298.556364 
L 415.638626 310.213851 
L 430.032887 323.41441 
L 446.090473 338.448178 
L 463.737089 355.278566 
L 482.169267 373.165655 
L 500.00915 390.783872 
L 516.321991 407.201047 
L 530.982786 422.265901 
L 544.261331 436.224961 
L 556.496949 449.407118 
L 567.984536 462.108087 
L 577 472.32159 
M 577 472.32159 
L 566.008182 459.898794 
L 554.55973 447.297466 
L 542.422208 434.271403 
L 529.320471 420.540785 
L 514.948531 405.80586 
L 499.019275 389.797724 
L 481.503582 372.51425 
L 463.050293 354.618043 
L 445.012663 337.430167 
L 428.475529 321.972596 
L 413.687204 308.447572 
L 400.419642 296.608842 
L 388.30405 286.091379 
L 377.032878 276.597483 
L 366.297509 267.842686 
L 355.804156 259.570314 
L 345.12393 251.434988 
L 333.456709 242.834196 
L 298.885935 217.574223 
L 292.606226 212.548308 
L 287.199086 207.944908 
L 282.252523 203.445954 
L 277.656574 198.969555 
L 273.256325 194.37677 
L 268.976115 189.590607 
L 264.717933 184.494631 
L 260.498845 179.102041 
L 256.191028 173.236872 
L 251.792547 166.875746 
L 247.136494 159.744185 
L 242.190816 151.748466 
L 236.728837 142.475938 
L 229.63717 129.956935 
L 221.850693 116.282974 
L 218.367002 110.590008 
L 215.465833 106.268669 
L 213.218323 103.277622 
L 211.165781 100.871926 
L 209.058862 98.760501 
L 207.168379 97.188487 
L 205.231862 95.892505 
L 203.533614 95.005222 
L 201.798311 94.319185 
L 199.724745 93.756786 
L 197.595666 93.423214 
L 195.090527 93.276957 
L 192.174583 93.344319 
L 188.112513 93.687397 
L 169.842893 95.526861 
L 163.002153 95.843172 
L 155.517175 95.954502 
L 146.671225 95.853655 
L 134.703239 95.476695 
L 76.102606 93.30072 
L 53.222798 92.835515 
L 26.462632 92.515013 
L -1 92.339721 
L -1 92.339721 
" clip-path="url(#pce571a6c27)" style="fill: none; stroke: #000000; stroke-opacity: 0.6; stroke-width: 0.8; stroke-linecap: square"/>
   </g>
   <g id="line2d_28">
    <path d="M -1 147.864819 
L 26.462632 148.200226 
L 47.328875 148.655386 
L 63.84276 149.21466 
L 78.893474 149.947311 
L 91.54414 150.784152 
L 102.455961 151.711365 
L 112.948366 152.819311 
L 123.007849 154.113279 
L 132.637367 155.592127 
L 141.849654 157.248406 
L 150.662895 159.069162 
L 159.097979 161.037233 
L 167.627385 163.255748 
L 176.141558 165.698954 
L 184.923738 168.453366 
L 193.807732 171.472466 
L 202.959377 174.814149 
L 212.710132 178.616167 
L 222.754471 182.774161 
L 233.262021 187.367048 
L 244.103142 192.350309 
L 255.151385 197.67471 
L 266.162807 203.227551 
L 276.977779 208.928609 
L 287.498264 214.724578 
L 297.669035 220.581378 
L 307.463573 226.476848 
L 317.011534 232.483392 
L 326.333204 238.609854 
L 335.551217 244.933774 
L 344.7856 251.539251 
L 354.142306 258.507665 
L 363.705696 265.909129 
L 373.635408 273.877588 
L 384.103576 282.566976 
L 395.275562 292.13381 
L 407.395924 302.810316 
L 420.75657 314.88146 
L 435.650344 328.643656 
L 452.254958 344.294927 
L 470.287325 361.600425 
L 488.655627 379.535072 
L 506.009631 396.785398 
L 521.716029 412.705967 
L 535.845466 427.339764 
L 548.716694 440.986717 
L 560.65361 453.964318 
L 571.937885 466.559009 
L 577 472.321596 
M 577 472.321596 
L 566.008182 459.898802 
L 554.55973 447.297479 
L 542.422208 434.271424 
L 529.320471 420.540823 
L 514.948531 405.805935 
L 499.019275 389.797883 
L 481.512263 372.523114 
L 463.072187 354.640016 
L 445.067588 337.484272 
L 428.576929 322.071522 
L 413.870292 308.623793 
L 400.707888 296.883541 
L 388.779033 286.535991 
L 377.772114 277.277499 
L 367.435004 268.869017 
L 357.59708 261.149488 
L 348.059357 253.946075 
L 338.749969 247.191148 
L 329.506506 240.756658 
L 320.241686 234.57634 
L 310.799991 228.545763 
L 301.181501 222.665735 
L 291.19355 216.822579 
L 280.858138 211.036685 
L 270.222717 205.338283 
L 259.230822 199.702979 
L 248.122435 194.258813 
L 237.104873 189.105693 
L 226.270251 184.284101 
L 215.95677 179.934259 
L 206.067578 175.9999 
L 196.665461 172.4914 
L 187.414863 169.276812 
L 178.527684 166.424103 
L 169.842893 163.869636 
L 161.074021 161.530704 
L 152.314129 159.436872 
L 143.692167 157.609551 
L 134.703239 155.942339 
L 125.335768 154.448286 
L 115.585013 153.135251 
L 105.457508 152.005088 
L 94.97769 151.053458 
L 82.904319 150.188048 
L 70.208683 149.494346 
L 55.094216 148.891606 
L 36.417054 148.389139 
L 15.081597 148.033424 
L -1 147.864819 
L -1 147.864819 
" clip-path="url(#pce571a6c27)" style="fill: none; stroke: #008000; stroke-opacity: 0.6; stroke-width: 0.8; stroke-linecap: square"/>
   </g>
   <g id="line2d_29">
    <path d="M -1 93.446824 
L 38.722478 93.729039 
L 67.089398 94.155937 
L 90.365872 94.734896 
L 113.836996 95.550774 
L 142.46858 96.5445 
L 152.857008 96.666546 
L 161.074021 96.540021 
L 168.075452 96.209496 
L 174.510084 95.6876 
L 181.601751 94.881188 
L 191.511816 93.735631 
L 194.771763 93.601914 
L 197.286805 93.707309 
L 199.424058 94.003184 
L 201.505377 94.527051 
L 203.247014 95.180528 
L 204.951327 96.036985 
L 206.619883 97.103001 
L 208.523293 98.610027 
L 210.382213 100.387092 
L 212.454814 102.71597 
L 214.723697 105.655316 
L 217.171016 109.223781 
L 220.011731 113.781626 
L 223.648094 120.078067 
L 228.808708 129.507462 
L 247.466501 163.938429 
L 256.191028 179.389679 
L 265.771347 195.892278 
L 277.543843 215.705311 
L 295.71833 245.795365 
L 321.289893 288.195559 
L 336.201342 313.373275 
L 349.806363 336.78134 
L 363.130905 360.151419 
L 376.806522 384.591549 
L 391.328428 411.007026 
L 407.351825 440.626127 
L 425.757706 475.130791 
L 448.137231 517.577202 
L 478.224744 575.153729 
L 549.122098 711.005533 
L 563.907564 738.737894 
L 574.959541 759.013826 
L 577 762.695936 
M 577 762.695936 
L 567.370526 745.14382 
L 555.338916 722.729302 
L 539.22281 692.205147 
L 513.915639 643.741775 
L 445.026398 511.65229 
L 421.590728 467.281422 
L 402.813711 432.192832 
L 386.66183 402.470168 
L 372.06991 376.076199 
L 358.376607 351.761721 
L 344.979107 328.424373 
L 331.305546 305.055877 
L 316.32175 279.899544 
L 295.987169 246.238886 
L 272.898343 207.933928 
L 261.471296 188.537056 
L 252.103826 172.207643 
L 243.586142 156.914668 
L 234.434498 140.005277 
L 223.425628 119.681894 
L 219.545269 113.007511 
L 216.68754 108.489601 
L 214.225065 104.976718 
L 211.941705 102.106367 
L 209.855512 99.85309 
L 207.984094 98.151053 
L 206.067578 96.724274 
L 204.387271 95.728391 
L 202.670696 94.940677 
L 200.916252 94.352207 
L 198.819252 93.896882 
L 196.665461 93.659686 
L 194.130376 93.608013 
L 190.843479 93.789114 
L 186.000931 94.320181 
L 173.681622 95.766941 
L 167.17678 96.265213 
L 160.584594 96.554765 
L 152.857008 96.666546 
L 143.692167 96.570785 
L 130.5164 96.184859 
L 77.510281 94.385859 
L 55.094216 93.943733 
L 26.462632 93.612679 
L -1 93.446824 
L -1 93.446824 
" clip-path="url(#pce571a6c27)" style="fill: none; stroke: #0000ff; stroke-width: 2.5; stroke-linecap: square"/>
   </g>
   <g id="line2d_30">
    <path d="M -1 85.983656 
L 34.042801 86.294734 
L 58.70991 86.728932 
L 78.893474 87.306322 
L 96.090038 88.015241 
L 112.948366 88.934353 
L 133.331971 90.291231 
L 152.857008 91.543237 
L 162.04393 91.914111 
L 169.404701 92.002784 
L 176.141558 91.870013 
L 183.831754 91.479981 
L 191.84389 91.088893 
L 195.090527 91.135238 
L 197.903332 91.402305 
L 200.024299 91.808031 
L 202.090171 92.422643 
L 204.103736 93.271246 
L 206.067578 94.368263 
L 207.984094 95.715084 
L 209.855512 97.299593 
L 211.941705 99.370171 
L 214.225065 101.970483 
L 216.929645 105.422884 
L 220.24394 110.03724 
L 234.045589 129.685346 
L 237.851654 134.488442 
L 241.483864 138.713631 
L 245.127168 142.607906 
L 248.773004 146.186694 
L 252.722751 149.747079 
L 256.925397 153.229912 
L 261.609252 156.813141 
L 266.939995 160.601353 
L 273.375295 164.889536 
L 282.039587 170.375089 
L 316.529314 191.946925 
L 326.698867 198.710629 
L 336.363047 205.404269 
L 345.844112 212.241434 
L 355.38134 219.395154 
L 365.106003 226.970267 
L 375.170686 235.094936 
L 385.769985 243.940446 
L 397.102787 253.691918 
L 409.419959 264.588717 
L 423.016194 276.919752 
L 438.189853 290.987841 
L 455.07609 306.952407 
L 473.259989 324.452158 
L 491.546302 342.35694 
L 508.650993 359.410832 
L 524.088896 375.111403 
L 537.994924 389.566505 
L 550.694268 403.084345 
L 562.50913 415.982829 
L 573.713986 428.543016 
L 577 432.291951 
M 577 432.291951 
L 566.008182 419.869157 
L 554.55973 407.267833 
L 542.422208 394.241777 
L 529.320471 380.511174 
L 514.948531 365.776281 
L 499.019275 349.768218 
L 481.512263 332.493424 
L 463.072187 314.610256 
L 445.05386 297.441388 
L 428.560038 282.025615 
L 413.84997 268.574445 
L 400.683907 256.830185 
L 388.7233 246.453949 
L 377.676081 237.160038 
L 367.289142 228.708639 
L 357.349318 220.905548 
L 347.686625 213.601894 
L 338.17308 206.688543 
L 328.5618 199.979964 
L 318.643008 193.330702 
L 308.003819 186.469821 
L 294.99695 178.36113 
L 274.085403 165.348921 
L 267.068791 160.689831 
L 261.471296 156.711399 
L 256.779065 153.113275 
L 252.568471 149.613587 
L 248.61086 146.033811 
L 244.95741 142.433769 
L 241.30614 138.51501 
L 237.665615 134.262562 
L 234.045589 129.685346 
L 230.048186 124.255228 
L 224.969978 116.93883 
L 217.890764 106.726202 
L 214.971846 102.887616 
L 212.454814 99.925764 
L 210.382213 97.79285 
L 208.254151 95.927334 
L 206.34421 94.545511 
L 204.387271 93.412573 
L 202.380963 92.529079 
L 200.32273 91.882363 
L 198.209812 91.448646 
L 195.724248 91.173207 
L 192.831872 91.080905 
L 188.804096 91.192795 
L 170.278683 91.997762 
L 163.002153 91.93784 
L 154.463761 91.624018 
L 143.082726 90.957987 
L 99.336676 88.174764 
L 82.904319 87.452038 
L 65.482644 86.896123 
L 45.263003 86.462501 
L 18.083144 86.12064 
L -1 85.983656 
L -1 85.983656 
" clip-path="url(#pce571a6c27)" style="fill: none; stroke: #000000; stroke-width: 2.5; stroke-linecap: square"/>
   </g>
   <g id="line2d_31">
    <path d="M -1 107.835175 
L 26.462632 108.170582 
L 47.328875 108.625742 
L 63.84276 109.185016 
L 78.893474 109.917667 
L 91.54414 110.754508 
L 102.455961 111.681721 
L 112.948366 112.789666 
L 123.007849 114.083635 
L 132.637367 115.562483 
L 141.849654 117.218762 
L 150.662895 119.039518 
L 159.097979 121.007589 
L 167.627385 123.226103 
L 176.141558 125.669309 
L 184.923738 128.423721 
L 193.807732 131.442822 
L 202.959377 134.784505 
L 212.710132 138.586522 
L 222.754471 142.744517 
L 233.262021 147.337403 
L 244.103142 152.320664 
L 255.151385 157.645066 
L 266.162807 163.197906 
L 276.977779 168.898965 
L 287.498264 174.694933 
L 297.669035 180.551734 
L 307.463573 186.447204 
L 317.011534 192.453747 
L 326.333204 198.58021 
L 335.551217 204.90413 
L 344.7856 211.509607 
L 354.142306 218.478021 
L 363.705696 225.879485 
L 373.635408 233.847944 
L 384.103576 242.537332 
L 395.275562 252.104166 
L 407.395924 262.780671 
L 420.75657 274.851816 
L 435.650344 288.614012 
L 452.254958 304.265283 
L 470.287325 321.57078 
L 488.655627 339.505428 
L 506.009631 356.755754 
L 521.716029 372.676323 
L 535.845466 387.310119 
L 548.716694 400.957073 
L 560.65361 413.934674 
L 571.937885 426.529364 
L 577 432.291952 
M 577 432.291952 
L 566.008182 419.869158 
L 554.55973 407.267835 
L 542.422208 394.24178 
L 529.320471 380.511179 
L 514.948531 365.776291 
L 499.019275 349.768238 
L 481.512263 332.49347 
L 463.072187 314.610371 
L 445.067588 297.454627 
L 428.576929 282.041878 
L 413.870292 268.594149 
L 400.707888 256.853897 
L 388.779033 246.506347 
L 377.772114 237.247855 
L 367.435004 228.839372 
L 357.59708 221.119843 
L 348.059357 213.916431 
L 338.749969 207.161504 
L 329.506506 200.727014 
L 320.241686 194.546696 
L 310.799991 188.516119 
L 301.181501 182.636091 
L 291.19355 176.792935 
L 280.858138 171.007041 
L 270.222717 165.308639 
L 259.230822 159.673335 
L 248.122435 154.229169 
L 237.104873 149.076048 
L 226.270251 144.254457 
L 215.95677 139.904615 
L 206.067578 135.970255 
L 196.665461 132.461755 
L 187.414863 129.247168 
L 178.527684 126.394459 
L 169.842893 123.839992 
L 161.074021 121.501059 
L 152.314129 119.407228 
L 143.692167 117.579906 
L 134.703239 115.912695 
L 125.335768 114.418641 
L 115.585013 113.105606 
L 105.457508 111.975444 
L 94.97769 111.023814 
L 82.904319 110.158404 
L 70.208683 109.464702 
L 55.094216 108.861962 
L 36.417054 108.359495 
L 15.081597 108.00378 
L -1 107.835175 
L -1 107.835175 
" clip-path="url(#pce571a6c27)" style="fill: none; stroke: #008000; stroke-width: 2.5; stroke-linecap: square"/>
   </g>
   <g id="line2d_32">
    <path d="M 271.814626 487.208 
L 271.814626 43.956 
" clip-path="url(#pce571a6c27)" style="fill: none; stroke-dasharray: 2.96,1.28; stroke-dashoffset: 0; stroke: #808080; stroke-opacity: 0.6; stroke-width: 0.8"/>
   </g>
   <g id="line2d_33">
    <path d="M 239.869864 487.208 
L 239.869864 43.956 
" clip-path="url(#pce571a6c27)" style="fill: none; stroke-dasharray: 9.25,4; stroke-dashoffset: 0; stroke: #808080; stroke-width: 2.5"/>
   </g>
   <g id="patch_7">
    <path d="M 122.216483 487.208 
L 122.216483 43.956 
" style="fill: none; stroke: #000000; stroke-width: 0.8; stroke-linejoin: miter; stroke-linecap: square"/>
   </g>
   <g id="patch_8">
    <path d="M 122.216483 487.208 
L 543.6 487.208 
" style="fill: none; stroke: #000000; stroke-width: 0.8; stroke-linejoin: miter; stroke-linecap: square"/>
   </g>
  </g>
  <g id="axes_2">
   <g id="patch_9">
    <path d="M 122.216483 1011.008 
L 543.6 1011.008 
L 543.6 567.756 
L 122.216483 567.756 
z
" style="fill: #ffffff"/>
   </g>
   <g id="patch_10">
    <path d="M 122.216483 1011.008 
L 122.216483 567.756 
L 271.814626 567.756 
L 271.814626 1011.008 
z
" clip-path="url(#p295c4c20f3)" style="fill: #add8e6; opacity: 0.3; stroke: #add8e6; stroke-linejoin: miter"/>
   </g>
   <g id="patch_11">
    <path d="M 271.814626 1011.008 
L 271.814626 567.756 
L 543.6 567.756 
L 543.6 1011.008 
z
" clip-path="url(#p295c4c20f3)" style="fill: #90ee90; opacity: 0.3; stroke: #90ee90; stroke-linejoin: miter"/>
   </g>
   <g id="patch_12">
    <path d="M 122.216483 1011.008 
L 122.216483 567.756 
L 236.917077 567.756 
L 236.917077 1011.008 
z
" clip-path="url(#p295c4c20f3)" style="fill: #add8e6; opacity: 0.3; stroke: #add8e6; stroke-linejoin: miter"/>
   </g>
   <g id="patch_13">
    <path d="M 236.917077 1011.008 
L 236.917077 567.756 
L 543.6 567.756 
L 543.6 1011.008 
z
" clip-path="url(#p295c4c20f3)" style="fill: #90ee90; opacity: 0.3; stroke: #90ee90; stroke-linejoin: miter"/>
   </g>
   <g id="matplotlib.axis_3">
    <g id="xtick_21">
     <g id="line2d_34">
      <g>
       <use xlink:href="#m49515a153f" x="122.216483" y="1011.008" style="stroke: #000000; stroke-width: 0.8"/>
      </g>
     </g>
     <g id="text_10">
      <!-- $\mathdefault{10^{0}}$ -->
      <g transform="translate(95.816483 1040.803312)scale(0.3 -0.3)">
       <use xlink:href="#DejaVuSans-31" transform="translate(0 0.765625)"/>
       <use xlink:href="#DejaVuSans-30" transform="translate(63.623047 0.765625)"/>
       <use xlink:href="#DejaVuSans-30" transform="translate(128.203125 39.046875)scale(0.7)"/>
      </g>
     </g>
    </g>
    <g id="xtick_22">
     <g id="line2d_35">
      <g>
       <use xlink:href="#m49515a153f" x="305.344699" y="1011.008" style="stroke: #000000; stroke-width: 0.8"/>
      </g>
     </g>
     <g id="text_11">
      <!-- $\mathdefault{10^{1}}$ -->
      <g transform="translate(278.944699 1040.803312)scale(0.3 -0.3)">
       <use xlink:href="#DejaVuSans-31" transform="translate(0 0.684375)"/>
       <use xlink:href="#DejaVuSans-30" transform="translate(63.623047 0.684375)"/>
       <use xlink:href="#DejaVuSans-31" transform="translate(128.203125 38.965625)scale(0.7)"/>
      </g>
     </g>
    </g>
    <g id="xtick_23">
     <g id="line2d_36">
      <g>
       <use xlink:href="#m49515a153f" x="488.472914" y="1011.008" style="stroke: #000000; stroke-width: 0.8"/>
      </g>
     </g>
     <g id="text_12">
      <!-- $\mathdefault{10^{2}}$ -->
      <g transform="translate(462.072914 1040.803312)scale(0.3 -0.3)">
       <use xlink:href="#DejaVuSans-31" transform="translate(0 0.765625)"/>
       <use xlink:href="#DejaVuSans-30" transform="translate(63.623047 0.765625)"/>
       <use xlink:href="#DejaVuSans-32" transform="translate(128.203125 39.046875)scale(0.7)"/>
      </g>
     </g>
    </g>
    <g id="xtick_24">
     <g id="line2d_37">
      <g>
       <use xlink:href="#m96cfcc3542" x="177.343569" y="1011.008" style="stroke: #000000; stroke-width: 0.6"/>
      </g>
     </g>
    </g>
    <g id="xtick_25">
     <g id="line2d_38">
      <g>
       <use xlink:href="#m96cfcc3542" x="209.590847" y="1011.008" style="stroke: #000000; stroke-width: 0.6"/>
      </g>
     </g>
    </g>
    <g id="xtick_26">
     <g id="line2d_39">
      <g>
       <use xlink:href="#m96cfcc3542" x="232.470655" y="1011.008" style="stroke: #000000; stroke-width: 0.6"/>
      </g>
     </g>
    </g>
    <g id="xtick_27">
     <g id="line2d_40">
      <g>
       <use xlink:href="#m96cfcc3542" x="250.217613" y="1011.008" style="stroke: #000000; stroke-width: 0.6"/>
      </g>
     </g>
    </g>
    <g id="xtick_28">
     <g id="line2d_41">
      <g>
       <use xlink:href="#m96cfcc3542" x="264.717933" y="1011.008" style="stroke: #000000; stroke-width: 0.6"/>
      </g>
     </g>
    </g>
    <g id="xtick_29">
     <g id="line2d_42">
      <g>
       <use xlink:href="#m96cfcc3542" x="276.977779" y="1011.008" style="stroke: #000000; stroke-width: 0.6"/>
      </g>
     </g>
    </g>
    <g id="xtick_30">
     <g id="line2d_43">
      <g>
       <use xlink:href="#m96cfcc3542" x="287.597741" y="1011.008" style="stroke: #000000; stroke-width: 0.6"/>
      </g>
     </g>
    </g>
    <g id="xtick_31">
     <g id="line2d_44">
      <g>
       <use xlink:href="#m96cfcc3542" x="296.965211" y="1011.008" style="stroke: #000000; stroke-width: 0.6"/>
      </g>
     </g>
    </g>
    <g id="xtick_32">
     <g id="line2d_45">
      <g>
       <use xlink:href="#m96cfcc3542" x="360.471785" y="1011.008" style="stroke: #000000; stroke-width: 0.6"/>
      </g>
     </g>
    </g>
    <g id="xtick_33">
     <g id="line2d_46">
      <g>
       <use xlink:href="#m96cfcc3542" x="392.719063" y="1011.008" style="stroke: #000000; stroke-width: 0.6"/>
      </g>
     </g>
    </g>
    <g id="xtick_34">
     <g id="line2d_47">
      <g>
       <use xlink:href="#m96cfcc3542" x="415.598871" y="1011.008" style="stroke: #000000; stroke-width: 0.6"/>
      </g>
     </g>
    </g>
    <g id="xtick_35">
     <g id="line2d_48">
      <g>
       <use xlink:href="#m96cfcc3542" x="433.345828" y="1011.008" style="stroke: #000000; stroke-width: 0.6"/>
      </g>
     </g>
    </g>
    <g id="xtick_36">
     <g id="line2d_49">
      <g>
       <use xlink:href="#m96cfcc3542" x="447.846149" y="1011.008" style="stroke: #000000; stroke-width: 0.6"/>
      </g>
     </g>
    </g>
    <g id="xtick_37">
     <g id="line2d_50">
      <g>
       <use xlink:href="#m96cfcc3542" x="460.105995" y="1011.008" style="stroke: #000000; stroke-width: 0.6"/>
      </g>
     </g>
    </g>
    <g id="xtick_38">
     <g id="line2d_51">
      <g>
       <use xlink:href="#m96cfcc3542" x="470.725956" y="1011.008" style="stroke: #000000; stroke-width: 0.6"/>
      </g>
     </g>
    </g>
    <g id="xtick_39">
     <g id="line2d_52">
      <g>
       <use xlink:href="#m96cfcc3542" x="480.093427" y="1011.008" style="stroke: #000000; stroke-width: 0.6"/>
      </g>
     </g>
    </g>
    <g id="xtick_40">
     <g id="line2d_53">
      <g>
       <use xlink:href="#m96cfcc3542" x="543.6" y="1011.008" style="stroke: #000000; stroke-width: 0.6"/>
      </g>
     </g>
    </g>
   </g>
   <g id="matplotlib.axis_4">
    <g id="ytick_7">
     <g id="line2d_54">
      <g>
       <use xlink:href="#me712fe3861" x="122.216483" y="1011.008" style="stroke: #000000; stroke-width: 0.8"/>
      </g>
     </g>
     <g id="text_13">
      <!-- $\mathdefault{10^{-12}}$ -->
      <g transform="translate(31.516483 1022.405656)scale(0.3 -0.3)">
       <use xlink:href="#DejaVuSans-31" transform="translate(0 0.765625)"/>
       <use xlink:href="#DejaVuSans-30" transform="translate(63.623047 0.765625)"/>
       <use xlink:href="#DejaVuSans-2212" transform="translate(128.203125 39.046875)scale(0.7)"/>
       <use xlink:href="#DejaVuSans-31" transform="translate(186.855469 39.046875)scale(0.7)"/>
       <use xlink:href="#DejaVuSans-32" transform="translate(231.391602 39.046875)scale(0.7)"/>
      </g>
     </g>
    </g>
    <g id="ytick_8">
     <g id="line2d_55">
      <g>
       <use xlink:href="#me712fe3861" x="122.216483" y="922.3576" style="stroke: #000000; stroke-width: 0.8"/>
      </g>
     </g>
     <g id="text_14">
      <!-- $\mathdefault{10^{-10}}$ -->
      <g transform="translate(31.516483 933.755256)scale(0.3 -0.3)">
       <use xlink:href="#DejaVuSans-31" transform="translate(0 0.765625)"/>
       <use xlink:href="#DejaVuSans-30" transform="translate(63.623047 0.765625)"/>
       <use xlink:href="#DejaVuSans-2212" transform="translate(128.203125 39.046875)scale(0.7)"/>
       <use xlink:href="#DejaVuSans-31" transform="translate(186.855469 39.046875)scale(0.7)"/>
       <use xlink:href="#DejaVuSans-30" transform="translate(231.391602 39.046875)scale(0.7)"/>
      </g>
     </g>
    </g>
    <g id="ytick_9">
     <g id="line2d_56">
      <g>
       <use xlink:href="#me712fe3861" x="122.216483" y="833.7072" style="stroke: #000000; stroke-width: 0.8"/>
      </g>
     </g>
     <g id="text_15">
      <!-- $\mathdefault{10^{-8}}$ -->
      <g transform="translate(44.716483 845.104856)scale(0.3 -0.3)">
       <use xlink:href="#DejaVuSans-31" transform="translate(0 0.765625)"/>
       <use xlink:href="#DejaVuSans-30" transform="translate(63.623047 0.765625)"/>
       <use xlink:href="#DejaVuSans-2212" transform="translate(128.203125 39.046875)scale(0.7)"/>
       <use xlink:href="#DejaVuSans-38" transform="translate(186.855469 39.046875)scale(0.7)"/>
      </g>
     </g>
    </g>
    <g id="ytick_10">
     <g id="line2d_57">
      <g>
       <use xlink:href="#me712fe3861" x="122.216483" y="745.0568" style="stroke: #000000; stroke-width: 0.8"/>
      </g>
     </g>
     <g id="text_16">
      <!-- $\mathdefault{10^{-6}}$ -->
      <g transform="translate(44.716483 756.454456)scale(0.3 -0.3)">
       <use xlink:href="#DejaVuSans-31" transform="translate(0 0.765625)"/>
       <use xlink:href="#DejaVuSans-30" transform="translate(63.623047 0.765625)"/>
       <use xlink:href="#DejaVuSans-2212" transform="translate(128.203125 39.046875)scale(0.7)"/>
       <use xlink:href="#DejaVuSans-36" transform="translate(186.855469 39.046875)scale(0.7)"/>
      </g>
     </g>
    </g>
    <g id="ytick_11">
     <g id="line2d_58">
      <g>
       <use xlink:href="#me712fe3861" x="122.216483" y="656.4064" style="stroke: #000000; stroke-width: 0.8"/>
      </g>
     </g>
     <g id="text_17">
      <!-- $\mathdefault{10^{-4}}$ -->
      <g transform="translate(44.716483 667.804056)scale(0.3 -0.3)">
       <use xlink:href="#DejaVuSans-31" transform="translate(0 0.684375)"/>
       <use xlink:href="#DejaVuSans-30" transform="translate(63.623047 0.684375)"/>
       <use xlink:href="#DejaVuSans-2212" transform="translate(128.203125 38.965625)scale(0.7)"/>
       <use xlink:href="#DejaVuSans-34" transform="translate(186.855469 38.965625)scale(0.7)"/>
      </g>
     </g>
    </g>
    <g id="ytick_12">
     <g id="line2d_59">
      <g>
       <use xlink:href="#me712fe3861" x="122.216483" y="567.756" style="stroke: #000000; stroke-width: 0.8"/>
      </g>
     </g>
     <g id="text_18">
      <!-- $\mathdefault{10^{-2}}$ -->
      <g transform="translate(44.716483 579.153656)scale(0.3 -0.3)">
       <use xlink:href="#DejaVuSans-31" transform="translate(0 0.765625)"/>
       <use xlink:href="#DejaVuSans-30" transform="translate(63.623047 0.765625)"/>
       <use xlink:href="#DejaVuSans-2212" transform="translate(128.203125 39.046875)scale(0.7)"/>
       <use xlink:href="#DejaVuSans-32" transform="translate(186.855469 39.046875)scale(0.7)"/>
      </g>
     </g>
    </g>
   </g>
   <g id="line2d_60">
    <path d="M -1 616.139721 
L 36.417054 616.412296 
L 63.84276 616.82482 
L 86.722568 617.396461 
L 108.349884 618.169886 
L 147.832291 619.677923 
L 157.071588 619.748652 
L 164.418183 619.596113 
L 171.143165 619.240144 
L 177.740236 618.666355 
L 194.130376 617.075776 
L 196.665461 617.141737 
L 198.819252 617.387747 
L 200.916252 617.848111 
L 202.670696 618.437651 
L 204.387271 619.223214 
L 206.067578 620.213514 
L 207.984094 621.629158 
L 209.855512 623.314756 
L 211.683904 625.247734 
L 213.723287 627.718858 
L 215.95677 630.766457 
L 218.604056 634.762252 
L 221.850693 640.082974 
L 226.484911 648.145361 
L 239.869864 671.65985 
L 245.127168 680.345748 
L 250.05839 688.066406 
L 254.70163 694.924686 
L 259.230822 701.213371 
L 263.650379 706.962837 
L 267.964571 712.210932 
L 272.298102 717.133514 
L 276.750221 721.849271 
L 281.289789 726.33344 
L 286.092367 730.764334 
L 291.288513 735.253002 
L 297.141752 740.007151 
L 303.981038 745.26671 
L 312.997136 751.901611 
L 347.733312 777.197356 
L 358.417424 785.403991 
L 368.879103 793.721334 
L 379.543773 802.486501 
L 390.705498 811.95159 
L 402.626687 822.356364 
L 415.638626 834.013851 
L 430.032887 847.21441 
L 446.090473 862.248178 
L 463.737089 879.078566 
L 482.169267 896.965655 
L 500.00915 914.583872 
L 516.321991 931.001047 
L 530.982786 946.065901 
L 544.261331 960.024961 
L 556.496949 973.207118 
L 567.984536 985.908087 
L 577 996.12159 
M 577 996.12159 
L 566.008182 983.698794 
L 554.55973 971.097466 
L 542.422208 958.071403 
L 529.320471 944.340785 
L 514.948531 929.60586 
L 499.019275 913.597724 
L 481.503582 896.31425 
L 463.050293 878.418043 
L 445.012663 861.230167 
L 428.475529 845.772596 
L 413.687204 832.247572 
L 400.419642 820.408842 
L 388.30405 809.891379 
L 377.032878 800.397483 
L 366.297509 791.642686 
L 355.804156 783.370314 
L 345.12393 775.234988 
L 333.456709 766.634196 
L 298.885935 741.374223 
L 292.606226 736.348308 
L 287.199086 731.744908 
L 282.252523 727.245954 
L 277.656574 722.769555 
L 273.256325 718.17677 
L 268.976115 713.390607 
L 264.717933 708.294631 
L 260.498845 702.902041 
L 256.191028 697.036872 
L 251.792547 690.675746 
L 247.136494 683.544185 
L 242.190816 675.548466 
L 236.728837 666.275938 
L 229.63717 653.756935 
L 221.850693 640.082974 
L 218.367002 634.390008 
L 215.465833 630.068669 
L 213.218323 627.077622 
L 211.165781 624.671926 
L 209.058862 622.560501 
L 207.168379 620.988487 
L 205.231862 619.692505 
L 203.533614 618.805222 
L 201.798311 618.119185 
L 199.724745 617.556786 
L 197.595666 617.223214 
L 195.090527 617.076957 
L 192.174583 617.144319 
L 188.112513 617.487397 
L 169.842893 619.326861 
L 163.002153 619.643172 
L 155.517175 619.754502 
L 146.671225 619.653655 
L 134.703239 619.276695 
L 76.102606 617.10072 
L 53.222798 616.635515 
L 26.462632 616.315013 
L -1 616.139721 
L -1 616.139721 
" clip-path="url(#p295c4c20f3)" style="fill: none; stroke: #000000; stroke-opacity: 0.6; stroke-width: 0.8; stroke-linecap: square"/>
   </g>
   <g id="line2d_61">
    <path d="M -1 671.664819 
L 26.462632 672.000226 
L 47.328875 672.455386 
L 63.84276 673.01466 
L 78.893474 673.747311 
L 91.54414 674.584152 
L 102.455961 675.511365 
L 112.948366 676.619311 
L 123.007849 677.913279 
L 132.637367 679.392127 
L 141.849654 681.048406 
L 150.662895 682.869162 
L 159.097979 684.837233 
L 167.627385 687.055748 
L 176.141558 689.498954 
L 184.923738 692.253366 
L 193.807732 695.272466 
L 202.959377 698.614149 
L 212.710132 702.416167 
L 222.754471 706.574161 
L 233.262021 711.167048 
L 244.103142 716.150309 
L 255.151385 721.47471 
L 266.162807 727.027551 
L 276.977779 732.728609 
L 287.498264 738.524578 
L 297.669035 744.381378 
L 307.463573 750.276848 
L 317.011534 756.283392 
L 326.333204 762.409854 
L 335.551217 768.733774 
L 344.7856 775.339251 
L 354.142306 782.307665 
L 363.705696 789.709129 
L 373.635408 797.677588 
L 384.103576 806.366976 
L 395.275562 815.93381 
L 407.395924 826.610316 
L 420.75657 838.68146 
L 435.650344 852.443656 
L 452.254958 868.094927 
L 470.287325 885.400425 
L 488.655627 903.335072 
L 506.009631 920.585398 
L 521.716029 936.505967 
L 535.845466 951.139764 
L 548.716694 964.786717 
L 560.65361 977.764318 
L 571.937885 990.359009 
L 577 996.121596 
M 577 996.121596 
L 566.008182 983.698802 
L 554.55973 971.097479 
L 542.422208 958.071424 
L 529.320471 944.340823 
L 514.948531 929.605935 
L 499.019275 913.597883 
L 481.512263 896.323114 
L 463.072187 878.440016 
L 445.067588 861.284272 
L 428.576929 845.871522 
L 413.870292 832.423793 
L 400.707888 820.683541 
L 388.779033 810.335991 
L 377.772114 801.077499 
L 367.435004 792.669017 
L 357.59708 784.949488 
L 348.059357 777.746075 
L 338.749969 770.991148 
L 329.506506 764.556658 
L 320.241686 758.37634 
L 310.799991 752.345763 
L 301.181501 746.465735 
L 291.19355 740.622579 
L 280.858138 734.836685 
L 270.222717 729.138283 
L 259.230822 723.502979 
L 248.122435 718.058813 
L 237.104873 712.905693 
L 226.270251 708.084101 
L 215.95677 703.734259 
L 206.067578 699.7999 
L 196.665461 696.2914 
L 187.414863 693.076812 
L 178.527684 690.224103 
L 169.842893 687.669636 
L 161.074021 685.330704 
L 152.314129 683.236872 
L 143.692167 681.409551 
L 134.703239 679.742339 
L 125.335768 678.248286 
L 115.585013 676.935251 
L 105.457508 675.805088 
L 94.97769 674.853458 
L 82.904319 673.988048 
L 70.208683 673.294346 
L 55.094216 672.691606 
L 36.417054 672.189139 
L 15.081597 671.833424 
L -1 671.664819 
L -1 671.664819 
" clip-path="url(#p295c4c20f3)" style="fill: none; stroke: #008000; stroke-width: 2.5; stroke-linecap: square"/>
   </g>
   <g id="line2d_62">
    <path d="M -1 617.246824 
L 38.722478 617.529039 
L 67.089398 617.955937 
L 90.365872 618.534896 
L 113.836996 619.350774 
L 142.46858 620.3445 
L 152.857008 620.466546 
L 161.074021 620.340021 
L 168.075452 620.009496 
L 174.510084 619.4876 
L 181.601751 618.681188 
L 191.511816 617.535631 
L 194.771763 617.401914 
L 197.286805 617.507309 
L 199.424058 617.803184 
L 201.505377 618.327051 
L 203.247014 618.980528 
L 204.951327 619.836985 
L 206.619883 620.903001 
L 208.523293 622.410027 
L 210.382213 624.187092 
L 212.454814 626.51597 
L 214.723697 629.455316 
L 217.171016 633.023781 
L 220.011731 637.581626 
L 223.648094 643.878067 
L 228.808708 653.307462 
L 247.466501 687.738429 
L 256.191028 703.189679 
L 265.771347 719.692278 
L 277.543843 739.505311 
L 295.71833 769.595365 
L 321.289893 811.995559 
L 336.201342 837.173275 
L 349.806363 860.58134 
L 363.130905 883.951419 
L 376.806522 908.391549 
L 391.328428 934.807026 
L 407.351825 964.426127 
L 425.757706 998.930791 
L 448.137231 1041.377202 
L 468.864731 1081 
M 468.864731 1081 
L 438.503528 1023.052253 
L 416.547569 981.609435 
L 398.544787 948.090815 
L 382.85296 919.335535 
L 368.520529 893.529835 
L 354.956264 869.560998 
L 341.573264 846.362596 
L 327.725874 822.807113 
L 312.125548 796.721214 
L 262.840203 714.686995 
L 253.336898 698.184453 
L 244.787289 682.899093 
L 235.971387 666.671357 
L 222.97882 642.68986 
L 219.311008 636.42223 
L 216.444695 631.925978 
L 213.974572 628.442528 
L 211.683904 625.608158 
L 209.590847 623.393816 
L 207.713118 621.729997 
L 205.789981 620.343673 
L 204.103736 619.382804 
L 202.380963 618.629103 
L 200.620044 618.072509 
L 198.515116 617.650472 
L 196.352959 617.441476 
L 193.807732 617.415314 
L 190.507193 617.618537 
L 185.284426 618.210532 
L 174.096932 619.527607 
L 167.627385 620.03779 
L 161.074021 620.340021 
L 153.396208 620.465373 
L 144.296972 620.382797 
L 131.936644 620.034718 
L 73.21023 618.085473 
L 49.34244 617.659414 
L 20.97552 617.370375 
L -1 617.246824 
L -1 617.246824 
" clip-path="url(#p295c4c20f3)" style="fill: none; stroke: #0000ff; stroke-opacity: 0.6; stroke-width: 0.8; stroke-linecap: square"/>
   </g>
   <g id="line2d_63">
    <path d="M -1 652.526981 
L 31.595482 652.817439 
L 56.922608 653.259355 
L 76.102606 653.804117 
L 93.849564 654.535042 
L 110.221302 655.441419 
L 127.597482 656.637414 
L 156.556818 658.679739 
L 165.348388 659.036806 
L 172.422521 659.113415 
L 179.307412 658.969607 
L 194.130376 658.516094 
L 196.97674 658.725819 
L 199.424058 659.127036 
L 201.505377 659.684851 
L 203.533614 660.464166 
L 205.511411 661.482272 
L 207.441214 662.743996 
L 209.325299 664.240669 
L 211.425265 666.211213 
L 213.723287 668.702794 
L 216.444695 672.02979 
L 219.778842 676.494247 
L 233.064916 694.700346 
L 236.728837 699.150668 
L 240.411512 703.266873 
L 244.103142 707.045374 
L 247.795144 710.507463 
L 251.792547 713.946528 
L 256.043337 717.311416 
L 260.917067 720.878922 
L 266.552351 724.720831 
L 273.612703 729.254347 
L 284.247479 735.787932 
L 306.763536 749.578987 
L 317.627265 756.529879 
L 327.545599 763.137325 
L 337.11335 769.778052 
L 346.557831 776.6048 
L 356.056771 783.74676 
L 365.77842 791.336865 
L 375.86184 799.494406 
L 386.489993 808.382031 
L 397.876763 818.198219 
L 410.274915 829.185319 
L 423.970405 841.625391 
L 439.2602 855.82048 
L 456.253467 871.905881 
L 474.492617 889.478973 
L 492.731096 907.357755 
L 509.729736 924.327277 
L 525.058744 939.9388 
L 538.873313 954.320729 
L 551.504861 967.788456 
L 563.270442 980.655354 
L 574.443153 993.20191 
L 577 996.121595 
M 577 996.121595 
L 566.008182 983.698801 
L 554.55973 971.097478 
L 542.422208 958.071422 
L 529.320471 944.340819 
L 514.948531 929.605927 
L 499.019275 913.597866 
L 481.512263 896.323077 
L 463.072187 878.439923 
L 445.05386 861.271086 
L 428.560038 845.855384 
L 413.84997 832.40435 
L 400.683907 820.660336 
L 388.7233 810.28452 
L 377.676081 800.991305 
L 367.289142 792.541036 
L 357.390666 784.771614 
L 347.779972 777.508214 
L 338.278281 770.605341 
L 328.739789 763.951441 
L 318.978726 757.414574 
L 308.616782 750.745947 
L 296.699663 743.35013 
L 268.091719 725.730868 
L 261.884448 721.557194 
L 256.779065 717.867879 
L 252.259009 714.329352 
L 248.285577 710.945665 
L 244.445952 707.379592 
L 240.770571 703.649276 
L 237.292227 699.80359 
L 233.65477 695.440324 
L 229.842944 690.510277 
L 225.188172 684.102082 
L 216.929645 672.657212 
L 213.974572 668.994345 
L 211.683904 666.474944 
L 209.590847 664.472562 
L 207.713118 662.943789 
L 205.789981 661.647659 
L 203.819186 660.594734 
L 201.798311 659.782097 
L 199.724745 659.194103 
L 197.286805 658.763723 
L 194.451716 658.528959 
L 191.17835 658.490398 
L 185.643486 658.689414 
L 175.330004 659.07899 
L 168.521008 659.098054 
L 161.074021 658.893663 
L 151.767518 658.399099 
L 137.376821 657.373768 
L 111.140752 655.499125 
L 94.97769 654.590093 
L 78.893474 653.903136 
L 60.457927 653.343666 
L 38.722478 652.916992 
L 11.962312 652.616101 
L -1 652.526981 
L -1 652.526981 
" clip-path="url(#p295c4c20f3)" style="fill: none; stroke: #000000; stroke-width: 2.5; stroke-linecap: square"/>
   </g>
   <g id="line2d_64">
    <path d="M -1 661.422254 
L 38.722478 661.704469 
L 67.089398 662.131367 
L 90.365872 662.710325 
L 113.836996 663.526204 
L 142.46858 664.51993 
L 152.857008 664.641976 
L 161.074021 664.515451 
L 168.075452 664.184926 
L 174.510084 663.66303 
L 181.601751 662.856617 
L 191.511816 661.711061 
L 194.771763 661.577344 
L 197.286805 661.682739 
L 199.424058 661.978614 
L 201.505377 662.502481 
L 203.247014 663.155958 
L 204.951327 664.012415 
L 206.619883 665.078431 
L 208.523293 666.585457 
L 210.382213 668.362522 
L 212.454814 670.6914 
L 214.723697 673.630746 
L 217.171016 677.199211 
L 220.011731 681.757056 
L 223.648094 688.053497 
L 228.808708 697.482892 
L 247.466501 731.913859 
L 256.191028 747.365109 
L 265.771347 763.867708 
L 277.543843 783.680741 
L 295.71833 813.770795 
L 321.289893 856.170989 
L 336.201342 881.348705 
L 349.806363 904.75677 
L 363.130905 928.126849 
L 376.806522 952.566979 
L 391.328428 978.982456 
L 407.351825 1008.601556 
L 425.757706 1043.106221 
L 445.747223 1081 
M 445.747223 1081 
L 422.142012 1036.294157 
L 403.256136 1000.988973 
L 387.032873 971.122757 
L 372.412867 944.66643 
L 358.702556 920.310537 
L 345.316617 896.982229 
L 331.649096 873.613241 
L 316.736338 848.565782 
L 296.699663 815.389764 
L 272.898343 775.909358 
L 261.471296 756.512485 
L 252.103826 740.183073 
L 243.586142 724.890098 
L 234.434498 707.980707 
L 223.425628 687.657324 
L 219.545269 680.982941 
L 216.68754 676.465031 
L 214.225065 672.952148 
L 211.941705 670.081797 
L 209.855512 667.82852 
L 207.984094 666.126483 
L 206.067578 664.699704 
L 204.387271 663.703821 
L 202.670696 662.916107 
L 200.916252 662.327637 
L 198.819252 661.872312 
L 196.665461 661.635116 
L 194.130376 661.583443 
L 190.843479 661.764543 
L 186.000931 662.29561 
L 173.681622 663.742371 
L 167.17678 664.240643 
L 160.584594 664.530194 
L 152.857008 664.641976 
L 143.692167 664.546215 
L 130.5164 664.160289 
L 77.510281 662.361289 
L 55.094216 661.919163 
L 26.462632 661.588109 
L -1 661.422254 
L -1 661.422254 
" clip-path="url(#p295c4c20f3)" style="fill: none; stroke: #0000ff; stroke-width: 2.5; stroke-linecap: square"/>
   </g>
   <g id="line2d_65">
    <path d="M 271.814626 1011.008 
L 271.814626 567.756 
" clip-path="url(#p295c4c20f3)" style="fill: none; stroke-dasharray: 2.96,1.28; stroke-dashoffset: 0; stroke: #808080; stroke-opacity: 0.6; stroke-width: 0.8"/>
   </g>
   <g id="line2d_66">
    <path d="M 236.917077 1011.008 
L 236.917077 567.756 
" clip-path="url(#p295c4c20f3)" style="fill: none; stroke-dasharray: 9.25,4; stroke-dashoffset: 0; stroke: #808080; stroke-width: 2.5"/>
   </g>
   <g id="patch_14">
    <path d="M 122.216483 1011.008 
L 122.216483 567.756 
" style="fill: none; stroke: #000000; stroke-width: 0.8; stroke-linejoin: miter; stroke-linecap: square"/>
   </g>
   <g id="patch_15">
    <path d="M 122.216483 1011.008 
L 543.6 1011.008 
" style="fill: none; stroke: #000000; stroke-width: 0.8; stroke-linejoin: miter; stroke-linecap: square"/>
   </g>
  </g>
 </g>
 <defs>
  <clipPath id="pce571a6c27">
   <rect x="122.216483" y="43.956" width="421.383517" height="443.252"/>
  </clipPath>
  <clipPath id="p295c4c20f3">
   <rect x="122.216483" y="567.756" width="421.383517" height="443.252"/>
  </clipPath>
 </defs>
</svg>
