<?xml version="1.0" encoding="utf-8" standalone="no"?>
<!DOCTYPE svg PUBLIC "-//W3C//DTD SVG 1.1//EN"
  "http://www.w3.org/Graphics/SVG/1.1/DTD/svg11.dtd">
<svg xmlns:xlink="http://www.w3.org/1999/xlink" width="720pt" height="432pt" viewBox="0 0 720 432" xmlns="http://www.w3.org/2000/svg" version="1.1">
 <metadata>
  <rdf:RDF xmlns:dc="http://purl.org/dc/elements/1.1/" xmlns:cc="http://creativecommons.org/ns#" xmlns:rdf="http://www.w3.org/1999/02/22-rdf-syntax-ns#">
   <cc:Work>
    <dc:type rdf:resource="http://purl.org/dc/dcmitype/StillImage"/>
    <dc:date>2024-06-05T20:16:49.742908</dc:date>
    <dc:format>image/svg+xml</dc:format>
    <dc:creator>
     <cc:Agent>
      <dc:title>Matplotlib v3.8.4, https://matplotlib.org/</dc:title>
     </cc:Agent>
    </dc:creator>
   </cc:Work>
  </rdf:RDF>
 </metadata>
 <defs>
  <style type="text/css">*{stroke-linejoin: round; stroke-linecap: butt}</style>
 </defs>
 <g id="figure_1">
  <g id="patch_1">
   <path d="M 0 432 
L 720 432 
L 720 0 
L 0 0 
z
" style="fill: #ffffff"/>
  </g>
  <g id="axes_1">
   <g id="patch_2">
    <path d="M 10.8 210.6 
L 709.2 210.6 
L 709.2 10.8 
L 10.8 10.8 
z
" style="fill: #ffffff"/>
   </g>
   <g id="matplotlib.axis_1"/>
   <g id="matplotlib.axis_2"/>
   <g id="EventCollection_1">
    <path d="M 11.249251 65.290909 
L 11.249251 156.109091 
" clip-path="url(#pe8e3033d24)" style="fill: none; stroke: #0000ff; stroke-width: 1.5"/>
    <path d="M 23.17133 65.290909 
L 23.17133 156.109091 
" clip-path="url(#pe8e3033d24)" style="fill: none; stroke: #0000ff; stroke-width: 1.5"/>
    <path d="M 23.684209 65.290909 
L 23.684209 156.109091 
" clip-path="url(#pe8e3033d24)" style="fill: none; stroke: #0000ff; stroke-width: 1.5"/>
    <path d="M 28.454594 65.290909 
L 28.454594 156.109091 
" clip-path="url(#pe8e3033d24)" style="fill: none; stroke: #0000ff; stroke-width: 1.5"/>
    <path d="M 36.252415 65.290909 
L 36.252415 156.109091 
" clip-path="url(#pe8e3033d24)" style="fill: none; stroke: #0000ff; stroke-width: 1.5"/>
    <path d="M 39.867402 65.290909 
L 39.867402 156.109091 
" clip-path="url(#pe8e3033d24)" style="fill: none; stroke: #0000ff; stroke-width: 1.5"/>
    <path d="M 50.236832 65.290909 
L 50.236832 156.109091 
" clip-path="url(#pe8e3033d24)" style="fill: none; stroke: #0000ff; stroke-width: 1.5"/>
    <path d="M 51.841342 65.290909 
L 51.841342 156.109091 
" clip-path="url(#pe8e3033d24)" style="fill: none; stroke: #0000ff; stroke-width: 1.5"/>
    <path d="M 52.602403 65.290909 
L 52.602403 156.109091 
" clip-path="url(#pe8e3033d24)" style="fill: none; stroke: #0000ff; stroke-width: 1.5"/>
    <path d="M 53.439511 65.290909 
L 53.439511 156.109091 
" clip-path="url(#pe8e3033d24)" style="fill: none; stroke: #0000ff; stroke-width: 1.5"/>
    <path d="M 54.156439 65.290909 
L 54.156439 156.109091 
" clip-path="url(#pe8e3033d24)" style="fill: none; stroke: #0000ff; stroke-width: 1.5"/>
    <path d="M 57.767173 65.290909 
L 57.767173 156.109091 
" clip-path="url(#pe8e3033d24)" style="fill: none; stroke: #0000ff; stroke-width: 1.5"/>
    <path d="M 59.140474 65.290909 
L 59.140474 156.109091 
" clip-path="url(#pe8e3033d24)" style="fill: none; stroke: #0000ff; stroke-width: 1.5"/>
    <path d="M 60.281126 65.290909 
L 60.281126 156.109091 
" clip-path="url(#pe8e3033d24)" style="fill: none; stroke: #0000ff; stroke-width: 1.5"/>
    <path d="M 60.41489 65.290909 
L 60.41489 156.109091 
" clip-path="url(#pe8e3033d24)" style="fill: none; stroke: #0000ff; stroke-width: 1.5"/>
    <path d="M 63.569231 65.290909 
L 63.569231 156.109091 
" clip-path="url(#pe8e3033d24)" style="fill: none; stroke: #0000ff; stroke-width: 1.5"/>
    <path d="M 65.86569 65.290909 
L 65.86569 156.109091 
" clip-path="url(#pe8e3033d24)" style="fill: none; stroke: #0000ff; stroke-width: 1.5"/>
    <path d="M 67.766238 65.290909 
L 67.766238 156.109091 
" clip-path="url(#pe8e3033d24)" style="fill: none; stroke: #0000ff; stroke-width: 1.5"/>
    <path d="M 68.169355 65.290909 
L 68.169355 156.109091 
" clip-path="url(#pe8e3033d24)" style="fill: none; stroke: #0000ff; stroke-width: 1.5"/>
    <path d="M 69.168538 65.290909 
L 69.168538 156.109091 
" clip-path="url(#pe8e3033d24)" style="fill: none; stroke: #0000ff; stroke-width: 1.5"/>
    <path d="M 71.332025 65.290909 
L 71.332025 156.109091 
" clip-path="url(#pe8e3033d24)" style="fill: none; stroke: #0000ff; stroke-width: 1.5"/>
    <path d="M 73.361155 65.290909 
L 73.361155 156.109091 
" clip-path="url(#pe8e3033d24)" style="fill: none; stroke: #0000ff; stroke-width: 1.5"/>
    <path d="M 77.001331 65.290909 
L 77.001331 156.109091 
" clip-path="url(#pe8e3033d24)" style="fill: none; stroke: #0000ff; stroke-width: 1.5"/>
    <path d="M 78.123675 65.290909 
L 78.123675 156.109091 
" clip-path="url(#pe8e3033d24)" style="fill: none; stroke: #0000ff; stroke-width: 1.5"/>
    <path d="M 80.188973 65.290909 
L 80.188973 156.109091 
" clip-path="url(#pe8e3033d24)" style="fill: none; stroke: #0000ff; stroke-width: 1.5"/>
    <path d="M 80.4235 65.290909 
L 80.4235 156.109091 
" clip-path="url(#pe8e3033d24)" style="fill: none; stroke: #0000ff; stroke-width: 1.5"/>
    <path d="M 88.293164 65.290909 
L 88.293164 156.109091 
" clip-path="url(#pe8e3033d24)" style="fill: none; stroke: #0000ff; stroke-width: 1.5"/>
    <path d="M 91.141672 65.290909 
L 91.141672 156.109091 
" clip-path="url(#pe8e3033d24)" style="fill: none; stroke: #0000ff; stroke-width: 1.5"/>
    <path d="M 101.34426 65.290909 
L 101.34426 156.109091 
" clip-path="url(#pe8e3033d24)" style="fill: none; stroke: #0000ff; stroke-width: 1.5"/>
    <path d="M 103.583872 65.290909 
L 103.583872 156.109091 
" clip-path="url(#pe8e3033d24)" style="fill: none; stroke: #0000ff; stroke-width: 1.5"/>
    <path d="M 103.951253 65.290909 
L 103.951253 156.109091 
" clip-path="url(#pe8e3033d24)" style="fill: none; stroke: #0000ff; stroke-width: 1.5"/>
    <path d="M 111.486489 65.290909 
L 111.486489 156.109091 
" clip-path="url(#pe8e3033d24)" style="fill: none; stroke: #0000ff; stroke-width: 1.5"/>
    <path d="M 114.583548 65.290909 
L 114.583548 156.109091 
" clip-path="url(#pe8e3033d24)" style="fill: none; stroke: #0000ff; stroke-width: 1.5"/>
    <path d="M 175.506321 65.290909 
L 175.506321 156.109091 
" clip-path="url(#pe8e3033d24)" style="fill: none; stroke: #0000ff; stroke-width: 1.5"/>
    <path d="M 183.390082 65.290909 
L 183.390082 156.109091 
" clip-path="url(#pe8e3033d24)" style="fill: none; stroke: #0000ff; stroke-width: 1.5"/>
    <path d="M 187.322928 65.290909 
L 187.322928 156.109091 
" clip-path="url(#pe8e3033d24)" style="fill: none; stroke: #0000ff; stroke-width: 1.5"/>
    <path d="M 191.657268 65.290909 
L 191.657268 156.109091 
" clip-path="url(#pe8e3033d24)" style="fill: none; stroke: #0000ff; stroke-width: 1.5"/>
    <path d="M 191.831625 65.290909 
L 191.831625 156.109091 
" clip-path="url(#pe8e3033d24)" style="fill: none; stroke: #0000ff; stroke-width: 1.5"/>
    <path d="M 196.664092 65.290909 
L 196.664092 156.109091 
" clip-path="url(#pe8e3033d24)" style="fill: none; stroke: #0000ff; stroke-width: 1.5"/>
    <path d="M 197.476894 65.290909 
L 197.476894 156.109091 
" clip-path="url(#pe8e3033d24)" style="fill: none; stroke: #0000ff; stroke-width: 1.5"/>
    <path d="M 197.50316 65.290909 
L 197.50316 156.109091 
" clip-path="url(#pe8e3033d24)" style="fill: none; stroke: #0000ff; stroke-width: 1.5"/>
    <path d="M 202.26776 65.290909 
L 202.26776 156.109091 
" clip-path="url(#pe8e3033d24)" style="fill: none; stroke: #0000ff; stroke-width: 1.5"/>
    <path d="M 203.99605 65.290909 
L 203.99605 156.109091 
" clip-path="url(#pe8e3033d24)" style="fill: none; stroke: #0000ff; stroke-width: 1.5"/>
    <path d="M 205.625575 65.290909 
L 205.625575 156.109091 
" clip-path="url(#pe8e3033d24)" style="fill: none; stroke: #0000ff; stroke-width: 1.5"/>
    <path d="M 205.764973 65.290909 
L 205.764973 156.109091 
" clip-path="url(#pe8e3033d24)" style="fill: none; stroke: #0000ff; stroke-width: 1.5"/>
    <path d="M 206.01088 65.290909 
L 206.01088 156.109091 
" clip-path="url(#pe8e3033d24)" style="fill: none; stroke: #0000ff; stroke-width: 1.5"/>
    <path d="M 206.591446 65.290909 
L 206.591446 156.109091 
" clip-path="url(#pe8e3033d24)" style="fill: none; stroke: #0000ff; stroke-width: 1.5"/>
    <path d="M 209.620682 65.290909 
L 209.620682 156.109091 
" clip-path="url(#pe8e3033d24)" style="fill: none; stroke: #0000ff; stroke-width: 1.5"/>
    <path d="M 209.777699 65.290909 
L 209.777699 156.109091 
" clip-path="url(#pe8e3033d24)" style="fill: none; stroke: #0000ff; stroke-width: 1.5"/>
    <path d="M 213.831716 65.290909 
L 213.831716 156.109091 
" clip-path="url(#pe8e3033d24)" style="fill: none; stroke: #0000ff; stroke-width: 1.5"/>
    <path d="M 214.095583 65.290909 
L 214.095583 156.109091 
" clip-path="url(#pe8e3033d24)" style="fill: none; stroke: #0000ff; stroke-width: 1.5"/>
    <path d="M 215.11571 65.290909 
L 215.11571 156.109091 
" clip-path="url(#pe8e3033d24)" style="fill: none; stroke: #0000ff; stroke-width: 1.5"/>
    <path d="M 215.346743 65.290909 
L 215.346743 156.109091 
" clip-path="url(#pe8e3033d24)" style="fill: none; stroke: #0000ff; stroke-width: 1.5"/>
    <path d="M 216.636927 65.290909 
L 216.636927 156.109091 
" clip-path="url(#pe8e3033d24)" style="fill: none; stroke: #0000ff; stroke-width: 1.5"/>
    <path d="M 217.261499 65.290909 
L 217.261499 156.109091 
" clip-path="url(#pe8e3033d24)" style="fill: none; stroke: #0000ff; stroke-width: 1.5"/>
    <path d="M 217.610217 65.290909 
L 217.610217 156.109091 
" clip-path="url(#pe8e3033d24)" style="fill: none; stroke: #0000ff; stroke-width: 1.5"/>
    <path d="M 221.903396 65.290909 
L 221.903396 156.109091 
" clip-path="url(#pe8e3033d24)" style="fill: none; stroke: #0000ff; stroke-width: 1.5"/>
    <path d="M 222.279814 65.290909 
L 222.279814 156.109091 
" clip-path="url(#pe8e3033d24)" style="fill: none; stroke: #0000ff; stroke-width: 1.5"/>
    <path d="M 224.546545 65.290909 
L 224.546545 156.109091 
" clip-path="url(#pe8e3033d24)" style="fill: none; stroke: #0000ff; stroke-width: 1.5"/>
    <path d="M 225.226509 65.290909 
L 225.226509 156.109091 
" clip-path="url(#pe8e3033d24)" style="fill: none; stroke: #0000ff; stroke-width: 1.5"/>
    <path d="M 225.634444 65.290909 
L 225.634444 156.109091 
" clip-path="url(#pe8e3033d24)" style="fill: none; stroke: #0000ff; stroke-width: 1.5"/>
    <path d="M 227.418817 65.290909 
L 227.418817 156.109091 
" clip-path="url(#pe8e3033d24)" style="fill: none; stroke: #0000ff; stroke-width: 1.5"/>
    <path d="M 228.088667 65.290909 
L 228.088667 156.109091 
" clip-path="url(#pe8e3033d24)" style="fill: none; stroke: #0000ff; stroke-width: 1.5"/>
    <path d="M 230.471419 65.290909 
L 230.471419 156.109091 
" clip-path="url(#pe8e3033d24)" style="fill: none; stroke: #0000ff; stroke-width: 1.5"/>
    <path d="M 232.995808 65.290909 
L 232.995808 156.109091 
" clip-path="url(#pe8e3033d24)" style="fill: none; stroke: #0000ff; stroke-width: 1.5"/>
    <path d="M 234.150274 65.290909 
L 234.150274 156.109091 
" clip-path="url(#pe8e3033d24)" style="fill: none; stroke: #0000ff; stroke-width: 1.5"/>
    <path d="M 234.256424 65.290909 
L 234.256424 156.109091 
" clip-path="url(#pe8e3033d24)" style="fill: none; stroke: #0000ff; stroke-width: 1.5"/>
    <path d="M 235.294694 65.290909 
L 235.294694 156.109091 
" clip-path="url(#pe8e3033d24)" style="fill: none; stroke: #0000ff; stroke-width: 1.5"/>
    <path d="M 237.460198 65.290909 
L 237.460198 156.109091 
" clip-path="url(#pe8e3033d24)" style="fill: none; stroke: #0000ff; stroke-width: 1.5"/>
    <path d="M 240.130862 65.290909 
L 240.130862 156.109091 
" clip-path="url(#pe8e3033d24)" style="fill: none; stroke: #0000ff; stroke-width: 1.5"/>
    <path d="M 240.33857 65.290909 
L 240.33857 156.109091 
" clip-path="url(#pe8e3033d24)" style="fill: none; stroke: #0000ff; stroke-width: 1.5"/>
    <path d="M 243.405156 65.290909 
L 243.405156 156.109091 
" clip-path="url(#pe8e3033d24)" style="fill: none; stroke: #0000ff; stroke-width: 1.5"/>
    <path d="M 243.760637 65.290909 
L 243.760637 156.109091 
" clip-path="url(#pe8e3033d24)" style="fill: none; stroke: #0000ff; stroke-width: 1.5"/>
    <path d="M 256.52678 65.290909 
L 256.52678 156.109091 
" clip-path="url(#pe8e3033d24)" style="fill: none; stroke: #0000ff; stroke-width: 1.5"/>
    <path d="M 256.877969 65.290909 
L 256.877969 156.109091 
" clip-path="url(#pe8e3033d24)" style="fill: none; stroke: #0000ff; stroke-width: 1.5"/>
    <path d="M 258.285835 65.290909 
L 258.285835 156.109091 
" clip-path="url(#pe8e3033d24)" style="fill: none; stroke: #0000ff; stroke-width: 1.5"/>
    <path d="M 263.486791 65.290909 
L 263.486791 156.109091 
" clip-path="url(#pe8e3033d24)" style="fill: none; stroke: #0000ff; stroke-width: 1.5"/>
    <path d="M 265.233183 65.290909 
L 265.233183 156.109091 
" clip-path="url(#pe8e3033d24)" style="fill: none; stroke: #0000ff; stroke-width: 1.5"/>
    <path d="M 268.911448 65.290909 
L 268.911448 156.109091 
" clip-path="url(#pe8e3033d24)" style="fill: none; stroke: #0000ff; stroke-width: 1.5"/>
    <path d="M 312.045362 65.290909 
L 312.045362 156.109091 
" clip-path="url(#pe8e3033d24)" style="fill: none; stroke: #0000ff; stroke-width: 1.5"/>
    <path d="M 317.036723 65.290909 
L 317.036723 156.109091 
" clip-path="url(#pe8e3033d24)" style="fill: none; stroke: #0000ff; stroke-width: 1.5"/>
    <path d="M 324.443423 65.290909 
L 324.443423 156.109091 
" clip-path="url(#pe8e3033d24)" style="fill: none; stroke: #0000ff; stroke-width: 1.5"/>
    <path d="M 326.1599 65.290909 
L 326.1599 156.109091 
" clip-path="url(#pe8e3033d24)" style="fill: none; stroke: #0000ff; stroke-width: 1.5"/>
    <path d="M 326.195427 65.290909 
L 326.195427 156.109091 
" clip-path="url(#pe8e3033d24)" style="fill: none; stroke: #0000ff; stroke-width: 1.5"/>
    <path d="M 326.221507 65.290909 
L 326.221507 156.109091 
" clip-path="url(#pe8e3033d24)" style="fill: none; stroke: #0000ff; stroke-width: 1.5"/>
    <path d="M 344.45583 65.290909 
L 344.45583 156.109091 
" clip-path="url(#pe8e3033d24)" style="fill: none; stroke: #0000ff; stroke-width: 1.5"/>
    <path d="M 344.949648 65.290909 
L 344.949648 156.109091 
" clip-path="url(#pe8e3033d24)" style="fill: none; stroke: #0000ff; stroke-width: 1.5"/>
    <path d="M 345.123296 65.290909 
L 345.123296 156.109091 
" clip-path="url(#pe8e3033d24)" style="fill: none; stroke: #0000ff; stroke-width: 1.5"/>
    <path d="M 348.027143 65.290909 
L 348.027143 156.109091 
" clip-path="url(#pe8e3033d24)" style="fill: none; stroke: #0000ff; stroke-width: 1.5"/>
    <path d="M 354.828986 65.290909 
L 354.828986 156.109091 
" clip-path="url(#pe8e3033d24)" style="fill: none; stroke: #0000ff; stroke-width: 1.5"/>
    <path d="M 355.663087 65.290909 
L 355.663087 156.109091 
" clip-path="url(#pe8e3033d24)" style="fill: none; stroke: #0000ff; stroke-width: 1.5"/>
    <path d="M 355.774133 65.290909 
L 355.774133 156.109091 
" clip-path="url(#pe8e3033d24)" style="fill: none; stroke: #0000ff; stroke-width: 1.5"/>
    <path d="M 357.126449 65.290909 
L 357.126449 156.109091 
" clip-path="url(#pe8e3033d24)" style="fill: none; stroke: #0000ff; stroke-width: 1.5"/>
    <path d="M 357.768191 65.290909 
L 357.768191 156.109091 
" clip-path="url(#pe8e3033d24)" style="fill: none; stroke: #0000ff; stroke-width: 1.5"/>
    <path d="M 358.116697 65.290909 
L 358.116697 156.109091 
" clip-path="url(#pe8e3033d24)" style="fill: none; stroke: #0000ff; stroke-width: 1.5"/>
    <path d="M 360.865465 65.290909 
L 360.865465 156.109091 
" clip-path="url(#pe8e3033d24)" style="fill: none; stroke: #0000ff; stroke-width: 1.5"/>
    <path d="M 361.870137 65.290909 
L 361.870137 156.109091 
" clip-path="url(#pe8e3033d24)" style="fill: none; stroke: #0000ff; stroke-width: 1.5"/>
    <path d="M 368.855834 65.290909 
L 368.855834 156.109091 
" clip-path="url(#pe8e3033d24)" style="fill: none; stroke: #0000ff; stroke-width: 1.5"/>
    <path d="M 375.423375 65.290909 
L 375.423375 156.109091 
" clip-path="url(#pe8e3033d24)" style="fill: none; stroke: #0000ff; stroke-width: 1.5"/>
    <path d="M 376.973823 65.290909 
L 376.973823 156.109091 
" clip-path="url(#pe8e3033d24)" style="fill: none; stroke: #0000ff; stroke-width: 1.5"/>
    <path d="M 380.65621 65.290909 
L 380.65621 156.109091 
" clip-path="url(#pe8e3033d24)" style="fill: none; stroke: #0000ff; stroke-width: 1.5"/>
    <path d="M 382.206148 65.290909 
L 382.206148 156.109091 
" clip-path="url(#pe8e3033d24)" style="fill: none; stroke: #0000ff; stroke-width: 1.5"/>
    <path d="M 387.779444 65.290909 
L 387.779444 156.109091 
" clip-path="url(#pe8e3033d24)" style="fill: none; stroke: #0000ff; stroke-width: 1.5"/>
    <path d="M 389.083156 65.290909 
L 389.083156 156.109091 
" clip-path="url(#pe8e3033d24)" style="fill: none; stroke: #0000ff; stroke-width: 1.5"/>
    <path d="M 389.881563 65.290909 
L 389.881563 156.109091 
" clip-path="url(#pe8e3033d24)" style="fill: none; stroke: #0000ff; stroke-width: 1.5"/>
    <path d="M 390.438306 65.290909 
L 390.438306 156.109091 
" clip-path="url(#pe8e3033d24)" style="fill: none; stroke: #0000ff; stroke-width: 1.5"/>
    <path d="M 394.192616 65.290909 
L 394.192616 156.109091 
" clip-path="url(#pe8e3033d24)" style="fill: none; stroke: #0000ff; stroke-width: 1.5"/>
    <path d="M 398.427612 65.290909 
L 398.427612 156.109091 
" clip-path="url(#pe8e3033d24)" style="fill: none; stroke: #0000ff; stroke-width: 1.5"/>
    <path d="M 400.888286 65.290909 
L 400.888286 156.109091 
" clip-path="url(#pe8e3033d24)" style="fill: none; stroke: #0000ff; stroke-width: 1.5"/>
    <path d="M 401.857689 65.290909 
L 401.857689 156.109091 
" clip-path="url(#pe8e3033d24)" style="fill: none; stroke: #0000ff; stroke-width: 1.5"/>
    <path d="M 403.446873 65.290909 
L 403.446873 156.109091 
" clip-path="url(#pe8e3033d24)" style="fill: none; stroke: #0000ff; stroke-width: 1.5"/>
    <path d="M 433.539784 65.290909 
L 433.539784 156.109091 
" clip-path="url(#pe8e3033d24)" style="fill: none; stroke: #0000ff; stroke-width: 1.5"/>
    <path d="M 437.488318 65.290909 
L 437.488318 156.109091 
" clip-path="url(#pe8e3033d24)" style="fill: none; stroke: #0000ff; stroke-width: 1.5"/>
    <path d="M 440.624892 65.290909 
L 440.624892 156.109091 
" clip-path="url(#pe8e3033d24)" style="fill: none; stroke: #0000ff; stroke-width: 1.5"/>
    <path d="M 452.046407 65.290909 
L 452.046407 156.109091 
" clip-path="url(#pe8e3033d24)" style="fill: none; stroke: #0000ff; stroke-width: 1.5"/>
    <path d="M 456.907006 65.290909 
L 456.907006 156.109091 
" clip-path="url(#pe8e3033d24)" style="fill: none; stroke: #0000ff; stroke-width: 1.5"/>
    <path d="M 458.030095 65.290909 
L 458.030095 156.109091 
" clip-path="url(#pe8e3033d24)" style="fill: none; stroke: #0000ff; stroke-width: 1.5"/>
    <path d="M 459.942975 65.290909 
L 459.942975 156.109091 
" clip-path="url(#pe8e3033d24)" style="fill: none; stroke: #0000ff; stroke-width: 1.5"/>
    <path d="M 466.817826 65.290909 
L 466.817826 156.109091 
" clip-path="url(#pe8e3033d24)" style="fill: none; stroke: #0000ff; stroke-width: 1.5"/>
    <path d="M 475.406068 65.290909 
L 475.406068 156.109091 
" clip-path="url(#pe8e3033d24)" style="fill: none; stroke: #0000ff; stroke-width: 1.5"/>
    <path d="M 479.479639 65.290909 
L 479.479639 156.109091 
" clip-path="url(#pe8e3033d24)" style="fill: none; stroke: #0000ff; stroke-width: 1.5"/>
    <path d="M 480.634264 65.290909 
L 480.634264 156.109091 
" clip-path="url(#pe8e3033d24)" style="fill: none; stroke: #0000ff; stroke-width: 1.5"/>
    <path d="M 487.639701 65.290909 
L 487.639701 156.109091 
" clip-path="url(#pe8e3033d24)" style="fill: none; stroke: #0000ff; stroke-width: 1.5"/>
    <path d="M 488.055262 65.290909 
L 488.055262 156.109091 
" clip-path="url(#pe8e3033d24)" style="fill: none; stroke: #0000ff; stroke-width: 1.5"/>
    <path d="M 488.263323 65.290909 
L 488.263323 156.109091 
" clip-path="url(#pe8e3033d24)" style="fill: none; stroke: #0000ff; stroke-width: 1.5"/>
    <path d="M 488.548177 65.290909 
L 488.548177 156.109091 
" clip-path="url(#pe8e3033d24)" style="fill: none; stroke: #0000ff; stroke-width: 1.5"/>
    <path d="M 489.375854 65.290909 
L 489.375854 156.109091 
" clip-path="url(#pe8e3033d24)" style="fill: none; stroke: #0000ff; stroke-width: 1.5"/>
    <path d="M 492.532517 65.290909 
L 492.532517 156.109091 
" clip-path="url(#pe8e3033d24)" style="fill: none; stroke: #0000ff; stroke-width: 1.5"/>
    <path d="M 498.895703 65.290909 
L 498.895703 156.109091 
" clip-path="url(#pe8e3033d24)" style="fill: none; stroke: #0000ff; stroke-width: 1.5"/>
    <path d="M 499.593462 65.290909 
L 499.593462 156.109091 
" clip-path="url(#pe8e3033d24)" style="fill: none; stroke: #0000ff; stroke-width: 1.5"/>
    <path d="M 501.311187 65.290909 
L 501.311187 156.109091 
" clip-path="url(#pe8e3033d24)" style="fill: none; stroke: #0000ff; stroke-width: 1.5"/>
    <path d="M 510.265007 65.290909 
L 510.265007 156.109091 
" clip-path="url(#pe8e3033d24)" style="fill: none; stroke: #0000ff; stroke-width: 1.5"/>
    <path d="M 512.597249 65.290909 
L 512.597249 156.109091 
" clip-path="url(#pe8e3033d24)" style="fill: none; stroke: #0000ff; stroke-width: 1.5"/>
    <path d="M 523.363783 65.290909 
L 523.363783 156.109091 
" clip-path="url(#pe8e3033d24)" style="fill: none; stroke: #0000ff; stroke-width: 1.5"/>
    <path d="M 530.546584 65.290909 
L 530.546584 156.109091 
" clip-path="url(#pe8e3033d24)" style="fill: none; stroke: #0000ff; stroke-width: 1.5"/>
    <path d="M 546.818756 65.290909 
L 546.818756 156.109091 
" clip-path="url(#pe8e3033d24)" style="fill: none; stroke: #0000ff; stroke-width: 1.5"/>
    <path d="M 548.728529 65.290909 
L 548.728529 156.109091 
" clip-path="url(#pe8e3033d24)" style="fill: none; stroke: #0000ff; stroke-width: 1.5"/>
    <path d="M 549.042232 65.290909 
L 549.042232 156.109091 
" clip-path="url(#pe8e3033d24)" style="fill: none; stroke: #0000ff; stroke-width: 1.5"/>
    <path d="M 551.020889 65.290909 
L 551.020889 156.109091 
" clip-path="url(#pe8e3033d24)" style="fill: none; stroke: #0000ff; stroke-width: 1.5"/>
    <path d="M 551.470964 65.290909 
L 551.470964 156.109091 
" clip-path="url(#pe8e3033d24)" style="fill: none; stroke: #0000ff; stroke-width: 1.5"/>
    <path d="M 562.817302 65.290909 
L 562.817302 156.109091 
" clip-path="url(#pe8e3033d24)" style="fill: none; stroke: #0000ff; stroke-width: 1.5"/>
    <path d="M 577.585167 65.290909 
L 577.585167 156.109091 
" clip-path="url(#pe8e3033d24)" style="fill: none; stroke: #0000ff; stroke-width: 1.5"/>
    <path d="M 593.681886 65.290909 
L 593.681886 156.109091 
" clip-path="url(#pe8e3033d24)" style="fill: none; stroke: #0000ff; stroke-width: 1.5"/>
    <path d="M 593.976064 65.290909 
L 593.976064 156.109091 
" clip-path="url(#pe8e3033d24)" style="fill: none; stroke: #0000ff; stroke-width: 1.5"/>
    <path d="M 595.162567 65.290909 
L 595.162567 156.109091 
" clip-path="url(#pe8e3033d24)" style="fill: none; stroke: #0000ff; stroke-width: 1.5"/>
    <path d="M 601.409364 65.290909 
L 601.409364 156.109091 
" clip-path="url(#pe8e3033d24)" style="fill: none; stroke: #0000ff; stroke-width: 1.5"/>
    <path d="M 602.826321 65.290909 
L 602.826321 156.109091 
" clip-path="url(#pe8e3033d24)" style="fill: none; stroke: #0000ff; stroke-width: 1.5"/>
    <path d="M 608.241017 65.290909 
L 608.241017 156.109091 
" clip-path="url(#pe8e3033d24)" style="fill: none; stroke: #0000ff; stroke-width: 1.5"/>
    <path d="M 608.754406 65.290909 
L 608.754406 156.109091 
" clip-path="url(#pe8e3033d24)" style="fill: none; stroke: #0000ff; stroke-width: 1.5"/>
    <path d="M 609.644202 65.290909 
L 609.644202 156.109091 
" clip-path="url(#pe8e3033d24)" style="fill: none; stroke: #0000ff; stroke-width: 1.5"/>
    <path d="M 612.61135 65.290909 
L 612.61135 156.109091 
" clip-path="url(#pe8e3033d24)" style="fill: none; stroke: #0000ff; stroke-width: 1.5"/>
    <path d="M 615.913143 65.290909 
L 615.913143 156.109091 
" clip-path="url(#pe8e3033d24)" style="fill: none; stroke: #0000ff; stroke-width: 1.5"/>
    <path d="M 625.838579 65.290909 
L 625.838579 156.109091 
" clip-path="url(#pe8e3033d24)" style="fill: none; stroke: #0000ff; stroke-width: 1.5"/>
    <path d="M 626.201987 65.290909 
L 626.201987 156.109091 
" clip-path="url(#pe8e3033d24)" style="fill: none; stroke: #0000ff; stroke-width: 1.5"/>
    <path d="M 626.463148 65.290909 
L 626.463148 156.109091 
" clip-path="url(#pe8e3033d24)" style="fill: none; stroke: #0000ff; stroke-width: 1.5"/>
    <path d="M 627.666717 65.290909 
L 627.666717 156.109091 
" clip-path="url(#pe8e3033d24)" style="fill: none; stroke: #0000ff; stroke-width: 1.5"/>
    <path d="M 627.852596 65.290909 
L 627.852596 156.109091 
" clip-path="url(#pe8e3033d24)" style="fill: none; stroke: #0000ff; stroke-width: 1.5"/>
    <path d="M 627.958953 65.290909 
L 627.958953 156.109091 
" clip-path="url(#pe8e3033d24)" style="fill: none; stroke: #0000ff; stroke-width: 1.5"/>
    <path d="M 628.801626 65.290909 
L 628.801626 156.109091 
" clip-path="url(#pe8e3033d24)" style="fill: none; stroke: #0000ff; stroke-width: 1.5"/>
    <path d="M 633.075278 65.290909 
L 633.075278 156.109091 
" clip-path="url(#pe8e3033d24)" style="fill: none; stroke: #0000ff; stroke-width: 1.5"/>
    <path d="M 635.212002 65.290909 
L 635.212002 156.109091 
" clip-path="url(#pe8e3033d24)" style="fill: none; stroke: #0000ff; stroke-width: 1.5"/>
    <path d="M 638.254178 65.290909 
L 638.254178 156.109091 
" clip-path="url(#pe8e3033d24)" style="fill: none; stroke: #0000ff; stroke-width: 1.5"/>
    <path d="M 638.524665 65.290909 
L 638.524665 156.109091 
" clip-path="url(#pe8e3033d24)" style="fill: none; stroke: #0000ff; stroke-width: 1.5"/>
    <path d="M 638.63741 65.290909 
L 638.63741 156.109091 
" clip-path="url(#pe8e3033d24)" style="fill: none; stroke: #0000ff; stroke-width: 1.5"/>
    <path d="M 639.944401 65.290909 
L 639.944401 156.109091 
" clip-path="url(#pe8e3033d24)" style="fill: none; stroke: #0000ff; stroke-width: 1.5"/>
    <path d="M 647.420137 65.290909 
L 647.420137 156.109091 
" clip-path="url(#pe8e3033d24)" style="fill: none; stroke: #0000ff; stroke-width: 1.5"/>
    <path d="M 653.450607 65.290909 
L 653.450607 156.109091 
" clip-path="url(#pe8e3033d24)" style="fill: none; stroke: #0000ff; stroke-width: 1.5"/>
    <path d="M 669.071353 65.290909 
L 669.071353 156.109091 
" clip-path="url(#pe8e3033d24)" style="fill: none; stroke: #0000ff; stroke-width: 1.5"/>
    <path d="M 678.885004 65.290909 
L 678.885004 156.109091 
" clip-path="url(#pe8e3033d24)" style="fill: none; stroke: #0000ff; stroke-width: 1.5"/>
    <path d="M 682.52137 65.290909 
L 682.52137 156.109091 
" clip-path="url(#pe8e3033d24)" style="fill: none; stroke: #0000ff; stroke-width: 1.5"/>
    <path d="M 692.419405 65.290909 
L 692.419405 156.109091 
" clip-path="url(#pe8e3033d24)" style="fill: none; stroke: #0000ff; stroke-width: 1.5"/>
    <path d="M 694.181123 65.290909 
L 694.181123 156.109091 
" clip-path="url(#pe8e3033d24)" style="fill: none; stroke: #0000ff; stroke-width: 1.5"/>
    <path d="M 695.157371 65.290909 
L 695.157371 156.109091 
" clip-path="url(#pe8e3033d24)" style="fill: none; stroke: #0000ff; stroke-width: 1.5"/>
    <path d="M 708.290845 65.290909 
L 708.290845 156.109091 
" clip-path="url(#pe8e3033d24)" style="fill: none; stroke: #0000ff; stroke-width: 1.5"/>
    <path d="M 709.2 65.290909 
L 709.2 156.109091 
" clip-path="url(#pe8e3033d24)" style="fill: none; stroke: #0000ff; stroke-width: 1.5"/>
   </g>
  </g>
  <g id="axes_2">
   <g id="patch_3">
    <path d="M 10.8 421.2 
L 709.2 421.2 
L 709.2 221.4 
L 10.8 221.4 
z
" style="fill: #ffffff"/>
   </g>
   <g id="matplotlib.axis_3"/>
   <g id="matplotlib.axis_4"/>
   <g id="line2d_1">
    <path d="M 10.8 412.118182 
L 16.62 366.402062 
L 22.44 331.253196 
L 28.26 304.329587 
L 34.08 283.807336 
L 39.9 268.26603 
L 45.72 256.599495 
L 51.54 247.946287 
L 57.36 241.635554 
L 63.18 237.144881 
L 69 234.06745 
L 74.82 232.086477 
L 80.64 230.955289 
L 86.46 230.481818 
L 92.28 230.516524 
L 98.1 230.942983 
L 103.92 231.670567 
L 109.74 232.62873 
L 115.56 233.762575 
L 127.2 236.395924 
L 138.84 239.330594 
L 156.3 243.996731 
L 202.86 256.593414 
L 226.14 262.658105 
L 249.42 268.506186 
L 272.7 274.132756 
L 295.98 279.541573 
L 319.26 284.739362 
L 342.54 289.733731 
L 365.82 294.532411 
L 389.1 299.142985 
L 418.2 304.652837 
L 447.3 309.893981 
L 476.4 314.879513 
L 505.5 319.621898 
L 534.6 324.132995 
L 563.7 328.424083 
L 592.8 332.505893 
L 621.9 336.38863 
L 656.82 340.798776 
L 691.74 344.952094 
L 721 348.2453 
L 721 348.2453 
" clip-path="url(#p7323f18d24)" style="fill: none; stroke: #0000ff; stroke-width: 7; stroke-linecap: square"/>
   </g>
   <g id="patch_4">
    <path d="M 10.8 421.2 
L 709.2 421.2 
" style="fill: none; stroke: #000000; stroke-width: 0.8; stroke-linejoin: miter; stroke-linecap: square"/>
   </g>
  </g>
 </g>
 <defs>
  <clipPath id="pe8e3033d24">
   <rect x="10.8" y="10.8" width="698.4" height="199.8"/>
  </clipPath>
  <clipPath id="p7323f18d24">
   <rect x="10.8" y="221.4" width="698.4" height="199.8"/>
  </clipPath>
 </defs>
</svg>
