<?xml version="1.0" encoding="utf-8" standalone="no"?>
<!DOCTYPE svg PUBLIC "-//W3C//DTD SVG 1.1//EN"
  "http://www.w3.org/Graphics/SVG/1.1/DTD/svg11.dtd">
<svg xmlns:xlink="http://www.w3.org/1999/xlink" width="720pt" height="432pt" viewBox="0 0 720 432" xmlns="http://www.w3.org/2000/svg" version="1.1">
 <metadata>
  <rdf:RDF xmlns:dc="http://purl.org/dc/elements/1.1/" xmlns:cc="http://creativecommons.org/ns#" xmlns:rdf="http://www.w3.org/1999/02/22-rdf-syntax-ns#">
   <cc:Work>
    <dc:type rdf:resource="http://purl.org/dc/dcmitype/StillImage"/>
    <dc:date>2024-06-15T11:20:24.177412</dc:date>
    <dc:format>image/svg+xml</dc:format>
    <dc:creator>
     <cc:Agent>
      <dc:title>Matplotlib v3.5.3, https://matplotlib.org/</dc:title>
     </cc:Agent>
    </dc:creator>
   </cc:Work>
  </rdf:RDF>
 </metadata>
 <defs>
  <style type="text/css">*{stroke-linejoin: round; stroke-linecap: butt}</style>
 </defs>
 <g id="figure_1">
  <g id="patch_1">
   <path d="M 0 432 
L 720 432 
L 720 0 
L 0 0 
L 0 432 
z
" style="fill: none"/>
  </g>
  <g id="axes_1">
   <g id="patch_2">
    <path d="M 10.8 210.6 
L 709.2 210.6 
L 709.2 10.8 
L 10.8 10.8 
L 10.8 210.6 
z
" style="fill: none"/>
   </g>
   <g id="matplotlib.axis_1"/>
   <g id="matplotlib.axis_2"/>
   <g id="EventCollection_1">
    <path d="M 25.734384 65.290909 
L 25.734384 156.109091 
" clip-path="url(#p3e5f42a275)" style="fill: none; stroke: #0000ff; stroke-width: 1.5"/>
    <path d="M 30.511828 65.290909 
L 30.511828 156.109091 
" clip-path="url(#p3e5f42a275)" style="fill: none; stroke: #0000ff; stroke-width: 1.5"/>
    <path d="M 34.396708 65.290909 
L 34.396708 156.109091 
" clip-path="url(#p3e5f42a275)" style="fill: none; stroke: #0000ff; stroke-width: 1.5"/>
    <path d="M 39.318688 65.290909 
L 39.318688 156.109091 
" clip-path="url(#p3e5f42a275)" style="fill: none; stroke: #0000ff; stroke-width: 1.5"/>
    <path d="M 45.618235 65.290909 
L 45.618235 156.109091 
" clip-path="url(#p3e5f42a275)" style="fill: none; stroke: #0000ff; stroke-width: 1.5"/>
    <path d="M 46.227055 65.290909 
L 46.227055 156.109091 
" clip-path="url(#p3e5f42a275)" style="fill: none; stroke: #0000ff; stroke-width: 1.5"/>
    <path d="M 49.382624 65.290909 
L 49.382624 156.109091 
" clip-path="url(#p3e5f42a275)" style="fill: none; stroke: #0000ff; stroke-width: 1.5"/>
    <path d="M 65.376667 65.290909 
L 65.376667 156.109091 
" clip-path="url(#p3e5f42a275)" style="fill: none; stroke: #0000ff; stroke-width: 1.5"/>
    <path d="M 74.757198 65.290909 
L 74.757198 156.109091 
" clip-path="url(#p3e5f42a275)" style="fill: none; stroke: #0000ff; stroke-width: 1.5"/>
    <path d="M 78.164795 65.290909 
L 78.164795 156.109091 
" clip-path="url(#p3e5f42a275)" style="fill: none; stroke: #0000ff; stroke-width: 1.5"/>
    <path d="M 86.97191 65.290909 
L 86.97191 156.109091 
" clip-path="url(#p3e5f42a275)" style="fill: none; stroke: #0000ff; stroke-width: 1.5"/>
    <path d="M 90.987026 65.290909 
L 90.987026 156.109091 
" clip-path="url(#p3e5f42a275)" style="fill: none; stroke: #0000ff; stroke-width: 1.5"/>
    <path d="M 94.22034 65.290909 
L 94.22034 156.109091 
" clip-path="url(#p3e5f42a275)" style="fill: none; stroke: #0000ff; stroke-width: 1.5"/>
    <path d="M 109.551738 65.290909 
L 109.551738 156.109091 
" clip-path="url(#p3e5f42a275)" style="fill: none; stroke: #0000ff; stroke-width: 1.5"/>
    <path d="M 132.301326 65.290909 
L 132.301326 156.109091 
" clip-path="url(#p3e5f42a275)" style="fill: none; stroke: #0000ff; stroke-width: 1.5"/>
    <path d="M 138.980366 65.290909 
L 138.980366 156.109091 
" clip-path="url(#p3e5f42a275)" style="fill: none; stroke: #0000ff; stroke-width: 1.5"/>
    <path d="M 207.754142 65.290909 
L 207.754142 156.109091 
" clip-path="url(#p3e5f42a275)" style="fill: none; stroke: #0000ff; stroke-width: 1.5"/>
    <path d="M 213.717875 65.290909 
L 213.717875 156.109091 
" clip-path="url(#p3e5f42a275)" style="fill: none; stroke: #0000ff; stroke-width: 1.5"/>
    <path d="M 225.008269 65.290909 
L 225.008269 156.109091 
" clip-path="url(#p3e5f42a275)" style="fill: none; stroke: #0000ff; stroke-width: 1.5"/>
    <path d="M 226.552445 65.290909 
L 226.552445 156.109091 
" clip-path="url(#p3e5f42a275)" style="fill: none; stroke: #0000ff; stroke-width: 1.5"/>
    <path d="M 272.712798 65.290909 
L 272.712798 156.109091 
" clip-path="url(#p3e5f42a275)" style="fill: none; stroke: #0000ff; stroke-width: 1.5"/>
    <path d="M 285.677854 65.290909 
L 285.677854 156.109091 
" clip-path="url(#p3e5f42a275)" style="fill: none; stroke: #0000ff; stroke-width: 1.5"/>
    <path d="M 292.292724 65.290909 
L 292.292724 156.109091 
" clip-path="url(#p3e5f42a275)" style="fill: none; stroke: #0000ff; stroke-width: 1.5"/>
    <path d="M 293.597439 65.290909 
L 293.597439 156.109091 
" clip-path="url(#p3e5f42a275)" style="fill: none; stroke: #0000ff; stroke-width: 1.5"/>
    <path d="M 306.365933 65.290909 
L 306.365933 156.109091 
" clip-path="url(#p3e5f42a275)" style="fill: none; stroke: #0000ff; stroke-width: 1.5"/>
    <path d="M 317.370776 65.290909 
L 317.370776 156.109091 
" clip-path="url(#p3e5f42a275)" style="fill: none; stroke: #0000ff; stroke-width: 1.5"/>
    <path d="M 317.951161 65.290909 
L 317.951161 156.109091 
" clip-path="url(#p3e5f42a275)" style="fill: none; stroke: #0000ff; stroke-width: 1.5"/>
    <path d="M 323.822631 65.290909 
L 323.822631 156.109091 
" clip-path="url(#p3e5f42a275)" style="fill: none; stroke: #0000ff; stroke-width: 1.5"/>
    <path d="M 340.094252 65.290909 
L 340.094252 156.109091 
" clip-path="url(#p3e5f42a275)" style="fill: none; stroke: #0000ff; stroke-width: 1.5"/>
    <path d="M 343.342392 65.290909 
L 343.342392 156.109091 
" clip-path="url(#p3e5f42a275)" style="fill: none; stroke: #0000ff; stroke-width: 1.5"/>
    <path d="M 361.609927 65.290909 
L 361.609927 156.109091 
" clip-path="url(#p3e5f42a275)" style="fill: none; stroke: #0000ff; stroke-width: 1.5"/>
    <path d="M 370.78934 65.290909 
L 370.78934 156.109091 
" clip-path="url(#p3e5f42a275)" style="fill: none; stroke: #0000ff; stroke-width: 1.5"/>
    <path d="M 373.230827 65.290909 
L 373.230827 156.109091 
" clip-path="url(#p3e5f42a275)" style="fill: none; stroke: #0000ff; stroke-width: 1.5"/>
    <path d="M 381.910972 65.290909 
L 381.910972 156.109091 
" clip-path="url(#p3e5f42a275)" style="fill: none; stroke: #0000ff; stroke-width: 1.5"/>
    <path d="M 391.908902 65.290909 
L 391.908902 156.109091 
" clip-path="url(#p3e5f42a275)" style="fill: none; stroke: #0000ff; stroke-width: 1.5"/>
    <path d="M 403.881488 65.290909 
L 403.881488 156.109091 
" clip-path="url(#p3e5f42a275)" style="fill: none; stroke: #0000ff; stroke-width: 1.5"/>
    <path d="M 406.995412 65.290909 
L 406.995412 156.109091 
" clip-path="url(#p3e5f42a275)" style="fill: none; stroke: #0000ff; stroke-width: 1.5"/>
    <path d="M 419.054502 65.290909 
L 419.054502 156.109091 
" clip-path="url(#p3e5f42a275)" style="fill: none; stroke: #0000ff; stroke-width: 1.5"/>
    <path d="M 428.303721 65.290909 
L 428.303721 156.109091 
" clip-path="url(#p3e5f42a275)" style="fill: none; stroke: #0000ff; stroke-width: 1.5"/>
    <path d="M 457.158174 65.290909 
L 457.158174 156.109091 
" clip-path="url(#p3e5f42a275)" style="fill: none; stroke: #0000ff; stroke-width: 1.5"/>
    <path d="M 461.996722 65.290909 
L 461.996722 156.109091 
" clip-path="url(#p3e5f42a275)" style="fill: none; stroke: #0000ff; stroke-width: 1.5"/>
    <path d="M 600.180242 65.290909 
L 600.180242 156.109091 
" clip-path="url(#p3e5f42a275)" style="fill: none; stroke: #0000ff; stroke-width: 1.5"/>
    <path d="M 632.678944 65.290909 
L 632.678944 156.109091 
" clip-path="url(#p3e5f42a275)" style="fill: none; stroke: #0000ff; stroke-width: 1.5"/>
    <path d="M 634.737372 65.290909 
L 634.737372 156.109091 
" clip-path="url(#p3e5f42a275)" style="fill: none; stroke: #0000ff; stroke-width: 1.5"/>
    <path d="M 648.757922 65.290909 
L 648.757922 156.109091 
" clip-path="url(#p3e5f42a275)" style="fill: none; stroke: #0000ff; stroke-width: 1.5"/>
    <path d="M 652.810561 65.290909 
L 652.810561 156.109091 
" clip-path="url(#p3e5f42a275)" style="fill: none; stroke: #0000ff; stroke-width: 1.5"/>
    <path d="M 657.318603 65.290909 
L 657.318603 156.109091 
" clip-path="url(#p3e5f42a275)" style="fill: none; stroke: #0000ff; stroke-width: 1.5"/>
    <path d="M 659.914866 65.290909 
L 659.914866 156.109091 
" clip-path="url(#p3e5f42a275)" style="fill: none; stroke: #0000ff; stroke-width: 1.5"/>
    <path d="M 664.053818 65.290909 
L 664.053818 156.109091 
" clip-path="url(#p3e5f42a275)" style="fill: none; stroke: #0000ff; stroke-width: 1.5"/>
    <path d="M 670.669132 65.290909 
L 670.669132 156.109091 
" clip-path="url(#p3e5f42a275)" style="fill: none; stroke: #0000ff; stroke-width: 1.5"/>
    <path d="M 671.487418 65.290909 
L 671.487418 156.109091 
" clip-path="url(#p3e5f42a275)" style="fill: none; stroke: #0000ff; stroke-width: 1.5"/>
    <path d="M 673.521698 65.290909 
L 673.521698 156.109091 
" clip-path="url(#p3e5f42a275)" style="fill: none; stroke: #0000ff; stroke-width: 1.5"/>
    <path d="M 681.832162 65.290909 
L 681.832162 156.109091 
" clip-path="url(#p3e5f42a275)" style="fill: none; stroke: #0000ff; stroke-width: 1.5"/>
    <path d="M 694.621644 65.290909 
L 694.621644 156.109091 
" clip-path="url(#p3e5f42a275)" style="fill: none; stroke: #0000ff; stroke-width: 1.5"/>
    <path d="M 696.758222 65.290909 
L 696.758222 156.109091 
" clip-path="url(#p3e5f42a275)" style="fill: none; stroke: #0000ff; stroke-width: 1.5"/>
    <path d="M 699.314559 65.290909 
L 699.314559 156.109091 
" clip-path="url(#p3e5f42a275)" style="fill: none; stroke: #0000ff; stroke-width: 1.5"/>
    <path d="M 709.2 65.290909 
L 709.2 156.109091 
" clip-path="url(#p3e5f42a275)" style="fill: none; stroke: #0000ff; stroke-width: 1.5"/>
   </g>
  </g>
  <g id="axes_2">
   <g id="patch_3">
    <path d="M 10.8 421.2 
L 709.2 421.2 
L 709.2 221.4 
L 10.8 221.4 
L 10.8 421.2 
z
" style="fill: none"/>
   </g>
   <g id="matplotlib.axis_3"/>
   <g id="matplotlib.axis_4"/>
   <g id="line2d_1">
    <path d="M 10.8 412.118182 
L 11.498435 366.402062 
L 12.19687 331.253196 
L 12.895305 304.329587 
L 13.59374 283.807336 
L 14.292175 268.26603 
L 14.99061 256.599495 
L 15.689044 247.946287 
L 16.387479 241.635554 
L 17.085914 237.144881 
L 17.784349 234.06745 
L 18.482784 232.086477 
L 19.181219 230.955289 
L 19.879654 230.481818 
L 20.578089 230.516524 
L 21.276524 230.942983 
L 21.974959 231.670567 
L 23.371829 233.762575 
L 24.768698 236.395924 
L 26.864003 240.863027 
L 38.038962 265.60984 
L 42.229571 274.132756 
L 46.420181 282.166379 
L 50.610791 289.733731 
L 54.8014 296.860746 
L 58.99201 303.572794 
L 63.182619 309.893981 
L 67.373229 315.847053 
L 71.563838 321.453447 
L 75.754448 326.73335 
L 80.643492 332.505893 
L 85.532537 337.888175 
L 90.421581 342.906583 
L 95.310626 347.585714 
L 100.19967 351.948508 
L 105.088714 356.01635 
L 109.977759 359.80918 
L 114.866803 363.345592 
L 120.454283 367.095407 
L 126.041762 370.556922 
L 131.629241 373.752304 
L 137.216721 376.702013 
L 143.502635 379.75024 
L 149.788549 382.536111 
L 156.074464 385.082205 
L 163.058813 387.655018 
L 170.043162 389.982996 
L 177.027511 392.089437 
L 184.710296 394.175749 
L 193.091515 396.204671 
L 201.472734 398.004164 
L 210.552388 399.724727 
L 220.330477 401.34383 
L 230.807 402.844611 
L 241.981959 404.215766 
L 253.855353 405.451192 
L 267.125616 406.604854 
L 281.79275 407.649165 
L 297.856753 408.567398 
L 316.016061 409.380344 
L 336.969108 410.089942 
L 361.414331 410.688905 
L 390.748597 411.17908 
L 427.765648 411.565422 
L 477.354528 411.846421 
L 552.087064 412.024965 
L 696.663093 412.106419 
L 709.234922 412.108357 
L 709.234922 412.108357 
" clip-path="url(#pf43dc1f815)" style="fill: none; stroke: #0000ff; stroke-width: 7; stroke-linecap: square"/>
   </g>
  </g>
 </g>
 <defs>
  <clipPath id="p3e5f42a275">
   <rect x="10.8" y="10.8" width="698.4" height="199.8"/>
  </clipPath>
  <clipPath id="pf43dc1f815">
   <rect x="10.8" y="221.4" width="698.4" height="199.8"/>
  </clipPath>
 </defs>
</svg>
