<?xml version="1.0" encoding="utf-8" standalone="no"?>
<!DOCTYPE svg PUBLIC "-//W3C//DTD SVG 1.1//EN"
  "http://www.w3.org/Graphics/SVG/1.1/DTD/svg11.dtd">
<svg xmlns:xlink="http://www.w3.org/1999/xlink" width="720pt" height="432pt" viewBox="0 0 720 432" xmlns="http://www.w3.org/2000/svg" version="1.1">
 <metadata>
  <rdf:RDF xmlns:dc="http://purl.org/dc/elements/1.1/" xmlns:cc="http://creativecommons.org/ns#" xmlns:rdf="http://www.w3.org/1999/02/22-rdf-syntax-ns#">
   <cc:Work>
    <dc:type rdf:resource="http://purl.org/dc/dcmitype/StillImage"/>
    <dc:date>2024-05-29T08:26:18.221227</dc:date>
    <dc:format>image/svg+xml</dc:format>
    <dc:creator>
     <cc:Agent>
      <dc:title>Matplotlib v3.8.4, https://matplotlib.org/</dc:title>
     </cc:Agent>
    </dc:creator>
   </cc:Work>
  </rdf:RDF>
 </metadata>
 <defs>
  <style type="text/css">*{stroke-linejoin: round; stroke-linecap: butt}</style>
 </defs>
 <g id="figure_1">
  <g id="patch_1">
   <path d="M 0 432 
L 720 432 
L 720 0 
L 0 0 
z
" style="fill: #ffffff"/>
  </g>
  <g id="axes_1">
   <g id="patch_2">
    <path d="M 10.8 210.6 
L 709.2 210.6 
L 709.2 10.8 
L 10.8 10.8 
z
" style="fill: #ffffff"/>
   </g>
   <g id="matplotlib.axis_1"/>
   <g id="matplotlib.axis_2"/>
   <g id="EventCollection_1">
    <path d="M 55.481094 65.290909 
L 55.481094 156.109091 
" clip-path="url(#p10f91132aa)" style="fill: none; stroke: #ff0000; stroke-width: 1.5"/>
    <path d="M 57.408756 65.290909 
L 57.408756 156.109091 
" clip-path="url(#p10f91132aa)" style="fill: none; stroke: #ff0000; stroke-width: 1.5"/>
    <path d="M 68.512543 65.290909 
L 68.512543 156.109091 
" clip-path="url(#p10f91132aa)" style="fill: none; stroke: #ff0000; stroke-width: 1.5"/>
    <path d="M 81.317449 65.290909 
L 81.317449 156.109091 
" clip-path="url(#p10f91132aa)" style="fill: none; stroke: #ff0000; stroke-width: 1.5"/>
    <path d="M 92.473197 65.290909 
L 92.473197 156.109091 
" clip-path="url(#p10f91132aa)" style="fill: none; stroke: #ff0000; stroke-width: 1.5"/>
    <path d="M 93.606598 65.290909 
L 93.606598 156.109091 
" clip-path="url(#p10f91132aa)" style="fill: none; stroke: #ff0000; stroke-width: 1.5"/>
    <path d="M 94.620917 65.290909 
L 94.620917 156.109091 
" clip-path="url(#p10f91132aa)" style="fill: none; stroke: #ff0000; stroke-width: 1.5"/>
    <path d="M 96.269811 65.290909 
L 96.269811 156.109091 
" clip-path="url(#p10f91132aa)" style="fill: none; stroke: #ff0000; stroke-width: 1.5"/>
    <path d="M 98.142017 65.290909 
L 98.142017 156.109091 
" clip-path="url(#p10f91132aa)" style="fill: none; stroke: #ff0000; stroke-width: 1.5"/>
    <path d="M 98.301749 65.290909 
L 98.301749 156.109091 
" clip-path="url(#p10f91132aa)" style="fill: none; stroke: #ff0000; stroke-width: 1.5"/>
    <path d="M 104.201789 65.290909 
L 104.201789 156.109091 
" clip-path="url(#p10f91132aa)" style="fill: none; stroke: #ff0000; stroke-width: 1.5"/>
    <path d="M 104.920028 65.290909 
L 104.920028 156.109091 
" clip-path="url(#p10f91132aa)" style="fill: none; stroke: #ff0000; stroke-width: 1.5"/>
    <path d="M 111.05284 65.290909 
L 111.05284 156.109091 
" clip-path="url(#p10f91132aa)" style="fill: none; stroke: #ff0000; stroke-width: 1.5"/>
    <path d="M 112.224351 65.290909 
L 112.224351 156.109091 
" clip-path="url(#p10f91132aa)" style="fill: none; stroke: #ff0000; stroke-width: 1.5"/>
    <path d="M 113.30957 65.290909 
L 113.30957 156.109091 
" clip-path="url(#p10f91132aa)" style="fill: none; stroke: #ff0000; stroke-width: 1.5"/>
    <path d="M 124.101049 65.290909 
L 124.101049 156.109091 
" clip-path="url(#p10f91132aa)" style="fill: none; stroke: #ff0000; stroke-width: 1.5"/>
    <path d="M 129.412214 65.290909 
L 129.412214 156.109091 
" clip-path="url(#p10f91132aa)" style="fill: none; stroke: #ff0000; stroke-width: 1.5"/>
    <path d="M 137.505669 65.290909 
L 137.505669 156.109091 
" clip-path="url(#p10f91132aa)" style="fill: none; stroke: #ff0000; stroke-width: 1.5"/>
    <path d="M 140.028992 65.290909 
L 140.028992 156.109091 
" clip-path="url(#p10f91132aa)" style="fill: none; stroke: #ff0000; stroke-width: 1.5"/>
    <path d="M 140.161965 65.290909 
L 140.161965 156.109091 
" clip-path="url(#p10f91132aa)" style="fill: none; stroke: #ff0000; stroke-width: 1.5"/>
    <path d="M 143.219098 65.290909 
L 143.219098 156.109091 
" clip-path="url(#p10f91132aa)" style="fill: none; stroke: #ff0000; stroke-width: 1.5"/>
    <path d="M 152.124759 65.290909 
L 152.124759 156.109091 
" clip-path="url(#p10f91132aa)" style="fill: none; stroke: #ff0000; stroke-width: 1.5"/>
    <path d="M 155.889457 65.290909 
L 155.889457 156.109091 
" clip-path="url(#p10f91132aa)" style="fill: none; stroke: #ff0000; stroke-width: 1.5"/>
    <path d="M 158.074749 65.290909 
L 158.074749 156.109091 
" clip-path="url(#p10f91132aa)" style="fill: none; stroke: #ff0000; stroke-width: 1.5"/>
    <path d="M 166.570162 65.290909 
L 166.570162 156.109091 
" clip-path="url(#p10f91132aa)" style="fill: none; stroke: #ff0000; stroke-width: 1.5"/>
    <path d="M 172.525078 65.290909 
L 172.525078 156.109091 
" clip-path="url(#p10f91132aa)" style="fill: none; stroke: #ff0000; stroke-width: 1.5"/>
    <path d="M 178.517276 65.290909 
L 178.517276 156.109091 
" clip-path="url(#p10f91132aa)" style="fill: none; stroke: #ff0000; stroke-width: 1.5"/>
    <path d="M 180.729588 65.290909 
L 180.729588 156.109091 
" clip-path="url(#p10f91132aa)" style="fill: none; stroke: #ff0000; stroke-width: 1.5"/>
    <path d="M 183.201196 65.290909 
L 183.201196 156.109091 
" clip-path="url(#p10f91132aa)" style="fill: none; stroke: #ff0000; stroke-width: 1.5"/>
    <path d="M 191.427247 65.290909 
L 191.427247 156.109091 
" clip-path="url(#p10f91132aa)" style="fill: none; stroke: #ff0000; stroke-width: 1.5"/>
    <path d="M 201.471598 65.290909 
L 201.471598 156.109091 
" clip-path="url(#p10f91132aa)" style="fill: none; stroke: #ff0000; stroke-width: 1.5"/>
    <path d="M 203.00588 65.290909 
L 203.00588 156.109091 
" clip-path="url(#p10f91132aa)" style="fill: none; stroke: #ff0000; stroke-width: 1.5"/>
    <path d="M 272.827636 65.290909 
L 272.827636 156.109091 
" clip-path="url(#p10f91132aa)" style="fill: none; stroke: #ff0000; stroke-width: 1.5"/>
    <path d="M 285.441849 65.290909 
L 285.441849 156.109091 
" clip-path="url(#p10f91132aa)" style="fill: none; stroke: #ff0000; stroke-width: 1.5"/>
    <path d="M 289.567655 65.290909 
L 289.567655 156.109091 
" clip-path="url(#p10f91132aa)" style="fill: none; stroke: #ff0000; stroke-width: 1.5"/>
    <path d="M 296.438927 65.290909 
L 296.438927 156.109091 
" clip-path="url(#p10f91132aa)" style="fill: none; stroke: #ff0000; stroke-width: 1.5"/>
    <path d="M 299.57472 65.290909 
L 299.57472 156.109091 
" clip-path="url(#p10f91132aa)" style="fill: none; stroke: #ff0000; stroke-width: 1.5"/>
    <path d="M 304.109723 65.290909 
L 304.109723 156.109091 
" clip-path="url(#p10f91132aa)" style="fill: none; stroke: #ff0000; stroke-width: 1.5"/>
    <path d="M 305.227906 65.290909 
L 305.227906 156.109091 
" clip-path="url(#p10f91132aa)" style="fill: none; stroke: #ff0000; stroke-width: 1.5"/>
    <path d="M 308.423869 65.290909 
L 308.423869 156.109091 
" clip-path="url(#p10f91132aa)" style="fill: none; stroke: #ff0000; stroke-width: 1.5"/>
    <path d="M 310.583602 65.290909 
L 310.583602 156.109091 
" clip-path="url(#p10f91132aa)" style="fill: none; stroke: #ff0000; stroke-width: 1.5"/>
    <path d="M 312.964334 65.290909 
L 312.964334 156.109091 
" clip-path="url(#p10f91132aa)" style="fill: none; stroke: #ff0000; stroke-width: 1.5"/>
    <path d="M 317.053844 65.290909 
L 317.053844 156.109091 
" clip-path="url(#p10f91132aa)" style="fill: none; stroke: #ff0000; stroke-width: 1.5"/>
    <path d="M 320.687786 65.290909 
L 320.687786 156.109091 
" clip-path="url(#p10f91132aa)" style="fill: none; stroke: #ff0000; stroke-width: 1.5"/>
    <path d="M 321.471682 65.290909 
L 321.471682 156.109091 
" clip-path="url(#p10f91132aa)" style="fill: none; stroke: #ff0000; stroke-width: 1.5"/>
    <path d="M 322.601887 65.290909 
L 322.601887 156.109091 
" clip-path="url(#p10f91132aa)" style="fill: none; stroke: #ff0000; stroke-width: 1.5"/>
    <path d="M 324.160419 65.290909 
L 324.160419 156.109091 
" clip-path="url(#p10f91132aa)" style="fill: none; stroke: #ff0000; stroke-width: 1.5"/>
    <path d="M 324.375982 65.290909 
L 324.375982 156.109091 
" clip-path="url(#p10f91132aa)" style="fill: none; stroke: #ff0000; stroke-width: 1.5"/>
    <path d="M 328.841755 65.290909 
L 328.841755 156.109091 
" clip-path="url(#p10f91132aa)" style="fill: none; stroke: #ff0000; stroke-width: 1.5"/>
    <path d="M 332.808027 65.290909 
L 332.808027 156.109091 
" clip-path="url(#p10f91132aa)" style="fill: none; stroke: #ff0000; stroke-width: 1.5"/>
    <path d="M 336.487351 65.290909 
L 336.487351 156.109091 
" clip-path="url(#p10f91132aa)" style="fill: none; stroke: #ff0000; stroke-width: 1.5"/>
    <path d="M 342.247044 65.290909 
L 342.247044 156.109091 
" clip-path="url(#p10f91132aa)" style="fill: none; stroke: #ff0000; stroke-width: 1.5"/>
    <path d="M 342.75944 65.290909 
L 342.75944 156.109091 
" clip-path="url(#p10f91132aa)" style="fill: none; stroke: #ff0000; stroke-width: 1.5"/>
    <path d="M 345.866232 65.290909 
L 345.866232 156.109091 
" clip-path="url(#p10f91132aa)" style="fill: none; stroke: #ff0000; stroke-width: 1.5"/>
    <path d="M 348.435449 65.290909 
L 348.435449 156.109091 
" clip-path="url(#p10f91132aa)" style="fill: none; stroke: #ff0000; stroke-width: 1.5"/>
    <path d="M 350.330405 65.290909 
L 350.330405 156.109091 
" clip-path="url(#p10f91132aa)" style="fill: none; stroke: #ff0000; stroke-width: 1.5"/>
    <path d="M 351.862443 65.290909 
L 351.862443 156.109091 
" clip-path="url(#p10f91132aa)" style="fill: none; stroke: #ff0000; stroke-width: 1.5"/>
    <path d="M 354.079632 65.290909 
L 354.079632 156.109091 
" clip-path="url(#p10f91132aa)" style="fill: none; stroke: #ff0000; stroke-width: 1.5"/>
    <path d="M 354.461801 65.290909 
L 354.461801 156.109091 
" clip-path="url(#p10f91132aa)" style="fill: none; stroke: #ff0000; stroke-width: 1.5"/>
    <path d="M 361.54996 65.290909 
L 361.54996 156.109091 
" clip-path="url(#p10f91132aa)" style="fill: none; stroke: #ff0000; stroke-width: 1.5"/>
    <path d="M 363.823032 65.290909 
L 363.823032 156.109091 
" clip-path="url(#p10f91132aa)" style="fill: none; stroke: #ff0000; stroke-width: 1.5"/>
    <path d="M 364.391425 65.290909 
L 364.391425 156.109091 
" clip-path="url(#p10f91132aa)" style="fill: none; stroke: #ff0000; stroke-width: 1.5"/>
    <path d="M 373.498684 65.290909 
L 373.498684 156.109091 
" clip-path="url(#p10f91132aa)" style="fill: none; stroke: #ff0000; stroke-width: 1.5"/>
    <path d="M 377.58469 65.290909 
L 377.58469 156.109091 
" clip-path="url(#p10f91132aa)" style="fill: none; stroke: #ff0000; stroke-width: 1.5"/>
    <path d="M 385.509682 65.290909 
L 385.509682 156.109091 
" clip-path="url(#p10f91132aa)" style="fill: none; stroke: #ff0000; stroke-width: 1.5"/>
    <path d="M 494.356338 65.290909 
L 494.356338 156.109091 
" clip-path="url(#p10f91132aa)" style="fill: none; stroke: #ff0000; stroke-width: 1.5"/>
    <path d="M 505.849208 65.290909 
L 505.849208 156.109091 
" clip-path="url(#p10f91132aa)" style="fill: none; stroke: #ff0000; stroke-width: 1.5"/>
    <path d="M 516.778048 65.290909 
L 516.778048 156.109091 
" clip-path="url(#p10f91132aa)" style="fill: none; stroke: #ff0000; stroke-width: 1.5"/>
    <path d="M 518.235428 65.290909 
L 518.235428 156.109091 
" clip-path="url(#p10f91132aa)" style="fill: none; stroke: #ff0000; stroke-width: 1.5"/>
    <path d="M 522.054621 65.290909 
L 522.054621 156.109091 
" clip-path="url(#p10f91132aa)" style="fill: none; stroke: #ff0000; stroke-width: 1.5"/>
    <path d="M 522.285693 65.290909 
L 522.285693 156.109091 
" clip-path="url(#p10f91132aa)" style="fill: none; stroke: #ff0000; stroke-width: 1.5"/>
    <path d="M 526.259672 65.290909 
L 526.259672 156.109091 
" clip-path="url(#p10f91132aa)" style="fill: none; stroke: #ff0000; stroke-width: 1.5"/>
    <path d="M 532.940712 65.290909 
L 532.940712 156.109091 
" clip-path="url(#p10f91132aa)" style="fill: none; stroke: #ff0000; stroke-width: 1.5"/>
    <path d="M 533.663435 65.290909 
L 533.663435 156.109091 
" clip-path="url(#p10f91132aa)" style="fill: none; stroke: #ff0000; stroke-width: 1.5"/>
    <path d="M 536.270205 65.290909 
L 536.270205 156.109091 
" clip-path="url(#p10f91132aa)" style="fill: none; stroke: #ff0000; stroke-width: 1.5"/>
    <path d="M 540.649413 65.290909 
L 540.649413 156.109091 
" clip-path="url(#p10f91132aa)" style="fill: none; stroke: #ff0000; stroke-width: 1.5"/>
    <path d="M 541.464656 65.290909 
L 541.464656 156.109091 
" clip-path="url(#p10f91132aa)" style="fill: none; stroke: #ff0000; stroke-width: 1.5"/>
    <path d="M 546.479802 65.290909 
L 546.479802 156.109091 
" clip-path="url(#p10f91132aa)" style="fill: none; stroke: #ff0000; stroke-width: 1.5"/>
    <path d="M 547.76068 65.290909 
L 547.76068 156.109091 
" clip-path="url(#p10f91132aa)" style="fill: none; stroke: #ff0000; stroke-width: 1.5"/>
    <path d="M 548.83084 65.290909 
L 548.83084 156.109091 
" clip-path="url(#p10f91132aa)" style="fill: none; stroke: #ff0000; stroke-width: 1.5"/>
    <path d="M 548.946448 65.290909 
L 548.946448 156.109091 
" clip-path="url(#p10f91132aa)" style="fill: none; stroke: #ff0000; stroke-width: 1.5"/>
    <path d="M 550.036852 65.290909 
L 550.036852 156.109091 
" clip-path="url(#p10f91132aa)" style="fill: none; stroke: #ff0000; stroke-width: 1.5"/>
    <path d="M 551.911127 65.290909 
L 551.911127 156.109091 
" clip-path="url(#p10f91132aa)" style="fill: none; stroke: #ff0000; stroke-width: 1.5"/>
    <path d="M 555.082323 65.290909 
L 555.082323 156.109091 
" clip-path="url(#p10f91132aa)" style="fill: none; stroke: #ff0000; stroke-width: 1.5"/>
    <path d="M 555.595329 65.290909 
L 555.595329 156.109091 
" clip-path="url(#p10f91132aa)" style="fill: none; stroke: #ff0000; stroke-width: 1.5"/>
    <path d="M 556.020833 65.290909 
L 556.020833 156.109091 
" clip-path="url(#p10f91132aa)" style="fill: none; stroke: #ff0000; stroke-width: 1.5"/>
    <path d="M 568.003982 65.290909 
L 568.003982 156.109091 
" clip-path="url(#p10f91132aa)" style="fill: none; stroke: #ff0000; stroke-width: 1.5"/>
    <path d="M 568.720579 65.290909 
L 568.720579 156.109091 
" clip-path="url(#p10f91132aa)" style="fill: none; stroke: #ff0000; stroke-width: 1.5"/>
    <path d="M 568.736062 65.290909 
L 568.736062 156.109091 
" clip-path="url(#p10f91132aa)" style="fill: none; stroke: #ff0000; stroke-width: 1.5"/>
    <path d="M 569.260286 65.290909 
L 569.260286 156.109091 
" clip-path="url(#p10f91132aa)" style="fill: none; stroke: #ff0000; stroke-width: 1.5"/>
    <path d="M 571.139282 65.290909 
L 571.139282 156.109091 
" clip-path="url(#p10f91132aa)" style="fill: none; stroke: #ff0000; stroke-width: 1.5"/>
    <path d="M 597.974885 65.290909 
L 597.974885 156.109091 
" clip-path="url(#p10f91132aa)" style="fill: none; stroke: #ff0000; stroke-width: 1.5"/>
    <path d="M 604.180333 65.290909 
L 604.180333 156.109091 
" clip-path="url(#p10f91132aa)" style="fill: none; stroke: #ff0000; stroke-width: 1.5"/>
    <path d="M 611.151373 65.290909 
L 611.151373 156.109091 
" clip-path="url(#p10f91132aa)" style="fill: none; stroke: #ff0000; stroke-width: 1.5"/>
    <path d="M 617.050866 65.290909 
L 617.050866 156.109091 
" clip-path="url(#p10f91132aa)" style="fill: none; stroke: #ff0000; stroke-width: 1.5"/>
    <path d="M 701.839351 65.290909 
L 701.839351 156.109091 
" clip-path="url(#p10f91132aa)" style="fill: none; stroke: #ff0000; stroke-width: 1.5"/>
    <path d="M 705.602805 65.290909 
L 705.602805 156.109091 
" clip-path="url(#p10f91132aa)" style="fill: none; stroke: #ff0000; stroke-width: 1.5"/>
    <path d="M 708.732851 65.290909 
L 708.732851 156.109091 
" clip-path="url(#p10f91132aa)" style="fill: none; stroke: #ff0000; stroke-width: 1.5"/>
    <path d="M 709.2 65.290909 
L 709.2 156.109091 
" clip-path="url(#p10f91132aa)" style="fill: none; stroke: #ff0000; stroke-width: 1.5"/>
   </g>
  </g>
  <g id="axes_2">
   <g id="patch_3">
    <path d="M 10.8 421.2 
L 709.2 421.2 
L 709.2 221.4 
L 10.8 221.4 
z
" style="fill: #ffffff"/>
   </g>
   <g id="matplotlib.axis_3"/>
   <g id="matplotlib.axis_4"/>
   <g id="line2d_1">
    <path d="M 10.8 412.118182 
L 16.62 353.575745 
L 22.44 310.837999 
L 28.26 280.269709 
L 34.08 259.046546 
L 39.9 244.975379 
L 45.72 236.354341 
L 51.54 231.863861 
L 57.36 230.481818 
L 63.18 231.417471 
L 69 234.060021 
L 74.82 237.938564 
L 80.64 242.690912 
L 86.46 248.039321 
L 92.28 253.771605 
L 103.92 265.781877 
L 115.56 277.852607 
L 127.2 289.504544 
L 133.02 295.090026 
L 138.84 300.490354 
L 144.66 305.695258 
L 150.48 310.699238 
L 156.3 315.500386 
L 162.12 320.099478 
L 167.94 324.499268 
L 173.76 328.703947 
L 179.58 332.718723 
L 185.4 336.549505 
L 191.22 340.202654 
L 197.04 343.684799 
L 202.86 347.002696 
L 208.68 350.163121 
L 214.5 353.172793 
L 220.32 356.038317 
L 226.14 358.766139 
L 231.96 361.362523 
L 243.6 366.184981 
L 255.24 370.551505 
L 266.88 374.504308 
L 278.52 378.08205 
L 290.16 381.31999 
L 301.8 384.250204 
L 313.44 386.901815 
L 325.08 389.301241 
L 336.72 391.472421 
L 348.36 393.43704 
L 360 395.214735 
L 371.64 396.82328 
L 389.1 398.953713 
L 406.56 400.787407 
L 424.02 402.365688 
L 441.48 403.72413 
L 458.94 404.893353 
L 482.22 406.202992 
L 505.5 407.275234 
L 534.6 408.34649 
L 563.7 409.180785 
L 598.62 409.942105 
L 639.36 410.584726 
L 685.92 411.090276 
L 721 411.357711 
L 721 411.357711 
" clip-path="url(#p95ea9196a9)" style="fill: none; stroke: #ff0000; stroke-width: 7; stroke-linecap: square"/>
   </g>
   <g id="patch_4">
    <path d="M 10.8 421.2 
L 709.2 421.2 
" style="fill: none; stroke: #000000; stroke-width: 0.8; stroke-linejoin: miter; stroke-linecap: square"/>
   </g>
  </g>
 </g>
 <defs>
  <clipPath id="p10f91132aa">
   <rect x="10.8" y="10.8" width="698.4" height="199.8"/>
  </clipPath>
  <clipPath id="p95ea9196a9">
   <rect x="10.8" y="221.4" width="698.4" height="199.8"/>
  </clipPath>
 </defs>
</svg>
