<?xml version="1.0" encoding="utf-8" standalone="no"?>
<!DOCTYPE svg PUBLIC "-//W3C//DTD SVG 1.1//EN"
  "http://www.w3.org/Graphics/SVG/1.1/DTD/svg11.dtd">
<svg xmlns:xlink="http://www.w3.org/1999/xlink" width="720pt" height="432pt" viewBox="0 0 720 432" xmlns="http://www.w3.org/2000/svg" version="1.1">
 <metadata>
  <rdf:RDF xmlns:dc="http://purl.org/dc/elements/1.1/" xmlns:cc="http://creativecommons.org/ns#" xmlns:rdf="http://www.w3.org/1999/02/22-rdf-syntax-ns#">
   <cc:Work>
    <dc:type rdf:resource="http://purl.org/dc/dcmitype/StillImage"/>
    <dc:date>2024-05-29T08:26:19.180826</dc:date>
    <dc:format>image/svg+xml</dc:format>
    <dc:creator>
     <cc:Agent>
      <dc:title>Matplotlib v3.8.4, https://matplotlib.org/</dc:title>
     </cc:Agent>
    </dc:creator>
   </cc:Work>
  </rdf:RDF>
 </metadata>
 <defs>
  <style type="text/css">*{stroke-linejoin: round; stroke-linecap: butt}</style>
 </defs>
 <g id="figure_1">
  <g id="patch_1">
   <path d="M 0 432 
L 720 432 
L 720 0 
L 0 0 
z
" style="fill: #ffffff"/>
  </g>
  <g id="axes_1">
   <g id="patch_2">
    <path d="M 10.8 210.6 
L 709.2 210.6 
L 709.2 10.8 
L 10.8 10.8 
z
" style="fill: #ffffff"/>
   </g>
   <g id="matplotlib.axis_1"/>
   <g id="matplotlib.axis_2"/>
   <g id="EventCollection_1">
    <path d="M 17.067241 65.290909 
L 17.067241 156.109091 
" clip-path="url(#pb43649f95e)" style="fill: none; stroke: #0000ff; stroke-width: 1.5"/>
    <path d="M 19.964517 65.290909 
L 19.964517 156.109091 
" clip-path="url(#pb43649f95e)" style="fill: none; stroke: #0000ff; stroke-width: 1.5"/>
    <path d="M 22.797215 65.290909 
L 22.797215 156.109091 
" clip-path="url(#pb43649f95e)" style="fill: none; stroke: #0000ff; stroke-width: 1.5"/>
    <path d="M 26.98102 65.290909 
L 26.98102 156.109091 
" clip-path="url(#pb43649f95e)" style="fill: none; stroke: #0000ff; stroke-width: 1.5"/>
    <path d="M 28.926431 65.290909 
L 28.926431 156.109091 
" clip-path="url(#pb43649f95e)" style="fill: none; stroke: #0000ff; stroke-width: 1.5"/>
    <path d="M 30.527949 65.290909 
L 30.527949 156.109091 
" clip-path="url(#pb43649f95e)" style="fill: none; stroke: #0000ff; stroke-width: 1.5"/>
    <path d="M 38.535051 65.290909 
L 38.535051 156.109091 
" clip-path="url(#pb43649f95e)" style="fill: none; stroke: #0000ff; stroke-width: 1.5"/>
    <path d="M 39.961499 65.290909 
L 39.961499 156.109091 
" clip-path="url(#pb43649f95e)" style="fill: none; stroke: #0000ff; stroke-width: 1.5"/>
    <path d="M 40.401833 65.290909 
L 40.401833 156.109091 
" clip-path="url(#pb43649f95e)" style="fill: none; stroke: #0000ff; stroke-width: 1.5"/>
    <path d="M 40.539441 65.290909 
L 40.539441 156.109091 
" clip-path="url(#pb43649f95e)" style="fill: none; stroke: #0000ff; stroke-width: 1.5"/>
    <path d="M 42.27784 65.290909 
L 42.27784 156.109091 
" clip-path="url(#pb43649f95e)" style="fill: none; stroke: #0000ff; stroke-width: 1.5"/>
    <path d="M 42.298152 65.290909 
L 42.298152 156.109091 
" clip-path="url(#pb43649f95e)" style="fill: none; stroke: #0000ff; stroke-width: 1.5"/>
    <path d="M 45.397912 65.290909 
L 45.397912 156.109091 
" clip-path="url(#pb43649f95e)" style="fill: none; stroke: #0000ff; stroke-width: 1.5"/>
    <path d="M 47.546021 65.290909 
L 47.546021 156.109091 
" clip-path="url(#pb43649f95e)" style="fill: none; stroke: #0000ff; stroke-width: 1.5"/>
    <path d="M 52.80646 65.290909 
L 52.80646 156.109091 
" clip-path="url(#pb43649f95e)" style="fill: none; stroke: #0000ff; stroke-width: 1.5"/>
    <path d="M 56.126882 65.290909 
L 56.126882 156.109091 
" clip-path="url(#pb43649f95e)" style="fill: none; stroke: #0000ff; stroke-width: 1.5"/>
    <path d="M 56.561221 65.290909 
L 56.561221 156.109091 
" clip-path="url(#pb43649f95e)" style="fill: none; stroke: #0000ff; stroke-width: 1.5"/>
    <path d="M 58.880581 65.290909 
L 58.880581 156.109091 
" clip-path="url(#pb43649f95e)" style="fill: none; stroke: #0000ff; stroke-width: 1.5"/>
    <path d="M 60.381742 65.290909 
L 60.381742 156.109091 
" clip-path="url(#pb43649f95e)" style="fill: none; stroke: #0000ff; stroke-width: 1.5"/>
    <path d="M 62.549942 65.290909 
L 62.549942 156.109091 
" clip-path="url(#pb43649f95e)" style="fill: none; stroke: #0000ff; stroke-width: 1.5"/>
    <path d="M 63.203037 65.290909 
L 63.203037 156.109091 
" clip-path="url(#pb43649f95e)" style="fill: none; stroke: #0000ff; stroke-width: 1.5"/>
    <path d="M 67.309301 65.290909 
L 67.309301 156.109091 
" clip-path="url(#pb43649f95e)" style="fill: none; stroke: #0000ff; stroke-width: 1.5"/>
    <path d="M 69.66157 65.290909 
L 69.66157 156.109091 
" clip-path="url(#pb43649f95e)" style="fill: none; stroke: #0000ff; stroke-width: 1.5"/>
    <path d="M 71.307307 65.290909 
L 71.307307 156.109091 
" clip-path="url(#pb43649f95e)" style="fill: none; stroke: #0000ff; stroke-width: 1.5"/>
    <path d="M 71.781216 65.290909 
L 71.781216 156.109091 
" clip-path="url(#pb43649f95e)" style="fill: none; stroke: #0000ff; stroke-width: 1.5"/>
    <path d="M 72.803961 65.290909 
L 72.803961 156.109091 
" clip-path="url(#pb43649f95e)" style="fill: none; stroke: #0000ff; stroke-width: 1.5"/>
    <path d="M 74.480198 65.290909 
L 74.480198 156.109091 
" clip-path="url(#pb43649f95e)" style="fill: none; stroke: #0000ff; stroke-width: 1.5"/>
    <path d="M 80.945086 65.290909 
L 80.945086 156.109091 
" clip-path="url(#pb43649f95e)" style="fill: none; stroke: #0000ff; stroke-width: 1.5"/>
    <path d="M 84.83215 65.290909 
L 84.83215 156.109091 
" clip-path="url(#pb43649f95e)" style="fill: none; stroke: #0000ff; stroke-width: 1.5"/>
    <path d="M 93.953952 65.290909 
L 93.953952 156.109091 
" clip-path="url(#pb43649f95e)" style="fill: none; stroke: #0000ff; stroke-width: 1.5"/>
    <path d="M 98.228477 65.290909 
L 98.228477 156.109091 
" clip-path="url(#pb43649f95e)" style="fill: none; stroke: #0000ff; stroke-width: 1.5"/>
    <path d="M 101.100722 65.290909 
L 101.100722 156.109091 
" clip-path="url(#pb43649f95e)" style="fill: none; stroke: #0000ff; stroke-width: 1.5"/>
    <path d="M 106.982127 65.290909 
L 106.982127 156.109091 
" clip-path="url(#pb43649f95e)" style="fill: none; stroke: #0000ff; stroke-width: 1.5"/>
    <path d="M 168.288679 65.290909 
L 168.288679 156.109091 
" clip-path="url(#pb43649f95e)" style="fill: none; stroke: #0000ff; stroke-width: 1.5"/>
    <path d="M 188.554668 65.290909 
L 188.554668 156.109091 
" clip-path="url(#pb43649f95e)" style="fill: none; stroke: #0000ff; stroke-width: 1.5"/>
    <path d="M 195.478217 65.290909 
L 195.478217 156.109091 
" clip-path="url(#pb43649f95e)" style="fill: none; stroke: #0000ff; stroke-width: 1.5"/>
    <path d="M 205.255984 65.290909 
L 205.255984 156.109091 
" clip-path="url(#pb43649f95e)" style="fill: none; stroke: #0000ff; stroke-width: 1.5"/>
    <path d="M 212.977006 65.290909 
L 212.977006 156.109091 
" clip-path="url(#pb43649f95e)" style="fill: none; stroke: #0000ff; stroke-width: 1.5"/>
    <path d="M 223.05933 65.290909 
L 223.05933 156.109091 
" clip-path="url(#pb43649f95e)" style="fill: none; stroke: #0000ff; stroke-width: 1.5"/>
    <path d="M 226.174712 65.290909 
L 226.174712 156.109091 
" clip-path="url(#pb43649f95e)" style="fill: none; stroke: #0000ff; stroke-width: 1.5"/>
    <path d="M 237.273942 65.290909 
L 237.273942 156.109091 
" clip-path="url(#pb43649f95e)" style="fill: none; stroke: #0000ff; stroke-width: 1.5"/>
    <path d="M 238.939442 65.290909 
L 238.939442 156.109091 
" clip-path="url(#pb43649f95e)" style="fill: none; stroke: #0000ff; stroke-width: 1.5"/>
    <path d="M 239.002448 65.290909 
L 239.002448 156.109091 
" clip-path="url(#pb43649f95e)" style="fill: none; stroke: #0000ff; stroke-width: 1.5"/>
    <path d="M 239.483309 65.290909 
L 239.483309 156.109091 
" clip-path="url(#pb43649f95e)" style="fill: none; stroke: #0000ff; stroke-width: 1.5"/>
    <path d="M 241.700074 65.290909 
L 241.700074 156.109091 
" clip-path="url(#pb43649f95e)" style="fill: none; stroke: #0000ff; stroke-width: 1.5"/>
    <path d="M 247.2872 65.290909 
L 247.2872 156.109091 
" clip-path="url(#pb43649f95e)" style="fill: none; stroke: #0000ff; stroke-width: 1.5"/>
    <path d="M 250.882153 65.290909 
L 250.882153 156.109091 
" clip-path="url(#pb43649f95e)" style="fill: none; stroke: #0000ff; stroke-width: 1.5"/>
    <path d="M 253.593011 65.290909 
L 253.593011 156.109091 
" clip-path="url(#pb43649f95e)" style="fill: none; stroke: #0000ff; stroke-width: 1.5"/>
    <path d="M 257.779131 65.290909 
L 257.779131 156.109091 
" clip-path="url(#pb43649f95e)" style="fill: none; stroke: #0000ff; stroke-width: 1.5"/>
    <path d="M 259.558283 65.290909 
L 259.558283 156.109091 
" clip-path="url(#pb43649f95e)" style="fill: none; stroke: #0000ff; stroke-width: 1.5"/>
    <path d="M 261.660833 65.290909 
L 261.660833 156.109091 
" clip-path="url(#pb43649f95e)" style="fill: none; stroke: #0000ff; stroke-width: 1.5"/>
    <path d="M 268.479259 65.290909 
L 268.479259 156.109091 
" clip-path="url(#pb43649f95e)" style="fill: none; stroke: #0000ff; stroke-width: 1.5"/>
    <path d="M 269.516819 65.290909 
L 269.516819 156.109091 
" clip-path="url(#pb43649f95e)" style="fill: none; stroke: #0000ff; stroke-width: 1.5"/>
    <path d="M 270.242162 65.290909 
L 270.242162 156.109091 
" clip-path="url(#pb43649f95e)" style="fill: none; stroke: #0000ff; stroke-width: 1.5"/>
    <path d="M 272.184174 65.290909 
L 272.184174 156.109091 
" clip-path="url(#pb43649f95e)" style="fill: none; stroke: #0000ff; stroke-width: 1.5"/>
    <path d="M 274.949976 65.290909 
L 274.949976 156.109091 
" clip-path="url(#pb43649f95e)" style="fill: none; stroke: #0000ff; stroke-width: 1.5"/>
    <path d="M 275.920127 65.290909 
L 275.920127 156.109091 
" clip-path="url(#pb43649f95e)" style="fill: none; stroke: #0000ff; stroke-width: 1.5"/>
    <path d="M 279.725026 65.290909 
L 279.725026 156.109091 
" clip-path="url(#pb43649f95e)" style="fill: none; stroke: #0000ff; stroke-width: 1.5"/>
    <path d="M 289.533569 65.290909 
L 289.533569 156.109091 
" clip-path="url(#pb43649f95e)" style="fill: none; stroke: #0000ff; stroke-width: 1.5"/>
    <path d="M 291.445289 65.290909 
L 291.445289 156.109091 
" clip-path="url(#pb43649f95e)" style="fill: none; stroke: #0000ff; stroke-width: 1.5"/>
    <path d="M 292.303058 65.290909 
L 292.303058 156.109091 
" clip-path="url(#pb43649f95e)" style="fill: none; stroke: #0000ff; stroke-width: 1.5"/>
    <path d="M 296.384541 65.290909 
L 296.384541 156.109091 
" clip-path="url(#pb43649f95e)" style="fill: none; stroke: #0000ff; stroke-width: 1.5"/>
    <path d="M 298.643172 65.290909 
L 298.643172 156.109091 
" clip-path="url(#pb43649f95e)" style="fill: none; stroke: #0000ff; stroke-width: 1.5"/>
    <path d="M 299.715772 65.290909 
L 299.715772 156.109091 
" clip-path="url(#pb43649f95e)" style="fill: none; stroke: #0000ff; stroke-width: 1.5"/>
    <path d="M 309.24913 65.290909 
L 309.24913 156.109091 
" clip-path="url(#pb43649f95e)" style="fill: none; stroke: #0000ff; stroke-width: 1.5"/>
    <path d="M 313.12881 65.290909 
L 313.12881 156.109091 
" clip-path="url(#pb43649f95e)" style="fill: none; stroke: #0000ff; stroke-width: 1.5"/>
    <path d="M 317.409173 65.290909 
L 317.409173 156.109091 
" clip-path="url(#pb43649f95e)" style="fill: none; stroke: #0000ff; stroke-width: 1.5"/>
    <path d="M 325.45165 65.290909 
L 325.45165 156.109091 
" clip-path="url(#pb43649f95e)" style="fill: none; stroke: #0000ff; stroke-width: 1.5"/>
    <path d="M 326.137882 65.290909 
L 326.137882 156.109091 
" clip-path="url(#pb43649f95e)" style="fill: none; stroke: #0000ff; stroke-width: 1.5"/>
    <path d="M 327.331306 65.290909 
L 327.331306 156.109091 
" clip-path="url(#pb43649f95e)" style="fill: none; stroke: #0000ff; stroke-width: 1.5"/>
    <path d="M 330.224072 65.290909 
L 330.224072 156.109091 
" clip-path="url(#pb43649f95e)" style="fill: none; stroke: #0000ff; stroke-width: 1.5"/>
    <path d="M 335.291605 65.290909 
L 335.291605 156.109091 
" clip-path="url(#pb43649f95e)" style="fill: none; stroke: #0000ff; stroke-width: 1.5"/>
    <path d="M 338.787358 65.290909 
L 338.787358 156.109091 
" clip-path="url(#pb43649f95e)" style="fill: none; stroke: #0000ff; stroke-width: 1.5"/>
    <path d="M 428.099854 65.290909 
L 428.099854 156.109091 
" clip-path="url(#pb43649f95e)" style="fill: none; stroke: #0000ff; stroke-width: 1.5"/>
    <path d="M 433.578943 65.290909 
L 433.578943 156.109091 
" clip-path="url(#pb43649f95e)" style="fill: none; stroke: #0000ff; stroke-width: 1.5"/>
    <path d="M 449.279015 65.290909 
L 449.279015 156.109091 
" clip-path="url(#pb43649f95e)" style="fill: none; stroke: #0000ff; stroke-width: 1.5"/>
    <path d="M 461.048042 65.290909 
L 461.048042 156.109091 
" clip-path="url(#pb43649f95e)" style="fill: none; stroke: #0000ff; stroke-width: 1.5"/>
    <path d="M 461.922794 65.290909 
L 461.922794 156.109091 
" clip-path="url(#pb43649f95e)" style="fill: none; stroke: #0000ff; stroke-width: 1.5"/>
    <path d="M 464.279807 65.290909 
L 464.279807 156.109091 
" clip-path="url(#pb43649f95e)" style="fill: none; stroke: #0000ff; stroke-width: 1.5"/>
    <path d="M 483.35455 65.290909 
L 483.35455 156.109091 
" clip-path="url(#pb43649f95e)" style="fill: none; stroke: #0000ff; stroke-width: 1.5"/>
    <path d="M 484.96289 65.290909 
L 484.96289 156.109091 
" clip-path="url(#pb43649f95e)" style="fill: none; stroke: #0000ff; stroke-width: 1.5"/>
    <path d="M 487.971707 65.290909 
L 487.971707 156.109091 
" clip-path="url(#pb43649f95e)" style="fill: none; stroke: #0000ff; stroke-width: 1.5"/>
    <path d="M 500.584635 65.290909 
L 500.584635 156.109091 
" clip-path="url(#pb43649f95e)" style="fill: none; stroke: #0000ff; stroke-width: 1.5"/>
    <path d="M 502.627766 65.290909 
L 502.627766 156.109091 
" clip-path="url(#pb43649f95e)" style="fill: none; stroke: #0000ff; stroke-width: 1.5"/>
    <path d="M 504.074884 65.290909 
L 504.074884 156.109091 
" clip-path="url(#pb43649f95e)" style="fill: none; stroke: #0000ff; stroke-width: 1.5"/>
    <path d="M 506.202358 65.290909 
L 506.202358 156.109091 
" clip-path="url(#pb43649f95e)" style="fill: none; stroke: #0000ff; stroke-width: 1.5"/>
    <path d="M 506.888339 65.290909 
L 506.888339 156.109091 
" clip-path="url(#pb43649f95e)" style="fill: none; stroke: #0000ff; stroke-width: 1.5"/>
    <path d="M 522.173803 65.290909 
L 522.173803 156.109091 
" clip-path="url(#pb43649f95e)" style="fill: none; stroke: #0000ff; stroke-width: 1.5"/>
    <path d="M 524.754379 65.290909 
L 524.754379 156.109091 
" clip-path="url(#pb43649f95e)" style="fill: none; stroke: #0000ff; stroke-width: 1.5"/>
    <path d="M 525.458841 65.290909 
L 525.458841 156.109091 
" clip-path="url(#pb43649f95e)" style="fill: none; stroke: #0000ff; stroke-width: 1.5"/>
    <path d="M 528.427871 65.290909 
L 528.427871 156.109091 
" clip-path="url(#pb43649f95e)" style="fill: none; stroke: #0000ff; stroke-width: 1.5"/>
    <path d="M 533.449517 65.290909 
L 533.449517 156.109091 
" clip-path="url(#pb43649f95e)" style="fill: none; stroke: #0000ff; stroke-width: 1.5"/>
    <path d="M 533.943409 65.290909 
L 533.943409 156.109091 
" clip-path="url(#pb43649f95e)" style="fill: none; stroke: #0000ff; stroke-width: 1.5"/>
    <path d="M 537.216712 65.290909 
L 537.216712 156.109091 
" clip-path="url(#pb43649f95e)" style="fill: none; stroke: #0000ff; stroke-width: 1.5"/>
    <path d="M 539.213434 65.290909 
L 539.213434 156.109091 
" clip-path="url(#pb43649f95e)" style="fill: none; stroke: #0000ff; stroke-width: 1.5"/>
    <path d="M 541.588786 65.290909 
L 541.588786 156.109091 
" clip-path="url(#pb43649f95e)" style="fill: none; stroke: #0000ff; stroke-width: 1.5"/>
    <path d="M 546.716581 65.290909 
L 546.716581 156.109091 
" clip-path="url(#pb43649f95e)" style="fill: none; stroke: #0000ff; stroke-width: 1.5"/>
    <path d="M 564.708512 65.290909 
L 564.708512 156.109091 
" clip-path="url(#pb43649f95e)" style="fill: none; stroke: #0000ff; stroke-width: 1.5"/>
    <path d="M 564.78008 65.290909 
L 564.78008 156.109091 
" clip-path="url(#pb43649f95e)" style="fill: none; stroke: #0000ff; stroke-width: 1.5"/>
    <path d="M 570.327296 65.290909 
L 570.327296 156.109091 
" clip-path="url(#pb43649f95e)" style="fill: none; stroke: #0000ff; stroke-width: 1.5"/>
    <path d="M 584.316683 65.290909 
L 584.316683 156.109091 
" clip-path="url(#pb43649f95e)" style="fill: none; stroke: #0000ff; stroke-width: 1.5"/>
    <path d="M 587.507627 65.290909 
L 587.507627 156.109091 
" clip-path="url(#pb43649f95e)" style="fill: none; stroke: #0000ff; stroke-width: 1.5"/>
    <path d="M 670.186193 65.290909 
L 670.186193 156.109091 
" clip-path="url(#pb43649f95e)" style="fill: none; stroke: #0000ff; stroke-width: 1.5"/>
    <path d="M 676.146738 65.290909 
L 676.146738 156.109091 
" clip-path="url(#pb43649f95e)" style="fill: none; stroke: #0000ff; stroke-width: 1.5"/>
    <path d="M 684.27832 65.290909 
L 684.27832 156.109091 
" clip-path="url(#pb43649f95e)" style="fill: none; stroke: #0000ff; stroke-width: 1.5"/>
    <path d="M 684.492789 65.290909 
L 684.492789 156.109091 
" clip-path="url(#pb43649f95e)" style="fill: none; stroke: #0000ff; stroke-width: 1.5"/>
    <path d="M 689.195907 65.290909 
L 689.195907 156.109091 
" clip-path="url(#pb43649f95e)" style="fill: none; stroke: #0000ff; stroke-width: 1.5"/>
    <path d="M 702.835784 65.290909 
L 702.835784 156.109091 
" clip-path="url(#pb43649f95e)" style="fill: none; stroke: #0000ff; stroke-width: 1.5"/>
    <path d="M 706.749476 65.290909 
L 706.749476 156.109091 
" clip-path="url(#pb43649f95e)" style="fill: none; stroke: #0000ff; stroke-width: 1.5"/>
    <path d="M 709.2 65.290909 
L 709.2 156.109091 
" clip-path="url(#pb43649f95e)" style="fill: none; stroke: #0000ff; stroke-width: 1.5"/>
   </g>
  </g>
  <g id="axes_2">
   <g id="patch_3">
    <path d="M 10.8 421.2 
L 709.2 421.2 
L 709.2 221.4 
L 10.8 221.4 
z
" style="fill: #ffffff"/>
   </g>
   <g id="matplotlib.axis_3"/>
   <g id="matplotlib.axis_4"/>
   <g id="line2d_1">
    <path d="M 10.8 412.118182 
L 16.62 366.402062 
L 22.44 331.253196 
L 28.26 304.329587 
L 34.08 283.807336 
L 39.9 268.26603 
L 45.72 256.599495 
L 51.54 247.946287 
L 57.36 241.635554 
L 63.18 237.144881 
L 69 234.06745 
L 74.82 232.086477 
L 80.64 230.955289 
L 86.46 230.481818 
L 92.28 230.516524 
L 98.1 230.942983 
L 103.92 231.670567 
L 109.74 232.62873 
L 115.56 233.762575 
L 127.2 236.395924 
L 138.84 239.330594 
L 156.3 243.996731 
L 202.86 256.593414 
L 226.14 262.658105 
L 249.42 268.506186 
L 272.7 274.132756 
L 295.98 279.541573 
L 319.26 284.739362 
L 342.54 289.733731 
L 365.82 294.532411 
L 389.1 299.142985 
L 418.2 304.652837 
L 447.3 309.893981 
L 476.4 314.879513 
L 505.5 319.621898 
L 534.6 324.132995 
L 563.7 328.424083 
L 592.8 332.505893 
L 621.9 336.38863 
L 656.82 340.798776 
L 691.74 344.952094 
L 721 348.2453 
L 721 348.2453 
" clip-path="url(#p583a0abe41)" style="fill: none; stroke: #0000ff; stroke-width: 7; stroke-linecap: square"/>
   </g>
   <g id="patch_4">
    <path d="M 10.8 421.2 
L 709.2 421.2 
" style="fill: none; stroke: #000000; stroke-width: 0.8; stroke-linejoin: miter; stroke-linecap: square"/>
   </g>
  </g>
 </g>
 <defs>
  <clipPath id="pb43649f95e">
   <rect x="10.8" y="10.8" width="698.4" height="199.8"/>
  </clipPath>
  <clipPath id="p583a0abe41">
   <rect x="10.8" y="221.4" width="698.4" height="199.8"/>
  </clipPath>
 </defs>
</svg>
