<?xml version="1.0" encoding="utf-8" standalone="no"?>
<!DOCTYPE svg PUBLIC "-//W3C//DTD SVG 1.1//EN"
  "http://www.w3.org/Graphics/SVG/1.1/DTD/svg11.dtd">
<svg xmlns:xlink="http://www.w3.org/1999/xlink" width="432pt" height="216pt" viewBox="0 0 432 216" xmlns="http://www.w3.org/2000/svg" version="1.1">
 <metadata>
  <rdf:RDF xmlns:dc="http://purl.org/dc/elements/1.1/" xmlns:cc="http://creativecommons.org/ns#" xmlns:rdf="http://www.w3.org/1999/02/22-rdf-syntax-ns#">
   <cc:Work>
    <dc:type rdf:resource="http://purl.org/dc/dcmitype/StillImage"/>
    <dc:date>2024-06-17T17:00:55.225090</dc:date>
    <dc:format>image/svg+xml</dc:format>
    <dc:creator>
     <cc:Agent>
      <dc:title>Matplotlib v3.5.3, https://matplotlib.org/</dc:title>
     </cc:Agent>
    </dc:creator>
   </cc:Work>
  </rdf:RDF>
 </metadata>
 <defs>
  <style type="text/css">*{stroke-linejoin: round; stroke-linecap: butt}</style>
 </defs>
 <g id="figure_1">
  <g id="patch_1">
   <path d="M 0 216 
L 432 216 
L 432 0 
L 0 0 
z
" style="fill: #ffffff"/>
  </g>
  <g id="axes_1">
   <g id="patch_2">
    <path d="M 10.8 102.6 
L 421.2 102.6 
L 421.2 10.8 
L 10.8 10.8 
z
" style="fill: #ffffff"/>
   </g>
   <g id="matplotlib.axis_1"/>
   <g id="matplotlib.axis_2"/>
   <g id="EventCollection_1">
    <path d="M 11.203967 61.29 
L 11.203967 70.47 
" clip-path="url(#p15a1de22c3)" style="fill: none; stroke: #ff0000; stroke-width: 1.5"/>
    <path d="M 13.277671 61.29 
L 13.277671 70.47 
" clip-path="url(#p15a1de22c3)" style="fill: none; stroke: #ff0000; stroke-width: 1.5"/>
    <path d="M 14.720181 61.29 
L 14.720181 70.47 
" clip-path="url(#p15a1de22c3)" style="fill: none; stroke: #ff0000; stroke-width: 1.5"/>
    <path d="M 15.201915 61.29 
L 15.201915 70.47 
" clip-path="url(#p15a1de22c3)" style="fill: none; stroke: #ff0000; stroke-width: 1.5"/>
    <path d="M 15.817385 61.29 
L 15.817385 70.47 
" clip-path="url(#p15a1de22c3)" style="fill: none; stroke: #ff0000; stroke-width: 1.5"/>
    <path d="M 16.307761 61.29 
L 16.307761 70.47 
" clip-path="url(#p15a1de22c3)" style="fill: none; stroke: #ff0000; stroke-width: 1.5"/>
    <path d="M 18.766952 61.29 
L 18.766952 70.47 
" clip-path="url(#p15a1de22c3)" style="fill: none; stroke: #ff0000; stroke-width: 1.5"/>
    <path d="M 20.590499 61.29 
L 20.590499 70.47 
" clip-path="url(#p15a1de22c3)" style="fill: none; stroke: #ff0000; stroke-width: 1.5"/>
    <path d="M 20.909827 61.29 
L 20.909827 70.47 
" clip-path="url(#p15a1de22c3)" style="fill: none; stroke: #ff0000; stroke-width: 1.5"/>
    <path d="M 21.874578 61.29 
L 21.874578 70.47 
" clip-path="url(#p15a1de22c3)" style="fill: none; stroke: #ff0000; stroke-width: 1.5"/>
    <path d="M 27.746685 61.29 
L 27.746685 70.47 
" clip-path="url(#p15a1de22c3)" style="fill: none; stroke: #ff0000; stroke-width: 1.5"/>
    <path d="M 30.469318 61.29 
L 30.469318 70.47 
" clip-path="url(#p15a1de22c3)" style="fill: none; stroke: #ff0000; stroke-width: 1.5"/>
    <path d="M 34.318267 61.29 
L 34.318267 70.47 
" clip-path="url(#p15a1de22c3)" style="fill: none; stroke: #ff0000; stroke-width: 1.5"/>
    <path d="M 34.320198 61.29 
L 34.320198 70.47 
" clip-path="url(#p15a1de22c3)" style="fill: none; stroke: #ff0000; stroke-width: 1.5"/>
    <path d="M 34.8552 61.29 
L 34.8552 70.47 
" clip-path="url(#p15a1de22c3)" style="fill: none; stroke: #ff0000; stroke-width: 1.5"/>
    <path d="M 37.474747 61.29 
L 37.474747 70.47 
" clip-path="url(#p15a1de22c3)" style="fill: none; stroke: #ff0000; stroke-width: 1.5"/>
    <path d="M 44.632319 61.29 
L 44.632319 70.47 
" clip-path="url(#p15a1de22c3)" style="fill: none; stroke: #ff0000; stroke-width: 1.5"/>
    <path d="M 123.832202 61.29 
L 123.832202 70.47 
" clip-path="url(#p15a1de22c3)" style="fill: none; stroke: #ff0000; stroke-width: 1.5"/>
    <path d="M 128.411174 61.29 
L 128.411174 70.47 
" clip-path="url(#p15a1de22c3)" style="fill: none; stroke: #ff0000; stroke-width: 1.5"/>
    <path d="M 128.993197 61.29 
L 128.993197 70.47 
" clip-path="url(#p15a1de22c3)" style="fill: none; stroke: #ff0000; stroke-width: 1.5"/>
    <path d="M 132.91996 61.29 
L 132.91996 70.47 
" clip-path="url(#p15a1de22c3)" style="fill: none; stroke: #ff0000; stroke-width: 1.5"/>
    <path d="M 134.072321 61.29 
L 134.072321 70.47 
" clip-path="url(#p15a1de22c3)" style="fill: none; stroke: #ff0000; stroke-width: 1.5"/>
    <path d="M 136.368181 61.29 
L 136.368181 70.47 
" clip-path="url(#p15a1de22c3)" style="fill: none; stroke: #ff0000; stroke-width: 1.5"/>
    <path d="M 138.396083 61.29 
L 138.396083 70.47 
" clip-path="url(#p15a1de22c3)" style="fill: none; stroke: #ff0000; stroke-width: 1.5"/>
    <path d="M 138.429391 61.29 
L 138.429391 70.47 
" clip-path="url(#p15a1de22c3)" style="fill: none; stroke: #ff0000; stroke-width: 1.5"/>
    <path d="M 139.08203 61.29 
L 139.08203 70.47 
" clip-path="url(#p15a1de22c3)" style="fill: none; stroke: #ff0000; stroke-width: 1.5"/>
    <path d="M 139.699573 61.29 
L 139.699573 70.47 
" clip-path="url(#p15a1de22c3)" style="fill: none; stroke: #ff0000; stroke-width: 1.5"/>
    <path d="M 140.816235 61.29 
L 140.816235 70.47 
" clip-path="url(#p15a1de22c3)" style="fill: none; stroke: #ff0000; stroke-width: 1.5"/>
    <path d="M 142.237278 61.29 
L 142.237278 70.47 
" clip-path="url(#p15a1de22c3)" style="fill: none; stroke: #ff0000; stroke-width: 1.5"/>
    <path d="M 142.557835 61.29 
L 142.557835 70.47 
" clip-path="url(#p15a1de22c3)" style="fill: none; stroke: #ff0000; stroke-width: 1.5"/>
    <path d="M 143.479772 61.29 
L 143.479772 70.47 
" clip-path="url(#p15a1de22c3)" style="fill: none; stroke: #ff0000; stroke-width: 1.5"/>
    <path d="M 147.73777 61.29 
L 147.73777 70.47 
" clip-path="url(#p15a1de22c3)" style="fill: none; stroke: #ff0000; stroke-width: 1.5"/>
    <path d="M 149.703729 61.29 
L 149.703729 70.47 
" clip-path="url(#p15a1de22c3)" style="fill: none; stroke: #ff0000; stroke-width: 1.5"/>
    <path d="M 153.416663 61.29 
L 153.416663 70.47 
" clip-path="url(#p15a1de22c3)" style="fill: none; stroke: #ff0000; stroke-width: 1.5"/>
    <path d="M 154.795398 61.29 
L 154.795398 70.47 
" clip-path="url(#p15a1de22c3)" style="fill: none; stroke: #ff0000; stroke-width: 1.5"/>
    <path d="M 155.773947 61.29 
L 155.773947 70.47 
" clip-path="url(#p15a1de22c3)" style="fill: none; stroke: #ff0000; stroke-width: 1.5"/>
    <path d="M 160.246193 61.29 
L 160.246193 70.47 
" clip-path="url(#p15a1de22c3)" style="fill: none; stroke: #ff0000; stroke-width: 1.5"/>
    <path d="M 162.212794 61.29 
L 162.212794 70.47 
" clip-path="url(#p15a1de22c3)" style="fill: none; stroke: #ff0000; stroke-width: 1.5"/>
    <path d="M 164.308586 61.29 
L 164.308586 70.47 
" clip-path="url(#p15a1de22c3)" style="fill: none; stroke: #ff0000; stroke-width: 1.5"/>
    <path d="M 164.550329 61.29 
L 164.550329 70.47 
" clip-path="url(#p15a1de22c3)" style="fill: none; stroke: #ff0000; stroke-width: 1.5"/>
    <path d="M 164.640275 61.29 
L 164.640275 70.47 
" clip-path="url(#p15a1de22c3)" style="fill: none; stroke: #ff0000; stroke-width: 1.5"/>
    <path d="M 165.704752 61.29 
L 165.704752 70.47 
" clip-path="url(#p15a1de22c3)" style="fill: none; stroke: #ff0000; stroke-width: 1.5"/>
    <path d="M 165.956143 61.29 
L 165.956143 70.47 
" clip-path="url(#p15a1de22c3)" style="fill: none; stroke: #ff0000; stroke-width: 1.5"/>
    <path d="M 168.425604 61.29 
L 168.425604 70.47 
" clip-path="url(#p15a1de22c3)" style="fill: none; stroke: #ff0000; stroke-width: 1.5"/>
    <path d="M 169.938401 61.29 
L 169.938401 70.47 
" clip-path="url(#p15a1de22c3)" style="fill: none; stroke: #ff0000; stroke-width: 1.5"/>
    <path d="M 170.855582 61.29 
L 170.855582 70.47 
" clip-path="url(#p15a1de22c3)" style="fill: none; stroke: #ff0000; stroke-width: 1.5"/>
    <path d="M 171.449228 61.29 
L 171.449228 70.47 
" clip-path="url(#p15a1de22c3)" style="fill: none; stroke: #ff0000; stroke-width: 1.5"/>
    <path d="M 172.483276 61.29 
L 172.483276 70.47 
" clip-path="url(#p15a1de22c3)" style="fill: none; stroke: #ff0000; stroke-width: 1.5"/>
    <path d="M 173.416153 61.29 
L 173.416153 70.47 
" clip-path="url(#p15a1de22c3)" style="fill: none; stroke: #ff0000; stroke-width: 1.5"/>
    <path d="M 175.868189 61.29 
L 175.868189 70.47 
" clip-path="url(#p15a1de22c3)" style="fill: none; stroke: #ff0000; stroke-width: 1.5"/>
    <path d="M 177.52087 61.29 
L 177.52087 70.47 
" clip-path="url(#p15a1de22c3)" style="fill: none; stroke: #ff0000; stroke-width: 1.5"/>
    <path d="M 177.627893 61.29 
L 177.627893 70.47 
" clip-path="url(#p15a1de22c3)" style="fill: none; stroke: #ff0000; stroke-width: 1.5"/>
    <path d="M 178.022834 61.29 
L 178.022834 70.47 
" clip-path="url(#p15a1de22c3)" style="fill: none; stroke: #ff0000; stroke-width: 1.5"/>
    <path d="M 179.119224 61.29 
L 179.119224 70.47 
" clip-path="url(#p15a1de22c3)" style="fill: none; stroke: #ff0000; stroke-width: 1.5"/>
    <path d="M 179.119741 61.29 
L 179.119741 70.47 
" clip-path="url(#p15a1de22c3)" style="fill: none; stroke: #ff0000; stroke-width: 1.5"/>
    <path d="M 181.826432 61.29 
L 181.826432 70.47 
" clip-path="url(#p15a1de22c3)" style="fill: none; stroke: #ff0000; stroke-width: 1.5"/>
    <path d="M 182.029654 61.29 
L 182.029654 70.47 
" clip-path="url(#p15a1de22c3)" style="fill: none; stroke: #ff0000; stroke-width: 1.5"/>
    <path d="M 182.8999 61.29 
L 182.8999 70.47 
" clip-path="url(#p15a1de22c3)" style="fill: none; stroke: #ff0000; stroke-width: 1.5"/>
    <path d="M 184.578888 61.29 
L 184.578888 70.47 
" clip-path="url(#p15a1de22c3)" style="fill: none; stroke: #ff0000; stroke-width: 1.5"/>
    <path d="M 187.210714 61.29 
L 187.210714 70.47 
" clip-path="url(#p15a1de22c3)" style="fill: none; stroke: #ff0000; stroke-width: 1.5"/>
    <path d="M 187.225201 61.29 
L 187.225201 70.47 
" clip-path="url(#p15a1de22c3)" style="fill: none; stroke: #ff0000; stroke-width: 1.5"/>
    <path d="M 188.800757 61.29 
L 188.800757 70.47 
" clip-path="url(#p15a1de22c3)" style="fill: none; stroke: #ff0000; stroke-width: 1.5"/>
    <path d="M 190.113761 61.29 
L 190.113761 70.47 
" clip-path="url(#p15a1de22c3)" style="fill: none; stroke: #ff0000; stroke-width: 1.5"/>
    <path d="M 191.180577 61.29 
L 191.180577 70.47 
" clip-path="url(#p15a1de22c3)" style="fill: none; stroke: #ff0000; stroke-width: 1.5"/>
    <path d="M 191.63109 61.29 
L 191.63109 70.47 
" clip-path="url(#p15a1de22c3)" style="fill: none; stroke: #ff0000; stroke-width: 1.5"/>
    <path d="M 191.868214 61.29 
L 191.868214 70.47 
" clip-path="url(#p15a1de22c3)" style="fill: none; stroke: #ff0000; stroke-width: 1.5"/>
    <path d="M 194.533832 61.29 
L 194.533832 70.47 
" clip-path="url(#p15a1de22c3)" style="fill: none; stroke: #ff0000; stroke-width: 1.5"/>
    <path d="M 197.233013 61.29 
L 197.233013 70.47 
" clip-path="url(#p15a1de22c3)" style="fill: none; stroke: #ff0000; stroke-width: 1.5"/>
    <path d="M 198.21648 61.29 
L 198.21648 70.47 
" clip-path="url(#p15a1de22c3)" style="fill: none; stroke: #ff0000; stroke-width: 1.5"/>
    <path d="M 199.908658 61.29 
L 199.908658 70.47 
" clip-path="url(#p15a1de22c3)" style="fill: none; stroke: #ff0000; stroke-width: 1.5"/>
    <path d="M 201.228364 61.29 
L 201.228364 70.47 
" clip-path="url(#p15a1de22c3)" style="fill: none; stroke: #ff0000; stroke-width: 1.5"/>
    <path d="M 201.256925 61.29 
L 201.256925 70.47 
" clip-path="url(#p15a1de22c3)" style="fill: none; stroke: #ff0000; stroke-width: 1.5"/>
    <path d="M 202.232867 61.29 
L 202.232867 70.47 
" clip-path="url(#p15a1de22c3)" style="fill: none; stroke: #ff0000; stroke-width: 1.5"/>
    <path d="M 203.569427 61.29 
L 203.569427 70.47 
" clip-path="url(#p15a1de22c3)" style="fill: none; stroke: #ff0000; stroke-width: 1.5"/>
    <path d="M 203.823244 61.29 
L 203.823244 70.47 
" clip-path="url(#p15a1de22c3)" style="fill: none; stroke: #ff0000; stroke-width: 1.5"/>
    <path d="M 206.71741 61.29 
L 206.71741 70.47 
" clip-path="url(#p15a1de22c3)" style="fill: none; stroke: #ff0000; stroke-width: 1.5"/>
    <path d="M 206.910184 61.29 
L 206.910184 70.47 
" clip-path="url(#p15a1de22c3)" style="fill: none; stroke: #ff0000; stroke-width: 1.5"/>
    <path d="M 210.770128 61.29 
L 210.770128 70.47 
" clip-path="url(#p15a1de22c3)" style="fill: none; stroke: #ff0000; stroke-width: 1.5"/>
    <path d="M 211.379106 61.29 
L 211.379106 70.47 
" clip-path="url(#p15a1de22c3)" style="fill: none; stroke: #ff0000; stroke-width: 1.5"/>
    <path d="M 211.707552 61.29 
L 211.707552 70.47 
" clip-path="url(#p15a1de22c3)" style="fill: none; stroke: #ff0000; stroke-width: 1.5"/>
    <path d="M 212.221928 61.29 
L 212.221928 70.47 
" clip-path="url(#p15a1de22c3)" style="fill: none; stroke: #ff0000; stroke-width: 1.5"/>
    <path d="M 213.418009 61.29 
L 213.418009 70.47 
" clip-path="url(#p15a1de22c3)" style="fill: none; stroke: #ff0000; stroke-width: 1.5"/>
    <path d="M 215.168291 61.29 
L 215.168291 70.47 
" clip-path="url(#p15a1de22c3)" style="fill: none; stroke: #ff0000; stroke-width: 1.5"/>
    <path d="M 215.582696 61.29 
L 215.582696 70.47 
" clip-path="url(#p15a1de22c3)" style="fill: none; stroke: #ff0000; stroke-width: 1.5"/>
    <path d="M 217.443507 61.29 
L 217.443507 70.47 
" clip-path="url(#p15a1de22c3)" style="fill: none; stroke: #ff0000; stroke-width: 1.5"/>
    <path d="M 219.435662 61.29 
L 219.435662 70.47 
" clip-path="url(#p15a1de22c3)" style="fill: none; stroke: #ff0000; stroke-width: 1.5"/>
    <path d="M 220.157928 61.29 
L 220.157928 70.47 
" clip-path="url(#p15a1de22c3)" style="fill: none; stroke: #ff0000; stroke-width: 1.5"/>
    <path d="M 220.370533 61.29 
L 220.370533 70.47 
" clip-path="url(#p15a1de22c3)" style="fill: none; stroke: #ff0000; stroke-width: 1.5"/>
    <path d="M 221.179337 61.29 
L 221.179337 70.47 
" clip-path="url(#p15a1de22c3)" style="fill: none; stroke: #ff0000; stroke-width: 1.5"/>
    <path d="M 230.684294 61.29 
L 230.684294 70.47 
" clip-path="url(#p15a1de22c3)" style="fill: none; stroke: #ff0000; stroke-width: 1.5"/>
    <path d="M 231.455675 61.29 
L 231.455675 70.47 
" clip-path="url(#p15a1de22c3)" style="fill: none; stroke: #ff0000; stroke-width: 1.5"/>
    <path d="M 328.778811 61.29 
L 328.778811 70.47 
" clip-path="url(#p15a1de22c3)" style="fill: none; stroke: #ff0000; stroke-width: 1.5"/>
    <path d="M 331.577945 61.29 
L 331.577945 70.47 
" clip-path="url(#p15a1de22c3)" style="fill: none; stroke: #ff0000; stroke-width: 1.5"/>
    <path d="M 333.215617 61.29 
L 333.215617 70.47 
" clip-path="url(#p15a1de22c3)" style="fill: none; stroke: #ff0000; stroke-width: 1.5"/>
    <path d="M 333.903372 61.29 
L 333.903372 70.47 
" clip-path="url(#p15a1de22c3)" style="fill: none; stroke: #ff0000; stroke-width: 1.5"/>
    <path d="M 337.642973 61.29 
L 337.642973 70.47 
" clip-path="url(#p15a1de22c3)" style="fill: none; stroke: #ff0000; stroke-width: 1.5"/>
    <path d="M 338.846371 61.29 
L 338.846371 70.47 
" clip-path="url(#p15a1de22c3)" style="fill: none; stroke: #ff0000; stroke-width: 1.5"/>
    <path d="M 343.500116 61.29 
L 343.500116 70.47 
" clip-path="url(#p15a1de22c3)" style="fill: none; stroke: #ff0000; stroke-width: 1.5"/>
    <path d="M 344.862304 61.29 
L 344.862304 70.47 
" clip-path="url(#p15a1de22c3)" style="fill: none; stroke: #ff0000; stroke-width: 1.5"/>
    <path d="M 346.890718 61.29 
L 346.890718 70.47 
" clip-path="url(#p15a1de22c3)" style="fill: none; stroke: #ff0000; stroke-width: 1.5"/>
    <path d="M 348.03466 61.29 
L 348.03466 70.47 
" clip-path="url(#p15a1de22c3)" style="fill: none; stroke: #ff0000; stroke-width: 1.5"/>
    <path d="M 348.146473 61.29 
L 348.146473 70.47 
" clip-path="url(#p15a1de22c3)" style="fill: none; stroke: #ff0000; stroke-width: 1.5"/>
    <path d="M 350.264631 61.29 
L 350.264631 70.47 
" clip-path="url(#p15a1de22c3)" style="fill: none; stroke: #ff0000; stroke-width: 1.5"/>
    <path d="M 356.056399 61.29 
L 356.056399 70.47 
" clip-path="url(#p15a1de22c3)" style="fill: none; stroke: #ff0000; stroke-width: 1.5"/>
    <path d="M 357.571803 61.29 
L 357.571803 70.47 
" clip-path="url(#p15a1de22c3)" style="fill: none; stroke: #ff0000; stroke-width: 1.5"/>
    <path d="M 358.103879 61.29 
L 358.103879 70.47 
" clip-path="url(#p15a1de22c3)" style="fill: none; stroke: #ff0000; stroke-width: 1.5"/>
    <path d="M 359.365139 61.29 
L 359.365139 70.47 
" clip-path="url(#p15a1de22c3)" style="fill: none; stroke: #ff0000; stroke-width: 1.5"/>
    <path d="M 364.242141 61.29 
L 364.242141 70.47 
" clip-path="url(#p15a1de22c3)" style="fill: none; stroke: #ff0000; stroke-width: 1.5"/>
    <path d="M 364.71591 61.29 
L 364.71591 70.47 
" clip-path="url(#p15a1de22c3)" style="fill: none; stroke: #ff0000; stroke-width: 1.5"/>
    <path d="M 365.52153 61.29 
L 365.52153 70.47 
" clip-path="url(#p15a1de22c3)" style="fill: none; stroke: #ff0000; stroke-width: 1.5"/>
    <path d="M 366.102654 61.29 
L 366.102654 70.47 
" clip-path="url(#p15a1de22c3)" style="fill: none; stroke: #ff0000; stroke-width: 1.5"/>
    <path d="M 367.648777 61.29 
L 367.648777 70.47 
" clip-path="url(#p15a1de22c3)" style="fill: none; stroke: #ff0000; stroke-width: 1.5"/>
    <path d="M 369.371332 61.29 
L 369.371332 70.47 
" clip-path="url(#p15a1de22c3)" style="fill: none; stroke: #ff0000; stroke-width: 1.5"/>
    <path d="M 369.699551 61.29 
L 369.699551 70.47 
" clip-path="url(#p15a1de22c3)" style="fill: none; stroke: #ff0000; stroke-width: 1.5"/>
    <path d="M 375.666196 61.29 
L 375.666196 70.47 
" clip-path="url(#p15a1de22c3)" style="fill: none; stroke: #ff0000; stroke-width: 1.5"/>
    <path d="M 375.702418 61.29 
L 375.702418 70.47 
" clip-path="url(#p15a1de22c3)" style="fill: none; stroke: #ff0000; stroke-width: 1.5"/>
    <path d="M 377.488081 61.29 
L 377.488081 70.47 
" clip-path="url(#p15a1de22c3)" style="fill: none; stroke: #ff0000; stroke-width: 1.5"/>
    <path d="M 378.398612 61.29 
L 378.398612 70.47 
" clip-path="url(#p15a1de22c3)" style="fill: none; stroke: #ff0000; stroke-width: 1.5"/>
    <path d="M 380.60277 61.29 
L 380.60277 70.47 
" clip-path="url(#p15a1de22c3)" style="fill: none; stroke: #ff0000; stroke-width: 1.5"/>
    <path d="M 380.627037 61.29 
L 380.627037 70.47 
" clip-path="url(#p15a1de22c3)" style="fill: none; stroke: #ff0000; stroke-width: 1.5"/>
    <path d="M 383.354595 61.29 
L 383.354595 70.47 
" clip-path="url(#p15a1de22c3)" style="fill: none; stroke: #ff0000; stroke-width: 1.5"/>
    <path d="M 384.703119 61.29 
L 384.703119 70.47 
" clip-path="url(#p15a1de22c3)" style="fill: none; stroke: #ff0000; stroke-width: 1.5"/>
    <path d="M 385.764772 61.29 
L 385.764772 70.47 
" clip-path="url(#p15a1de22c3)" style="fill: none; stroke: #ff0000; stroke-width: 1.5"/>
    <path d="M 386.007873 61.29 
L 386.007873 70.47 
" clip-path="url(#p15a1de22c3)" style="fill: none; stroke: #ff0000; stroke-width: 1.5"/>
    <path d="M 388.848005 61.29 
L 388.848005 70.47 
" clip-path="url(#p15a1de22c3)" style="fill: none; stroke: #ff0000; stroke-width: 1.5"/>
    <path d="M 392.227273 61.29 
L 392.227273 70.47 
" clip-path="url(#p15a1de22c3)" style="fill: none; stroke: #ff0000; stroke-width: 1.5"/>
    <path d="M 393.264634 61.29 
L 393.264634 70.47 
" clip-path="url(#p15a1de22c3)" style="fill: none; stroke: #ff0000; stroke-width: 1.5"/>
    <path d="M 393.810074 61.29 
L 393.810074 70.47 
" clip-path="url(#p15a1de22c3)" style="fill: none; stroke: #ff0000; stroke-width: 1.5"/>
    <path d="M 397.606098 61.29 
L 397.606098 70.47 
" clip-path="url(#p15a1de22c3)" style="fill: none; stroke: #ff0000; stroke-width: 1.5"/>
    <path d="M 397.671634 61.29 
L 397.671634 70.47 
" clip-path="url(#p15a1de22c3)" style="fill: none; stroke: #ff0000; stroke-width: 1.5"/>
    <path d="M 397.948762 61.29 
L 397.948762 70.47 
" clip-path="url(#p15a1de22c3)" style="fill: none; stroke: #ff0000; stroke-width: 1.5"/>
    <path d="M 403.736719 61.29 
L 403.736719 70.47 
" clip-path="url(#p15a1de22c3)" style="fill: none; stroke: #ff0000; stroke-width: 1.5"/>
    <path d="M 404.86966 61.29 
L 404.86966 70.47 
" clip-path="url(#p15a1de22c3)" style="fill: none; stroke: #ff0000; stroke-width: 1.5"/>
    <path d="M 406.823915 61.29 
L 406.823915 70.47 
" clip-path="url(#p15a1de22c3)" style="fill: none; stroke: #ff0000; stroke-width: 1.5"/>
    <path d="M 408.870199 61.29 
L 408.870199 70.47 
" clip-path="url(#p15a1de22c3)" style="fill: none; stroke: #ff0000; stroke-width: 1.5"/>
    <path d="M 417.18615 61.29 
L 417.18615 70.47 
" clip-path="url(#p15a1de22c3)" style="fill: none; stroke: #ff0000; stroke-width: 1.5"/>
    <path d="M 418.70339 61.29 
L 418.70339 70.47 
" clip-path="url(#p15a1de22c3)" style="fill: none; stroke: #ff0000; stroke-width: 1.5"/>
    <path d="M 421.2 61.29 
L 421.2 70.47 
" clip-path="url(#p15a1de22c3)" style="fill: none; stroke: #ff0000; stroke-width: 1.5"/>
   </g>
  </g>
  <g id="axes_2">
   <g id="patch_3">
    <path d="M 10.8 205.2 
L 421.2 205.2 
L 421.2 113.4 
L 10.8 113.4 
z
" style="fill: #ffffff"/>
   </g>
   <g id="matplotlib.axis_3"/>
   <g id="matplotlib.axis_4"/>
   <g id="line2d_1">
    <path d="M 189.234783 159.3 
L 189.591652 146.503112 
L 189.948522 139.959192 
L 190.305391 137.092001 
L 190.483826 136.524623 
L 190.662261 136.35 
L 190.840696 136.468221 
L 191.197565 137.29217 
L 191.911304 140.045096 
L 193.517217 146.485579 
L 194.587826 149.751796 
L 195.658435 152.214233 
L 196.729043 154.047994 
L 197.799652 155.408607 
L 198.870261 156.417049 
L 200.119304 157.268387 
L 201.546783 157.938164 
L 203.152696 158.431654 
L 205.115478 158.799008 
L 207.792 159.063348 
L 211.896 159.225067 
L 220.639304 159.293534 
L 242.586783 159.299986 
L 242.586783 159.299986 
" clip-path="url(#p0304c608a2)" style="fill: none; stroke: #ff0000; stroke-width: 3; stroke-linecap: square"/>
   </g>
  </g>
 </g>
 <defs>
  <clipPath id="p15a1de22c3">
   <rect x="10.8" y="10.8" width="410.4" height="91.8"/>
  </clipPath>
  <clipPath id="p0304c608a2">
   <rect x="10.8" y="113.4" width="410.4" height="91.8"/>
  </clipPath>
 </defs>
</svg>
