<?xml version="1.0" encoding="utf-8" standalone="no"?>
<!DOCTYPE svg PUBLIC "-//W3C//DTD SVG 1.1//EN"
  "http://www.w3.org/Graphics/SVG/1.1/DTD/svg11.dtd">
<svg xmlns:xlink="http://www.w3.org/1999/xlink" width="576pt" height="1080pt" viewBox="0 0 576 1080" xmlns="http://www.w3.org/2000/svg" version="1.1">
 <metadata>
  <rdf:RDF xmlns:dc="http://purl.org/dc/elements/1.1/" xmlns:cc="http://creativecommons.org/ns#" xmlns:rdf="http://www.w3.org/1999/02/22-rdf-syntax-ns#">
   <cc:Work>
    <dc:type rdf:resource="http://purl.org/dc/dcmitype/StillImage"/>
    <dc:date>2024-11-01T11:54:56.958324</dc:date>
    <dc:format>image/svg+xml</dc:format>
    <dc:creator>
     <cc:Agent>
      <dc:title>Matplotlib v3.5.3, https://matplotlib.org/</dc:title>
     </cc:Agent>
    </dc:creator>
   </cc:Work>
  </rdf:RDF>
 </metadata>
 <defs>
  <style type="text/css">*{stroke-linejoin: round; stroke-linecap: butt}</style>
 </defs>
 <g id="figure_1">
  <g id="patch_1">
   <path d="M 0 1080 
L 576 1080 
L 576 0 
L 0 0 
z
" style="fill: #ffffff"/>
  </g>
  <g id="axes_1">
   <g id="patch_2">
    <path d="M 122.216483 304.904 
L 543.6 304.904 
L 543.6 32.4 
L 122.216483 32.4 
z
" style="fill: #ffffff"/>
   </g>
   <g id="patch_3">
    <path d="M 122.216483 304.904 
L 122.216483 32.4 
L 280.315258 32.4 
L 280.315258 304.904 
z
" clip-path="url(#p9e8387235d)" style="fill: #add8e6; opacity: 0.3; stroke: #add8e6; stroke-linejoin: miter"/>
   </g>
   <g id="patch_4">
    <path d="M 280.315258 304.904 
L 280.315258 32.4 
L 543.6 32.4 
L 543.6 304.904 
z
" clip-path="url(#p9e8387235d)" style="fill: #90ee90; opacity: 0.3; stroke: #90ee90; stroke-linejoin: miter"/>
   </g>
   <g id="matplotlib.axis_1">
    <g id="xtick_1">
     <g id="line2d_1">
      <defs>
       <path id="mf6fbf77a9a" d="M 0 0 
L 0 3.5 
" style="stroke: #000000; stroke-width: 0.8"/>
      </defs>
      <g>
       <use xlink:href="#mf6fbf77a9a" x="122.216483" y="304.904" style="stroke: #000000; stroke-width: 0.8"/>
      </g>
     </g>
     <g id="text_1">
      <!-- $\mathdefault{10^{0}}$ -->
      <g transform="translate(95.816483 334.699313)scale(0.3 -0.3)">
       <defs>
        <path id="DejaVuSans-31" d="M 794 531 
L 1825 531 
L 1825 4091 
L 703 3866 
L 703 4441 
L 1819 4666 
L 2450 4666 
L 2450 531 
L 3481 531 
L 3481 0 
L 794 0 
L 794 531 
z
" transform="scale(0.015625)"/>
        <path id="DejaVuSans-30" d="M 2034 4250 
Q 1547 4250 1301 3770 
Q 1056 3291 1056 2328 
Q 1056 1369 1301 889 
Q 1547 409 2034 409 
Q 2525 409 2770 889 
Q 3016 1369 3016 2328 
Q 3016 3291 2770 3770 
Q 2525 4250 2034 4250 
z
M 2034 4750 
Q 2819 4750 3233 4129 
Q 3647 3509 3647 2328 
Q 3647 1150 3233 529 
Q 2819 -91 2034 -91 
Q 1250 -91 836 529 
Q 422 1150 422 2328 
Q 422 3509 836 4129 
Q 1250 4750 2034 4750 
z
" transform="scale(0.015625)"/>
       </defs>
       <use xlink:href="#DejaVuSans-31" transform="translate(0 0.765625)"/>
       <use xlink:href="#DejaVuSans-30" transform="translate(63.623047 0.765625)"/>
       <use xlink:href="#DejaVuSans-30" transform="translate(128.203125 39.046875)scale(0.7)"/>
      </g>
     </g>
    </g>
    <g id="xtick_2">
     <g id="line2d_2">
      <g>
       <use xlink:href="#mf6fbf77a9a" x="305.344699" y="304.904" style="stroke: #000000; stroke-width: 0.8"/>
      </g>
     </g>
     <g id="text_2">
      <!-- $\mathdefault{10^{1}}$ -->
      <g transform="translate(278.944699 334.699313)scale(0.3 -0.3)">
       <use xlink:href="#DejaVuSans-31" transform="translate(0 0.684375)"/>
       <use xlink:href="#DejaVuSans-30" transform="translate(63.623047 0.684375)"/>
       <use xlink:href="#DejaVuSans-31" transform="translate(128.203125 38.965625)scale(0.7)"/>
      </g>
     </g>
    </g>
    <g id="xtick_3">
     <g id="line2d_3">
      <g>
       <use xlink:href="#mf6fbf77a9a" x="488.472914" y="304.904" style="stroke: #000000; stroke-width: 0.8"/>
      </g>
     </g>
     <g id="text_3">
      <!-- $\mathdefault{10^{2}}$ -->
      <g transform="translate(462.072914 334.699313)scale(0.3 -0.3)">
       <defs>
        <path id="DejaVuSans-32" d="M 1228 531 
L 3431 531 
L 3431 0 
L 469 0 
L 469 531 
Q 828 903 1448 1529 
Q 2069 2156 2228 2338 
Q 2531 2678 2651 2914 
Q 2772 3150 2772 3378 
Q 2772 3750 2511 3984 
Q 2250 4219 1831 4219 
Q 1534 4219 1204 4116 
Q 875 4013 500 3803 
L 500 4441 
Q 881 4594 1212 4672 
Q 1544 4750 1819 4750 
Q 2544 4750 2975 4387 
Q 3406 4025 3406 3419 
Q 3406 3131 3298 2873 
Q 3191 2616 2906 2266 
Q 2828 2175 2409 1742 
Q 1991 1309 1228 531 
z
" transform="scale(0.015625)"/>
       </defs>
       <use xlink:href="#DejaVuSans-31" transform="translate(0 0.765625)"/>
       <use xlink:href="#DejaVuSans-30" transform="translate(63.623047 0.765625)"/>
       <use xlink:href="#DejaVuSans-32" transform="translate(128.203125 39.046875)scale(0.7)"/>
      </g>
     </g>
    </g>
    <g id="xtick_4">
     <g id="line2d_4">
      <defs>
       <path id="m7982580987" d="M 0 0 
L 0 2 
" style="stroke: #000000; stroke-width: 0.6"/>
      </defs>
      <g>
       <use xlink:href="#m7982580987" x="177.343569" y="304.904" style="stroke: #000000; stroke-width: 0.6"/>
      </g>
     </g>
    </g>
    <g id="xtick_5">
     <g id="line2d_5">
      <g>
       <use xlink:href="#m7982580987" x="209.590847" y="304.904" style="stroke: #000000; stroke-width: 0.6"/>
      </g>
     </g>
    </g>
    <g id="xtick_6">
     <g id="line2d_6">
      <g>
       <use xlink:href="#m7982580987" x="232.470655" y="304.904" style="stroke: #000000; stroke-width: 0.6"/>
      </g>
     </g>
    </g>
    <g id="xtick_7">
     <g id="line2d_7">
      <g>
       <use xlink:href="#m7982580987" x="250.217613" y="304.904" style="stroke: #000000; stroke-width: 0.6"/>
      </g>
     </g>
    </g>
    <g id="xtick_8">
     <g id="line2d_8">
      <g>
       <use xlink:href="#m7982580987" x="264.717933" y="304.904" style="stroke: #000000; stroke-width: 0.6"/>
      </g>
     </g>
    </g>
    <g id="xtick_9">
     <g id="line2d_9">
      <g>
       <use xlink:href="#m7982580987" x="276.977779" y="304.904" style="stroke: #000000; stroke-width: 0.6"/>
      </g>
     </g>
    </g>
    <g id="xtick_10">
     <g id="line2d_10">
      <g>
       <use xlink:href="#m7982580987" x="287.597741" y="304.904" style="stroke: #000000; stroke-width: 0.6"/>
      </g>
     </g>
    </g>
    <g id="xtick_11">
     <g id="line2d_11">
      <g>
       <use xlink:href="#m7982580987" x="296.965211" y="304.904" style="stroke: #000000; stroke-width: 0.6"/>
      </g>
     </g>
    </g>
    <g id="xtick_12">
     <g id="line2d_12">
      <g>
       <use xlink:href="#m7982580987" x="360.471785" y="304.904" style="stroke: #000000; stroke-width: 0.6"/>
      </g>
     </g>
    </g>
    <g id="xtick_13">
     <g id="line2d_13">
      <g>
       <use xlink:href="#m7982580987" x="392.719063" y="304.904" style="stroke: #000000; stroke-width: 0.6"/>
      </g>
     </g>
    </g>
    <g id="xtick_14">
     <g id="line2d_14">
      <g>
       <use xlink:href="#m7982580987" x="415.598871" y="304.904" style="stroke: #000000; stroke-width: 0.6"/>
      </g>
     </g>
    </g>
    <g id="xtick_15">
     <g id="line2d_15">
      <g>
       <use xlink:href="#m7982580987" x="433.345828" y="304.904" style="stroke: #000000; stroke-width: 0.6"/>
      </g>
     </g>
    </g>
    <g id="xtick_16">
     <g id="line2d_16">
      <g>
       <use xlink:href="#m7982580987" x="447.846149" y="304.904" style="stroke: #000000; stroke-width: 0.6"/>
      </g>
     </g>
    </g>
    <g id="xtick_17">
     <g id="line2d_17">
      <g>
       <use xlink:href="#m7982580987" x="460.105995" y="304.904" style="stroke: #000000; stroke-width: 0.6"/>
      </g>
     </g>
    </g>
    <g id="xtick_18">
     <g id="line2d_18">
      <g>
       <use xlink:href="#m7982580987" x="470.725956" y="304.904" style="stroke: #000000; stroke-width: 0.6"/>
      </g>
     </g>
    </g>
    <g id="xtick_19">
     <g id="line2d_19">
      <g>
       <use xlink:href="#m7982580987" x="480.093427" y="304.904" style="stroke: #000000; stroke-width: 0.6"/>
      </g>
     </g>
    </g>
    <g id="xtick_20">
     <g id="line2d_20">
      <g>
       <use xlink:href="#m7982580987" x="543.6" y="304.904" style="stroke: #000000; stroke-width: 0.6"/>
      </g>
     </g>
    </g>
   </g>
   <g id="matplotlib.axis_2">
    <g id="ytick_1">
     <g id="line2d_21">
      <defs>
       <path id="mfcdbeced1f" d="M 0 0 
L -3.5 0 
" style="stroke: #000000; stroke-width: 0.8"/>
      </defs>
      <g>
       <use xlink:href="#mfcdbeced1f" x="122.216483" y="221.106726" style="stroke: #000000; stroke-width: 0.8"/>
      </g>
     </g>
     <g id="text_4">
      <!-- $\mathdefault{10^{-2}}$ -->
      <g transform="translate(44.716483 232.504382)scale(0.3 -0.3)">
       <defs>
        <path id="DejaVuSans-2212" d="M 678 2272 
L 4684 2272 
L 4684 1741 
L 678 1741 
L 678 2272 
z
" transform="scale(0.015625)"/>
       </defs>
       <use xlink:href="#DejaVuSans-31" transform="translate(0 0.765625)"/>
       <use xlink:href="#DejaVuSans-30" transform="translate(63.623047 0.765625)"/>
       <use xlink:href="#DejaVuSans-2212" transform="translate(128.203125 39.046875)scale(0.7)"/>
       <use xlink:href="#DejaVuSans-32" transform="translate(186.855469 39.046875)scale(0.7)"/>
      </g>
     </g>
    </g>
    <g id="ytick_2">
     <g id="line2d_22">
      <g>
       <use xlink:href="#mfcdbeced1f" x="122.216483" y="135.739564" style="stroke: #000000; stroke-width: 0.8"/>
      </g>
     </g>
     <g id="text_5">
      <!-- $\mathdefault{10^{1}}$ -->
      <g transform="translate(62.416483 147.13722)scale(0.3 -0.3)">
       <use xlink:href="#DejaVuSans-31" transform="translate(0 0.684375)"/>
       <use xlink:href="#DejaVuSans-30" transform="translate(63.623047 0.684375)"/>
       <use xlink:href="#DejaVuSans-31" transform="translate(128.203125 38.965625)scale(0.7)"/>
      </g>
     </g>
    </g>
    <g id="ytick_3">
     <g id="line2d_23">
      <g>
       <use xlink:href="#mfcdbeced1f" x="122.216483" y="50.372402" style="stroke: #000000; stroke-width: 0.8"/>
      </g>
     </g>
     <g id="text_6">
      <!-- $\mathdefault{10^{4}}$ -->
      <g transform="translate(62.416483 61.770058)scale(0.3 -0.3)">
       <defs>
        <path id="DejaVuSans-34" d="M 2419 4116 
L 825 1625 
L 2419 1625 
L 2419 4116 
z
M 2253 4666 
L 3047 4666 
L 3047 1625 
L 3713 1625 
L 3713 1100 
L 3047 1100 
L 3047 0 
L 2419 0 
L 2419 1100 
L 313 1100 
L 313 1709 
L 2253 4666 
z
" transform="scale(0.015625)"/>
       </defs>
       <use xlink:href="#DejaVuSans-31" transform="translate(0 0.684375)"/>
       <use xlink:href="#DejaVuSans-30" transform="translate(63.623047 0.684375)"/>
       <use xlink:href="#DejaVuSans-34" transform="translate(128.203125 38.965625)scale(0.7)"/>
      </g>
     </g>
    </g>
   </g>
   <g id="line2d_24">
    <path d="M -1 60.742015 
L 45.263003 60.509029 
L 73.21023 60.160562 
L 93.849564 59.685417 
L 109.291097 59.120714 
L 122.216483 58.435815 
L 133.331971 57.625519 
L 143.082726 56.68461 
L 151.217124 55.684722 
L 158.596201 54.565592 
L 165.348388 53.329374 
L 171.998352 51.885589 
L 178.527684 50.240384 
L 187.06373 47.832699 
L 193.807732 46.000431 
L 197.286805 45.268771 
L 200.024299 44.899459 
L 202.380963 44.786545 
L 204.669799 44.903144 
L 206.894604 45.262494 
L 209.058862 45.863118 
L 211.165781 46.689093 
L 213.471206 47.853197 
L 215.95677 49.38014 
L 218.840406 51.440053 
L 222.303866 54.207316 
L 227.549607 58.724489 
L 238.95884 68.608586 
L 244.616804 73.179884 
L 249.898849 77.159645 
L 254.851831 80.613672 
L 259.655746 83.691722 
L 264.319278 86.413335 
L 268.850373 88.79994 
L 273.256325 90.874974 
L 277.656574 92.707955 
L 282.146127 94.339046 
L 286.69794 95.759172 
L 291.4781 97.016867 
L 296.522137 98.111285 
L 301.932198 99.0548 
L 307.849837 99.858847 
L 314.570654 100.541455 
L 322.324465 101.099035 
L 331.70621 101.542631 
L 343.712809 101.876336 
L 360.511541 102.104283 
L 388.360077 102.231915 
L 461.122026 102.271966 
L 577 102.273033 
M 577 102.273033 
L 368.735868 102.161913 
L 346.225559 101.923962 
L 332.3884 101.567486 
L 322.195877 101.091405 
L 314.002061 100.49174 
L 307.075424 99.765515 
L 301.013713 98.909783 
L 295.538598 97.91521 
L 290.525614 96.78425 
L 285.787842 95.493248 
L 281.182096 94.008609 
L 276.750221 92.349685 
L 272.298102 90.44425 
L 267.837218 88.288523 
L 263.381237 85.887365 
L 258.803614 83.165796 
L 254.097971 80.106002 
L 249.257462 76.692285 
L 244.103142 72.777436 
L 238.591488 68.301914 
L 232.072 62.70333 
L 220.936527 53.084951 
L 217.411656 50.385615 
L 214.723697 48.590146 
L 212.198674 47.178341 
L 210.119298 46.249431 
L 207.984094 45.533326 
L 205.789981 45.052211 
L 203.533614 44.815001 
L 201.21136 44.815663 
L 198.819252 45.034389 
L 196.039225 45.503478 
L 192.503906 46.325789 
L 186.711039 47.934292 
L 176.141558 50.866826 
L 169.404701 52.476676 
L 163.002153 53.783942 
L 156.038696 54.978945 
L 148.406529 56.055484 
L 139.963441 57.013059 
L 130.5164 57.85416 
L 119.794015 58.582656 
L 107.397399 59.202844 
L 92.705205 59.718909 
L 74.669566 60.13462 
L 51.306282 60.453158 
L 18.083144 60.677035 
L -1 60.742015 
L -1 60.742015 
" clip-path="url(#p9e8387235d)" style="fill: none; stroke: #000000; stroke-width: 2.5; stroke-linecap: square"/>
   </g>
   <g id="line2d_25">
    <path d="M -1 102.273039 
L 577 102.273039 
M 577 102.273039 
L -1 102.273039 
L -1 102.273039 
" clip-path="url(#p9e8387235d)" style="fill: none; stroke: #008000; stroke-opacity: 0.5; stroke-width: 2.5; stroke-linecap: square"/>
   </g>
   <g id="line2d_26">
    <path d="M -1 61.178639 
L 45.263003 60.937354 
L 73.21023 60.576776 
L 92.705205 60.120271 
L 108.349884 59.545446 
L 121.417164 58.847985 
L 132.637367 58.023117 
L 141.849654 57.134082 
L 150.104776 56.126682 
L 157.583046 54.999402 
L 164.418183 53.754247 
L 171.143165 52.299256 
L 177.740236 50.638102 
L 185.643486 48.399259 
L 193.483774 46.2109 
L 196.97674 45.447549 
L 199.724745 45.048454 
L 202.090171 44.907077 
L 204.387271 44.994819 
L 206.619883 45.326829 
L 208.791528 45.903716 
L 210.905449 46.711455 
L 213.218323 47.863363 
L 215.71168 49.38834 
L 218.367002 51.281919 
L 221.623135 53.888344 
L 226.05501 57.747876 
L 248.448385 77.679661 
L 255.895372 83.80777 
L 263.918614 90.115672 
L 272.65879 96.697952 
L 282.464891 103.797974 
L 293.62647 111.599292 
L 306.685372 120.448947 
L 322.388681 130.813128 
L 341.925508 143.429367 
L 367.289142 159.52981 
L 401.423963 180.920583 
L 441.788916 205.954779 
L 474.502098 225.999328 
L 498.157876 240.246158 
L 516.237893 250.885342 
L 530.786815 259.196997 
L 542.917081 265.878125 
L 553.292003 271.345032 
L 562.327085 275.860404 
L 570.303338 279.603472 
L 577 282.52709 
M 577 282.52709 
L 570.121213 279.520965 
L 562.471499 275.930372 
L 553.884727 271.648951 
L 544.138984 266.535248 
L 532.920936 260.39124 
L 519.765407 252.92488 
L 503.954671 243.686821 
L 484.301335 231.935021 
L 458.765447 216.393185 
L 424.434355 195.224223 
L 384.133114 170.114892 
L 351.738036 149.687129 
L 328.323859 134.672595 
L 310.427826 122.94244 
L 295.987169 113.218559 
L 283.935794 104.841363 
L 273.612703 97.400707 
L 264.58527 90.627591 
L 256.338446 84.163663 
L 248.773004 77.952781 
L 241.483864 71.683664 
L 233.262021 64.302659 
L 222.529488 54.654947 
L 218.840406 51.643823 
L 215.95677 49.552406 
L 213.471206 48.005316 
L 211.165781 46.827461 
L 209.058862 45.992492 
L 206.894604 45.385701 
L 204.951327 45.054637 
L 202.670696 44.90671 
L 200.32273 44.992939 
L 197.595666 45.33916 
L 194.451716 45.977549 
L 190.169479 47.093117 
L 171.998352 52.096904 
L 165.348388 53.567129 
L 158.596201 54.828629 
L 151.217124 55.972984 
L 143.082726 56.997475 
L 134.02056 57.903247 
L 123.791418 58.69336 
L 112.049694 59.371639 
L 98.269122 59.94201 
L 81.589718 60.408124 
L 60.457927 60.773145 
L 31.595482 61.039641 
L -1 61.178639 
L -1 61.178639 
" clip-path="url(#p9e8387235d)" style="fill: none; stroke: #0000ff; stroke-opacity: 0.5; stroke-width: 2.5; stroke-linecap: square"/>
   </g>
   <g id="line2d_27">
    <path d="M 280.315258 304.904 
L 280.315258 32.4 
" clip-path="url(#p9e8387235d)" style="fill: none; stroke-dasharray: 5.55,2.4; stroke-dashoffset: 0; stroke: #808080; stroke-width: 1.5"/>
   </g>
   <g id="patch_5">
    <path d="M 122.216483 304.904 
L 122.216483 32.4 
" style="fill: none; stroke: #000000; stroke-width: 0.8; stroke-linejoin: miter; stroke-linecap: square"/>
   </g>
   <g id="patch_6">
    <path d="M 122.216483 304.904 
L 543.6 304.904 
" style="fill: none; stroke: #000000; stroke-width: 0.8; stroke-linejoin: miter; stroke-linecap: square"/>
   </g>
   <g id="legend_1">
    <g id="patch_7">
     <path d="M 129.216483 299.904 
L 265.922733 299.904 
Q 267.922733 299.904 267.922733 297.904 
L 267.922733 254.869625 
Q 267.922733 252.869625 265.922733 252.869625 
L 129.216483 252.869625 
Q 127.216483 252.869625 127.216483 254.869625 
L 127.216483 297.904 
Q 127.216483 299.904 129.216483 299.904 
z
" style="fill: #ffffff; opacity: 0.8; stroke: #cccccc; stroke-linejoin: miter"/>
    </g>
    <g id="line2d_28">
     <path d="M 131.216483 260.968062 
L 141.216483 260.968062 
L 151.216483 260.968062 
" style="fill: none; stroke: #000000; stroke-width: 2.5; stroke-linecap: square"/>
    </g>
    <g id="text_7">
     <!-- Final Point Process -->
     <g transform="translate(159.216483 264.468062)scale(0.1 -0.1)">
      <defs>
       <path id="DejaVuSans-46" d="M 628 4666 
L 3309 4666 
L 3309 4134 
L 1259 4134 
L 1259 2759 
L 3109 2759 
L 3109 2228 
L 1259 2228 
L 1259 0 
L 628 0 
L 628 4666 
z
" transform="scale(0.015625)"/>
       <path id="DejaVuSans-69" d="M 603 3500 
L 1178 3500 
L 1178 0 
L 603 0 
L 603 3500 
z
M 603 4863 
L 1178 4863 
L 1178 4134 
L 603 4134 
L 603 4863 
z
" transform="scale(0.015625)"/>
       <path id="DejaVuSans-6e" d="M 3513 2113 
L 3513 0 
L 2938 0 
L 2938 2094 
Q 2938 2591 2744 2837 
Q 2550 3084 2163 3084 
Q 1697 3084 1428 2787 
Q 1159 2491 1159 1978 
L 1159 0 
L 581 0 
L 581 3500 
L 1159 3500 
L 1159 2956 
Q 1366 3272 1645 3428 
Q 1925 3584 2291 3584 
Q 2894 3584 3203 3211 
Q 3513 2838 3513 2113 
z
" transform="scale(0.015625)"/>
       <path id="DejaVuSans-61" d="M 2194 1759 
Q 1497 1759 1228 1600 
Q 959 1441 959 1056 
Q 959 750 1161 570 
Q 1363 391 1709 391 
Q 2188 391 2477 730 
Q 2766 1069 2766 1631 
L 2766 1759 
L 2194 1759 
z
M 3341 1997 
L 3341 0 
L 2766 0 
L 2766 531 
Q 2569 213 2275 61 
Q 1981 -91 1556 -91 
Q 1019 -91 701 211 
Q 384 513 384 1019 
Q 384 1609 779 1909 
Q 1175 2209 1959 2209 
L 2766 2209 
L 2766 2266 
Q 2766 2663 2505 2880 
Q 2244 3097 1772 3097 
Q 1472 3097 1187 3025 
Q 903 2953 641 2809 
L 641 3341 
Q 956 3463 1253 3523 
Q 1550 3584 1831 3584 
Q 2591 3584 2966 3190 
Q 3341 2797 3341 1997 
z
" transform="scale(0.015625)"/>
       <path id="DejaVuSans-6c" d="M 603 4863 
L 1178 4863 
L 1178 0 
L 603 0 
L 603 4863 
z
" transform="scale(0.015625)"/>
       <path id="DejaVuSans-20" transform="scale(0.015625)"/>
       <path id="DejaVuSans-50" d="M 1259 4147 
L 1259 2394 
L 2053 2394 
Q 2494 2394 2734 2622 
Q 2975 2850 2975 3272 
Q 2975 3691 2734 3919 
Q 2494 4147 2053 4147 
L 1259 4147 
z
M 628 4666 
L 2053 4666 
Q 2838 4666 3239 4311 
Q 3641 3956 3641 3272 
Q 3641 2581 3239 2228 
Q 2838 1875 2053 1875 
L 1259 1875 
L 1259 0 
L 628 0 
L 628 4666 
z
" transform="scale(0.015625)"/>
       <path id="DejaVuSans-6f" d="M 1959 3097 
Q 1497 3097 1228 2736 
Q 959 2375 959 1747 
Q 959 1119 1226 758 
Q 1494 397 1959 397 
Q 2419 397 2687 759 
Q 2956 1122 2956 1747 
Q 2956 2369 2687 2733 
Q 2419 3097 1959 3097 
z
M 1959 3584 
Q 2709 3584 3137 3096 
Q 3566 2609 3566 1747 
Q 3566 888 3137 398 
Q 2709 -91 1959 -91 
Q 1206 -91 779 398 
Q 353 888 353 1747 
Q 353 2609 779 3096 
Q 1206 3584 1959 3584 
z
" transform="scale(0.015625)"/>
       <path id="DejaVuSans-74" d="M 1172 4494 
L 1172 3500 
L 2356 3500 
L 2356 3053 
L 1172 3053 
L 1172 1153 
Q 1172 725 1289 603 
Q 1406 481 1766 481 
L 2356 481 
L 2356 0 
L 1766 0 
Q 1100 0 847 248 
Q 594 497 594 1153 
L 594 3053 
L 172 3053 
L 172 3500 
L 594 3500 
L 594 4494 
L 1172 4494 
z
" transform="scale(0.015625)"/>
       <path id="DejaVuSans-72" d="M 2631 2963 
Q 2534 3019 2420 3045 
Q 2306 3072 2169 3072 
Q 1681 3072 1420 2755 
Q 1159 2438 1159 1844 
L 1159 0 
L 581 0 
L 581 3500 
L 1159 3500 
L 1159 2956 
Q 1341 3275 1631 3429 
Q 1922 3584 2338 3584 
Q 2397 3584 2469 3576 
Q 2541 3569 2628 3553 
L 2631 2963 
z
" transform="scale(0.015625)"/>
       <path id="DejaVuSans-63" d="M 3122 3366 
L 3122 2828 
Q 2878 2963 2633 3030 
Q 2388 3097 2138 3097 
Q 1578 3097 1268 2742 
Q 959 2388 959 1747 
Q 959 1106 1268 751 
Q 1578 397 2138 397 
Q 2388 397 2633 464 
Q 2878 531 3122 666 
L 3122 134 
Q 2881 22 2623 -34 
Q 2366 -91 2075 -91 
Q 1284 -91 818 406 
Q 353 903 353 1747 
Q 353 2603 823 3093 
Q 1294 3584 2113 3584 
Q 2378 3584 2631 3529 
Q 2884 3475 3122 3366 
z
" transform="scale(0.015625)"/>
       <path id="DejaVuSans-65" d="M 3597 1894 
L 3597 1613 
L 953 1613 
Q 991 1019 1311 708 
Q 1631 397 2203 397 
Q 2534 397 2845 478 
Q 3156 559 3463 722 
L 3463 178 
Q 3153 47 2828 -22 
Q 2503 -91 2169 -91 
Q 1331 -91 842 396 
Q 353 884 353 1716 
Q 353 2575 817 3079 
Q 1281 3584 2069 3584 
Q 2775 3584 3186 3129 
Q 3597 2675 3597 1894 
z
M 3022 2063 
Q 3016 2534 2758 2815 
Q 2500 3097 2075 3097 
Q 1594 3097 1305 2825 
Q 1016 2553 972 2059 
L 3022 2063 
z
" transform="scale(0.015625)"/>
       <path id="DejaVuSans-73" d="M 2834 3397 
L 2834 2853 
Q 2591 2978 2328 3040 
Q 2066 3103 1784 3103 
Q 1356 3103 1142 2972 
Q 928 2841 928 2578 
Q 928 2378 1081 2264 
Q 1234 2150 1697 2047 
L 1894 2003 
Q 2506 1872 2764 1633 
Q 3022 1394 3022 966 
Q 3022 478 2636 193 
Q 2250 -91 1575 -91 
Q 1294 -91 989 -36 
Q 684 19 347 128 
L 347 722 
Q 666 556 975 473 
Q 1284 391 1588 391 
Q 1994 391 2212 530 
Q 2431 669 2431 922 
Q 2431 1156 2273 1281 
Q 2116 1406 1581 1522 
L 1381 1569 
Q 847 1681 609 1914 
Q 372 2147 372 2553 
Q 372 3047 722 3315 
Q 1072 3584 1716 3584 
Q 2034 3584 2315 3537 
Q 2597 3491 2834 3397 
z
" transform="scale(0.015625)"/>
      </defs>
      <use xlink:href="#DejaVuSans-46"/>
      <use xlink:href="#DejaVuSans-69" x="50.269531"/>
      <use xlink:href="#DejaVuSans-6e" x="78.052734"/>
      <use xlink:href="#DejaVuSans-61" x="141.431641"/>
      <use xlink:href="#DejaVuSans-6c" x="202.710938"/>
      <use xlink:href="#DejaVuSans-20" x="230.494141"/>
      <use xlink:href="#DejaVuSans-50" x="262.28125"/>
      <use xlink:href="#DejaVuSans-6f" x="318.958984"/>
      <use xlink:href="#DejaVuSans-69" x="380.140625"/>
      <use xlink:href="#DejaVuSans-6e" x="407.923828"/>
      <use xlink:href="#DejaVuSans-74" x="471.302734"/>
      <use xlink:href="#DejaVuSans-20" x="510.511719"/>
      <use xlink:href="#DejaVuSans-50" x="542.298828"/>
      <use xlink:href="#DejaVuSans-72" x="600.851562"/>
      <use xlink:href="#DejaVuSans-6f" x="639.714844"/>
      <use xlink:href="#DejaVuSans-63" x="700.896484"/>
      <use xlink:href="#DejaVuSans-65" x="755.876953"/>
      <use xlink:href="#DejaVuSans-73" x="817.400391"/>
      <use xlink:href="#DejaVuSans-73" x="869.5"/>
     </g>
    </g>
    <g id="line2d_29">
     <path d="M 131.216483 275.646187 
L 141.216483 275.646187 
L 151.216483 275.646187 
" style="fill: none; stroke: #008000; stroke-opacity: 0.5; stroke-width: 2.5; stroke-linecap: square"/>
    </g>
    <g id="text_8">
     <!-- Broadband Power -->
     <g transform="translate(159.216483 279.146187)scale(0.1 -0.1)">
      <defs>
       <path id="DejaVuSans-42" d="M 1259 2228 
L 1259 519 
L 2272 519 
Q 2781 519 3026 730 
Q 3272 941 3272 1375 
Q 3272 1813 3026 2020 
Q 2781 2228 2272 2228 
L 1259 2228 
z
M 1259 4147 
L 1259 2741 
L 2194 2741 
Q 2656 2741 2882 2914 
Q 3109 3088 3109 3444 
Q 3109 3797 2882 3972 
Q 2656 4147 2194 4147 
L 1259 4147 
z
M 628 4666 
L 2241 4666 
Q 2963 4666 3353 4366 
Q 3744 4066 3744 3513 
Q 3744 3084 3544 2831 
Q 3344 2578 2956 2516 
Q 3422 2416 3680 2098 
Q 3938 1781 3938 1306 
Q 3938 681 3513 340 
Q 3088 0 2303 0 
L 628 0 
L 628 4666 
z
" transform="scale(0.015625)"/>
       <path id="DejaVuSans-64" d="M 2906 2969 
L 2906 4863 
L 3481 4863 
L 3481 0 
L 2906 0 
L 2906 525 
Q 2725 213 2448 61 
Q 2172 -91 1784 -91 
Q 1150 -91 751 415 
Q 353 922 353 1747 
Q 353 2572 751 3078 
Q 1150 3584 1784 3584 
Q 2172 3584 2448 3432 
Q 2725 3281 2906 2969 
z
M 947 1747 
Q 947 1113 1208 752 
Q 1469 391 1925 391 
Q 2381 391 2643 752 
Q 2906 1113 2906 1747 
Q 2906 2381 2643 2742 
Q 2381 3103 1925 3103 
Q 1469 3103 1208 2742 
Q 947 2381 947 1747 
z
" transform="scale(0.015625)"/>
       <path id="DejaVuSans-62" d="M 3116 1747 
Q 3116 2381 2855 2742 
Q 2594 3103 2138 3103 
Q 1681 3103 1420 2742 
Q 1159 2381 1159 1747 
Q 1159 1113 1420 752 
Q 1681 391 2138 391 
Q 2594 391 2855 752 
Q 3116 1113 3116 1747 
z
M 1159 2969 
Q 1341 3281 1617 3432 
Q 1894 3584 2278 3584 
Q 2916 3584 3314 3078 
Q 3713 2572 3713 1747 
Q 3713 922 3314 415 
Q 2916 -91 2278 -91 
Q 1894 -91 1617 61 
Q 1341 213 1159 525 
L 1159 0 
L 581 0 
L 581 4863 
L 1159 4863 
L 1159 2969 
z
" transform="scale(0.015625)"/>
       <path id="DejaVuSans-77" d="M 269 3500 
L 844 3500 
L 1563 769 
L 2278 3500 
L 2956 3500 
L 3675 769 
L 4391 3500 
L 4966 3500 
L 4050 0 
L 3372 0 
L 2619 2869 
L 1863 0 
L 1184 0 
L 269 3500 
z
" transform="scale(0.015625)"/>
      </defs>
      <use xlink:href="#DejaVuSans-42"/>
      <use xlink:href="#DejaVuSans-72" x="68.603516"/>
      <use xlink:href="#DejaVuSans-6f" x="107.466797"/>
      <use xlink:href="#DejaVuSans-61" x="168.648438"/>
      <use xlink:href="#DejaVuSans-64" x="229.927734"/>
      <use xlink:href="#DejaVuSans-62" x="293.404297"/>
      <use xlink:href="#DejaVuSans-61" x="356.880859"/>
      <use xlink:href="#DejaVuSans-6e" x="418.160156"/>
      <use xlink:href="#DejaVuSans-64" x="481.539062"/>
      <use xlink:href="#DejaVuSans-20" x="545.015625"/>
      <use xlink:href="#DejaVuSans-50" x="576.802734"/>
      <use xlink:href="#DejaVuSans-6f" x="633.480469"/>
      <use xlink:href="#DejaVuSans-77" x="694.662109"/>
      <use xlink:href="#DejaVuSans-65" x="776.449219"/>
      <use xlink:href="#DejaVuSans-72" x="837.972656"/>
     </g>
    </g>
    <g id="line2d_30">
     <path d="M 131.216483 290.324313 
L 141.216483 290.324313 
L 151.216483 290.324313 
" style="fill: none; stroke: #0000ff; stroke-opacity: 0.5; stroke-width: 2.5; stroke-linecap: square"/>
    </g>
    <g id="text_9">
     <!-- Ensemble Dynamics  -->
     <g transform="translate(159.216483 293.824313)scale(0.1 -0.1)">
      <defs>
       <path id="DejaVuSans-45" d="M 628 4666 
L 3578 4666 
L 3578 4134 
L 1259 4134 
L 1259 2753 
L 3481 2753 
L 3481 2222 
L 1259 2222 
L 1259 531 
L 3634 531 
L 3634 0 
L 628 0 
L 628 4666 
z
" transform="scale(0.015625)"/>
       <path id="DejaVuSans-6d" d="M 3328 2828 
Q 3544 3216 3844 3400 
Q 4144 3584 4550 3584 
Q 5097 3584 5394 3201 
Q 5691 2819 5691 2113 
L 5691 0 
L 5113 0 
L 5113 2094 
Q 5113 2597 4934 2840 
Q 4756 3084 4391 3084 
Q 3944 3084 3684 2787 
Q 3425 2491 3425 1978 
L 3425 0 
L 2847 0 
L 2847 2094 
Q 2847 2600 2669 2842 
Q 2491 3084 2119 3084 
Q 1678 3084 1418 2786 
Q 1159 2488 1159 1978 
L 1159 0 
L 581 0 
L 581 3500 
L 1159 3500 
L 1159 2956 
Q 1356 3278 1631 3431 
Q 1906 3584 2284 3584 
Q 2666 3584 2933 3390 
Q 3200 3197 3328 2828 
z
" transform="scale(0.015625)"/>
       <path id="DejaVuSans-44" d="M 1259 4147 
L 1259 519 
L 2022 519 
Q 2988 519 3436 956 
Q 3884 1394 3884 2338 
Q 3884 3275 3436 3711 
Q 2988 4147 2022 4147 
L 1259 4147 
z
M 628 4666 
L 1925 4666 
Q 3281 4666 3915 4102 
Q 4550 3538 4550 2338 
Q 4550 1131 3912 565 
Q 3275 0 1925 0 
L 628 0 
L 628 4666 
z
" transform="scale(0.015625)"/>
       <path id="DejaVuSans-79" d="M 2059 -325 
Q 1816 -950 1584 -1140 
Q 1353 -1331 966 -1331 
L 506 -1331 
L 506 -850 
L 844 -850 
Q 1081 -850 1212 -737 
Q 1344 -625 1503 -206 
L 1606 56 
L 191 3500 
L 800 3500 
L 1894 763 
L 2988 3500 
L 3597 3500 
L 2059 -325 
z
" transform="scale(0.015625)"/>
      </defs>
      <use xlink:href="#DejaVuSans-45"/>
      <use xlink:href="#DejaVuSans-6e" x="63.183594"/>
      <use xlink:href="#DejaVuSans-73" x="126.5625"/>
      <use xlink:href="#DejaVuSans-65" x="178.662109"/>
      <use xlink:href="#DejaVuSans-6d" x="240.185547"/>
      <use xlink:href="#DejaVuSans-62" x="337.597656"/>
      <use xlink:href="#DejaVuSans-6c" x="401.074219"/>
      <use xlink:href="#DejaVuSans-65" x="428.857422"/>
      <use xlink:href="#DejaVuSans-20" x="490.380859"/>
      <use xlink:href="#DejaVuSans-44" x="522.167969"/>
      <use xlink:href="#DejaVuSans-79" x="599.169922"/>
      <use xlink:href="#DejaVuSans-6e" x="658.349609"/>
      <use xlink:href="#DejaVuSans-61" x="721.728516"/>
      <use xlink:href="#DejaVuSans-6d" x="783.007812"/>
      <use xlink:href="#DejaVuSans-69" x="880.419922"/>
      <use xlink:href="#DejaVuSans-63" x="908.203125"/>
      <use xlink:href="#DejaVuSans-73" x="963.183594"/>
      <use xlink:href="#DejaVuSans-20" x="1015.283203"/>
     </g>
    </g>
   </g>
  </g>
  <g id="axes_2">
   <g id="patch_8">
    <path d="M 122.216483 657.956 
L 543.6 657.956 
L 543.6 385.452 
L 122.216483 385.452 
z
" style="fill: #ffffff"/>
   </g>
   <g id="patch_9">
    <path d="M 122.216483 657.956 
L 122.216483 385.452 
L 280.315258 385.452 
L 280.315258 657.956 
z
" clip-path="url(#p36727fdc56)" style="fill: #add8e6; opacity: 0.3; stroke: #add8e6; stroke-linejoin: miter"/>
   </g>
   <g id="patch_10">
    <path d="M 280.315258 657.956 
L 280.315258 385.452 
L 543.6 385.452 
L 543.6 657.956 
z
" clip-path="url(#p36727fdc56)" style="fill: #90ee90; opacity: 0.3; stroke: #90ee90; stroke-linejoin: miter"/>
   </g>
   <g id="matplotlib.axis_3">
    <g id="xtick_21">
     <g id="line2d_31">
      <g>
       <use xlink:href="#mf6fbf77a9a" x="122.216483" y="657.956" style="stroke: #000000; stroke-width: 0.8"/>
      </g>
     </g>
     <g id="text_10">
      <!-- $\mathdefault{10^{0}}$ -->
      <g transform="translate(95.816483 687.751313)scale(0.3 -0.3)">
       <use xlink:href="#DejaVuSans-31" transform="translate(0 0.765625)"/>
       <use xlink:href="#DejaVuSans-30" transform="translate(63.623047 0.765625)"/>
       <use xlink:href="#DejaVuSans-30" transform="translate(128.203125 39.046875)scale(0.7)"/>
      </g>
     </g>
    </g>
    <g id="xtick_22">
     <g id="line2d_32">
      <g>
       <use xlink:href="#mf6fbf77a9a" x="305.344699" y="657.956" style="stroke: #000000; stroke-width: 0.8"/>
      </g>
     </g>
     <g id="text_11">
      <!-- $\mathdefault{10^{1}}$ -->
      <g transform="translate(278.944699 687.751313)scale(0.3 -0.3)">
       <use xlink:href="#DejaVuSans-31" transform="translate(0 0.684375)"/>
       <use xlink:href="#DejaVuSans-30" transform="translate(63.623047 0.684375)"/>
       <use xlink:href="#DejaVuSans-31" transform="translate(128.203125 38.965625)scale(0.7)"/>
      </g>
     </g>
    </g>
    <g id="xtick_23">
     <g id="line2d_33">
      <g>
       <use xlink:href="#mf6fbf77a9a" x="488.472914" y="657.956" style="stroke: #000000; stroke-width: 0.8"/>
      </g>
     </g>
     <g id="text_12">
      <!-- $\mathdefault{10^{2}}$ -->
      <g transform="translate(462.072914 687.751313)scale(0.3 -0.3)">
       <use xlink:href="#DejaVuSans-31" transform="translate(0 0.765625)"/>
       <use xlink:href="#DejaVuSans-30" transform="translate(63.623047 0.765625)"/>
       <use xlink:href="#DejaVuSans-32" transform="translate(128.203125 39.046875)scale(0.7)"/>
      </g>
     </g>
    </g>
    <g id="xtick_24">
     <g id="line2d_34">
      <g>
       <use xlink:href="#m7982580987" x="177.343569" y="657.956" style="stroke: #000000; stroke-width: 0.6"/>
      </g>
     </g>
    </g>
    <g id="xtick_25">
     <g id="line2d_35">
      <g>
       <use xlink:href="#m7982580987" x="209.590847" y="657.956" style="stroke: #000000; stroke-width: 0.6"/>
      </g>
     </g>
    </g>
    <g id="xtick_26">
     <g id="line2d_36">
      <g>
       <use xlink:href="#m7982580987" x="232.470655" y="657.956" style="stroke: #000000; stroke-width: 0.6"/>
      </g>
     </g>
    </g>
    <g id="xtick_27">
     <g id="line2d_37">
      <g>
       <use xlink:href="#m7982580987" x="250.217613" y="657.956" style="stroke: #000000; stroke-width: 0.6"/>
      </g>
     </g>
    </g>
    <g id="xtick_28">
     <g id="line2d_38">
      <g>
       <use xlink:href="#m7982580987" x="264.717933" y="657.956" style="stroke: #000000; stroke-width: 0.6"/>
      </g>
     </g>
    </g>
    <g id="xtick_29">
     <g id="line2d_39">
      <g>
       <use xlink:href="#m7982580987" x="276.977779" y="657.956" style="stroke: #000000; stroke-width: 0.6"/>
      </g>
     </g>
    </g>
    <g id="xtick_30">
     <g id="line2d_40">
      <g>
       <use xlink:href="#m7982580987" x="287.597741" y="657.956" style="stroke: #000000; stroke-width: 0.6"/>
      </g>
     </g>
    </g>
    <g id="xtick_31">
     <g id="line2d_41">
      <g>
       <use xlink:href="#m7982580987" x="296.965211" y="657.956" style="stroke: #000000; stroke-width: 0.6"/>
      </g>
     </g>
    </g>
    <g id="xtick_32">
     <g id="line2d_42">
      <g>
       <use xlink:href="#m7982580987" x="360.471785" y="657.956" style="stroke: #000000; stroke-width: 0.6"/>
      </g>
     </g>
    </g>
    <g id="xtick_33">
     <g id="line2d_43">
      <g>
       <use xlink:href="#m7982580987" x="392.719063" y="657.956" style="stroke: #000000; stroke-width: 0.6"/>
      </g>
     </g>
    </g>
    <g id="xtick_34">
     <g id="line2d_44">
      <g>
       <use xlink:href="#m7982580987" x="415.598871" y="657.956" style="stroke: #000000; stroke-width: 0.6"/>
      </g>
     </g>
    </g>
    <g id="xtick_35">
     <g id="line2d_45">
      <g>
       <use xlink:href="#m7982580987" x="433.345828" y="657.956" style="stroke: #000000; stroke-width: 0.6"/>
      </g>
     </g>
    </g>
    <g id="xtick_36">
     <g id="line2d_46">
      <g>
       <use xlink:href="#m7982580987" x="447.846149" y="657.956" style="stroke: #000000; stroke-width: 0.6"/>
      </g>
     </g>
    </g>
    <g id="xtick_37">
     <g id="line2d_47">
      <g>
       <use xlink:href="#m7982580987" x="460.105995" y="657.956" style="stroke: #000000; stroke-width: 0.6"/>
      </g>
     </g>
    </g>
    <g id="xtick_38">
     <g id="line2d_48">
      <g>
       <use xlink:href="#m7982580987" x="470.725956" y="657.956" style="stroke: #000000; stroke-width: 0.6"/>
      </g>
     </g>
    </g>
    <g id="xtick_39">
     <g id="line2d_49">
      <g>
       <use xlink:href="#m7982580987" x="480.093427" y="657.956" style="stroke: #000000; stroke-width: 0.6"/>
      </g>
     </g>
    </g>
    <g id="xtick_40">
     <g id="line2d_50">
      <g>
       <use xlink:href="#m7982580987" x="543.6" y="657.956" style="stroke: #000000; stroke-width: 0.6"/>
      </g>
     </g>
    </g>
   </g>
   <g id="matplotlib.axis_4">
    <g id="ytick_4">
     <g id="line2d_51">
      <g>
       <use xlink:href="#mfcdbeced1f" x="122.216483" y="657.956" style="stroke: #000000; stroke-width: 0.8"/>
      </g>
     </g>
     <g id="text_13">
      <!-- $\mathdefault{10^{-12}}$ -->
      <g transform="translate(31.516483 669.353656)scale(0.3 -0.3)">
       <use xlink:href="#DejaVuSans-31" transform="translate(0 0.765625)"/>
       <use xlink:href="#DejaVuSans-30" transform="translate(63.623047 0.765625)"/>
       <use xlink:href="#DejaVuSans-2212" transform="translate(128.203125 39.046875)scale(0.7)"/>
       <use xlink:href="#DejaVuSans-31" transform="translate(186.855469 39.046875)scale(0.7)"/>
       <use xlink:href="#DejaVuSans-32" transform="translate(231.391602 39.046875)scale(0.7)"/>
      </g>
     </g>
    </g>
    <g id="ytick_5">
     <g id="line2d_52">
      <g>
       <use xlink:href="#mfcdbeced1f" x="122.216483" y="567.121333" style="stroke: #000000; stroke-width: 0.8"/>
      </g>
     </g>
     <g id="text_14">
      <!-- $\mathdefault{10^{-10}}$ -->
      <g transform="translate(31.516483 578.51899)scale(0.3 -0.3)">
       <use xlink:href="#DejaVuSans-31" transform="translate(0 0.765625)"/>
       <use xlink:href="#DejaVuSans-30" transform="translate(63.623047 0.765625)"/>
       <use xlink:href="#DejaVuSans-2212" transform="translate(128.203125 39.046875)scale(0.7)"/>
       <use xlink:href="#DejaVuSans-31" transform="translate(186.855469 39.046875)scale(0.7)"/>
       <use xlink:href="#DejaVuSans-30" transform="translate(231.391602 39.046875)scale(0.7)"/>
      </g>
     </g>
    </g>
    <g id="ytick_6">
     <g id="line2d_53">
      <g>
       <use xlink:href="#mfcdbeced1f" x="122.216483" y="476.286667" style="stroke: #000000; stroke-width: 0.8"/>
      </g>
     </g>
     <g id="text_15">
      <!-- $\mathdefault{10^{-8}}$ -->
      <g transform="translate(44.716483 487.684323)scale(0.3 -0.3)">
       <defs>
        <path id="DejaVuSans-38" d="M 2034 2216 
Q 1584 2216 1326 1975 
Q 1069 1734 1069 1313 
Q 1069 891 1326 650 
Q 1584 409 2034 409 
Q 2484 409 2743 651 
Q 3003 894 3003 1313 
Q 3003 1734 2745 1975 
Q 2488 2216 2034 2216 
z
M 1403 2484 
Q 997 2584 770 2862 
Q 544 3141 544 3541 
Q 544 4100 942 4425 
Q 1341 4750 2034 4750 
Q 2731 4750 3128 4425 
Q 3525 4100 3525 3541 
Q 3525 3141 3298 2862 
Q 3072 2584 2669 2484 
Q 3125 2378 3379 2068 
Q 3634 1759 3634 1313 
Q 3634 634 3220 271 
Q 2806 -91 2034 -91 
Q 1263 -91 848 271 
Q 434 634 434 1313 
Q 434 1759 690 2068 
Q 947 2378 1403 2484 
z
M 1172 3481 
Q 1172 3119 1398 2916 
Q 1625 2713 2034 2713 
Q 2441 2713 2670 2916 
Q 2900 3119 2900 3481 
Q 2900 3844 2670 4047 
Q 2441 4250 2034 4250 
Q 1625 4250 1398 4047 
Q 1172 3844 1172 3481 
z
" transform="scale(0.015625)"/>
       </defs>
       <use xlink:href="#DejaVuSans-31" transform="translate(0 0.765625)"/>
       <use xlink:href="#DejaVuSans-30" transform="translate(63.623047 0.765625)"/>
       <use xlink:href="#DejaVuSans-2212" transform="translate(128.203125 39.046875)scale(0.7)"/>
       <use xlink:href="#DejaVuSans-38" transform="translate(186.855469 39.046875)scale(0.7)"/>
      </g>
     </g>
    </g>
    <g id="ytick_7">
     <g id="line2d_54">
      <g>
       <use xlink:href="#mfcdbeced1f" x="122.216483" y="385.452" style="stroke: #000000; stroke-width: 0.8"/>
      </g>
     </g>
     <g id="text_16">
      <!-- $\mathdefault{10^{-6}}$ -->
      <g transform="translate(44.716483 396.849656)scale(0.3 -0.3)">
       <defs>
        <path id="DejaVuSans-36" d="M 2113 2584 
Q 1688 2584 1439 2293 
Q 1191 2003 1191 1497 
Q 1191 994 1439 701 
Q 1688 409 2113 409 
Q 2538 409 2786 701 
Q 3034 994 3034 1497 
Q 3034 2003 2786 2293 
Q 2538 2584 2113 2584 
z
M 3366 4563 
L 3366 3988 
Q 3128 4100 2886 4159 
Q 2644 4219 2406 4219 
Q 1781 4219 1451 3797 
Q 1122 3375 1075 2522 
Q 1259 2794 1537 2939 
Q 1816 3084 2150 3084 
Q 2853 3084 3261 2657 
Q 3669 2231 3669 1497 
Q 3669 778 3244 343 
Q 2819 -91 2113 -91 
Q 1303 -91 875 529 
Q 447 1150 447 2328 
Q 447 3434 972 4092 
Q 1497 4750 2381 4750 
Q 2619 4750 2861 4703 
Q 3103 4656 3366 4563 
z
" transform="scale(0.015625)"/>
       </defs>
       <use xlink:href="#DejaVuSans-31" transform="translate(0 0.765625)"/>
       <use xlink:href="#DejaVuSans-30" transform="translate(63.623047 0.765625)"/>
       <use xlink:href="#DejaVuSans-2212" transform="translate(128.203125 39.046875)scale(0.7)"/>
       <use xlink:href="#DejaVuSans-36" transform="translate(186.855469 39.046875)scale(0.7)"/>
      </g>
     </g>
    </g>
   </g>
   <g id="line2d_55">
    <path d="M -1 403.616541 
L 36.417054 403.358339 
L 62.168349 402.970024 
L 81.589718 402.452713 
L 96.090038 401.857635 
L 108.349884 401.146233 
L 118.969846 400.314635 
L 128.337316 399.35862 
L 136.716804 398.273834 
L 144.296972 397.056158 
L 150.662895 395.820372 
L 156.556818 394.468847 
L 162.524485 392.863574 
L 168.075452 391.12775 
L 173.264133 389.27574 
L 178.918503 387.005787 
L 186.000931 383.881998 
L 192.503906 381.055279 
L 195.724248 379.883601 
L 198.209812 379.199174 
L 200.32273 378.834203 
L 202.090171 378.723038 
L 203.819186 378.816506 
L 205.511411 379.125916 
L 207.168379 379.655372 
L 208.791528 380.401315 
L 210.644261 381.530384 
L 212.454814 382.911592 
L 214.474772 384.75347 
L 216.68754 387.091676 
L 219.311008 390.217664 
L 222.529488 394.432363 
L 227.125438 400.860478 
L 239.324503 418.083787 
L 244.616804 425.089826 
L 249.418294 431.082809 
L 253.946338 436.388444 
L 258.3741 441.234257 
L 262.5683 445.501039 
L 266.681776 449.373051 
L 270.715937 452.866871 
L 274.672355 456.00308 
L 278.664024 458.882572 
L 282.676693 461.50108 
L 286.798422 463.920709 
L 291.003283 466.131478 
L 295.448579 468.217611 
L 300.254254 470.22451 
L 305.582936 472.203982 
L 311.759549 474.253227 
L 319.512945 476.577539 
L 332.331774 480.148154 
L 348.569028 484.72885 
L 359.269773 487.986017 
L 369.271676 491.262073 
L 379.230286 494.758884 
L 389.444805 498.582946 
L 400.178637 502.841305 
L 411.665805 507.640851 
L 424.167022 513.109206 
L 437.874935 519.35227 
L 452.904403 526.445327 
L 468.977056 534.278456 
L 485.325629 542.492494 
L 500.980059 550.603419 
L 515.380645 558.311083 
L 528.473695 565.567339 
L 540.436165 572.447969 
L 551.508462 579.070501 
L 561.908057 585.547868 
L 571.820845 591.98268 
L 577 595.454029 
M 577 595.454029 
L 567.338078 589.03957 
L 557.334467 582.666425 
L 546.833911 576.242247 
L 535.652343 569.664693 
L 523.584159 562.826694 
L 510.402632 555.617073 
L 495.944557 547.966263 
L 480.269967 539.925607 
L 463.899741 531.777835 
L 447.779845 524.000231 
L 432.73908 516.985803 
L 419.06154 510.847686 
L 406.620648 505.504184 
L 395.198509 500.836577 
L 384.516116 496.708659 
L 374.339974 493.012481 
L 364.390006 489.633794 
L 354.314359 486.447767 
L 343.36841 483.225299 
L 327.364914 478.781414 
L 315.13521 475.291469 
L 307.926866 473.008216 
L 302.098061 470.935704 
L 296.965211 468.876716 
L 292.325691 466.777467 
L 287.994408 464.574815 
L 283.831627 462.205757 
L 279.87827 459.703459 
L 275.9486 456.954364 
L 272.056731 453.961682 
L 268.091719 450.628327 
L 264.052393 446.933961 
L 259.937774 442.862254 
L 255.74713 438.400889 
L 251.323333 433.357133 
L 246.805112 427.866404 
L 242.014666 421.694277 
L 236.728837 414.513572 
L 229.842944 404.750784 
L 222.303866 394.126699 
L 218.840406 389.632949 
L 216.201107 386.551739 
L 213.974572 384.26959 
L 211.941705 382.493183 
L 210.119298 381.180682 
L 208.254151 380.129142 
L 206.619883 379.4545 
L 204.951327 378.998375 
L 203.247014 378.761775 
L 201.505377 378.738102 
L 199.424058 378.961303 
L 197.286805 379.425183 
L 194.771763 380.202637 
L 191.511816 381.459846 
L 186.000931 383.881998 
L 177.740236 387.499079 
L 172.422521 389.591517 
L 167.17678 391.425642 
L 161.560454 393.140431 
L 156.038696 394.596493 
L 150.104776 395.937492 
L 143.692167 397.162796 
L 136.716804 398.273834 
L 129.070331 399.273199 
L 120.60973 400.164057 
L 111.140752 400.949762 
L 99.336676 401.690834 
L 85.470076 402.314655 
L 68.664332 402.82474 
L 47.328875 403.22406 
L 18.083144 403.514991 
L -1 403.616541 
L -1 403.616541 
" clip-path="url(#p36727fdc56)" style="fill: none; stroke: #000000; stroke-width: 2.5; stroke-linecap: square"/>
   </g>
   <g id="line2d_56">
    <path d="M -1 469.902979 
L 141.849654 470.026832 
L 185.284426 470.276767 
L 212.964634 470.649172 
L 233.458638 471.1391 
L 250.05839 471.752028 
L 264.185947 472.492392 
L 276.52201 473.357173 
L 287.697093 474.360753 
L 297.931371 475.499771 
L 307.540976 476.790241 
L 316.667389 478.237438 
L 325.535119 479.868596 
L 334.179476 481.685014 
L 342.724827 483.708037 
L 351.292978 485.966115 
L 359.953142 488.479543 
L 368.843319 491.293333 
L 378.05952 494.446242 
L 387.713361 497.986283 
L 397.976084 501.989072 
L 409.032209 506.543247 
L 421.091284 511.754937 
L 434.373076 517.74179 
L 448.991076 524.578885 
L 464.804498 532.223119 
L 481.15556 540.374123 
L 497.058915 548.547766 
L 511.802788 556.371634 
L 525.219242 563.738963 
L 537.451167 570.70614 
L 548.731607 577.38454 
L 559.284435 583.888479 
L 569.307965 590.326001 
L 577 595.454039 
M 577 595.454039 
L 567.338078 589.039583 
L 557.334467 582.666444 
L 546.833911 576.242277 
L 535.652343 569.664741 
L 523.584159 562.826778 
L 510.408668 555.620475 
L 495.959035 547.974117 
L 480.2876 539.935184 
L 463.932232 531.795252 
L 447.859403 524.041298 
L 432.883202 517.058771 
L 419.308621 510.970072 
L 407.020305 505.697458 
L 395.812853 501.126276 
L 385.422052 497.125313 
L 375.697823 493.616363 
L 366.4452 490.511663 
L 357.55584 487.760874 
L 348.891672 485.310125 
L 340.302358 483.11133 
L 331.763283 481.154252 
L 323.091657 479.396142 
L 314.286865 477.837992 
L 305.185476 476.452665 
L 295.628515 475.223387 
L 285.482147 474.143159 
L 274.438094 473.19453 
L 262.295464 472.379236 
L 248.61086 471.688708 
L 232.867322 471.121356 
L 213.723287 470.663337 
L 189.489718 470.318412 
L 156.038696 470.081196 
L 102.455961 469.946853 
L -1 469.902979 
L -1 469.902979 
" clip-path="url(#p36727fdc56)" style="fill: none; stroke: #008000; stroke-opacity: 0.5; stroke-width: 2.5; stroke-linecap: square"/>
   </g>
   <g id="line2d_57">
    <path d="M -1 404.313423 
L 36.417054 404.045803 
L 62.168349 403.643569 
L 80.253021 403.154148 
L 94.97769 402.548674 
L 107.397399 401.824041 
L 118.137047 400.976692 
L 127.597482 400.002751 
L 136.051264 398.898233 
L 143.082726 397.767842 
L 149.542713 396.522268 
L 155.517175 395.160332 
L 161.074021 393.682856 
L 166.723608 391.94425 
L 171.998352 390.085688 
L 177.343569 387.965449 
L 183.464402 385.28644 
L 193.158491 381.009244 
L 196.352959 379.888185 
L 198.819252 379.263842 
L 200.916252 378.965249 
L 202.670696 378.919967 
L 204.387271 379.085843 
L 206.067578 379.47202 
L 207.713118 380.08019 
L 209.325299 380.904421 
L 211.165781 382.121561 
L 212.964634 383.585093 
L 214.971846 385.512478 
L 217.171016 387.935895 
L 219.778842 391.153035 
L 222.97882 395.471756 
L 227.549607 402.056252 
L 245.8026 428.732331 
L 252.876733 438.499161 
L 260.498845 448.635436 
L 268.976115 459.528612 
L 279.107716 472.170471 
L 293.071596 489.206153 
L 326.027195 529.29925 
L 339.322702 545.902192 
L 351.649223 561.65108 
L 363.743868 577.466302 
L 376.090896 593.980684 
L 389.112616 611.774174 
L 403.256136 631.484584 
L 419.137647 654.008366 
L 437.724535 680.768098 
L 460.852351 714.474211 
L 494.453707 763.877447 
L 539.285809 829.753596 
L 555.588978 853.302114 
L 567.341028 869.902749 
L 576.636019 882.661416 
L 577 883.152192 
M 577 883.152192 
L 568.471772 871.475518 
L 558.090378 856.869119 
L 544.795867 837.759983 
L 526.026828 810.36156 
L 487.004004 752.900845 
L 451.372246 700.615608 
L 428.627581 667.625636 
L 410.487226 641.694314 
L 394.992668 619.923767 
L 381.123615 600.813978 
L 368.268562 583.475744 
L 355.972656 567.262755 
L 343.810936 551.594467 
L 331.248143 535.775511 
L 317.354195 518.646562 
L 297.40583 494.451412 
L 278.217843 471.072522 
L 267.5819 457.760113 
L 258.946272 446.599924 
L 251.323333 436.386056 
L 244.274732 426.573168 
L 236.917077 415.934621 
L 221.394924 393.292519 
L 218.367002 389.37052 
L 215.71168 386.294017 
L 213.471206 384.043496 
L 211.425265 382.31635 
L 209.590847 381.061983 
L 207.984094 380.202826 
L 206.34421 379.558033 
L 204.669799 379.134767 
L 202.959377 378.932615 
L 201.21136 378.94363 
L 199.12223 379.206078 
L 196.97674 379.706626 
L 194.451716 380.521864 
L 191.17835 381.819742 
L 185.643486 384.293811 
L 177.343569 387.965449 
L 171.998352 390.085688 
L 166.723608 391.94425 
L 161.560454 393.542919 
L 156.038696 395.030757 
L 150.104776 396.403269 
L 143.692167 397.659396 
L 136.716804 398.800174 
L 129.070331 399.827839 
L 120.60973 400.745231 
L 111.140752 401.555413 
L 100.390089 402.26142 
L 87.95564 402.8661 
L 73.21023 403.372016 
L 55.094216 403.781384 
L 31.595482 404.096037 
L -1 404.313423 
L -1 404.313423 
" clip-path="url(#p36727fdc56)" style="fill: none; stroke: #0000ff; stroke-opacity: 0.5; stroke-width: 2.5; stroke-linecap: square"/>
   </g>
   <g id="line2d_58">
    <path d="M 280.315258 657.956 
L 280.315258 385.452 
" clip-path="url(#p36727fdc56)" style="fill: none; stroke-dasharray: 5.55,2.4; stroke-dashoffset: 0; stroke: #808080; stroke-width: 1.5"/>
   </g>
   <g id="patch_11">
    <path d="M 122.216483 657.956 
L 122.216483 385.452 
" style="fill: none; stroke: #000000; stroke-width: 0.8; stroke-linejoin: miter; stroke-linecap: square"/>
   </g>
   <g id="patch_12">
    <path d="M 122.216483 657.956 
L 543.6 657.956 
" style="fill: none; stroke: #000000; stroke-width: 0.8; stroke-linejoin: miter; stroke-linecap: square"/>
   </g>
  </g>
  <g id="axes_3">
   <g id="patch_13">
    <path d="M 122.216483 1011.008 
L 543.6 1011.008 
L 543.6 738.504 
L 122.216483 738.504 
z
" style="fill: #ffffff"/>
   </g>
   <g id="patch_14">
    <path d="M 122.216483 1011.008 
L 122.216483 738.504 
L 280.315258 738.504 
L 280.315258 1011.008 
z
" clip-path="url(#pa6d0a05e10)" style="fill: #add8e6; opacity: 0.3; stroke: #add8e6; stroke-linejoin: miter"/>
   </g>
   <g id="patch_15">
    <path d="M 280.315258 1011.008 
L 280.315258 738.504 
L 543.6 738.504 
L 543.6 1011.008 
z
" clip-path="url(#pa6d0a05e10)" style="fill: #90ee90; opacity: 0.3; stroke: #90ee90; stroke-linejoin: miter"/>
   </g>
   <g id="matplotlib.axis_5">
    <g id="xtick_41">
     <g id="line2d_59">
      <g>
       <use xlink:href="#mf6fbf77a9a" x="122.216483" y="1011.008" style="stroke: #000000; stroke-width: 0.8"/>
      </g>
     </g>
     <g id="text_17">
      <!-- $\mathdefault{10^{0}}$ -->
      <g transform="translate(95.816483 1040.803313)scale(0.3 -0.3)">
       <use xlink:href="#DejaVuSans-31" transform="translate(0 0.765625)"/>
       <use xlink:href="#DejaVuSans-30" transform="translate(63.623047 0.765625)"/>
       <use xlink:href="#DejaVuSans-30" transform="translate(128.203125 39.046875)scale(0.7)"/>
      </g>
     </g>
    </g>
    <g id="xtick_42">
     <g id="line2d_60">
      <g>
       <use xlink:href="#mf6fbf77a9a" x="305.344699" y="1011.008" style="stroke: #000000; stroke-width: 0.8"/>
      </g>
     </g>
     <g id="text_18">
      <!-- $\mathdefault{10^{1}}$ -->
      <g transform="translate(278.944699 1040.803313)scale(0.3 -0.3)">
       <use xlink:href="#DejaVuSans-31" transform="translate(0 0.684375)"/>
       <use xlink:href="#DejaVuSans-30" transform="translate(63.623047 0.684375)"/>
       <use xlink:href="#DejaVuSans-31" transform="translate(128.203125 38.965625)scale(0.7)"/>
      </g>
     </g>
    </g>
    <g id="xtick_43">
     <g id="line2d_61">
      <g>
       <use xlink:href="#mf6fbf77a9a" x="488.472914" y="1011.008" style="stroke: #000000; stroke-width: 0.8"/>
      </g>
     </g>
     <g id="text_19">
      <!-- $\mathdefault{10^{2}}$ -->
      <g transform="translate(462.072914 1040.803313)scale(0.3 -0.3)">
       <use xlink:href="#DejaVuSans-31" transform="translate(0 0.765625)"/>
       <use xlink:href="#DejaVuSans-30" transform="translate(63.623047 0.765625)"/>
       <use xlink:href="#DejaVuSans-32" transform="translate(128.203125 39.046875)scale(0.7)"/>
      </g>
     </g>
    </g>
    <g id="xtick_44">
     <g id="line2d_62">
      <g>
       <use xlink:href="#m7982580987" x="177.343569" y="1011.008" style="stroke: #000000; stroke-width: 0.6"/>
      </g>
     </g>
    </g>
    <g id="xtick_45">
     <g id="line2d_63">
      <g>
       <use xlink:href="#m7982580987" x="209.590847" y="1011.008" style="stroke: #000000; stroke-width: 0.6"/>
      </g>
     </g>
    </g>
    <g id="xtick_46">
     <g id="line2d_64">
      <g>
       <use xlink:href="#m7982580987" x="232.470655" y="1011.008" style="stroke: #000000; stroke-width: 0.6"/>
      </g>
     </g>
    </g>
    <g id="xtick_47">
     <g id="line2d_65">
      <g>
       <use xlink:href="#m7982580987" x="250.217613" y="1011.008" style="stroke: #000000; stroke-width: 0.6"/>
      </g>
     </g>
    </g>
    <g id="xtick_48">
     <g id="line2d_66">
      <g>
       <use xlink:href="#m7982580987" x="264.717933" y="1011.008" style="stroke: #000000; stroke-width: 0.6"/>
      </g>
     </g>
    </g>
    <g id="xtick_49">
     <g id="line2d_67">
      <g>
       <use xlink:href="#m7982580987" x="276.977779" y="1011.008" style="stroke: #000000; stroke-width: 0.6"/>
      </g>
     </g>
    </g>
    <g id="xtick_50">
     <g id="line2d_68">
      <g>
       <use xlink:href="#m7982580987" x="287.597741" y="1011.008" style="stroke: #000000; stroke-width: 0.6"/>
      </g>
     </g>
    </g>
    <g id="xtick_51">
     <g id="line2d_69">
      <g>
       <use xlink:href="#m7982580987" x="296.965211" y="1011.008" style="stroke: #000000; stroke-width: 0.6"/>
      </g>
     </g>
    </g>
    <g id="xtick_52">
     <g id="line2d_70">
      <g>
       <use xlink:href="#m7982580987" x="360.471785" y="1011.008" style="stroke: #000000; stroke-width: 0.6"/>
      </g>
     </g>
    </g>
    <g id="xtick_53">
     <g id="line2d_71">
      <g>
       <use xlink:href="#m7982580987" x="392.719063" y="1011.008" style="stroke: #000000; stroke-width: 0.6"/>
      </g>
     </g>
    </g>
    <g id="xtick_54">
     <g id="line2d_72">
      <g>
       <use xlink:href="#m7982580987" x="415.598871" y="1011.008" style="stroke: #000000; stroke-width: 0.6"/>
      </g>
     </g>
    </g>
    <g id="xtick_55">
     <g id="line2d_73">
      <g>
       <use xlink:href="#m7982580987" x="433.345828" y="1011.008" style="stroke: #000000; stroke-width: 0.6"/>
      </g>
     </g>
    </g>
    <g id="xtick_56">
     <g id="line2d_74">
      <g>
       <use xlink:href="#m7982580987" x="447.846149" y="1011.008" style="stroke: #000000; stroke-width: 0.6"/>
      </g>
     </g>
    </g>
    <g id="xtick_57">
     <g id="line2d_75">
      <g>
       <use xlink:href="#m7982580987" x="460.105995" y="1011.008" style="stroke: #000000; stroke-width: 0.6"/>
      </g>
     </g>
    </g>
    <g id="xtick_58">
     <g id="line2d_76">
      <g>
       <use xlink:href="#m7982580987" x="470.725956" y="1011.008" style="stroke: #000000; stroke-width: 0.6"/>
      </g>
     </g>
    </g>
    <g id="xtick_59">
     <g id="line2d_77">
      <g>
       <use xlink:href="#m7982580987" x="480.093427" y="1011.008" style="stroke: #000000; stroke-width: 0.6"/>
      </g>
     </g>
    </g>
    <g id="xtick_60">
     <g id="line2d_78">
      <g>
       <use xlink:href="#m7982580987" x="543.6" y="1011.008" style="stroke: #000000; stroke-width: 0.6"/>
      </g>
     </g>
    </g>
   </g>
   <g id="matplotlib.axis_6">
    <g id="ytick_8">
     <g id="line2d_79">
      <g>
       <use xlink:href="#mfcdbeced1f" x="122.216483" y="1011.008" style="stroke: #000000; stroke-width: 0.8"/>
      </g>
     </g>
     <g id="text_20">
      <!-- $\mathdefault{10^{-18}}$ -->
      <g transform="translate(31.516483 1022.405656)scale(0.3 -0.3)">
       <use xlink:href="#DejaVuSans-31" transform="translate(0 0.765625)"/>
       <use xlink:href="#DejaVuSans-30" transform="translate(63.623047 0.765625)"/>
       <use xlink:href="#DejaVuSans-2212" transform="translate(128.203125 39.046875)scale(0.7)"/>
       <use xlink:href="#DejaVuSans-31" transform="translate(186.855469 39.046875)scale(0.7)"/>
       <use xlink:href="#DejaVuSans-38" transform="translate(231.391602 39.046875)scale(0.7)"/>
      </g>
     </g>
    </g>
    <g id="ytick_9">
     <g id="line2d_80">
      <g>
       <use xlink:href="#mfcdbeced1f" x="122.216483" y="929.2568" style="stroke: #000000; stroke-width: 0.8"/>
      </g>
     </g>
     <g id="text_21">
      <!-- $\mathdefault{10^{-15}}$ -->
      <g transform="translate(31.516483 940.654456)scale(0.3 -0.3)">
       <defs>
        <path id="DejaVuSans-35" d="M 691 4666 
L 3169 4666 
L 3169 4134 
L 1269 4134 
L 1269 2991 
Q 1406 3038 1543 3061 
Q 1681 3084 1819 3084 
Q 2600 3084 3056 2656 
Q 3513 2228 3513 1497 
Q 3513 744 3044 326 
Q 2575 -91 1722 -91 
Q 1428 -91 1123 -41 
Q 819 9 494 109 
L 494 744 
Q 775 591 1075 516 
Q 1375 441 1709 441 
Q 2250 441 2565 725 
Q 2881 1009 2881 1497 
Q 2881 1984 2565 2268 
Q 2250 2553 1709 2553 
Q 1456 2553 1204 2497 
Q 953 2441 691 2322 
L 691 4666 
z
" transform="scale(0.015625)"/>
       </defs>
       <use xlink:href="#DejaVuSans-31" transform="translate(0 0.684375)"/>
       <use xlink:href="#DejaVuSans-30" transform="translate(63.623047 0.684375)"/>
       <use xlink:href="#DejaVuSans-2212" transform="translate(128.203125 38.965625)scale(0.7)"/>
       <use xlink:href="#DejaVuSans-31" transform="translate(186.855469 38.965625)scale(0.7)"/>
       <use xlink:href="#DejaVuSans-35" transform="translate(231.391602 38.965625)scale(0.7)"/>
      </g>
     </g>
    </g>
    <g id="ytick_10">
     <g id="line2d_81">
      <g>
       <use xlink:href="#mfcdbeced1f" x="122.216483" y="847.5056" style="stroke: #000000; stroke-width: 0.8"/>
      </g>
     </g>
     <g id="text_22">
      <!-- $\mathdefault{10^{-12}}$ -->
      <g transform="translate(31.516483 858.903256)scale(0.3 -0.3)">
       <use xlink:href="#DejaVuSans-31" transform="translate(0 0.765625)"/>
       <use xlink:href="#DejaVuSans-30" transform="translate(63.623047 0.765625)"/>
       <use xlink:href="#DejaVuSans-2212" transform="translate(128.203125 39.046875)scale(0.7)"/>
       <use xlink:href="#DejaVuSans-31" transform="translate(186.855469 39.046875)scale(0.7)"/>
       <use xlink:href="#DejaVuSans-32" transform="translate(231.391602 39.046875)scale(0.7)"/>
      </g>
     </g>
    </g>
    <g id="ytick_11">
     <g id="line2d_82">
      <g>
       <use xlink:href="#mfcdbeced1f" x="122.216483" y="765.7544" style="stroke: #000000; stroke-width: 0.8"/>
      </g>
     </g>
     <g id="text_23">
      <!-- $\mathdefault{10^{-9}}$ -->
      <g transform="translate(44.716483 777.152056)scale(0.3 -0.3)">
       <defs>
        <path id="DejaVuSans-39" d="M 703 97 
L 703 672 
Q 941 559 1184 500 
Q 1428 441 1663 441 
Q 2288 441 2617 861 
Q 2947 1281 2994 2138 
Q 2813 1869 2534 1725 
Q 2256 1581 1919 1581 
Q 1219 1581 811 2004 
Q 403 2428 403 3163 
Q 403 3881 828 4315 
Q 1253 4750 1959 4750 
Q 2769 4750 3195 4129 
Q 3622 3509 3622 2328 
Q 3622 1225 3098 567 
Q 2575 -91 1691 -91 
Q 1453 -91 1209 -44 
Q 966 3 703 97 
z
M 1959 2075 
Q 2384 2075 2632 2365 
Q 2881 2656 2881 3163 
Q 2881 3666 2632 3958 
Q 2384 4250 1959 4250 
Q 1534 4250 1286 3958 
Q 1038 3666 1038 3163 
Q 1038 2656 1286 2365 
Q 1534 2075 1959 2075 
z
" transform="scale(0.015625)"/>
       </defs>
       <use xlink:href="#DejaVuSans-31" transform="translate(0 0.765625)"/>
       <use xlink:href="#DejaVuSans-30" transform="translate(63.623047 0.765625)"/>
       <use xlink:href="#DejaVuSans-2212" transform="translate(128.203125 39.046875)scale(0.7)"/>
       <use xlink:href="#DejaVuSans-39" transform="translate(186.855469 39.046875)scale(0.7)"/>
      </g>
     </g>
    </g>
   </g>
   <g id="line2d_83">
    <path d="M -1 749.611816 
L 47.328875 749.857352 
L 78.893474 750.233051 
L 106.433368 750.782866 
L 150.662895 751.729162 
L 161.560454 751.680469 
L 170.278683 751.424556 
L 178.918503 750.938292 
L 193.807732 750.008243 
L 197.286805 750.072038 
L 200.024299 750.334249 
L 202.380963 750.766238 
L 204.669799 751.411094 
L 206.894604 752.281499 
L 209.058862 753.376068 
L 211.165781 754.679604 
L 213.471206 756.362921 
L 215.95677 758.446966 
L 218.840406 761.152244 
L 222.529488 764.937026 
L 227.971526 770.880169 
L 241.30614 785.539998 
L 247.630992 792.110068 
L 253.489696 797.879038 
L 259.088674 803.080636 
L 264.452385 807.76215 
L 269.726418 812.068799 
L 274.905928 816.010544 
L 280.097064 819.682047 
L 285.379987 823.148256 
L 291.003283 826.567309 
L 297.053531 829.978936 
L 303.819059 833.531894 
L 311.906151 837.518089 
L 323.091657 842.762284 
L 355.466083 857.81586 
L 368.700019 864.291286 
L 381.765126 870.9331 
L 395.403818 878.118787 
L 410.168547 886.153688 
L 426.5586 895.331584 
L 445.081314 905.964266 
L 465.720255 918.071962 
L 487.214363 930.93825 
L 507.450986 943.305913 
L 525.414411 954.539218 
L 541.288143 964.7232 
L 555.602657 974.167481 
L 568.837422 983.163364 
L 577 988.854334 
M 577 988.854334 
L 564.40198 980.117819 
L 551.125924 971.184146 
L 536.799778 961.815457 
L 520.979572 951.739999 
L 503.178426 940.671819 
L 483.161713 928.492295 
L 461.692067 915.68946 
L 440.795748 903.482819 
L 422.01372 892.762562 
L 405.477257 883.574473 
L 390.678303 875.601542 
L 377.000581 868.482515 
L 363.896374 861.911737 
L 350.620687 855.505563 
L 335.169508 848.309131 
L 310.725698 836.949693 
L 302.34621 832.778289 
L 295.538598 829.147836 
L 289.561583 825.715314 
L 284.039825 822.293482 
L 278.775179 818.77291 
L 273.612703 815.052845 
L 268.471951 811.071304 
L 263.246323 806.735778 
L 257.942253 802.041311 
L 252.413891 796.844043 
L 246.638902 791.101944 
L 240.411512 784.584884 
L 233.064916 776.552385 
L 221.394924 763.743105 
L 217.651571 760.004384 
L 214.723697 757.380838 
L 212.198674 755.401857 
L 209.855512 753.841615 
L 207.713118 752.666227 
L 205.511411 751.710822 
L 203.247014 750.982142 
L 200.916252 750.472634 
L 198.209812 750.13562 
L 195.090527 750.003865 
L 191.17835 750.091007 
L 184.923738 750.497718 
L 172.422521 751.325544 
L 163.948969 751.632497 
L 154.463761 751.739846 
L 142.46858 751.633085 
L 123.007849 751.196812 
L 85.470076 750.344279 
L 56.922608 749.947011 
L 20.97552 749.690446 
L -1 749.611816 
L -1 749.611816 
" clip-path="url(#pa6d0a05e10)" style="fill: none; stroke: #000000; stroke-width: 2.5; stroke-linecap: square"/>
   </g>
   <g id="line2d_84">
    <path d="M -1 789.383679 
L 34.042801 789.675734 
L 58.70991 790.092142 
L 77.510281 790.615897 
L 93.849564 791.288272 
L 108.349884 792.113639 
L 121.417164 793.089277 
L 133.331971 794.205868 
L 144.296972 795.448826 
L 154.992212 796.875764 
L 165.809441 798.543196 
L 176.54425 800.42229 
L 187.414863 802.547418 
L 198.819252 805.004962 
L 210.644261 807.781639 
L 223.202537 810.962728 
L 236.351014 814.526706 
L 249.898849 818.430898 
L 263.515922 822.585196 
L 276.864082 826.887026 
L 289.755327 831.273324 
L 302.015173 835.677159 
L 313.787786 840.14072 
L 325.164053 844.690829 
L 336.309182 849.387105 
L 347.452777 854.324945 
L 358.743206 859.572985 
L 370.367706 865.223252 
L 382.612502 871.424952 
L 395.761838 878.337736 
L 410.189832 886.178541 
L 426.367814 895.229211 
L 444.723682 905.759054 
L 465.253046 917.796 
L 486.719948 930.639624 
L 506.998637 943.026515 
L 525.013546 954.285482 
L 540.931176 964.491091 
L 555.273702 973.947301 
L 568.529924 982.951192 
L 577 988.85434 
M 577 988.85434 
L 564.40198 980.117828 
L 551.125924 971.18416 
L 536.799778 961.815485 
L 520.979572 951.740056 
L 503.185036 940.676016 
L 483.178716 928.502884 
L 461.736604 915.716749 
L 440.897071 903.544159 
L 422.233522 892.893558 
L 405.882686 883.812722 
L 391.355402 875.994341 
L 378.186923 869.155583 
L 365.927077 863.036294 
L 354.271381 857.465345 
L 342.972976 852.310719 
L 331.820315 847.466646 
L 320.636385 842.851043 
L 309.225057 838.382153 
L 297.40583 833.993399 
L 285.072717 829.652362 
L 272.177508 825.349896 
L 258.803614 821.121365 
L 245.127168 817.029651 
L 231.671336 813.23213 
L 218.604056 809.771563 
L 206.067578 806.680661 
L 194.130376 803.967293 
L 182.724568 801.603677 
L 171.571908 799.524305 
L 160.584594 797.70939 
L 150.104776 796.196693 
L 139.32463 794.858375 
L 128.337316 793.709474 
L 116.444822 792.689326 
L 103.469115 791.808204 
L 89.169886 791.070823 
L 73.21023 790.475635 
L 55.094216 790.01493 
L 31.595482 789.646277 
L -1 789.383679 
L -1 789.383679 
" clip-path="url(#pa6d0a05e10)" style="fill: none; stroke: #008000; stroke-opacity: 0.5; stroke-width: 2.5; stroke-linecap: square"/>
   </g>
   <g id="line2d_85">
    <path d="M -1 750.029945 
L 47.328875 750.266923 
L 80.253021 750.6492 
L 109.291097 751.21745 
L 147.253877 751.987644 
L 158.596201 751.971263 
L 167.627385 751.745784 
L 176.141558 751.305273 
L 195.408019 750.128967 
L 198.515116 750.278101 
L 201.21136 750.638705 
L 203.533614 751.174724 
L 205.789981 751.933837 
L 207.984094 752.922027 
L 210.119298 754.130992 
L 212.454814 755.728462 
L 214.971846 757.747122 
L 217.651571 760.185982 
L 220.936527 763.49064 
L 225.188172 768.106404 
L 232.669236 776.625934 
L 245.127168 790.770856 
L 254.400373 800.938909 
L 264.58527 811.769116 
L 277.091315 824.72837 
L 297.053531 845.04554 
L 323.028006 871.54861 
L 339.010814 888.186507 
L 353.710537 903.80939 
L 368.268562 919.607904 
L 383.421152 936.383874 
L 399.864235 954.926838 
L 418.545906 976.33914 
L 440.983817 1002.408719 
L 470.506943 1037.072967 
L 507.700465 1081 
M 507.700465 1081 
L 447.060218 1009.516721 
L 421.424595 979.665137 
L 401.257455 956.512162 
L 384.014896 937.047657 
L 368.44862 919.805318 
L 353.710537 903.80939 
L 339.114912 888.296008 
L 323.725378 872.267887 
L 305.344699 853.461938 
L 268.218665 815.565441 
L 256.925397 803.6535 
L 247.301669 793.184792 
L 238.037259 782.775742 
L 221.623135 764.215043 
L 217.890764 760.416114 
L 214.971846 757.747122 
L 212.454814 755.728462 
L 210.119298 754.130992 
L 207.984094 752.922027 
L 205.789981 751.933837 
L 203.533614 751.174724 
L 201.21136 750.638705 
L 198.819252 750.306633 
L 196.039225 750.140621 
L 192.503906 750.167334 
L 187.414863 750.460582 
L 169.842893 751.653559 
L 161.560454 751.921961 
L 151.767518 752.009211 
L 139.32463 751.886105 
L 117.295435 751.405448 
L 82.904319 750.69171 
L 53.222798 750.317863 
L 15.081597 750.081461 
L -1 750.029945 
L -1 750.029945 
" clip-path="url(#pa6d0a05e10)" style="fill: none; stroke: #0000ff; stroke-opacity: 0.5; stroke-width: 2.5; stroke-linecap: square"/>
   </g>
   <g id="line2d_86">
    <path d="M 280.315258 1011.008 
L 280.315258 738.504 
" clip-path="url(#pa6d0a05e10)" style="fill: none; stroke-dasharray: 5.55,2.4; stroke-dashoffset: 0; stroke: #808080; stroke-width: 1.5"/>
   </g>
   <g id="patch_16">
    <path d="M 122.216483 1011.008 
L 122.216483 738.504 
" style="fill: none; stroke: #000000; stroke-width: 0.8; stroke-linejoin: miter; stroke-linecap: square"/>
   </g>
   <g id="patch_17">
    <path d="M 122.216483 1011.008 
L 543.6 1011.008 
" style="fill: none; stroke: #000000; stroke-width: 0.8; stroke-linejoin: miter; stroke-linecap: square"/>
   </g>
  </g>
 </g>
 <defs>
  <clipPath id="p9e8387235d">
   <rect x="122.216483" y="32.4" width="421.383517" height="272.504"/>
  </clipPath>
  <clipPath id="p36727fdc56">
   <rect x="122.216483" y="385.452" width="421.383517" height="272.504"/>
  </clipPath>
  <clipPath id="pa6d0a05e10">
   <rect x="122.216483" y="738.504" width="421.383517" height="272.504"/>
  </clipPath>
 </defs>
</svg>
