<?xml version="1.0" encoding="utf-8" standalone="no"?>
<!DOCTYPE svg PUBLIC "-//W3C//DTD SVG 1.1//EN"
  "http://www.w3.org/Graphics/SVG/1.1/DTD/svg11.dtd">
<svg xmlns:xlink="http://www.w3.org/1999/xlink" width="1069.4pt" height="280.512pt" viewBox="0 0 1069.4 280.512" xmlns="http://www.w3.org/2000/svg" version="1.1">
 <metadata>
  <rdf:RDF xmlns:dc="http://purl.org/dc/elements/1.1/" xmlns:cc="http://creativecommons.org/ns#" xmlns:rdf="http://www.w3.org/1999/02/22-rdf-syntax-ns#">
   <cc:Work>
    <dc:type rdf:resource="http://purl.org/dc/dcmitype/StillImage"/>
    <dc:date>2024-06-14T13:06:59.253565</dc:date>
    <dc:format>image/svg+xml</dc:format>
    <dc:creator>
     <cc:Agent>
      <dc:title>Matplotlib v3.5.3, https://matplotlib.org/</dc:title>
     </cc:Agent>
    </dc:creator>
   </cc:Work>
  </rdf:RDF>
 </metadata>
 <defs>
  <style type="text/css">*{stroke-linejoin: round; stroke-linecap: butt}</style>
 </defs>
 <g id="figure_1">
  <g id="patch_1">
   <path d="M 0 280.512 
L 1069.4 280.512 
L 1069.4 0 
L 0 0 
L 0 280.512 
z
" style="fill: none"/>
  </g>
  <g id="axes_1">
   <g id="text_1">
    <!-- $X(t) \circledast h^{(PSP)}(t) \circledast h^{(LP)}(t)$ -->
    <g transform="translate(7.2 172.459125)scale(1 -1)">
     <defs>
      <path id="DejaVuSans-Oblique-58" d="M 878 4666 
L 1516 4666 
L 2316 2981 
L 3763 4666 
L 4500 4666 
L 2578 2438 
L 3738 0 
L 3103 0 
L 2163 1966 
L 459 0 
L -275 0 
L 1906 2509 
L 878 4666 
z
" transform="scale(0.015625)"/>
      <path id="DejaVuSans-28" d="M 1984 4856 
Q 1566 4138 1362 3434 
Q 1159 2731 1159 2009 
Q 1159 1288 1364 580 
Q 1569 -128 1984 -844 
L 1484 -844 
Q 1016 -109 783 600 
Q 550 1309 550 2009 
Q 550 2706 781 3412 
Q 1013 4119 1484 4856 
L 1984 4856 
z
" transform="scale(0.015625)"/>
      <path id="DejaVuSans-Oblique-74" d="M 2706 3500 
L 2619 3053 
L 1472 3053 
L 1100 1153 
Q 1081 1047 1072 975 
Q 1063 903 1063 863 
Q 1063 663 1183 572 
Q 1303 481 1569 481 
L 2150 481 
L 2053 0 
L 1503 0 
Q 991 0 739 200 
Q 488 400 488 806 
Q 488 878 497 964 
Q 506 1050 525 1153 
L 897 3053 
L 409 3053 
L 500 3500 
L 978 3500 
L 1172 4494 
L 1747 4494 
L 1556 3500 
L 2706 3500 
z
" transform="scale(0.015625)"/>
      <path id="DejaVuSans-29" d="M 513 4856 
L 1013 4856 
Q 1481 4119 1714 3412 
Q 1947 2706 1947 2009 
Q 1947 1309 1714 600 
Q 1481 -109 1013 -844 
L 513 -844 
Q 928 -128 1133 580 
Q 1338 1288 1338 2009 
Q 1338 2731 1133 3434 
Q 928 4138 513 4856 
z
" transform="scale(0.015625)"/>
      <path id="DejaVuSans-229b" d="M 3950 2553 
L 2941 2006 
L 3950 1456 
L 3788 1181 
L 2841 1753 
L 2841 694 
L 2522 694 
L 2522 1753 
L 1575 1181 
L 1413 1456 
L 2422 2006 
L 1413 2553 
L 1575 2831 
L 2522 2259 
L 2522 3319 
L 2841 3319 
L 2841 2259 
L 3788 2831 
L 3950 2553 
z
M 3306 3522 
Q 3016 3644 2681 3644 
Q 2347 3644 2056 3522 
Q 1769 3400 1531 3163 
Q 1291 2922 1172 2634 
Q 1053 2347 1053 2006 
Q 1053 1675 1172 1387 
Q 1291 1100 1531 859 
Q 1769 622 2056 500 
Q 2347 378 2681 378 
Q 3016 378 3306 500 
Q 3594 622 3831 859 
Q 4072 1100 4190 1387 
Q 4309 1675 4309 2006 
Q 4309 2347 4190 2634 
Q 4072 2922 3831 3163 
Q 3594 3400 3306 3522 
z
M 1878 3956 
Q 2250 4113 2681 4113 
Q 3113 4113 3484 3956 
Q 3856 3800 4163 3494 
Q 4472 3184 4625 2813 
Q 4778 2444 4778 2006 
Q 4778 1578 4625 1206 
Q 4472 838 4163 528 
Q 3856 222 3484 65 
Q 3113 -91 2681 -91 
Q 2250 -91 1878 65 
Q 1506 222 1200 528 
Q 891 838 738 1206 
Q 584 1578 584 2006 
Q 584 2444 738 2813 
Q 891 3184 1200 3494 
Q 1506 3800 1878 3956 
z
" transform="scale(0.015625)"/>
      <path id="DejaVuSans-Oblique-68" d="M 3566 2113 
L 3156 0 
L 2578 0 
L 2988 2091 
Q 3016 2238 3031 2350 
Q 3047 2463 3047 2528 
Q 3047 2791 2881 2937 
Q 2716 3084 2419 3084 
Q 1956 3084 1617 2771 
Q 1278 2459 1178 1941 
L 800 0 
L 225 0 
L 1172 4863 
L 1747 4863 
L 1375 2950 
Q 1594 3244 1934 3414 
Q 2275 3584 2650 3584 
Q 3113 3584 3367 3334 
Q 3622 3084 3622 2631 
Q 3622 2519 3608 2391 
Q 3594 2263 3566 2113 
z
" transform="scale(0.015625)"/>
      <path id="DejaVuSans-Oblique-50" d="M 1081 4666 
L 2541 4666 
Q 3178 4666 3512 4369 
Q 3847 4072 3847 3500 
Q 3847 2731 3353 2303 
Q 2859 1875 1966 1875 
L 1172 1875 
L 806 0 
L 172 0 
L 1081 4666 
z
M 1613 4147 
L 1275 2394 
L 2069 2394 
Q 2606 2394 2893 2669 
Q 3181 2944 3181 3456 
Q 3181 3784 2986 3965 
Q 2791 4147 2438 4147 
L 1613 4147 
z
" transform="scale(0.015625)"/>
      <path id="DejaVuSans-Oblique-53" d="M 3859 4513 
L 3738 3897 
Q 3422 4066 3111 4152 
Q 2800 4238 2509 4238 
Q 1944 4238 1609 3991 
Q 1275 3744 1275 3334 
Q 1275 3109 1398 2989 
Q 1522 2869 2034 2731 
L 2413 2638 
Q 3053 2472 3303 2217 
Q 3553 1963 3553 1503 
Q 3553 797 2998 353 
Q 2444 -91 1538 -91 
Q 1166 -91 791 -17 
Q 416 56 38 206 
L 166 856 
Q 513 641 861 531 
Q 1209 422 1556 422 
Q 2147 422 2503 684 
Q 2859 947 2859 1369 
Q 2859 1650 2717 1795 
Q 2575 1941 2106 2059 
L 1728 2156 
Q 1081 2325 845 2545 
Q 609 2766 609 3163 
Q 609 3859 1145 4304 
Q 1681 4750 2541 4750 
Q 2875 4750 3203 4690 
Q 3531 4631 3859 4513 
z
" transform="scale(0.015625)"/>
      <path id="DejaVuSans-Oblique-4c" d="M 1075 4666 
L 1709 4666 
L 909 525 
L 3181 525 
L 3078 0 
L 172 0 
L 1075 4666 
z
" transform="scale(0.015625)"/>
     </defs>
     <use xlink:href="#DejaVuSans-Oblique-58" transform="translate(0 0.60625)"/>
     <use xlink:href="#DejaVuSans-28" transform="translate(68.505859 0.60625)"/>
     <use xlink:href="#DejaVuSans-Oblique-74" transform="translate(107.519531 0.60625)"/>
     <use xlink:href="#DejaVuSans-29" transform="translate(146.728516 0.60625)"/>
     <use xlink:href="#DejaVuSans-229b" transform="translate(185.742188 0.60625)"/>
     <use xlink:href="#DejaVuSans-Oblique-68" transform="translate(269.53125 0.60625)"/>
     <use xlink:href="#DejaVuSans-28" transform="translate(340.357865 38.8875)scale(0.7)"/>
     <use xlink:href="#DejaVuSans-Oblique-50" transform="translate(367.667435 38.8875)scale(0.7)"/>
     <use xlink:href="#DejaVuSans-Oblique-53" transform="translate(409.879349 38.8875)scale(0.7)"/>
     <use xlink:href="#DejaVuSans-Oblique-50" transform="translate(454.312943 38.8875)scale(0.7)"/>
     <use xlink:href="#DejaVuSans-29" transform="translate(496.524857 38.8875)scale(0.7)"/>
     <use xlink:href="#DejaVuSans-28" transform="translate(526.568802 0.60625)"/>
     <use xlink:href="#DejaVuSans-Oblique-74" transform="translate(565.582474 0.60625)"/>
     <use xlink:href="#DejaVuSans-29" transform="translate(604.791458 0.60625)"/>
     <use xlink:href="#DejaVuSans-229b" transform="translate(643.80513 0.60625)"/>
     <use xlink:href="#DejaVuSans-Oblique-68" transform="translate(727.594193 0.60625)"/>
     <use xlink:href="#DejaVuSans-28" transform="translate(798.420807 38.8875)scale(0.7)"/>
     <use xlink:href="#DejaVuSans-Oblique-4c" transform="translate(825.730378 38.8875)scale(0.7)"/>
     <use xlink:href="#DejaVuSans-Oblique-50" transform="translate(864.729401 38.8875)scale(0.7)"/>
     <use xlink:href="#DejaVuSans-29" transform="translate(906.941315 38.8875)scale(0.7)"/>
     <use xlink:href="#DejaVuSans-28" transform="translate(936.98526 0.60625)"/>
     <use xlink:href="#DejaVuSans-Oblique-74" transform="translate(975.998932 0.60625)"/>
     <use xlink:href="#DejaVuSans-29" transform="translate(1015.207917 0.60625)"/>
    </g>
   </g>
  </g>
 </g>
</svg>
